<svg xmlns="http://www.w3.org/2000/svg" width="1000" height="600" viewBox="0 0 1000 600">
<rect width="100%" height="100%" fill="#ffffff"/>
<rect x="151.92" y="50.00" width="26.97" height="470.00" fill="#cfe8ff" fill-opacity="0.6"/>
<rect x="394.65" y="50.00" width="53.94" height="470.00" fill="#cfe8ff" fill-opacity="0.6"/>
<rect x="826.16" y="50.00" width="17.98" height="470.00" fill="#cfe8ff" fill-opacity="0.6"/>
<line x1="80" y1="520" x2="970" y2="520" stroke="#333"/>
<line x1="80" y1="50" x2="80" y2="520" stroke="#333"/>
<line x1="80.00" y1="520" x2="80.00" y2="526" stroke="#333"/>
<text x="80.00" y="542" text-anchor="middle" font-family="Arial" font-size="11">1999-03-31</text>
<line x1="178.89" y1="520" x2="178.89" y2="526" stroke="#333"/>
<text x="178.89" y="542" text-anchor="middle" font-family="Arial" font-size="11">2001-12-31</text>
<line x1="277.78" y1="520" x2="277.78" y2="526" stroke="#333"/>
<text x="277.78" y="542" text-anchor="middle" font-family="Arial" font-size="11">2004-09-30</text>
<line x1="376.67" y1="520" x2="376.67" y2="526" stroke="#333"/>
<text x="376.67" y="542" text-anchor="middle" font-family="Arial" font-size="11">2007-06-30</text>
<line x1="475.56" y1="520" x2="475.56" y2="526" stroke="#333"/>
<text x="475.56" y="542" text-anchor="middle" font-family="Arial" font-size="11">2010-03-31</text>
<line x1="574.44" y1="520" x2="574.44" y2="526" stroke="#333"/>
<text x="574.44" y="542" text-anchor="middle" font-family="Arial" font-size="11">2012-12-31</text>
<line x1="673.33" y1="520" x2="673.33" y2="526" stroke="#333"/>
<text x="673.33" y="542" text-anchor="middle" font-family="Arial" font-size="11">2015-09-30</text>
<line x1="772.22" y1="520" x2="772.22" y2="526" stroke="#333"/>
<text x="772.22" y="542" text-anchor="middle" font-family="Arial" font-size="11">2018-06-30</text>
<line x1="871.11" y1="520" x2="871.11" y2="526" stroke="#333"/>
<text x="871.11" y="542" text-anchor="middle" font-family="Arial" font-size="11">2021-03-31</text>
<line x1="970.00" y1="520" x2="970.00" y2="526" stroke="#333"/>
<text x="970.00" y="542" text-anchor="middle" font-family="Arial" font-size="11">2023-12-31</text>
<line x1="74" y1="520.00" x2="80" y2="520.00" stroke="#333"/>
<text x="70" y="524.00" text-anchor="end" font-family="Arial" font-size="12">0.004</text>
<line x1="74" y1="426.00" x2="80" y2="426.00" stroke="#333"/>
<text x="70" y="430.00" text-anchor="end" font-family="Arial" font-size="12">0.030</text>
<line x1="74" y1="332.00" x2="80" y2="332.00" stroke="#333"/>
<text x="70" y="336.00" text-anchor="end" font-family="Arial" font-size="12">0.055</text>
<line x1="74" y1="238.00" x2="80" y2="238.00" stroke="#333"/>
<text x="70" y="242.00" text-anchor="end" font-family="Arial" font-size="12">0.080</text>
<line x1="74" y1="144.00" x2="80" y2="144.00" stroke="#333"/>
<text x="70" y="148.00" text-anchor="end" font-family="Arial" font-size="12">0.105</text>
<line x1="74" y1="50.00" x2="80" y2="50.00" stroke="#333"/>
<text x="70" y="54.00" text-anchor="end" font-family="Arial" font-size="12">0.130</text>
<polyline fill="none" stroke="#1f77b4" stroke-width="2" points="80.00,480.83 88.99,479.20 97.98,473.73 106.97,475.83 115.96,475.28 124.95,472.89 133.94,468.54 142.93,472.97 151.92,473.95 160.91,473.54 169.90,469.60 178.89,467.08 187.88,464.06 196.87,455.75 205.86,454.64 214.85,451.97 223.84,454.68 232.83,451.60 241.82,450.83 250.81,449.25 259.80,427.21 268.79,424.57 277.78,419.65 286.77,416.23 295.76,415.40 304.75,418.28 313.74,417.37 322.73,429.81 331.72,427.45 340.71,427.44 349.70,423.96 358.69,422.77 367.68,417.60 376.67,419.57 385.66,413.37 394.65,407.82 403.64,405.08 412.63,398.16 421.62,394.39 430.61,372.93 439.60,361.27 448.59,361.13 457.58,363.80 466.57,353.83 475.56,350.32 484.55,346.29 493.54,346.41 502.53,336.29 511.52,334.06 520.51,331.00 529.49,331.70 538.48,324.63 547.47,320.86 556.46,321.53 565.45,311.38 574.44,311.40 583.43,311.67 592.42,306.01 601.41,296.95 610.40,295.16 619.39,290.29 628.38,293.39 637.37,292.41 646.36,280.91 655.35,259.28 664.34,270.88 673.33,269.58 682.32,260.83 691.31,259.97 700.30,250.95 709.29,217.07 718.28,221.62 727.27,207.61 736.26,201.08 745.25,195.47 754.24,177.66 763.23,180.76 772.22,167.27 781.21,155.57 790.20,149.04 799.19,141.58 808.18,141.11 817.17,137.00 826.16,129.95 835.15,129.13 844.14,127.40 853.13,138.88 862.12,137.45 871.11,138.26 880.10,138.55 889.09,145.74 898.08,145.41 907.07,136.64 916.06,126.28 925.05,118.23 934.04,103.67 943.03,106.83 952.02,103.20 961.01,103.89 970.00,89.17"/>
<polyline fill="none" stroke="#ff7f0e" stroke-width="2" points="80.00,474.92 88.99,472.31 97.98,466.78 106.97,480.51 115.96,480.23 124.95,480.07 133.94,473.71 142.93,478.45 151.92,477.98 160.91,477.27 169.90,472.17 178.89,468.35 187.88,466.84 196.87,452.81 205.86,452.07 214.85,448.77 223.84,450.00 232.83,451.53 241.82,454.94 250.81,453.79 259.80,431.50 268.79,427.94 277.78,424.51 286.77,424.09 295.76,421.53 304.75,423.15 313.74,421.01 322.73,434.60 331.72,430.24 340.71,427.75 349.70,427.74 358.69,425.65 367.68,420.62 376.67,418.74 385.66,412.40 394.65,408.05 403.64,404.24 412.63,398.42 421.62,396.04 430.61,379.54 439.60,368.10 448.59,367.61 457.58,368.93 466.57,361.93 475.56,355.34 484.55,347.61 493.54,346.45 502.53,335.80 511.52,330.42 520.51,328.34 529.49,330.70 538.48,325.59 547.47,320.25 556.46,321.95 565.45,312.11 574.44,309.20 583.43,307.79 592.42,303.39 601.41,295.29 610.40,288.29 619.39,284.38 628.38,284.38 637.37,281.23 646.36,274.73 655.35,260.03 664.34,264.83 673.33,265.21 682.32,254.92 691.31,250.16 700.30,246.39 709.29,228.61 718.28,217.34 727.27,206.16 736.26,201.14 745.25,194.16 754.24,180.12 763.23,185.47 772.22,173.31 781.21,162.84 790.20,154.44 799.19,149.50 808.18,151.60 817.17,145.51 826.16,138.63 835.15,138.67 844.14,140.23 853.13,151.03 862.12,152.25 871.11,165.94 880.10,165.15 889.09,172.84 898.08,177.69 907.07,166.01 916.06,152.51 925.05,136.10 934.04,111.30 943.03,117.74 952.02,119.01 961.01,114.16 970.00,90.44"/>
<text x="500.0" y="580" text-anchor="middle" font-family="Arial" font-size="14">Date (Recession in Blue)</text>
<text x="20" y="300.0" text-anchor="middle" font-family="Arial" font-size="14" transform="rotate(-90 20 300.0)">Index Ownership</text>
<text x="500.0" y="30" text-anchor="middle" font-family="Arial" font-size="16">Index Ownership Over Time</text>
<rect x="700" y="560" width="190" height="50" fill="#fff" stroke="#ccc"/>
<line x1="710" y1="578" x2="740" y2="578" stroke="#1f77b4" stroke-width="2"/>
<text x="745" y="582" font-family="Arial" font-size="12">Mean</text>
<line x1="710" y1="596" x2="740" y2="596" stroke="#ff7f0e" stroke-width="2"/>
<text x="745" y="600" font-family="Arial" font-size="12">Median</text>
</svg>