<svg xmlns="http://www.w3.org/2000/svg" width="900" height="600" viewBox="0 0 900 600">
<rect width="100%" height="100%" fill="#ffffff"/>
<line x1="80" y1="530" x2="870" y2="530" stroke="#333"/>
<line x1="80" y1="50" x2="80" y2="530" stroke="#333"/>
<line x1="80.00" y1="530" x2="80.00" y2="536" stroke="#333"/>
<text x="80.00" y="552" text-anchor="middle" font-family="Arial" font-size="12">10%</text>
<line x1="167.78" y1="530" x2="167.78" y2="536" stroke="#333"/>
<text x="167.78" y="552" text-anchor="middle" font-family="Arial" font-size="12">20%</text>
<line x1="255.56" y1="530" x2="255.56" y2="536" stroke="#333"/>
<text x="255.56" y="552" text-anchor="middle" font-family="Arial" font-size="12">30%</text>
<line x1="343.33" y1="530" x2="343.33" y2="536" stroke="#333"/>
<text x="343.33" y="552" text-anchor="middle" font-family="Arial" font-size="12">40%</text>
<line x1="431.11" y1="530" x2="431.11" y2="536" stroke="#333"/>
<text x="431.11" y="552" text-anchor="middle" font-family="Arial" font-size="12">50%</text>
<line x1="518.89" y1="530" x2="518.89" y2="536" stroke="#333"/>
<text x="518.89" y="552" text-anchor="middle" font-family="Arial" font-size="12">60%</text>
<line x1="606.67" y1="530" x2="606.67" y2="536" stroke="#333"/>
<text x="606.67" y="552" text-anchor="middle" font-family="Arial" font-size="12">70%</text>
<line x1="694.44" y1="530" x2="694.44" y2="536" stroke="#333"/>
<text x="694.44" y="552" text-anchor="middle" font-family="Arial" font-size="12">80%</text>
<line x1="782.22" y1="530" x2="782.22" y2="536" stroke="#333"/>
<text x="782.22" y="552" text-anchor="middle" font-family="Arial" font-size="12">90%</text>
<line x1="870.00" y1="530" x2="870.00" y2="536" stroke="#333"/>
<text x="870.00" y="552" text-anchor="middle" font-family="Arial" font-size="12">100%</text>
<line x1="74" y1="530.00" x2="80" y2="530.00" stroke="#333"/>
<text x="70" y="534.00" text-anchor="end" font-family="Arial" font-size="12">-0.299</text>
<line x1="74" y1="434.00" x2="80" y2="434.00" stroke="#333"/>
<text x="70" y="438.00" text-anchor="end" font-family="Arial" font-size="12">-0.2087</text>
<line x1="74" y1="338.00" x2="80" y2="338.00" stroke="#333"/>
<text x="70" y="342.00" text-anchor="end" font-family="Arial" font-size="12">-0.1183</text>
<line x1="74" y1="242.00" x2="80" y2="242.00" stroke="#333"/>
<text x="70" y="246.00" text-anchor="end" font-family="Arial" font-size="12">-0.02788</text>
<line x1="74" y1="146.00" x2="80" y2="146.00" stroke="#333"/>
<text x="70" y="150.00" text-anchor="end" font-family="Arial" font-size="12">0.0625</text>
<line x1="74" y1="50.00" x2="80" y2="50.00" stroke="#333"/>
<text x="70" y="54.00" text-anchor="end" font-family="Arial" font-size="12">0.1529</text>
<polygon points="80.00,90.00 167.78,197.21 255.56,177.41 343.33,207.22 431.11,209.75 518.89,210.35 606.67,211.72 694.44,210.63 782.22,211.50 870.00,211.92 870.00,212.48 782.22,212.56 694.44,213.76 606.67,215.95 518.89,220.89 431.11,217.25 343.33,218.58 255.56,212.45 167.78,279.91 80.00,490.00" fill="#1f77b4" fill-opacity="0.2" stroke="none"/>
<polyline fill="none" stroke="#1f77b4" stroke-width="2" points="80.00,290.00 167.78,238.56 255.56,194.93 343.33,212.90 431.11,213.50 518.89,215.62 606.67,213.84 694.44,212.19 782.22,212.03 870.00,212.20"/>
<circle cx="80.00" cy="290.00" r="3" fill="#1f77b4"/>
<circle cx="167.78" cy="238.56" r="3" fill="#1f77b4"/>
<circle cx="255.56" cy="194.93" r="3" fill="#1f77b4"/>
<circle cx="343.33" cy="212.90" r="3" fill="#1f77b4"/>
<circle cx="431.11" cy="213.50" r="3" fill="#1f77b4"/>
<circle cx="518.89" cy="215.62" r="3" fill="#1f77b4"/>
<circle cx="606.67" cy="213.84" r="3" fill="#1f77b4"/>
<circle cx="694.44" cy="212.19" r="3" fill="#1f77b4"/>
<circle cx="782.22" cy="212.03" r="3" fill="#1f77b4"/>
<circle cx="870.00" cy="212.20" r="3" fill="#1f77b4"/>
<text x="450.0" y="580" text-anchor="middle" font-family="Arial" font-size="14">market capitalization deciles</text>
<text x="20" y="300.0" text-anchor="middle" font-family="Arial" font-size="14" transform="rotate(-90 20 300.0)">beta_index_owneship</text>
<text x="450.0" y="30" text-anchor="middle" font-family="Arial" font-size="16">Amihud Illiquidity</text>
</svg>