<?xml version="1.0" encoding="utf-8" standalone="no"?>
<!DOCTYPE svg PUBLIC "-//W3C//DTD SVG 1.1//EN"
  "http://www.w3.org/Graphics/SVG/1.1/DTD/svg11.dtd">
<svg xmlns:xlink="http://www.w3.org/1999/xlink" width="1180.533437pt" height="341.661125pt" viewBox="0 0 1180.533437 341.661125" xmlns="http://www.w3.org/2000/svg" version="1.1">
 <metadata>
  <rdf:RDF xmlns:dc="http://purl.org/dc/elements/1.1/" xmlns:cc="http://creativecommons.org/ns#" xmlns:rdf="http://www.w3.org/1999/02/22-rdf-syntax-ns#">
   <cc:Work>
    <dc:type rdf:resource="http://purl.org/dc/dcmitype/StillImage"/>
    <dc:date>2026-03-19T15:00:23.609097</dc:date>
    <dc:format>image/svg+xml</dc:format>
    <dc:creator>
     <cc:Agent>
      <dc:title>Matplotlib v3.10.8, https://matplotlib.org/</dc:title>
     </cc:Agent>
    </dc:creator>
   </cc:Work>
  </rdf:RDF>
 </metadata>
 <defs>
  <style type="text/css">*{stroke-linejoin: round; stroke-linecap: butt}</style>
 </defs>
 <g id="figure_1">
  <g id="patch_1">
   <path d="M 0 341.661125 
L 1180.533437 341.661125 
L 1180.533437 0 
L 0 0 
z
" style="fill: #ffffff"/>
  </g>
  <g id="axes_1">
   <g id="patch_2">
    <path d="M 58.523438 303.82675 
L 397.920104 303.82675 
L 397.920104 50.208 
L 58.523438 50.208 
z
" style="fill: #ffffff"/>
   </g>
   <g id="matplotlib.axis_1">
    <g id="xtick_1">
     <g id="line2d_1">
      <defs>
       <path id="m816da070e4" d="M 0 0 
L 0 3.5 
" style="stroke: #000000; stroke-width: 0.8"/>
      </defs>
      <g>
       <use xlink:href="#m816da070e4" x="59.471886" y="303.82675" style="stroke: #000000; stroke-width: 0.8"/>
      </g>
     </g>
     <g id="text_1">
      <!-- 0.00 -->
      <g transform="translate(48.339073 318.425187) scale(0.1 -0.1)">
       <defs>
        <path id="DejaVuSans-30" d="M 2034 4250 
Q 1547 4250 1301 3770 
Q 1056 3291 1056 2328 
Q 1056 1369 1301 889 
Q 1547 409 2034 409 
Q 2525 409 2770 889 
Q 3016 1369 3016 2328 
Q 3016 3291 2770 3770 
Q 2525 4250 2034 4250 
z
M 2034 4750 
Q 2819 4750 3233 4129 
Q 3647 3509 3647 2328 
Q 3647 1150 3233 529 
Q 2819 -91 2034 -91 
Q 1250 -91 836 529 
Q 422 1150 422 2328 
Q 422 3509 836 4129 
Q 1250 4750 2034 4750 
z
" transform="scale(0.015625)"/>
        <path id="DejaVuSans-2e" d="M 684 794 
L 1344 794 
L 1344 0 
L 684 0 
L 684 794 
z
" transform="scale(0.015625)"/>
       </defs>
       <use xlink:href="#DejaVuSans-30"/>
       <use xlink:href="#DejaVuSans-2e" transform="translate(63.623047 0)"/>
       <use xlink:href="#DejaVuSans-30" transform="translate(95.410156 0)"/>
       <use xlink:href="#DejaVuSans-30" transform="translate(159.033203 0)"/>
      </g>
     </g>
    </g>
    <g id="xtick_2">
     <g id="line2d_2">
      <g>
       <use xlink:href="#m816da070e4" x="130.62459" y="303.82675" style="stroke: #000000; stroke-width: 0.8"/>
      </g>
     </g>
     <g id="text_2">
      <!-- 0.05 -->
      <g transform="translate(119.491777 318.425187) scale(0.1 -0.1)">
       <defs>
        <path id="DejaVuSans-35" d="M 691 4666 
L 3169 4666 
L 3169 4134 
L 1269 4134 
L 1269 2991 
Q 1406 3038 1543 3061 
Q 1681 3084 1819 3084 
Q 2600 3084 3056 2656 
Q 3513 2228 3513 1497 
Q 3513 744 3044 326 
Q 2575 -91 1722 -91 
Q 1428 -91 1123 -41 
Q 819 9 494 109 
L 494 744 
Q 775 591 1075 516 
Q 1375 441 1709 441 
Q 2250 441 2565 725 
Q 2881 1009 2881 1497 
Q 2881 1984 2565 2268 
Q 2250 2553 1709 2553 
Q 1456 2553 1204 2497 
Q 953 2441 691 2322 
L 691 4666 
z
" transform="scale(0.015625)"/>
       </defs>
       <use xlink:href="#DejaVuSans-30"/>
       <use xlink:href="#DejaVuSans-2e" transform="translate(63.623047 0)"/>
       <use xlink:href="#DejaVuSans-30" transform="translate(95.410156 0)"/>
       <use xlink:href="#DejaVuSans-35" transform="translate(159.033203 0)"/>
      </g>
     </g>
    </g>
    <g id="xtick_3">
     <g id="line2d_3">
      <g>
       <use xlink:href="#m816da070e4" x="201.777294" y="303.82675" style="stroke: #000000; stroke-width: 0.8"/>
      </g>
     </g>
     <g id="text_3">
      <!-- 0.10 -->
      <g transform="translate(190.644481 318.425187) scale(0.1 -0.1)">
       <defs>
        <path id="DejaVuSans-31" d="M 794 531 
L 1825 531 
L 1825 4091 
L 703 3866 
L 703 4441 
L 1819 4666 
L 2450 4666 
L 2450 531 
L 3481 531 
L 3481 0 
L 794 0 
L 794 531 
z
" transform="scale(0.015625)"/>
       </defs>
       <use xlink:href="#DejaVuSans-30"/>
       <use xlink:href="#DejaVuSans-2e" transform="translate(63.623047 0)"/>
       <use xlink:href="#DejaVuSans-31" transform="translate(95.410156 0)"/>
       <use xlink:href="#DejaVuSans-30" transform="translate(159.033203 0)"/>
      </g>
     </g>
    </g>
    <g id="xtick_4">
     <g id="line2d_4">
      <g>
       <use xlink:href="#m816da070e4" x="272.929998" y="303.82675" style="stroke: #000000; stroke-width: 0.8"/>
      </g>
     </g>
     <g id="text_4">
      <!-- 0.15 -->
      <g transform="translate(261.797185 318.425187) scale(0.1 -0.1)">
       <use xlink:href="#DejaVuSans-30"/>
       <use xlink:href="#DejaVuSans-2e" transform="translate(63.623047 0)"/>
       <use xlink:href="#DejaVuSans-31" transform="translate(95.410156 0)"/>
       <use xlink:href="#DejaVuSans-35" transform="translate(159.033203 0)"/>
      </g>
     </g>
    </g>
    <g id="xtick_5">
     <g id="line2d_5">
      <g>
       <use xlink:href="#m816da070e4" x="344.082702" y="303.82675" style="stroke: #000000; stroke-width: 0.8"/>
      </g>
     </g>
     <g id="text_5">
      <!-- 0.20 -->
      <g transform="translate(332.949889 318.425187) scale(0.1 -0.1)">
       <defs>
        <path id="DejaVuSans-32" d="M 1228 531 
L 3431 531 
L 3431 0 
L 469 0 
L 469 531 
Q 828 903 1448 1529 
Q 2069 2156 2228 2338 
Q 2531 2678 2651 2914 
Q 2772 3150 2772 3378 
Q 2772 3750 2511 3984 
Q 2250 4219 1831 4219 
Q 1534 4219 1204 4116 
Q 875 4013 500 3803 
L 500 4441 
Q 881 4594 1212 4672 
Q 1544 4750 1819 4750 
Q 2544 4750 2975 4387 
Q 3406 4025 3406 3419 
Q 3406 3131 3298 2873 
Q 3191 2616 2906 2266 
Q 2828 2175 2409 1742 
Q 1991 1309 1228 531 
z
" transform="scale(0.015625)"/>
       </defs>
       <use xlink:href="#DejaVuSans-30"/>
       <use xlink:href="#DejaVuSans-2e" transform="translate(63.623047 0)"/>
       <use xlink:href="#DejaVuSans-32" transform="translate(95.410156 0)"/>
       <use xlink:href="#DejaVuSans-30" transform="translate(159.033203 0)"/>
      </g>
     </g>
    </g>
    <g id="text_6">
     <!-- ind_own -->
     <g transform="translate(207.672552 332.103312) scale(0.1 -0.1)">
      <defs>
       <path id="DejaVuSans-69" d="M 603 3500 
L 1178 3500 
L 1178 0 
L 603 0 
L 603 3500 
z
M 603 4863 
L 1178 4863 
L 1178 4134 
L 603 4134 
L 603 4863 
z
" transform="scale(0.015625)"/>
       <path id="DejaVuSans-6e" d="M 3513 2113 
L 3513 0 
L 2938 0 
L 2938 2094 
Q 2938 2591 2744 2837 
Q 2550 3084 2163 3084 
Q 1697 3084 1428 2787 
Q 1159 2491 1159 1978 
L 1159 0 
L 581 0 
L 581 3500 
L 1159 3500 
L 1159 2956 
Q 1366 3272 1645 3428 
Q 1925 3584 2291 3584 
Q 2894 3584 3203 3211 
Q 3513 2838 3513 2113 
z
" transform="scale(0.015625)"/>
       <path id="DejaVuSans-64" d="M 2906 2969 
L 2906 4863 
L 3481 4863 
L 3481 0 
L 2906 0 
L 2906 525 
Q 2725 213 2448 61 
Q 2172 -91 1784 -91 
Q 1150 -91 751 415 
Q 353 922 353 1747 
Q 353 2572 751 3078 
Q 1150 3584 1784 3584 
Q 2172 3584 2448 3432 
Q 2725 3281 2906 2969 
z
M 947 1747 
Q 947 1113 1208 752 
Q 1469 391 1925 391 
Q 2381 391 2643 752 
Q 2906 1113 2906 1747 
Q 2906 2381 2643 2742 
Q 2381 3103 1925 3103 
Q 1469 3103 1208 2742 
Q 947 2381 947 1747 
z
" transform="scale(0.015625)"/>
       <path id="DejaVuSans-5f" d="M 3263 -1063 
L 3263 -1509 
L -63 -1509 
L -63 -1063 
L 3263 -1063 
z
" transform="scale(0.015625)"/>
       <path id="DejaVuSans-6f" d="M 1959 3097 
Q 1497 3097 1228 2736 
Q 959 2375 959 1747 
Q 959 1119 1226 758 
Q 1494 397 1959 397 
Q 2419 397 2687 759 
Q 2956 1122 2956 1747 
Q 2956 2369 2687 2733 
Q 2419 3097 1959 3097 
z
M 1959 3584 
Q 2709 3584 3137 3096 
Q 3566 2609 3566 1747 
Q 3566 888 3137 398 
Q 2709 -91 1959 -91 
Q 1206 -91 779 398 
Q 353 888 353 1747 
Q 353 2609 779 3096 
Q 1206 3584 1959 3584 
z
" transform="scale(0.015625)"/>
       <path id="DejaVuSans-77" d="M 269 3500 
L 844 3500 
L 1563 769 
L 2278 3500 
L 2956 3500 
L 3675 769 
L 4391 3500 
L 4966 3500 
L 4050 0 
L 3372 0 
L 2619 2869 
L 1863 0 
L 1184 0 
L 269 3500 
z
" transform="scale(0.015625)"/>
      </defs>
      <use xlink:href="#DejaVuSans-69"/>
      <use xlink:href="#DejaVuSans-6e" transform="translate(27.783203 0)"/>
      <use xlink:href="#DejaVuSans-64" transform="translate(91.162109 0)"/>
      <use xlink:href="#DejaVuSans-5f" transform="translate(154.638672 0)"/>
      <use xlink:href="#DejaVuSans-6f" transform="translate(204.638672 0)"/>
      <use xlink:href="#DejaVuSans-77" transform="translate(265.820312 0)"/>
      <use xlink:href="#DejaVuSans-6e" transform="translate(347.607422 0)"/>
     </g>
    </g>
   </g>
   <g id="matplotlib.axis_2">
    <g id="ytick_1">
     <g id="line2d_6">
      <path d="M 58.523438 303.523116 
L 397.920104 303.523116 
" clip-path="url(#pdca08a7239)" style="fill: none; stroke-dasharray: 0.8,1.32; stroke-dashoffset: 0; stroke: #b0b0b0; stroke-opacity: 0.2; stroke-width: 0.8"/>
     </g>
     <g id="line2d_7">
      <defs>
       <path id="mc3aaf852ea" d="M 0 0 
L -3.5 0 
" style="stroke: #000000; stroke-width: 0.8"/>
      </defs>
      <g>
       <use xlink:href="#mc3aaf852ea" x="58.523438" y="303.523116" style="stroke: #000000; stroke-width: 0.8"/>
      </g>
     </g>
     <g id="text_7">
      <!-- −0.03 -->
      <g transform="translate(20.878125 307.322334) scale(0.1 -0.1)">
       <defs>
        <path id="DejaVuSans-2212" d="M 678 2272 
L 4684 2272 
L 4684 1741 
L 678 1741 
L 678 2272 
z
" transform="scale(0.015625)"/>
        <path id="DejaVuSans-33" d="M 2597 2516 
Q 3050 2419 3304 2112 
Q 3559 1806 3559 1356 
Q 3559 666 3084 287 
Q 2609 -91 1734 -91 
Q 1441 -91 1130 -33 
Q 819 25 488 141 
L 488 750 
Q 750 597 1062 519 
Q 1375 441 1716 441 
Q 2309 441 2620 675 
Q 2931 909 2931 1356 
Q 2931 1769 2642 2001 
Q 2353 2234 1838 2234 
L 1294 2234 
L 1294 2753 
L 1863 2753 
Q 2328 2753 2575 2939 
Q 2822 3125 2822 3475 
Q 2822 3834 2567 4026 
Q 2313 4219 1838 4219 
Q 1578 4219 1281 4162 
Q 984 4106 628 3988 
L 628 4550 
Q 988 4650 1302 4700 
Q 1616 4750 1894 4750 
Q 2613 4750 3031 4423 
Q 3450 4097 3450 3541 
Q 3450 3153 3228 2886 
Q 3006 2619 2597 2516 
z
" transform="scale(0.015625)"/>
       </defs>
       <use xlink:href="#DejaVuSans-2212"/>
       <use xlink:href="#DejaVuSans-30" transform="translate(83.789062 0)"/>
       <use xlink:href="#DejaVuSans-2e" transform="translate(147.412109 0)"/>
       <use xlink:href="#DejaVuSans-30" transform="translate(179.199219 0)"/>
       <use xlink:href="#DejaVuSans-33" transform="translate(242.822266 0)"/>
      </g>
     </g>
    </g>
    <g id="ytick_2">
     <g id="line2d_8">
      <path d="M 58.523438 273.288462 
L 397.920104 273.288462 
" clip-path="url(#pdca08a7239)" style="fill: none; stroke-dasharray: 0.8,1.32; stroke-dashoffset: 0; stroke: #b0b0b0; stroke-opacity: 0.2; stroke-width: 0.8"/>
     </g>
     <g id="line2d_9">
      <g>
       <use xlink:href="#mc3aaf852ea" x="58.523438" y="273.288462" style="stroke: #000000; stroke-width: 0.8"/>
      </g>
     </g>
     <g id="text_8">
      <!-- −0.02 -->
      <g transform="translate(20.878125 277.08768) scale(0.1 -0.1)">
       <use xlink:href="#DejaVuSans-2212"/>
       <use xlink:href="#DejaVuSans-30" transform="translate(83.789062 0)"/>
       <use xlink:href="#DejaVuSans-2e" transform="translate(147.412109 0)"/>
       <use xlink:href="#DejaVuSans-30" transform="translate(179.199219 0)"/>
       <use xlink:href="#DejaVuSans-32" transform="translate(242.822266 0)"/>
      </g>
     </g>
    </g>
    <g id="ytick_3">
     <g id="line2d_10">
      <path d="M 58.523438 243.053807 
L 397.920104 243.053807 
" clip-path="url(#pdca08a7239)" style="fill: none; stroke-dasharray: 0.8,1.32; stroke-dashoffset: 0; stroke: #b0b0b0; stroke-opacity: 0.2; stroke-width: 0.8"/>
     </g>
     <g id="line2d_11">
      <g>
       <use xlink:href="#mc3aaf852ea" x="58.523438" y="243.053807" style="stroke: #000000; stroke-width: 0.8"/>
      </g>
     </g>
     <g id="text_9">
      <!-- −0.01 -->
      <g transform="translate(20.878125 246.853026) scale(0.1 -0.1)">
       <use xlink:href="#DejaVuSans-2212"/>
       <use xlink:href="#DejaVuSans-30" transform="translate(83.789062 0)"/>
       <use xlink:href="#DejaVuSans-2e" transform="translate(147.412109 0)"/>
       <use xlink:href="#DejaVuSans-30" transform="translate(179.199219 0)"/>
       <use xlink:href="#DejaVuSans-31" transform="translate(242.822266 0)"/>
      </g>
     </g>
    </g>
    <g id="ytick_4">
     <g id="line2d_12">
      <path d="M 58.523438 212.819153 
L 397.920104 212.819153 
" clip-path="url(#pdca08a7239)" style="fill: none; stroke-dasharray: 0.8,1.32; stroke-dashoffset: 0; stroke: #b0b0b0; stroke-opacity: 0.2; stroke-width: 0.8"/>
     </g>
     <g id="line2d_13">
      <g>
       <use xlink:href="#mc3aaf852ea" x="58.523438" y="212.819153" style="stroke: #000000; stroke-width: 0.8"/>
      </g>
     </g>
     <g id="text_10">
      <!-- 0.00 -->
      <g transform="translate(29.257813 216.618372) scale(0.1 -0.1)">
       <use xlink:href="#DejaVuSans-30"/>
       <use xlink:href="#DejaVuSans-2e" transform="translate(63.623047 0)"/>
       <use xlink:href="#DejaVuSans-30" transform="translate(95.410156 0)"/>
       <use xlink:href="#DejaVuSans-30" transform="translate(159.033203 0)"/>
      </g>
     </g>
    </g>
    <g id="ytick_5">
     <g id="line2d_14">
      <path d="M 58.523438 182.584499 
L 397.920104 182.584499 
" clip-path="url(#pdca08a7239)" style="fill: none; stroke-dasharray: 0.8,1.32; stroke-dashoffset: 0; stroke: #b0b0b0; stroke-opacity: 0.2; stroke-width: 0.8"/>
     </g>
     <g id="line2d_15">
      <g>
       <use xlink:href="#mc3aaf852ea" x="58.523438" y="182.584499" style="stroke: #000000; stroke-width: 0.8"/>
      </g>
     </g>
     <g id="text_11">
      <!-- 0.01 -->
      <g transform="translate(29.257813 186.383718) scale(0.1 -0.1)">
       <use xlink:href="#DejaVuSans-30"/>
       <use xlink:href="#DejaVuSans-2e" transform="translate(63.623047 0)"/>
       <use xlink:href="#DejaVuSans-30" transform="translate(95.410156 0)"/>
       <use xlink:href="#DejaVuSans-31" transform="translate(159.033203 0)"/>
      </g>
     </g>
    </g>
    <g id="ytick_6">
     <g id="line2d_16">
      <path d="M 58.523438 152.349845 
L 397.920104 152.349845 
" clip-path="url(#pdca08a7239)" style="fill: none; stroke-dasharray: 0.8,1.32; stroke-dashoffset: 0; stroke: #b0b0b0; stroke-opacity: 0.2; stroke-width: 0.8"/>
     </g>
     <g id="line2d_17">
      <g>
       <use xlink:href="#mc3aaf852ea" x="58.523438" y="152.349845" style="stroke: #000000; stroke-width: 0.8"/>
      </g>
     </g>
     <g id="text_12">
      <!-- 0.02 -->
      <g transform="translate(29.257813 156.149064) scale(0.1 -0.1)">
       <use xlink:href="#DejaVuSans-30"/>
       <use xlink:href="#DejaVuSans-2e" transform="translate(63.623047 0)"/>
       <use xlink:href="#DejaVuSans-30" transform="translate(95.410156 0)"/>
       <use xlink:href="#DejaVuSans-32" transform="translate(159.033203 0)"/>
      </g>
     </g>
    </g>
    <g id="ytick_7">
     <g id="line2d_18">
      <path d="M 58.523438 122.115191 
L 397.920104 122.115191 
" clip-path="url(#pdca08a7239)" style="fill: none; stroke-dasharray: 0.8,1.32; stroke-dashoffset: 0; stroke: #b0b0b0; stroke-opacity: 0.2; stroke-width: 0.8"/>
     </g>
     <g id="line2d_19">
      <g>
       <use xlink:href="#mc3aaf852ea" x="58.523438" y="122.115191" style="stroke: #000000; stroke-width: 0.8"/>
      </g>
     </g>
     <g id="text_13">
      <!-- 0.03 -->
      <g transform="translate(29.257813 125.91441) scale(0.1 -0.1)">
       <use xlink:href="#DejaVuSans-30"/>
       <use xlink:href="#DejaVuSans-2e" transform="translate(63.623047 0)"/>
       <use xlink:href="#DejaVuSans-30" transform="translate(95.410156 0)"/>
       <use xlink:href="#DejaVuSans-33" transform="translate(159.033203 0)"/>
      </g>
     </g>
    </g>
    <g id="ytick_8">
     <g id="line2d_20">
      <path d="M 58.523438 91.880537 
L 397.920104 91.880537 
" clip-path="url(#pdca08a7239)" style="fill: none; stroke-dasharray: 0.8,1.32; stroke-dashoffset: 0; stroke: #b0b0b0; stroke-opacity: 0.2; stroke-width: 0.8"/>
     </g>
     <g id="line2d_21">
      <g>
       <use xlink:href="#mc3aaf852ea" x="58.523438" y="91.880537" style="stroke: #000000; stroke-width: 0.8"/>
      </g>
     </g>
     <g id="text_14">
      <!-- 0.04 -->
      <g transform="translate(29.257813 95.679755) scale(0.1 -0.1)">
       <defs>
        <path id="DejaVuSans-34" d="M 2419 4116 
L 825 1625 
L 2419 1625 
L 2419 4116 
z
M 2253 4666 
L 3047 4666 
L 3047 1625 
L 3713 1625 
L 3713 1100 
L 3047 1100 
L 3047 0 
L 2419 0 
L 2419 1100 
L 313 1100 
L 313 1709 
L 2253 4666 
z
" transform="scale(0.015625)"/>
       </defs>
       <use xlink:href="#DejaVuSans-30"/>
       <use xlink:href="#DejaVuSans-2e" transform="translate(63.623047 0)"/>
       <use xlink:href="#DejaVuSans-30" transform="translate(95.410156 0)"/>
       <use xlink:href="#DejaVuSans-34" transform="translate(159.033203 0)"/>
      </g>
     </g>
    </g>
    <g id="ytick_9">
     <g id="line2d_22">
      <path d="M 58.523438 61.645882 
L 397.920104 61.645882 
" clip-path="url(#pdca08a7239)" style="fill: none; stroke-dasharray: 0.8,1.32; stroke-dashoffset: 0; stroke: #b0b0b0; stroke-opacity: 0.2; stroke-width: 0.8"/>
     </g>
     <g id="line2d_23">
      <g>
       <use xlink:href="#mc3aaf852ea" x="58.523438" y="61.645882" style="stroke: #000000; stroke-width: 0.8"/>
      </g>
     </g>
     <g id="text_15">
      <!-- 0.05 -->
      <g transform="translate(29.257813 65.445101) scale(0.1 -0.1)">
       <use xlink:href="#DejaVuSans-30"/>
       <use xlink:href="#DejaVuSans-2e" transform="translate(63.623047 0)"/>
       <use xlink:href="#DejaVuSans-30" transform="translate(95.410156 0)"/>
       <use xlink:href="#DejaVuSans-35" transform="translate(159.033203 0)"/>
      </g>
     </g>
    </g>
    <g id="text_16">
     <!-- ICE effect relative to own median -->
     <g transform="translate(14.798438 260.408781) rotate(-90) scale(0.1 -0.1)">
      <defs>
       <path id="DejaVuSans-49" d="M 628 4666 
L 1259 4666 
L 1259 0 
L 628 0 
L 628 4666 
z
" transform="scale(0.015625)"/>
       <path id="DejaVuSans-43" d="M 4122 4306 
L 4122 3641 
Q 3803 3938 3442 4084 
Q 3081 4231 2675 4231 
Q 1875 4231 1450 3742 
Q 1025 3253 1025 2328 
Q 1025 1406 1450 917 
Q 1875 428 2675 428 
Q 3081 428 3442 575 
Q 3803 722 4122 1019 
L 4122 359 
Q 3791 134 3420 21 
Q 3050 -91 2638 -91 
Q 1578 -91 968 557 
Q 359 1206 359 2328 
Q 359 3453 968 4101 
Q 1578 4750 2638 4750 
Q 3056 4750 3426 4639 
Q 3797 4528 4122 4306 
z
" transform="scale(0.015625)"/>
       <path id="DejaVuSans-45" d="M 628 4666 
L 3578 4666 
L 3578 4134 
L 1259 4134 
L 1259 2753 
L 3481 2753 
L 3481 2222 
L 1259 2222 
L 1259 531 
L 3634 531 
L 3634 0 
L 628 0 
L 628 4666 
z
" transform="scale(0.015625)"/>
       <path id="DejaVuSans-20" transform="scale(0.015625)"/>
       <path id="DejaVuSans-65" d="M 3597 1894 
L 3597 1613 
L 953 1613 
Q 991 1019 1311 708 
Q 1631 397 2203 397 
Q 2534 397 2845 478 
Q 3156 559 3463 722 
L 3463 178 
Q 3153 47 2828 -22 
Q 2503 -91 2169 -91 
Q 1331 -91 842 396 
Q 353 884 353 1716 
Q 353 2575 817 3079 
Q 1281 3584 2069 3584 
Q 2775 3584 3186 3129 
Q 3597 2675 3597 1894 
z
M 3022 2063 
Q 3016 2534 2758 2815 
Q 2500 3097 2075 3097 
Q 1594 3097 1305 2825 
Q 1016 2553 972 2059 
L 3022 2063 
z
" transform="scale(0.015625)"/>
       <path id="DejaVuSans-66" d="M 2375 4863 
L 2375 4384 
L 1825 4384 
Q 1516 4384 1395 4259 
Q 1275 4134 1275 3809 
L 1275 3500 
L 2222 3500 
L 2222 3053 
L 1275 3053 
L 1275 0 
L 697 0 
L 697 3053 
L 147 3053 
L 147 3500 
L 697 3500 
L 697 3744 
Q 697 4328 969 4595 
Q 1241 4863 1831 4863 
L 2375 4863 
z
" transform="scale(0.015625)"/>
       <path id="DejaVuSans-63" d="M 3122 3366 
L 3122 2828 
Q 2878 2963 2633 3030 
Q 2388 3097 2138 3097 
Q 1578 3097 1268 2742 
Q 959 2388 959 1747 
Q 959 1106 1268 751 
Q 1578 397 2138 397 
Q 2388 397 2633 464 
Q 2878 531 3122 666 
L 3122 134 
Q 2881 22 2623 -34 
Q 2366 -91 2075 -91 
Q 1284 -91 818 406 
Q 353 903 353 1747 
Q 353 2603 823 3093 
Q 1294 3584 2113 3584 
Q 2378 3584 2631 3529 
Q 2884 3475 3122 3366 
z
" transform="scale(0.015625)"/>
       <path id="DejaVuSans-74" d="M 1172 4494 
L 1172 3500 
L 2356 3500 
L 2356 3053 
L 1172 3053 
L 1172 1153 
Q 1172 725 1289 603 
Q 1406 481 1766 481 
L 2356 481 
L 2356 0 
L 1766 0 
Q 1100 0 847 248 
Q 594 497 594 1153 
L 594 3053 
L 172 3053 
L 172 3500 
L 594 3500 
L 594 4494 
L 1172 4494 
z
" transform="scale(0.015625)"/>
       <path id="DejaVuSans-72" d="M 2631 2963 
Q 2534 3019 2420 3045 
Q 2306 3072 2169 3072 
Q 1681 3072 1420 2755 
Q 1159 2438 1159 1844 
L 1159 0 
L 581 0 
L 581 3500 
L 1159 3500 
L 1159 2956 
Q 1341 3275 1631 3429 
Q 1922 3584 2338 3584 
Q 2397 3584 2469 3576 
Q 2541 3569 2628 3553 
L 2631 2963 
z
" transform="scale(0.015625)"/>
       <path id="DejaVuSans-6c" d="M 603 4863 
L 1178 4863 
L 1178 0 
L 603 0 
L 603 4863 
z
" transform="scale(0.015625)"/>
       <path id="DejaVuSans-61" d="M 2194 1759 
Q 1497 1759 1228 1600 
Q 959 1441 959 1056 
Q 959 750 1161 570 
Q 1363 391 1709 391 
Q 2188 391 2477 730 
Q 2766 1069 2766 1631 
L 2766 1759 
L 2194 1759 
z
M 3341 1997 
L 3341 0 
L 2766 0 
L 2766 531 
Q 2569 213 2275 61 
Q 1981 -91 1556 -91 
Q 1019 -91 701 211 
Q 384 513 384 1019 
Q 384 1609 779 1909 
Q 1175 2209 1959 2209 
L 2766 2209 
L 2766 2266 
Q 2766 2663 2505 2880 
Q 2244 3097 1772 3097 
Q 1472 3097 1187 3025 
Q 903 2953 641 2809 
L 641 3341 
Q 956 3463 1253 3523 
Q 1550 3584 1831 3584 
Q 2591 3584 2966 3190 
Q 3341 2797 3341 1997 
z
" transform="scale(0.015625)"/>
       <path id="DejaVuSans-76" d="M 191 3500 
L 800 3500 
L 1894 563 
L 2988 3500 
L 3597 3500 
L 2284 0 
L 1503 0 
L 191 3500 
z
" transform="scale(0.015625)"/>
       <path id="DejaVuSans-6d" d="M 3328 2828 
Q 3544 3216 3844 3400 
Q 4144 3584 4550 3584 
Q 5097 3584 5394 3201 
Q 5691 2819 5691 2113 
L 5691 0 
L 5113 0 
L 5113 2094 
Q 5113 2597 4934 2840 
Q 4756 3084 4391 3084 
Q 3944 3084 3684 2787 
Q 3425 2491 3425 1978 
L 3425 0 
L 2847 0 
L 2847 2094 
Q 2847 2600 2669 2842 
Q 2491 3084 2119 3084 
Q 1678 3084 1418 2786 
Q 1159 2488 1159 1978 
L 1159 0 
L 581 0 
L 581 3500 
L 1159 3500 
L 1159 2956 
Q 1356 3278 1631 3431 
Q 1906 3584 2284 3584 
Q 2666 3584 2933 3390 
Q 3200 3197 3328 2828 
z
" transform="scale(0.015625)"/>
      </defs>
      <use xlink:href="#DejaVuSans-49"/>
      <use xlink:href="#DejaVuSans-43" transform="translate(29.492188 0)"/>
      <use xlink:href="#DejaVuSans-45" transform="translate(99.316406 0)"/>
      <use xlink:href="#DejaVuSans-20" transform="translate(162.5 0)"/>
      <use xlink:href="#DejaVuSans-65" transform="translate(194.287109 0)"/>
      <use xlink:href="#DejaVuSans-66" transform="translate(255.810547 0)"/>
      <use xlink:href="#DejaVuSans-66" transform="translate(291.015625 0)"/>
      <use xlink:href="#DejaVuSans-65" transform="translate(326.220703 0)"/>
      <use xlink:href="#DejaVuSans-63" transform="translate(387.744141 0)"/>
      <use xlink:href="#DejaVuSans-74" transform="translate(442.724609 0)"/>
      <use xlink:href="#DejaVuSans-20" transform="translate(481.933594 0)"/>
      <use xlink:href="#DejaVuSans-72" transform="translate(513.720703 0)"/>
      <use xlink:href="#DejaVuSans-65" transform="translate(552.583984 0)"/>
      <use xlink:href="#DejaVuSans-6c" transform="translate(614.107422 0)"/>
      <use xlink:href="#DejaVuSans-61" transform="translate(641.890625 0)"/>
      <use xlink:href="#DejaVuSans-74" transform="translate(703.169922 0)"/>
      <use xlink:href="#DejaVuSans-69" transform="translate(742.378906 0)"/>
      <use xlink:href="#DejaVuSans-76" transform="translate(770.162109 0)"/>
      <use xlink:href="#DejaVuSans-65" transform="translate(829.341797 0)"/>
      <use xlink:href="#DejaVuSans-20" transform="translate(890.865234 0)"/>
      <use xlink:href="#DejaVuSans-74" transform="translate(922.652344 0)"/>
      <use xlink:href="#DejaVuSans-6f" transform="translate(961.861328 0)"/>
      <use xlink:href="#DejaVuSans-20" transform="translate(1023.042969 0)"/>
      <use xlink:href="#DejaVuSans-6f" transform="translate(1054.830078 0)"/>
      <use xlink:href="#DejaVuSans-77" transform="translate(1116.011719 0)"/>
      <use xlink:href="#DejaVuSans-6e" transform="translate(1197.798828 0)"/>
      <use xlink:href="#DejaVuSans-20" transform="translate(1261.177734 0)"/>
      <use xlink:href="#DejaVuSans-6d" transform="translate(1292.964844 0)"/>
      <use xlink:href="#DejaVuSans-65" transform="translate(1390.376953 0)"/>
      <use xlink:href="#DejaVuSans-64" transform="translate(1451.900391 0)"/>
      <use xlink:href="#DejaVuSans-69" transform="translate(1515.376953 0)"/>
      <use xlink:href="#DejaVuSans-61" transform="translate(1543.160156 0)"/>
      <use xlink:href="#DejaVuSans-6e" transform="translate(1604.439453 0)"/>
     </g>
    </g>
   </g>
   <g id="line2d_24">
    <path d="M 73.950559 207.294814 
L 80.994906 207.294814 
L 82.403776 212.819153 
L 96.492471 212.819153 
L 97.901341 213.015037 
L 382.492983 213.015037 
L 382.492983 213.015037 
" clip-path="url(#pdca08a7239)" style="fill: none; stroke: #8c2d04; stroke-opacity: 0.17; stroke-linecap: square"/>
   </g>
   <g id="line2d_25">
    <path d="M 73.950559 207.294814 
L 80.994906 207.294814 
L 82.403776 212.819153 
L 96.492471 212.819153 
L 97.901341 216.42623 
L 382.492983 216.42623 
L 382.492983 216.42623 
" clip-path="url(#pdca08a7239)" style="fill: none; stroke: #8c2d04; stroke-opacity: 0.17; stroke-linecap: square"/>
   </g>
   <g id="line2d_26">
    <path d="M 73.950559 208.625096 
L 80.994906 208.625096 
L 82.403776 210.864804 
L 96.492471 210.864804 
L 97.901341 211.093325 
L 121.852122 211.093325 
L 123.260992 212.819153 
L 382.492983 212.819153 
L 382.492983 212.819153 
" clip-path="url(#pdca08a7239)" style="fill: none; stroke: #8c2d04; stroke-opacity: 0.17; stroke-linecap: square"/>
   </g>
   <g id="line2d_27">
    <path d="M 73.950559 207.882962 
L 80.994906 207.882962 
L 82.403776 213.407301 
L 96.492471 213.407301 
L 97.901341 217.014378 
L 382.492983 217.014378 
L 382.492983 217.014378 
" clip-path="url(#pdca08a7239)" style="fill: none; stroke: #8c2d04; stroke-opacity: 0.17; stroke-linecap: square"/>
   </g>
   <g id="line2d_28">
    <path d="M 73.950559 212.819153 
L 80.994906 212.819153 
L 82.403776 237.948545 
L 96.492471 237.948545 
L 97.901341 290.572797 
L 121.852122 290.572797 
L 123.260992 292.298625 
L 382.492983 292.298625 
L 382.492983 292.298625 
" clip-path="url(#pdca08a7239)" style="fill: none; stroke: #8c2d04; stroke-opacity: 0.17; stroke-linecap: square"/>
   </g>
   <g id="line2d_29">
    <path d="M 73.950559 207.294814 
L 80.994906 207.294814 
L 82.403776 212.819153 
L 96.492471 212.819153 
L 97.901341 213.047674 
L 382.492983 213.047674 
L 382.492983 213.047674 
" clip-path="url(#pdca08a7239)" style="fill: none; stroke: #8c2d04; stroke-opacity: 0.17; stroke-linecap: square"/>
   </g>
   <g id="line2d_30">
    <path d="M 73.950559 212.819153 
L 80.994906 212.819153 
L 82.403776 231.120705 
L 96.492471 231.120705 
L 97.901341 231.349226 
L 121.852122 231.349226 
L 123.260992 233.075054 
L 382.492983 233.075054 
L 382.492983 233.075054 
" clip-path="url(#pdca08a7239)" style="fill: none; stroke: #8c2d04; stroke-opacity: 0.17; stroke-linecap: square"/>
   </g>
   <g id="line2d_31">
    <path d="M 73.950559 208.9857 
L 80.994906 208.9857 
L 82.403776 212.590632 
L 96.492471 212.590632 
L 97.901341 212.819153 
L 382.492983 212.819153 
L 382.492983 212.819153 
" clip-path="url(#pdca08a7239)" style="fill: none; stroke: #8c2d04; stroke-opacity: 0.17; stroke-linecap: square"/>
   </g>
   <g id="line2d_32">
    <path d="M 73.950559 212.498851 
L 80.994906 212.498851 
L 82.403776 212.819153 
L 96.492471 212.819153 
L 97.901341 213.799453 
L 121.852122 213.799453 
L 123.260992 215.525282 
L 382.492983 215.525282 
L 382.492983 215.525282 
" clip-path="url(#pdca08a7239)" style="fill: none; stroke: #8c2d04; stroke-opacity: 0.17; stroke-linecap: square"/>
   </g>
   <g id="line2d_33">
    <path d="M 73.950559 209.018337 
L 80.994906 209.018337 
L 82.403776 212.62327 
L 96.492471 212.62327 
L 97.901341 212.819153 
L 382.492983 212.819153 
L 382.492983 212.819153 
" clip-path="url(#pdca08a7239)" style="fill: none; stroke: #8c2d04; stroke-opacity: 0.17; stroke-linecap: square"/>
   </g>
   <g id="line2d_34">
    <path d="M 73.950559 212.819153 
L 80.994906 212.819153 
L 82.403776 213.139455 
L 96.492471 213.139455 
L 97.901341 212.977974 
L 121.852122 212.977974 
L 123.260992 214.703802 
L 382.492983 214.703802 
L 382.492983 214.703802 
" clip-path="url(#pdca08a7239)" style="fill: none; stroke: #8c2d04; stroke-opacity: 0.17; stroke-linecap: square"/>
   </g>
   <g id="line2d_35">
    <path d="M 73.950559 210.57714 
L 80.994906 210.57714 
L 82.403776 210.897442 
L 96.492471 210.897442 
L 97.901341 211.093325 
L 121.852122 211.093325 
L 123.260992 212.819153 
L 382.492983 212.819153 
L 382.492983 212.819153 
" clip-path="url(#pdca08a7239)" style="fill: none; stroke: #8c2d04; stroke-opacity: 0.17; stroke-linecap: square"/>
   </g>
   <g id="line2d_36">
    <path d="M 73.950559 209.018337 
L 80.994906 209.018337 
L 82.403776 212.62327 
L 96.492471 212.62327 
L 97.901341 212.819153 
L 382.492983 212.819153 
L 382.492983 212.819153 
" clip-path="url(#pdca08a7239)" style="fill: none; stroke: #8c2d04; stroke-opacity: 0.17; stroke-linecap: square"/>
   </g>
   <g id="line2d_37">
    <path d="M 73.950559 209.018337 
L 80.994906 209.018337 
L 82.403776 212.62327 
L 96.492471 212.62327 
L 97.901341 212.819153 
L 382.492983 212.819153 
L 382.492983 212.819153 
" clip-path="url(#pdca08a7239)" style="fill: none; stroke: #8c2d04; stroke-opacity: 0.17; stroke-linecap: square"/>
   </g>
   <g id="line2d_38">
    <path d="M 73.950559 180.294609 
L 80.994906 180.294609 
L 82.403776 212.819153 
L 96.492471 212.819153 
L 97.901341 243.398626 
L 382.492983 243.398626 
L 382.492983 243.398626 
" clip-path="url(#pdca08a7239)" style="fill: none; stroke: #8c2d04; stroke-opacity: 0.17; stroke-linecap: square"/>
   </g>
   <g id="line2d_39">
    <path d="M 73.950559 61.736125 
L 80.994906 61.736125 
L 82.403776 80.936232 
L 96.492471 80.936232 
L 97.901341 212.819153 
L 382.492983 212.819153 
L 382.492983 212.819153 
" clip-path="url(#pdca08a7239)" style="fill: none; stroke: #8c2d04; stroke-opacity: 0.17; stroke-linecap: square"/>
   </g>
   <g id="line2d_40">
    <path d="M 73.950559 209.018337 
L 80.994906 209.018337 
L 82.403776 212.62327 
L 96.492471 212.62327 
L 97.901341 212.819153 
L 382.492983 212.819153 
L 382.492983 212.819153 
" clip-path="url(#pdca08a7239)" style="fill: none; stroke: #8c2d04; stroke-opacity: 0.17; stroke-linecap: square"/>
   </g>
   <g id="line2d_41">
    <path d="M 73.950559 209.018337 
L 80.994906 209.018337 
L 82.403776 212.62327 
L 96.492471 212.62327 
L 97.901341 212.819153 
L 382.492983 212.819153 
L 382.492983 212.819153 
" clip-path="url(#pdca08a7239)" style="fill: none; stroke: #8c2d04; stroke-opacity: 0.17; stroke-linecap: square"/>
   </g>
   <g id="line2d_42">
    <path d="M 73.950559 183.056492 
L 80.994906 183.056492 
L 82.403776 211.13269 
L 96.492471 211.13269 
L 97.901341 212.819153 
L 121.852122 212.819153 
L 123.260992 214.544982 
L 382.492983 214.544982 
L 382.492983 214.544982 
" clip-path="url(#pdca08a7239)" style="fill: none; stroke: #8c2d04; stroke-opacity: 0.17; stroke-linecap: square"/>
   </g>
   <g id="line2d_43">
    <path d="M 73.950559 209.018337 
L 80.994906 209.018337 
L 82.403776 212.62327 
L 96.492471 212.62327 
L 97.901341 212.819153 
L 382.492983 212.819153 
L 382.492983 212.819153 
" clip-path="url(#pdca08a7239)" style="fill: none; stroke: #8c2d04; stroke-opacity: 0.17; stroke-linecap: square"/>
   </g>
   <g id="line2d_44">
    <path d="M 73.950559 209.018337 
L 80.994906 209.018337 
L 82.403776 212.62327 
L 96.492471 212.62327 
L 97.901341 212.819153 
L 382.492983 212.819153 
L 382.492983 212.819153 
" clip-path="url(#pdca08a7239)" style="fill: none; stroke: #8c2d04; stroke-opacity: 0.17; stroke-linecap: square"/>
   </g>
   <g id="line2d_45">
    <path d="M 73.950559 209.018337 
L 80.994906 209.018337 
L 82.403776 212.62327 
L 96.492471 212.62327 
L 97.901341 212.819153 
L 382.492983 212.819153 
L 382.492983 212.819153 
" clip-path="url(#pdca08a7239)" style="fill: none; stroke: #8c2d04; stroke-opacity: 0.17; stroke-linecap: square"/>
   </g>
   <g id="line2d_46">
    <path d="M 73.950559 209.018337 
L 80.994906 209.018337 
L 82.403776 212.62327 
L 96.492471 212.62327 
L 97.901341 212.819153 
L 382.492983 212.819153 
L 382.492983 212.819153 
" clip-path="url(#pdca08a7239)" style="fill: none; stroke: #8c2d04; stroke-opacity: 0.17; stroke-linecap: square"/>
   </g>
   <g id="line2d_47">
    <path d="M 73.950559 219.040486 
L 80.994906 219.040486 
L 82.403776 219.360788 
L 96.492471 219.360788 
L 97.901341 212.819153 
L 121.852122 212.819153 
L 123.260992 214.544982 
L 382.492983 214.544982 
L 382.492983 214.544982 
" clip-path="url(#pdca08a7239)" style="fill: none; stroke: #8c2d04; stroke-opacity: 0.17; stroke-linecap: square"/>
   </g>
   <g id="line2d_48">
    <path d="M 73.950559 201.425183 
L 80.994906 201.425183 
L 82.403776 209.129325 
L 96.492471 209.129325 
L 97.901341 218.351543 
L 121.852122 218.351543 
L 123.260992 218.926819 
L 382.492983 218.926819 
L 382.492983 218.926819 
" clip-path="url(#pdca08a7239)" style="fill: none; stroke: #111111; stroke-width: 2.2; stroke-linecap: square"/>
   </g>
   <g id="line2d_49">
    <path d="M 58.523438 212.819153 
L 397.920104 212.819153 
" clip-path="url(#pdca08a7239)" style="fill: none; stroke-dasharray: 0.9,1.485; stroke-dashoffset: 0; stroke: #595959; stroke-width: 0.9"/>
   </g>
   <g id="patch_3">
    <path d="M 58.523438 303.82675 
L 58.523438 50.208 
" style="fill: none; stroke: #000000; stroke-width: 0.8; stroke-linejoin: miter; stroke-linecap: square"/>
   </g>
   <g id="patch_4">
    <path d="M 397.920104 303.82675 
L 397.920104 50.208 
" style="fill: none; stroke: #000000; stroke-width: 0.8; stroke-linejoin: miter; stroke-linecap: square"/>
   </g>
   <g id="patch_5">
    <path d="M 58.523438 303.82675 
L 397.920104 303.82675 
" style="fill: none; stroke: #000000; stroke-width: 0.8; stroke-linejoin: miter; stroke-linecap: square"/>
   </g>
   <g id="patch_6">
    <path d="M 58.523438 50.208 
L 397.920104 50.208 
" style="fill: none; stroke: #000000; stroke-width: 0.8; stroke-linejoin: miter; stroke-linecap: square"/>
   </g>
   <g id="text_17">
    <!-- Illiquidity -->
    <g transform="translate(203.079036 44.208) scale(0.11 -0.11)">
     <defs>
      <path id="DejaVuSans-71" d="M 947 1747 
Q 947 1113 1208 752 
Q 1469 391 1925 391 
Q 2381 391 2643 752 
Q 2906 1113 2906 1747 
Q 2906 2381 2643 2742 
Q 2381 3103 1925 3103 
Q 1469 3103 1208 2742 
Q 947 2381 947 1747 
z
M 2906 525 
Q 2725 213 2448 61 
Q 2172 -91 1784 -91 
Q 1150 -91 751 415 
Q 353 922 353 1747 
Q 353 2572 751 3078 
Q 1150 3584 1784 3584 
Q 2172 3584 2448 3432 
Q 2725 3281 2906 2969 
L 2906 3500 
L 3481 3500 
L 3481 -1331 
L 2906 -1331 
L 2906 525 
z
" transform="scale(0.015625)"/>
      <path id="DejaVuSans-75" d="M 544 1381 
L 544 3500 
L 1119 3500 
L 1119 1403 
Q 1119 906 1312 657 
Q 1506 409 1894 409 
Q 2359 409 2629 706 
Q 2900 1003 2900 1516 
L 2900 3500 
L 3475 3500 
L 3475 0 
L 2900 0 
L 2900 538 
Q 2691 219 2414 64 
Q 2138 -91 1772 -91 
Q 1169 -91 856 284 
Q 544 659 544 1381 
z
M 1991 3584 
L 1991 3584 
z
" transform="scale(0.015625)"/>
      <path id="DejaVuSans-79" d="M 2059 -325 
Q 1816 -950 1584 -1140 
Q 1353 -1331 966 -1331 
L 506 -1331 
L 506 -850 
L 844 -850 
Q 1081 -850 1212 -737 
Q 1344 -625 1503 -206 
L 1606 56 
L 191 3500 
L 800 3500 
L 1894 763 
L 2988 3500 
L 3597 3500 
L 2059 -325 
z
" transform="scale(0.015625)"/>
     </defs>
     <use xlink:href="#DejaVuSans-49"/>
     <use xlink:href="#DejaVuSans-6c" transform="translate(29.492188 0)"/>
     <use xlink:href="#DejaVuSans-6c" transform="translate(57.275391 0)"/>
     <use xlink:href="#DejaVuSans-69" transform="translate(85.058594 0)"/>
     <use xlink:href="#DejaVuSans-71" transform="translate(112.841797 0)"/>
     <use xlink:href="#DejaVuSans-75" transform="translate(176.318359 0)"/>
     <use xlink:href="#DejaVuSans-69" transform="translate(239.697266 0)"/>
     <use xlink:href="#DejaVuSans-64" transform="translate(267.480469 0)"/>
     <use xlink:href="#DejaVuSans-69" transform="translate(330.957031 0)"/>
     <use xlink:href="#DejaVuSans-74" transform="translate(358.740234 0)"/>
     <use xlink:href="#DejaVuSans-79" transform="translate(397.949219 0)"/>
    </g>
   </g>
  </g>
  <g id="axes_2">
   <g id="patch_7">
    <path d="M 446.230104 303.82675 
L 785.626771 303.82675 
L 785.626771 50.208 
L 446.230104 50.208 
z
" style="fill: #ffffff"/>
   </g>
   <g id="matplotlib.axis_3">
    <g id="xtick_6">
     <g id="line2d_50">
      <g>
       <use xlink:href="#m816da070e4" x="447.178552" y="303.82675" style="stroke: #000000; stroke-width: 0.8"/>
      </g>
     </g>
     <g id="text_18">
      <!-- 0.00 -->
      <g transform="translate(436.04574 318.425187) scale(0.1 -0.1)">
       <use xlink:href="#DejaVuSans-30"/>
       <use xlink:href="#DejaVuSans-2e" transform="translate(63.623047 0)"/>
       <use xlink:href="#DejaVuSans-30" transform="translate(95.410156 0)"/>
       <use xlink:href="#DejaVuSans-30" transform="translate(159.033203 0)"/>
      </g>
     </g>
    </g>
    <g id="xtick_7">
     <g id="line2d_51">
      <g>
       <use xlink:href="#m816da070e4" x="518.331256" y="303.82675" style="stroke: #000000; stroke-width: 0.8"/>
      </g>
     </g>
     <g id="text_19">
      <!-- 0.05 -->
      <g transform="translate(507.198444 318.425187) scale(0.1 -0.1)">
       <use xlink:href="#DejaVuSans-30"/>
       <use xlink:href="#DejaVuSans-2e" transform="translate(63.623047 0)"/>
       <use xlink:href="#DejaVuSans-30" transform="translate(95.410156 0)"/>
       <use xlink:href="#DejaVuSans-35" transform="translate(159.033203 0)"/>
      </g>
     </g>
    </g>
    <g id="xtick_8">
     <g id="line2d_52">
      <g>
       <use xlink:href="#m816da070e4" x="589.48396" y="303.82675" style="stroke: #000000; stroke-width: 0.8"/>
      </g>
     </g>
     <g id="text_20">
      <!-- 0.10 -->
      <g transform="translate(578.351148 318.425187) scale(0.1 -0.1)">
       <use xlink:href="#DejaVuSans-30"/>
       <use xlink:href="#DejaVuSans-2e" transform="translate(63.623047 0)"/>
       <use xlink:href="#DejaVuSans-31" transform="translate(95.410156 0)"/>
       <use xlink:href="#DejaVuSans-30" transform="translate(159.033203 0)"/>
      </g>
     </g>
    </g>
    <g id="xtick_9">
     <g id="line2d_53">
      <g>
       <use xlink:href="#m816da070e4" x="660.636664" y="303.82675" style="stroke: #000000; stroke-width: 0.8"/>
      </g>
     </g>
     <g id="text_21">
      <!-- 0.15 -->
      <g transform="translate(649.503852 318.425187) scale(0.1 -0.1)">
       <use xlink:href="#DejaVuSans-30"/>
       <use xlink:href="#DejaVuSans-2e" transform="translate(63.623047 0)"/>
       <use xlink:href="#DejaVuSans-31" transform="translate(95.410156 0)"/>
       <use xlink:href="#DejaVuSans-35" transform="translate(159.033203 0)"/>
      </g>
     </g>
    </g>
    <g id="xtick_10">
     <g id="line2d_54">
      <g>
       <use xlink:href="#m816da070e4" x="731.789368" y="303.82675" style="stroke: #000000; stroke-width: 0.8"/>
      </g>
     </g>
     <g id="text_22">
      <!-- 0.20 -->
      <g transform="translate(720.656556 318.425187) scale(0.1 -0.1)">
       <use xlink:href="#DejaVuSans-30"/>
       <use xlink:href="#DejaVuSans-2e" transform="translate(63.623047 0)"/>
       <use xlink:href="#DejaVuSans-32" transform="translate(95.410156 0)"/>
       <use xlink:href="#DejaVuSans-30" transform="translate(159.033203 0)"/>
      </g>
     </g>
    </g>
    <g id="text_23">
     <!-- ind_own -->
     <g transform="translate(595.379219 332.103312) scale(0.1 -0.1)">
      <use xlink:href="#DejaVuSans-69"/>
      <use xlink:href="#DejaVuSans-6e" transform="translate(27.783203 0)"/>
      <use xlink:href="#DejaVuSans-64" transform="translate(91.162109 0)"/>
      <use xlink:href="#DejaVuSans-5f" transform="translate(154.638672 0)"/>
      <use xlink:href="#DejaVuSans-6f" transform="translate(204.638672 0)"/>
      <use xlink:href="#DejaVuSans-77" transform="translate(265.820312 0)"/>
      <use xlink:href="#DejaVuSans-6e" transform="translate(347.607422 0)"/>
     </g>
    </g>
   </g>
   <g id="matplotlib.axis_4">
    <g id="ytick_10">
     <g id="line2d_55">
      <path d="M 446.230104 274.277269 
L 785.626771 274.277269 
" clip-path="url(#pe58a547c3c)" style="fill: none; stroke-dasharray: 0.8,1.32; stroke-dashoffset: 0; stroke: #b0b0b0; stroke-opacity: 0.2; stroke-width: 0.8"/>
     </g>
     <g id="line2d_56">
      <g>
       <use xlink:href="#mc3aaf852ea" x="446.230104" y="274.277269" style="stroke: #000000; stroke-width: 0.8"/>
      </g>
     </g>
     <g id="text_24">
      <!-- −0.03 -->
      <g transform="translate(408.584792 278.076488) scale(0.1 -0.1)">
       <use xlink:href="#DejaVuSans-2212"/>
       <use xlink:href="#DejaVuSans-30" transform="translate(83.789062 0)"/>
       <use xlink:href="#DejaVuSans-2e" transform="translate(147.412109 0)"/>
       <use xlink:href="#DejaVuSans-30" transform="translate(179.199219 0)"/>
       <use xlink:href="#DejaVuSans-33" transform="translate(242.822266 0)"/>
      </g>
     </g>
    </g>
    <g id="ytick_11">
     <g id="line2d_57">
      <path d="M 446.230104 241.857305 
L 785.626771 241.857305 
" clip-path="url(#pe58a547c3c)" style="fill: none; stroke-dasharray: 0.8,1.32; stroke-dashoffset: 0; stroke: #b0b0b0; stroke-opacity: 0.2; stroke-width: 0.8"/>
     </g>
     <g id="line2d_58">
      <g>
       <use xlink:href="#mc3aaf852ea" x="446.230104" y="241.857305" style="stroke: #000000; stroke-width: 0.8"/>
      </g>
     </g>
     <g id="text_25">
      <!-- −0.02 -->
      <g transform="translate(408.584792 245.656523) scale(0.1 -0.1)">
       <use xlink:href="#DejaVuSans-2212"/>
       <use xlink:href="#DejaVuSans-30" transform="translate(83.789062 0)"/>
       <use xlink:href="#DejaVuSans-2e" transform="translate(147.412109 0)"/>
       <use xlink:href="#DejaVuSans-30" transform="translate(179.199219 0)"/>
       <use xlink:href="#DejaVuSans-32" transform="translate(242.822266 0)"/>
      </g>
     </g>
    </g>
    <g id="ytick_12">
     <g id="line2d_59">
      <path d="M 446.230104 209.43734 
L 785.626771 209.43734 
" clip-path="url(#pe58a547c3c)" style="fill: none; stroke-dasharray: 0.8,1.32; stroke-dashoffset: 0; stroke: #b0b0b0; stroke-opacity: 0.2; stroke-width: 0.8"/>
     </g>
     <g id="line2d_60">
      <g>
       <use xlink:href="#mc3aaf852ea" x="446.230104" y="209.43734" style="stroke: #000000; stroke-width: 0.8"/>
      </g>
     </g>
     <g id="text_26">
      <!-- −0.01 -->
      <g transform="translate(408.584792 213.236559) scale(0.1 -0.1)">
       <use xlink:href="#DejaVuSans-2212"/>
       <use xlink:href="#DejaVuSans-30" transform="translate(83.789062 0)"/>
       <use xlink:href="#DejaVuSans-2e" transform="translate(147.412109 0)"/>
       <use xlink:href="#DejaVuSans-30" transform="translate(179.199219 0)"/>
       <use xlink:href="#DejaVuSans-31" transform="translate(242.822266 0)"/>
      </g>
     </g>
    </g>
    <g id="ytick_13">
     <g id="line2d_61">
      <path d="M 446.230104 177.017375 
L 785.626771 177.017375 
" clip-path="url(#pe58a547c3c)" style="fill: none; stroke-dasharray: 0.8,1.32; stroke-dashoffset: 0; stroke: #b0b0b0; stroke-opacity: 0.2; stroke-width: 0.8"/>
     </g>
     <g id="line2d_62">
      <g>
       <use xlink:href="#mc3aaf852ea" x="446.230104" y="177.017375" style="stroke: #000000; stroke-width: 0.8"/>
      </g>
     </g>
     <g id="text_27">
      <!-- 0.00 -->
      <g transform="translate(416.964479 180.816594) scale(0.1 -0.1)">
       <use xlink:href="#DejaVuSans-30"/>
       <use xlink:href="#DejaVuSans-2e" transform="translate(63.623047 0)"/>
       <use xlink:href="#DejaVuSans-30" transform="translate(95.410156 0)"/>
       <use xlink:href="#DejaVuSans-30" transform="translate(159.033203 0)"/>
      </g>
     </g>
    </g>
    <g id="ytick_14">
     <g id="line2d_63">
      <path d="M 446.230104 144.59741 
L 785.626771 144.59741 
" clip-path="url(#pe58a547c3c)" style="fill: none; stroke-dasharray: 0.8,1.32; stroke-dashoffset: 0; stroke: #b0b0b0; stroke-opacity: 0.2; stroke-width: 0.8"/>
     </g>
     <g id="line2d_64">
      <g>
       <use xlink:href="#mc3aaf852ea" x="446.230104" y="144.59741" style="stroke: #000000; stroke-width: 0.8"/>
      </g>
     </g>
     <g id="text_28">
      <!-- 0.01 -->
      <g transform="translate(416.964479 148.396629) scale(0.1 -0.1)">
       <use xlink:href="#DejaVuSans-30"/>
       <use xlink:href="#DejaVuSans-2e" transform="translate(63.623047 0)"/>
       <use xlink:href="#DejaVuSans-30" transform="translate(95.410156 0)"/>
       <use xlink:href="#DejaVuSans-31" transform="translate(159.033203 0)"/>
      </g>
     </g>
    </g>
    <g id="ytick_15">
     <g id="line2d_65">
      <path d="M 446.230104 112.177445 
L 785.626771 112.177445 
" clip-path="url(#pe58a547c3c)" style="fill: none; stroke-dasharray: 0.8,1.32; stroke-dashoffset: 0; stroke: #b0b0b0; stroke-opacity: 0.2; stroke-width: 0.8"/>
     </g>
     <g id="line2d_66">
      <g>
       <use xlink:href="#mc3aaf852ea" x="446.230104" y="112.177445" style="stroke: #000000; stroke-width: 0.8"/>
      </g>
     </g>
     <g id="text_29">
      <!-- 0.02 -->
      <g transform="translate(416.964479 115.976664) scale(0.1 -0.1)">
       <use xlink:href="#DejaVuSans-30"/>
       <use xlink:href="#DejaVuSans-2e" transform="translate(63.623047 0)"/>
       <use xlink:href="#DejaVuSans-30" transform="translate(95.410156 0)"/>
       <use xlink:href="#DejaVuSans-32" transform="translate(159.033203 0)"/>
      </g>
     </g>
    </g>
    <g id="ytick_16">
     <g id="line2d_67">
      <path d="M 446.230104 79.757481 
L 785.626771 79.757481 
" clip-path="url(#pe58a547c3c)" style="fill: none; stroke-dasharray: 0.8,1.32; stroke-dashoffset: 0; stroke: #b0b0b0; stroke-opacity: 0.2; stroke-width: 0.8"/>
     </g>
     <g id="line2d_68">
      <g>
       <use xlink:href="#mc3aaf852ea" x="446.230104" y="79.757481" style="stroke: #000000; stroke-width: 0.8"/>
      </g>
     </g>
     <g id="text_30">
      <!-- 0.03 -->
      <g transform="translate(416.964479 83.556699) scale(0.1 -0.1)">
       <use xlink:href="#DejaVuSans-30"/>
       <use xlink:href="#DejaVuSans-2e" transform="translate(63.623047 0)"/>
       <use xlink:href="#DejaVuSans-30" transform="translate(95.410156 0)"/>
       <use xlink:href="#DejaVuSans-33" transform="translate(159.033203 0)"/>
      </g>
     </g>
    </g>
   </g>
   <g id="line2d_69">
    <path d="M 461.657225 177.017375 
L 484.199138 177.017375 
L 485.608007 292.298625 
L 770.19965 292.298625 
L 770.19965 292.298625 
" clip-path="url(#pe58a547c3c)" style="fill: none; stroke: #08519c; stroke-opacity: 0.17; stroke-linecap: square"/>
   </g>
   <g id="line2d_70">
    <path d="M 461.657225 177.017375 
L 770.19965 177.017375 
L 770.19965 177.017375 
" clip-path="url(#pe58a547c3c)" style="fill: none; stroke: #08519c; stroke-opacity: 0.17; stroke-linecap: square"/>
   </g>
   <g id="line2d_71">
    <path d="M 461.657225 177.017375 
L 770.19965 177.017375 
L 770.19965 177.017375 
" clip-path="url(#pe58a547c3c)" style="fill: none; stroke: #08519c; stroke-opacity: 0.17; stroke-linecap: square"/>
   </g>
   <g id="line2d_72">
    <path d="M 461.657225 177.017375 
L 484.199138 177.017375 
L 485.608007 188.707958 
L 509.558789 188.707958 
L 510.967658 168.028058 
L 770.19965 168.028058 
L 770.19965 168.028058 
" clip-path="url(#pe58a547c3c)" style="fill: none; stroke: #08519c; stroke-opacity: 0.17; stroke-linecap: square"/>
   </g>
   <g id="line2d_73">
    <path d="M 461.657225 177.017375 
L 770.19965 177.017375 
L 770.19965 177.017375 
" clip-path="url(#pe58a547c3c)" style="fill: none; stroke: #08519c; stroke-opacity: 0.17; stroke-linecap: square"/>
   </g>
   <g id="line2d_74">
    <path d="M 461.657225 177.017375 
L 484.199138 177.017375 
L 485.608007 178.306144 
L 509.558789 178.306144 
L 510.967658 144.434516 
L 770.19965 144.434516 
L 770.19965 144.434516 
" clip-path="url(#pe58a547c3c)" style="fill: none; stroke: #08519c; stroke-opacity: 0.17; stroke-linecap: square"/>
   </g>
   <g id="line2d_75">
    <path d="M 461.657225 177.017375 
L 509.558789 177.017375 
L 510.967658 163.825647 
L 770.19965 163.825647 
L 770.19965 163.825647 
" clip-path="url(#pe58a547c3c)" style="fill: none; stroke: #08519c; stroke-opacity: 0.17; stroke-linecap: square"/>
   </g>
   <g id="line2d_76">
    <path d="M 461.657225 186.006692 
L 484.199138 186.006692 
L 485.608007 197.697276 
L 509.558789 197.697276 
L 510.967658 177.017375 
L 770.19965 177.017375 
L 770.19965 177.017375 
" clip-path="url(#pe58a547c3c)" style="fill: none; stroke: #08519c; stroke-opacity: 0.17; stroke-linecap: square"/>
   </g>
   <g id="line2d_77">
    <path d="M 461.657225 177.017375 
L 484.199138 177.017375 
L 485.608007 176.826776 
L 509.558789 176.826776 
L 510.967658 156.146875 
L 770.19965 156.146875 
L 770.19965 156.146875 
" clip-path="url(#pe58a547c3c)" style="fill: none; stroke: #08519c; stroke-opacity: 0.17; stroke-linecap: square"/>
   </g>
   <g id="line2d_78">
    <path d="M 461.657225 143.057668 
L 484.199138 143.057668 
L 485.608007 177.017375 
L 770.19965 177.017375 
L 770.19965 177.017375 
" clip-path="url(#pe58a547c3c)" style="fill: none; stroke: #08519c; stroke-opacity: 0.17; stroke-linecap: square"/>
   </g>
   <g id="line2d_79">
    <path d="M 461.657225 177.017375 
L 770.19965 177.017375 
L 770.19965 177.017375 
" clip-path="url(#pe58a547c3c)" style="fill: none; stroke: #08519c; stroke-opacity: 0.17; stroke-linecap: square"/>
   </g>
   <g id="line2d_80">
    <path d="M 461.657225 177.017375 
L 770.19965 177.017375 
L 770.19965 177.017375 
" clip-path="url(#pe58a547c3c)" style="fill: none; stroke: #08519c; stroke-opacity: 0.17; stroke-linecap: square"/>
   </g>
   <g id="line2d_81">
    <path d="M 461.657225 143.057668 
L 484.199138 143.057668 
L 485.608007 177.017375 
L 770.19965 177.017375 
L 770.19965 177.017375 
" clip-path="url(#pe58a547c3c)" style="fill: none; stroke: #08519c; stroke-opacity: 0.17; stroke-linecap: square"/>
   </g>
   <g id="line2d_82">
    <path d="M 461.657225 61.736125 
L 484.199138 61.736125 
L 485.608007 177.017375 
L 770.19965 177.017375 
L 770.19965 177.017375 
" clip-path="url(#pe58a547c3c)" style="fill: none; stroke: #08519c; stroke-opacity: 0.17; stroke-linecap: square"/>
   </g>
   <g id="line2d_83">
    <path d="M 461.657225 177.017375 
L 770.19965 177.017375 
L 770.19965 177.017375 
" clip-path="url(#pe58a547c3c)" style="fill: none; stroke: #08519c; stroke-opacity: 0.17; stroke-linecap: square"/>
   </g>
   <g id="line2d_84">
    <path d="M 461.657225 177.017375 
L 770.19965 177.017375 
L 770.19965 177.017375 
" clip-path="url(#pe58a547c3c)" style="fill: none; stroke: #08519c; stroke-opacity: 0.17; stroke-linecap: square"/>
   </g>
   <g id="line2d_85">
    <path d="M 461.657225 177.017375 
L 770.19965 177.017375 
L 770.19965 177.017375 
" clip-path="url(#pe58a547c3c)" style="fill: none; stroke: #08519c; stroke-opacity: 0.17; stroke-linecap: square"/>
   </g>
   <g id="line2d_86">
    <path d="M 461.657225 61.736125 
L 484.199138 61.736125 
L 485.608007 177.017375 
L 770.19965 177.017375 
L 770.19965 177.017375 
" clip-path="url(#pe58a547c3c)" style="fill: none; stroke: #08519c; stroke-opacity: 0.17; stroke-linecap: square"/>
   </g>
   <g id="line2d_87">
    <path d="M 461.657225 177.017375 
L 770.19965 177.017375 
L 770.19965 177.017375 
" clip-path="url(#pe58a547c3c)" style="fill: none; stroke: #08519c; stroke-opacity: 0.17; stroke-linecap: square"/>
   </g>
   <g id="line2d_88">
    <path d="M 461.657225 158.863015 
L 484.199138 158.863015 
L 485.608007 177.017375 
L 770.19965 177.017375 
L 770.19965 177.017375 
" clip-path="url(#pe58a547c3c)" style="fill: none; stroke: #08519c; stroke-opacity: 0.17; stroke-linecap: square"/>
   </g>
   <g id="line2d_89">
    <path d="M 461.657225 177.017375 
L 770.19965 177.017375 
L 770.19965 177.017375 
" clip-path="url(#pe58a547c3c)" style="fill: none; stroke: #08519c; stroke-opacity: 0.17; stroke-linecap: square"/>
   </g>
   <g id="line2d_90">
    <path d="M 461.657225 140.746768 
L 484.199138 140.746768 
L 485.608007 177.017375 
L 770.19965 177.017375 
L 770.19965 177.017375 
" clip-path="url(#pe58a547c3c)" style="fill: none; stroke: #08519c; stroke-opacity: 0.17; stroke-linecap: square"/>
   </g>
   <g id="line2d_91">
    <path d="M 461.657225 207.496517 
L 509.558789 207.496517 
L 510.967658 177.017375 
L 770.19965 177.017375 
L 770.19965 177.017375 
" clip-path="url(#pe58a547c3c)" style="fill: none; stroke: #08519c; stroke-opacity: 0.17; stroke-linecap: square"/>
   </g>
   <g id="line2d_92">
    <path d="M 461.657225 177.017375 
L 770.19965 177.017375 
L 770.19965 177.017375 
" clip-path="url(#pe58a547c3c)" style="fill: none; stroke: #08519c; stroke-opacity: 0.17; stroke-linecap: square"/>
   </g>
   <g id="line2d_93">
    <path d="M 461.657225 163.957441 
L 484.199138 163.957441 
L 485.608007 184.485252 
L 509.558789 184.485252 
L 510.967658 178.669327 
L 770.19965 178.669327 
L 770.19965 178.669327 
" clip-path="url(#pe58a547c3c)" style="fill: none; stroke: #111111; stroke-width: 2.2; stroke-linecap: square"/>
   </g>
   <g id="line2d_94">
    <path d="M 446.230104 177.017375 
L 785.626771 177.017375 
" clip-path="url(#pe58a547c3c)" style="fill: none; stroke-dasharray: 0.9,1.485; stroke-dashoffset: 0; stroke: #595959; stroke-width: 0.9"/>
   </g>
   <g id="patch_8">
    <path d="M 446.230104 303.82675 
L 446.230104 50.208 
" style="fill: none; stroke: #000000; stroke-width: 0.8; stroke-linejoin: miter; stroke-linecap: square"/>
   </g>
   <g id="patch_9">
    <path d="M 785.626771 303.82675 
L 785.626771 50.208 
" style="fill: none; stroke: #000000; stroke-width: 0.8; stroke-linejoin: miter; stroke-linecap: square"/>
   </g>
   <g id="patch_10">
    <path d="M 446.230104 303.82675 
L 785.626771 303.82675 
" style="fill: none; stroke: #000000; stroke-width: 0.8; stroke-linejoin: miter; stroke-linecap: square"/>
   </g>
   <g id="patch_11">
    <path d="M 446.230104 50.208 
L 785.626771 50.208 
" style="fill: none; stroke: #000000; stroke-width: 0.8; stroke-linejoin: miter; stroke-linecap: square"/>
   </g>
   <g id="text_31">
    <!-- Volatility -->
    <g transform="translate(592.177031 44.208) scale(0.11 -0.11)">
     <defs>
      <path id="DejaVuSans-56" d="M 1831 0 
L 50 4666 
L 709 4666 
L 2188 738 
L 3669 4666 
L 4325 4666 
L 2547 0 
L 1831 0 
z
" transform="scale(0.015625)"/>
     </defs>
     <use xlink:href="#DejaVuSans-56"/>
     <use xlink:href="#DejaVuSans-6f" transform="translate(60.658203 0)"/>
     <use xlink:href="#DejaVuSans-6c" transform="translate(121.839844 0)"/>
     <use xlink:href="#DejaVuSans-61" transform="translate(149.623047 0)"/>
     <use xlink:href="#DejaVuSans-74" transform="translate(210.902344 0)"/>
     <use xlink:href="#DejaVuSans-69" transform="translate(250.111328 0)"/>
     <use xlink:href="#DejaVuSans-6c" transform="translate(277.894531 0)"/>
     <use xlink:href="#DejaVuSans-69" transform="translate(305.677734 0)"/>
     <use xlink:href="#DejaVuSans-74" transform="translate(333.460938 0)"/>
     <use xlink:href="#DejaVuSans-79" transform="translate(372.669922 0)"/>
    </g>
   </g>
  </g>
  <g id="axes_3">
   <g id="patch_12">
    <path d="M 833.936771 303.82675 
L 1173.333437 303.82675 
L 1173.333437 50.208 
L 833.936771 50.208 
z
" style="fill: #ffffff"/>
   </g>
   <g id="matplotlib.axis_5">
    <g id="xtick_11">
     <g id="line2d_95">
      <g>
       <use xlink:href="#m816da070e4" x="834.885219" y="303.82675" style="stroke: #000000; stroke-width: 0.8"/>
      </g>
     </g>
     <g id="text_32">
      <!-- 0.00 -->
      <g transform="translate(823.752406 318.425187) scale(0.1 -0.1)">
       <use xlink:href="#DejaVuSans-30"/>
       <use xlink:href="#DejaVuSans-2e" transform="translate(63.623047 0)"/>
       <use xlink:href="#DejaVuSans-30" transform="translate(95.410156 0)"/>
       <use xlink:href="#DejaVuSans-30" transform="translate(159.033203 0)"/>
      </g>
     </g>
    </g>
    <g id="xtick_12">
     <g id="line2d_96">
      <g>
       <use xlink:href="#m816da070e4" x="906.037923" y="303.82675" style="stroke: #000000; stroke-width: 0.8"/>
      </g>
     </g>
     <g id="text_33">
      <!-- 0.05 -->
      <g transform="translate(894.90511 318.425187) scale(0.1 -0.1)">
       <use xlink:href="#DejaVuSans-30"/>
       <use xlink:href="#DejaVuSans-2e" transform="translate(63.623047 0)"/>
       <use xlink:href="#DejaVuSans-30" transform="translate(95.410156 0)"/>
       <use xlink:href="#DejaVuSans-35" transform="translate(159.033203 0)"/>
      </g>
     </g>
    </g>
    <g id="xtick_13">
     <g id="line2d_97">
      <g>
       <use xlink:href="#m816da070e4" x="977.190627" y="303.82675" style="stroke: #000000; stroke-width: 0.8"/>
      </g>
     </g>
     <g id="text_34">
      <!-- 0.10 -->
      <g transform="translate(966.057814 318.425187) scale(0.1 -0.1)">
       <use xlink:href="#DejaVuSans-30"/>
       <use xlink:href="#DejaVuSans-2e" transform="translate(63.623047 0)"/>
       <use xlink:href="#DejaVuSans-31" transform="translate(95.410156 0)"/>
       <use xlink:href="#DejaVuSans-30" transform="translate(159.033203 0)"/>
      </g>
     </g>
    </g>
    <g id="xtick_14">
     <g id="line2d_98">
      <g>
       <use xlink:href="#m816da070e4" x="1048.343331" y="303.82675" style="stroke: #000000; stroke-width: 0.8"/>
      </g>
     </g>
     <g id="text_35">
      <!-- 0.15 -->
      <g transform="translate(1037.210519 318.425187) scale(0.1 -0.1)">
       <use xlink:href="#DejaVuSans-30"/>
       <use xlink:href="#DejaVuSans-2e" transform="translate(63.623047 0)"/>
       <use xlink:href="#DejaVuSans-31" transform="translate(95.410156 0)"/>
       <use xlink:href="#DejaVuSans-35" transform="translate(159.033203 0)"/>
      </g>
     </g>
    </g>
    <g id="xtick_15">
     <g id="line2d_99">
      <g>
       <use xlink:href="#m816da070e4" x="1119.496035" y="303.82675" style="stroke: #000000; stroke-width: 0.8"/>
      </g>
     </g>
     <g id="text_36">
      <!-- 0.20 -->
      <g transform="translate(1108.363223 318.425187) scale(0.1 -0.1)">
       <use xlink:href="#DejaVuSans-30"/>
       <use xlink:href="#DejaVuSans-2e" transform="translate(63.623047 0)"/>
       <use xlink:href="#DejaVuSans-32" transform="translate(95.410156 0)"/>
       <use xlink:href="#DejaVuSans-30" transform="translate(159.033203 0)"/>
      </g>
     </g>
    </g>
    <g id="text_37">
     <!-- ind_own -->
     <g transform="translate(983.085885 332.103312) scale(0.1 -0.1)">
      <use xlink:href="#DejaVuSans-69"/>
      <use xlink:href="#DejaVuSans-6e" transform="translate(27.783203 0)"/>
      <use xlink:href="#DejaVuSans-64" transform="translate(91.162109 0)"/>
      <use xlink:href="#DejaVuSans-5f" transform="translate(154.638672 0)"/>
      <use xlink:href="#DejaVuSans-6f" transform="translate(204.638672 0)"/>
      <use xlink:href="#DejaVuSans-77" transform="translate(265.820312 0)"/>
      <use xlink:href="#DejaVuSans-6e" transform="translate(347.607422 0)"/>
     </g>
    </g>
   </g>
   <g id="matplotlib.axis_6">
    <g id="ytick_17">
     <g id="line2d_100">
      <path d="M 833.936771 285.23892 
L 1173.333437 285.23892 
" clip-path="url(#pa445529657)" style="fill: none; stroke-dasharray: 0.8,1.32; stroke-dashoffset: 0; stroke: #b0b0b0; stroke-opacity: 0.2; stroke-width: 0.8"/>
     </g>
     <g id="line2d_101">
      <g>
       <use xlink:href="#mc3aaf852ea" x="833.936771" y="285.23892" style="stroke: #000000; stroke-width: 0.8"/>
      </g>
     </g>
     <g id="text_38">
      <!-- −0.6 -->
      <g transform="translate(802.653958 289.038139) scale(0.1 -0.1)">
       <defs>
        <path id="DejaVuSans-36" d="M 2113 2584 
Q 1688 2584 1439 2293 
Q 1191 2003 1191 1497 
Q 1191 994 1439 701 
Q 1688 409 2113 409 
Q 2538 409 2786 701 
Q 3034 994 3034 1497 
Q 3034 2003 2786 2293 
Q 2538 2584 2113 2584 
z
M 3366 4563 
L 3366 3988 
Q 3128 4100 2886 4159 
Q 2644 4219 2406 4219 
Q 1781 4219 1451 3797 
Q 1122 3375 1075 2522 
Q 1259 2794 1537 2939 
Q 1816 3084 2150 3084 
Q 2853 3084 3261 2657 
Q 3669 2231 3669 1497 
Q 3669 778 3244 343 
Q 2819 -91 2113 -91 
Q 1303 -91 875 529 
Q 447 1150 447 2328 
Q 447 3434 972 4092 
Q 1497 4750 2381 4750 
Q 2619 4750 2861 4703 
Q 3103 4656 3366 4563 
z
" transform="scale(0.015625)"/>
       </defs>
       <use xlink:href="#DejaVuSans-2212"/>
       <use xlink:href="#DejaVuSans-30" transform="translate(83.789062 0)"/>
       <use xlink:href="#DejaVuSans-2e" transform="translate(147.412109 0)"/>
       <use xlink:href="#DejaVuSans-36" transform="translate(179.199219 0)"/>
      </g>
     </g>
    </g>
    <g id="ytick_18">
     <g id="line2d_102">
      <path d="M 833.936771 251.636093 
L 1173.333437 251.636093 
" clip-path="url(#pa445529657)" style="fill: none; stroke-dasharray: 0.8,1.32; stroke-dashoffset: 0; stroke: #b0b0b0; stroke-opacity: 0.2; stroke-width: 0.8"/>
     </g>
     <g id="line2d_103">
      <g>
       <use xlink:href="#mc3aaf852ea" x="833.936771" y="251.636093" style="stroke: #000000; stroke-width: 0.8"/>
      </g>
     </g>
     <g id="text_39">
      <!-- −0.4 -->
      <g transform="translate(802.653958 255.435311) scale(0.1 -0.1)">
       <use xlink:href="#DejaVuSans-2212"/>
       <use xlink:href="#DejaVuSans-30" transform="translate(83.789062 0)"/>
       <use xlink:href="#DejaVuSans-2e" transform="translate(147.412109 0)"/>
       <use xlink:href="#DejaVuSans-34" transform="translate(179.199219 0)"/>
      </g>
     </g>
    </g>
    <g id="ytick_19">
     <g id="line2d_104">
      <path d="M 833.936771 218.033265 
L 1173.333437 218.033265 
" clip-path="url(#pa445529657)" style="fill: none; stroke-dasharray: 0.8,1.32; stroke-dashoffset: 0; stroke: #b0b0b0; stroke-opacity: 0.2; stroke-width: 0.8"/>
     </g>
     <g id="line2d_105">
      <g>
       <use xlink:href="#mc3aaf852ea" x="833.936771" y="218.033265" style="stroke: #000000; stroke-width: 0.8"/>
      </g>
     </g>
     <g id="text_40">
      <!-- −0.2 -->
      <g transform="translate(802.653958 221.832484) scale(0.1 -0.1)">
       <use xlink:href="#DejaVuSans-2212"/>
       <use xlink:href="#DejaVuSans-30" transform="translate(83.789062 0)"/>
       <use xlink:href="#DejaVuSans-2e" transform="translate(147.412109 0)"/>
       <use xlink:href="#DejaVuSans-32" transform="translate(179.199219 0)"/>
      </g>
     </g>
    </g>
    <g id="ytick_20">
     <g id="line2d_106">
      <path d="M 833.936771 184.430438 
L 1173.333437 184.430438 
" clip-path="url(#pa445529657)" style="fill: none; stroke-dasharray: 0.8,1.32; stroke-dashoffset: 0; stroke: #b0b0b0; stroke-opacity: 0.2; stroke-width: 0.8"/>
     </g>
     <g id="line2d_107">
      <g>
       <use xlink:href="#mc3aaf852ea" x="833.936771" y="184.430438" style="stroke: #000000; stroke-width: 0.8"/>
      </g>
     </g>
     <g id="text_41">
      <!-- 0.0 -->
      <g transform="translate(811.033646 188.229657) scale(0.1 -0.1)">
       <use xlink:href="#DejaVuSans-30"/>
       <use xlink:href="#DejaVuSans-2e" transform="translate(63.623047 0)"/>
       <use xlink:href="#DejaVuSans-30" transform="translate(95.410156 0)"/>
      </g>
     </g>
    </g>
    <g id="ytick_21">
     <g id="line2d_108">
      <path d="M 833.936771 150.827611 
L 1173.333437 150.827611 
" clip-path="url(#pa445529657)" style="fill: none; stroke-dasharray: 0.8,1.32; stroke-dashoffset: 0; stroke: #b0b0b0; stroke-opacity: 0.2; stroke-width: 0.8"/>
     </g>
     <g id="line2d_109">
      <g>
       <use xlink:href="#mc3aaf852ea" x="833.936771" y="150.827611" style="stroke: #000000; stroke-width: 0.8"/>
      </g>
     </g>
     <g id="text_42">
      <!-- 0.2 -->
      <g transform="translate(811.033646 154.62683) scale(0.1 -0.1)">
       <use xlink:href="#DejaVuSans-30"/>
       <use xlink:href="#DejaVuSans-2e" transform="translate(63.623047 0)"/>
       <use xlink:href="#DejaVuSans-32" transform="translate(95.410156 0)"/>
      </g>
     </g>
    </g>
    <g id="ytick_22">
     <g id="line2d_110">
      <path d="M 833.936771 117.224784 
L 1173.333437 117.224784 
" clip-path="url(#pa445529657)" style="fill: none; stroke-dasharray: 0.8,1.32; stroke-dashoffset: 0; stroke: #b0b0b0; stroke-opacity: 0.2; stroke-width: 0.8"/>
     </g>
     <g id="line2d_111">
      <g>
       <use xlink:href="#mc3aaf852ea" x="833.936771" y="117.224784" style="stroke: #000000; stroke-width: 0.8"/>
      </g>
     </g>
     <g id="text_43">
      <!-- 0.4 -->
      <g transform="translate(811.033646 121.024002) scale(0.1 -0.1)">
       <use xlink:href="#DejaVuSans-30"/>
       <use xlink:href="#DejaVuSans-2e" transform="translate(63.623047 0)"/>
       <use xlink:href="#DejaVuSans-34" transform="translate(95.410156 0)"/>
      </g>
     </g>
    </g>
    <g id="ytick_23">
     <g id="line2d_112">
      <path d="M 833.936771 83.621956 
L 1173.333437 83.621956 
" clip-path="url(#pa445529657)" style="fill: none; stroke-dasharray: 0.8,1.32; stroke-dashoffset: 0; stroke: #b0b0b0; stroke-opacity: 0.2; stroke-width: 0.8"/>
     </g>
     <g id="line2d_113">
      <g>
       <use xlink:href="#mc3aaf852ea" x="833.936771" y="83.621956" style="stroke: #000000; stroke-width: 0.8"/>
      </g>
     </g>
     <g id="text_44">
      <!-- 0.6 -->
      <g transform="translate(811.033646 87.421175) scale(0.1 -0.1)">
       <use xlink:href="#DejaVuSans-30"/>
       <use xlink:href="#DejaVuSans-2e" transform="translate(63.623047 0)"/>
       <use xlink:href="#DejaVuSans-36" transform="translate(95.410156 0)"/>
      </g>
     </g>
    </g>
   </g>
   <g id="line2d_114">
    <path d="M 849.363892 125.179315 
L 856.40824 125.179315 
L 857.817109 184.430438 
L 871.905804 184.430438 
L 873.314674 220.484934 
L 897.265456 220.484934 
L 898.674325 227.424747 
L 1157.906316 227.424747 
L 1157.906316 227.424747 
" clip-path="url(#pa445529657)" style="fill: none; stroke: #006d2c; stroke-opacity: 0.17; stroke-linecap: square"/>
   </g>
   <g id="line2d_115">
    <path d="M 849.363892 125.179315 
L 856.40824 125.179315 
L 857.817109 184.430438 
L 871.905804 184.430438 
L 873.314674 195.37416 
L 897.265456 195.37416 
L 898.674325 202.313973 
L 1157.906316 202.313973 
L 1157.906316 202.313973 
" clip-path="url(#pa445529657)" style="fill: none; stroke: #006d2c; stroke-opacity: 0.17; stroke-linecap: square"/>
   </g>
   <g id="line2d_116">
    <path d="M 849.363892 107.29578 
L 856.40824 107.29578 
L 857.817109 166.546903 
L 871.905804 166.546903 
L 873.314674 177.490625 
L 897.265456 177.490625 
L 898.674325 184.430438 
L 1157.906316 184.430438 
L 1157.906316 184.430438 
" clip-path="url(#pa445529657)" style="fill: none; stroke: #006d2c; stroke-opacity: 0.17; stroke-linecap: square"/>
   </g>
   <g id="line2d_117">
    <path d="M 849.363892 131.48748 
L 856.40824 131.48748 
L 857.817109 190.738603 
L 871.905804 190.738603 
L 873.314674 201.682325 
L 897.265456 201.682325 
L 898.674325 208.622138 
L 1157.906316 208.622138 
L 1157.906316 208.622138 
" clip-path="url(#pa445529657)" style="fill: none; stroke: #006d2c; stroke-opacity: 0.17; stroke-linecap: square"/>
   </g>
   <g id="line2d_118">
    <path d="M 849.363892 184.430438 
L 856.40824 184.430438 
L 857.817109 216.691683 
L 871.905804 216.691683 
L 873.314674 282.424928 
L 897.265456 282.424928 
L 898.674325 292.298625 
L 1157.906316 292.298625 
L 1157.906316 292.298625 
" clip-path="url(#pa445529657)" style="fill: none; stroke: #006d2c; stroke-opacity: 0.17; stroke-linecap: square"/>
   </g>
   <g id="line2d_119">
    <path d="M 849.363892 125.179315 
L 856.40824 125.179315 
L 857.817109 184.430438 
L 871.905804 184.430438 
L 873.314674 195.37416 
L 897.265456 195.37416 
L 898.674325 202.313973 
L 1157.906316 202.313973 
L 1157.906316 202.313973 
" clip-path="url(#pa445529657)" style="fill: none; stroke: #006d2c; stroke-opacity: 0.17; stroke-linecap: square"/>
   </g>
   <g id="line2d_120">
    <path d="M 849.363892 184.430438 
L 856.40824 184.430438 
L 857.817109 212.156302 
L 871.905804 212.156302 
L 873.314674 223.100024 
L 897.265456 223.100024 
L 898.674325 230.039837 
L 1157.906316 230.039837 
L 1157.906316 230.039837 
" clip-path="url(#pa445529657)" style="fill: none; stroke: #006d2c; stroke-opacity: 0.17; stroke-linecap: square"/>
   </g>
   <g id="line2d_121">
    <path d="M 849.363892 138.82104 
L 856.40824 138.82104 
L 857.817109 166.546903 
L 871.905804 166.546903 
L 873.314674 177.490625 
L 897.265456 177.490625 
L 898.674325 184.430438 
L 1157.906316 184.430438 
L 1157.906316 184.430438 
" clip-path="url(#pa445529657)" style="fill: none; stroke: #006d2c; stroke-opacity: 0.17; stroke-linecap: square"/>
   </g>
   <g id="line2d_122">
    <path d="M 849.363892 156.704575 
L 856.40824 156.704575 
L 857.817109 184.430438 
L 871.905804 184.430438 
L 873.314674 191.811866 
L 897.265456 191.811866 
L 898.674325 198.751678 
L 1157.906316 198.751678 
L 1157.906316 198.751678 
" clip-path="url(#pa445529657)" style="fill: none; stroke: #006d2c; stroke-opacity: 0.17; stroke-linecap: square"/>
   </g>
   <g id="line2d_123">
    <path d="M 849.363892 145.730302 
L 856.40824 145.730302 
L 857.817109 146.47766 
L 871.905804 146.47766 
L 873.314674 184.430438 
L 1157.906316 184.430438 
L 1157.906316 184.430438 
" clip-path="url(#pa445529657)" style="fill: none; stroke: #006d2c; stroke-opacity: 0.17; stroke-linecap: square"/>
   </g>
   <g id="line2d_124">
    <path d="M 849.363892 184.430438 
L 856.40824 184.430438 
L 857.817109 185.177797 
L 871.905804 185.177797 
L 873.314674 223.130574 
L 1157.906316 223.130574 
L 1157.906316 223.130574 
" clip-path="url(#pa445529657)" style="fill: none; stroke: #006d2c; stroke-opacity: 0.17; stroke-linecap: square"/>
   </g>
   <g id="line2d_125">
    <path d="M 849.363892 125.887293 
L 856.40824 125.887293 
L 857.817109 126.634651 
L 871.905804 126.634651 
L 873.314674 184.430438 
L 1157.906316 184.430438 
L 1157.906316 184.430438 
" clip-path="url(#pa445529657)" style="fill: none; stroke: #006d2c; stroke-opacity: 0.17; stroke-linecap: square"/>
   </g>
   <g id="line2d_126">
    <path d="M 849.363892 145.730302 
L 856.40824 145.730302 
L 857.817109 146.47766 
L 871.905804 146.47766 
L 873.314674 184.430438 
L 1157.906316 184.430438 
L 1157.906316 184.430438 
" clip-path="url(#pa445529657)" style="fill: none; stroke: #006d2c; stroke-opacity: 0.17; stroke-linecap: square"/>
   </g>
   <g id="line2d_127">
    <path d="M 849.363892 145.730302 
L 856.40824 145.730302 
L 857.817109 146.47766 
L 871.905804 146.47766 
L 873.314674 184.430438 
L 1157.906316 184.430438 
L 1157.906316 184.430438 
" clip-path="url(#pa445529657)" style="fill: none; stroke: #006d2c; stroke-opacity: 0.17; stroke-linecap: square"/>
   </g>
   <g id="line2d_128">
    <path d="M 849.363892 184.593678 
L 856.40824 184.593678 
L 857.817109 184.430438 
L 871.905804 184.430438 
L 873.314674 268.649789 
L 897.265456 268.649789 
L 898.674325 271.583673 
L 1157.906316 271.583673 
L 1157.906316 271.583673 
" clip-path="url(#pa445529657)" style="fill: none; stroke: #006d2c; stroke-opacity: 0.17; stroke-linecap: square"/>
   </g>
   <g id="line2d_129">
    <path d="M 849.363892 61.736125 
L 856.40824 61.736125 
L 857.817109 99.326774 
L 871.905804 99.326774 
L 873.314674 184.430438 
L 897.265456 184.430438 
L 898.674325 187.364322 
L 1157.906316 187.364322 
L 1157.906316 187.364322 
" clip-path="url(#pa445529657)" style="fill: none; stroke: #006d2c; stroke-opacity: 0.17; stroke-linecap: square"/>
   </g>
   <g id="line2d_130">
    <path d="M 849.363892 147.374332 
L 856.40824 147.374332 
L 857.817109 142.3318 
L 871.905804 142.3318 
L 873.314674 174.676145 
L 897.265456 174.676145 
L 898.674325 184.430438 
L 1157.906316 184.430438 
L 1157.906316 184.430438 
" clip-path="url(#pa445529657)" style="fill: none; stroke: #006d2c; stroke-opacity: 0.17; stroke-linecap: square"/>
   </g>
   <g id="line2d_131">
    <path d="M 849.363892 147.374332 
L 856.40824 147.374332 
L 857.817109 142.3318 
L 871.905804 142.3318 
L 873.314674 174.676145 
L 897.265456 174.676145 
L 898.674325 184.430438 
L 1157.906316 184.430438 
L 1157.906316 184.430438 
" clip-path="url(#pa445529657)" style="fill: none; stroke: #006d2c; stroke-opacity: 0.17; stroke-linecap: square"/>
   </g>
   <g id="line2d_132">
    <path d="M 849.363892 163.403002 
L 856.40824 163.403002 
L 857.817109 158.36047 
L 871.905804 158.36047 
L 873.314674 184.430438 
L 897.265456 184.430438 
L 898.674325 194.184731 
L 1157.906316 194.184731 
L 1157.906316 194.184731 
" clip-path="url(#pa445529657)" style="fill: none; stroke: #006d2c; stroke-opacity: 0.17; stroke-linecap: square"/>
   </g>
   <g id="line2d_133">
    <path d="M 849.363892 147.374332 
L 856.40824 147.374332 
L 857.817109 142.3318 
L 871.905804 142.3318 
L 873.314674 174.676145 
L 897.265456 174.676145 
L 898.674325 184.430438 
L 1157.906316 184.430438 
L 1157.906316 184.430438 
" clip-path="url(#pa445529657)" style="fill: none; stroke: #006d2c; stroke-opacity: 0.17; stroke-linecap: square"/>
   </g>
   <g id="line2d_134">
    <path d="M 849.363892 147.374332 
L 856.40824 147.374332 
L 857.817109 142.3318 
L 871.905804 142.3318 
L 873.314674 174.676145 
L 897.265456 174.676145 
L 898.674325 184.430438 
L 1157.906316 184.430438 
L 1157.906316 184.430438 
" clip-path="url(#pa445529657)" style="fill: none; stroke: #006d2c; stroke-opacity: 0.17; stroke-linecap: square"/>
   </g>
   <g id="line2d_135">
    <path d="M 849.363892 147.374332 
L 856.40824 147.374332 
L 857.817109 142.3318 
L 871.905804 142.3318 
L 873.314674 174.676145 
L 897.265456 174.676145 
L 898.674325 184.430438 
L 1157.906316 184.430438 
L 1157.906316 184.430438 
" clip-path="url(#pa445529657)" style="fill: none; stroke: #006d2c; stroke-opacity: 0.17; stroke-linecap: square"/>
   </g>
   <g id="line2d_136">
    <path d="M 849.363892 138.096319 
L 856.40824 138.096319 
L 857.817109 133.053787 
L 871.905804 133.053787 
L 873.314674 174.676145 
L 897.265456 174.676145 
L 898.674325 184.430438 
L 1157.906316 184.430438 
L 1157.906316 184.430438 
" clip-path="url(#pa445529657)" style="fill: none; stroke: #006d2c; stroke-opacity: 0.17; stroke-linecap: square"/>
   </g>
   <g id="line2d_137">
    <path d="M 849.363892 147.850612 
L 856.40824 147.850612 
L 857.817109 142.80808 
L 871.905804 142.80808 
L 873.314674 184.430438 
L 897.265456 184.430438 
L 898.674325 194.184731 
L 1157.906316 194.184731 
L 1157.906316 194.184731 
" clip-path="url(#pa445529657)" style="fill: none; stroke: #006d2c; stroke-opacity: 0.17; stroke-linecap: square"/>
   </g>
   <g id="line2d_138">
    <path d="M 849.363892 144.115322 
L 856.40824 144.115322 
L 857.817109 161.303588 
L 871.905804 161.303588 
L 873.314674 195.670164 
L 897.265456 195.670164 
L 898.674325 201.890761 
L 1157.906316 201.890761 
L 1157.906316 201.890761 
" clip-path="url(#pa445529657)" style="fill: none; stroke: #111111; stroke-width: 2.2; stroke-linecap: square"/>
   </g>
   <g id="line2d_139">
    <path d="M 833.936771 184.430438 
L 1173.333437 184.430438 
" clip-path="url(#pa445529657)" style="fill: none; stroke-dasharray: 0.9,1.485; stroke-dashoffset: 0; stroke: #595959; stroke-width: 0.9"/>
   </g>
   <g id="patch_13">
    <path d="M 833.936771 303.82675 
L 833.936771 50.208 
" style="fill: none; stroke: #000000; stroke-width: 0.8; stroke-linejoin: miter; stroke-linecap: square"/>
   </g>
   <g id="patch_14">
    <path d="M 1173.333437 303.82675 
L 1173.333437 50.208 
" style="fill: none; stroke: #000000; stroke-width: 0.8; stroke-linejoin: miter; stroke-linecap: square"/>
   </g>
   <g id="patch_15">
    <path d="M 833.936771 303.82675 
L 1173.333437 303.82675 
" style="fill: none; stroke: #000000; stroke-width: 0.8; stroke-linejoin: miter; stroke-linecap: square"/>
   </g>
   <g id="patch_16">
    <path d="M 833.936771 50.208 
L 1173.333437 50.208 
" style="fill: none; stroke: #000000; stroke-width: 0.8; stroke-linejoin: miter; stroke-linecap: square"/>
   </g>
   <g id="text_45">
    <!-- Price Informativeness -->
    <g transform="translate(944.243698 44.208) scale(0.11 -0.11)">
     <defs>
      <path id="DejaVuSans-50" d="M 1259 4147 
L 1259 2394 
L 2053 2394 
Q 2494 2394 2734 2622 
Q 2975 2850 2975 3272 
Q 2975 3691 2734 3919 
Q 2494 4147 2053 4147 
L 1259 4147 
z
M 628 4666 
L 2053 4666 
Q 2838 4666 3239 4311 
Q 3641 3956 3641 3272 
Q 3641 2581 3239 2228 
Q 2838 1875 2053 1875 
L 1259 1875 
L 1259 0 
L 628 0 
L 628 4666 
z
" transform="scale(0.015625)"/>
      <path id="DejaVuSans-73" d="M 2834 3397 
L 2834 2853 
Q 2591 2978 2328 3040 
Q 2066 3103 1784 3103 
Q 1356 3103 1142 2972 
Q 928 2841 928 2578 
Q 928 2378 1081 2264 
Q 1234 2150 1697 2047 
L 1894 2003 
Q 2506 1872 2764 1633 
Q 3022 1394 3022 966 
Q 3022 478 2636 193 
Q 2250 -91 1575 -91 
Q 1294 -91 989 -36 
Q 684 19 347 128 
L 347 722 
Q 666 556 975 473 
Q 1284 391 1588 391 
Q 1994 391 2212 530 
Q 2431 669 2431 922 
Q 2431 1156 2273 1281 
Q 2116 1406 1581 1522 
L 1381 1569 
Q 847 1681 609 1914 
Q 372 2147 372 2553 
Q 372 3047 722 3315 
Q 1072 3584 1716 3584 
Q 2034 3584 2315 3537 
Q 2597 3491 2834 3397 
z
" transform="scale(0.015625)"/>
     </defs>
     <use xlink:href="#DejaVuSans-50"/>
     <use xlink:href="#DejaVuSans-72" transform="translate(58.552734 0)"/>
     <use xlink:href="#DejaVuSans-69" transform="translate(99.666016 0)"/>
     <use xlink:href="#DejaVuSans-63" transform="translate(127.449219 0)"/>
     <use xlink:href="#DejaVuSans-65" transform="translate(182.429688 0)"/>
     <use xlink:href="#DejaVuSans-20" transform="translate(243.953125 0)"/>
     <use xlink:href="#DejaVuSans-49" transform="translate(275.740234 0)"/>
     <use xlink:href="#DejaVuSans-6e" transform="translate(305.232422 0)"/>
     <use xlink:href="#DejaVuSans-66" transform="translate(368.611328 0)"/>
     <use xlink:href="#DejaVuSans-6f" transform="translate(403.816406 0)"/>
     <use xlink:href="#DejaVuSans-72" transform="translate(464.998047 0)"/>
     <use xlink:href="#DejaVuSans-6d" transform="translate(504.361328 0)"/>
     <use xlink:href="#DejaVuSans-61" transform="translate(601.773438 0)"/>
     <use xlink:href="#DejaVuSans-74" transform="translate(663.052734 0)"/>
     <use xlink:href="#DejaVuSans-69" transform="translate(702.261719 0)"/>
     <use xlink:href="#DejaVuSans-76" transform="translate(730.044922 0)"/>
     <use xlink:href="#DejaVuSans-65" transform="translate(789.224609 0)"/>
     <use xlink:href="#DejaVuSans-6e" transform="translate(850.748047 0)"/>
     <use xlink:href="#DejaVuSans-65" transform="translate(914.126953 0)"/>
     <use xlink:href="#DejaVuSans-73" transform="translate(975.650391 0)"/>
     <use xlink:href="#DejaVuSans-73" transform="translate(1027.75 0)"/>
    </g>
   </g>
  </g>
  <g id="text_46">
   <!-- Random Forest ICE Curves for Index Ownership -->
   <g transform="translate(424.433594 17.837812) scale(0.14 -0.14)">
    <defs>
     <path id="DejaVuSans-52" d="M 2841 2188 
Q 3044 2119 3236 1894 
Q 3428 1669 3622 1275 
L 4263 0 
L 3584 0 
L 2988 1197 
Q 2756 1666 2539 1819 
Q 2322 1972 1947 1972 
L 1259 1972 
L 1259 0 
L 628 0 
L 628 4666 
L 2053 4666 
Q 2853 4666 3247 4331 
Q 3641 3997 3641 3322 
Q 3641 2881 3436 2590 
Q 3231 2300 2841 2188 
z
M 1259 4147 
L 1259 2491 
L 2053 2491 
Q 2509 2491 2742 2702 
Q 2975 2913 2975 3322 
Q 2975 3731 2742 3939 
Q 2509 4147 2053 4147 
L 1259 4147 
z
" transform="scale(0.015625)"/>
     <path id="DejaVuSans-46" d="M 628 4666 
L 3309 4666 
L 3309 4134 
L 1259 4134 
L 1259 2759 
L 3109 2759 
L 3109 2228 
L 1259 2228 
L 1259 0 
L 628 0 
L 628 4666 
z
" transform="scale(0.015625)"/>
     <path id="DejaVuSans-78" d="M 3513 3500 
L 2247 1797 
L 3578 0 
L 2900 0 
L 1881 1375 
L 863 0 
L 184 0 
L 1544 1831 
L 300 3500 
L 978 3500 
L 1906 2253 
L 2834 3500 
L 3513 3500 
z
" transform="scale(0.015625)"/>
     <path id="DejaVuSans-4f" d="M 2522 4238 
Q 1834 4238 1429 3725 
Q 1025 3213 1025 2328 
Q 1025 1447 1429 934 
Q 1834 422 2522 422 
Q 3209 422 3611 934 
Q 4013 1447 4013 2328 
Q 4013 3213 3611 3725 
Q 3209 4238 2522 4238 
z
M 2522 4750 
Q 3503 4750 4090 4092 
Q 4678 3434 4678 2328 
Q 4678 1225 4090 567 
Q 3503 -91 2522 -91 
Q 1538 -91 948 565 
Q 359 1222 359 2328 
Q 359 3434 948 4092 
Q 1538 4750 2522 4750 
z
" transform="scale(0.015625)"/>
     <path id="DejaVuSans-68" d="M 3513 2113 
L 3513 0 
L 2938 0 
L 2938 2094 
Q 2938 2591 2744 2837 
Q 2550 3084 2163 3084 
Q 1697 3084 1428 2787 
Q 1159 2491 1159 1978 
L 1159 0 
L 581 0 
L 581 4863 
L 1159 4863 
L 1159 2956 
Q 1366 3272 1645 3428 
Q 1925 3584 2291 3584 
Q 2894 3584 3203 3211 
Q 3513 2838 3513 2113 
z
" transform="scale(0.015625)"/>
     <path id="DejaVuSans-70" d="M 1159 525 
L 1159 -1331 
L 581 -1331 
L 581 3500 
L 1159 3500 
L 1159 2969 
Q 1341 3281 1617 3432 
Q 1894 3584 2278 3584 
Q 2916 3584 3314 3078 
Q 3713 2572 3713 1747 
Q 3713 922 3314 415 
Q 2916 -91 2278 -91 
Q 1894 -91 1617 61 
Q 1341 213 1159 525 
z
M 3116 1747 
Q 3116 2381 2855 2742 
Q 2594 3103 2138 3103 
Q 1681 3103 1420 2742 
Q 1159 2381 1159 1747 
Q 1159 1113 1420 752 
Q 1681 391 2138 391 
Q 2594 391 2855 752 
Q 3116 1113 3116 1747 
z
" transform="scale(0.015625)"/>
    </defs>
    <use xlink:href="#DejaVuSans-52"/>
    <use xlink:href="#DejaVuSans-61" transform="translate(67.232422 0)"/>
    <use xlink:href="#DejaVuSans-6e" transform="translate(128.511719 0)"/>
    <use xlink:href="#DejaVuSans-64" transform="translate(191.890625 0)"/>
    <use xlink:href="#DejaVuSans-6f" transform="translate(255.367188 0)"/>
    <use xlink:href="#DejaVuSans-6d" transform="translate(316.548828 0)"/>
    <use xlink:href="#DejaVuSans-20" transform="translate(413.960938 0)"/>
    <use xlink:href="#DejaVuSans-46" transform="translate(445.748047 0)"/>
    <use xlink:href="#DejaVuSans-6f" transform="translate(499.642578 0)"/>
    <use xlink:href="#DejaVuSans-72" transform="translate(560.824219 0)"/>
    <use xlink:href="#DejaVuSans-65" transform="translate(599.6875 0)"/>
    <use xlink:href="#DejaVuSans-73" transform="translate(661.210938 0)"/>
    <use xlink:href="#DejaVuSans-74" transform="translate(713.310547 0)"/>
    <use xlink:href="#DejaVuSans-20" transform="translate(752.519531 0)"/>
    <use xlink:href="#DejaVuSans-49" transform="translate(784.306641 0)"/>
    <use xlink:href="#DejaVuSans-43" transform="translate(813.798828 0)"/>
    <use xlink:href="#DejaVuSans-45" transform="translate(883.623047 0)"/>
    <use xlink:href="#DejaVuSans-20" transform="translate(946.806641 0)"/>
    <use xlink:href="#DejaVuSans-43" transform="translate(978.59375 0)"/>
    <use xlink:href="#DejaVuSans-75" transform="translate(1048.417969 0)"/>
    <use xlink:href="#DejaVuSans-72" transform="translate(1111.796875 0)"/>
    <use xlink:href="#DejaVuSans-76" transform="translate(1152.910156 0)"/>
    <use xlink:href="#DejaVuSans-65" transform="translate(1212.089844 0)"/>
    <use xlink:href="#DejaVuSans-73" transform="translate(1273.613281 0)"/>
    <use xlink:href="#DejaVuSans-20" transform="translate(1325.712891 0)"/>
    <use xlink:href="#DejaVuSans-66" transform="translate(1357.5 0)"/>
    <use xlink:href="#DejaVuSans-6f" transform="translate(1392.705078 0)"/>
    <use xlink:href="#DejaVuSans-72" transform="translate(1453.886719 0)"/>
    <use xlink:href="#DejaVuSans-20" transform="translate(1495 0)"/>
    <use xlink:href="#DejaVuSans-49" transform="translate(1526.787109 0)"/>
    <use xlink:href="#DejaVuSans-6e" transform="translate(1556.279297 0)"/>
    <use xlink:href="#DejaVuSans-64" transform="translate(1619.658203 0)"/>
    <use xlink:href="#DejaVuSans-65" transform="translate(1683.134766 0)"/>
    <use xlink:href="#DejaVuSans-78" transform="translate(1742.908203 0)"/>
    <use xlink:href="#DejaVuSans-20" transform="translate(1802.087891 0)"/>
    <use xlink:href="#DejaVuSans-4f" transform="translate(1833.875 0)"/>
    <use xlink:href="#DejaVuSans-77" transform="translate(1912.585938 0)"/>
    <use xlink:href="#DejaVuSans-6e" transform="translate(1994.373047 0)"/>
    <use xlink:href="#DejaVuSans-65" transform="translate(2057.751953 0)"/>
    <use xlink:href="#DejaVuSans-72" transform="translate(2119.275391 0)"/>
    <use xlink:href="#DejaVuSans-73" transform="translate(2160.388672 0)"/>
    <use xlink:href="#DejaVuSans-68" transform="translate(2212.488281 0)"/>
    <use xlink:href="#DejaVuSans-69" transform="translate(2275.867188 0)"/>
    <use xlink:href="#DejaVuSans-70" transform="translate(2303.650391 0)"/>
   </g>
  </g>
 </g>
 <defs>
  <clipPath id="pdca08a7239">
   <rect x="58.523438" y="50.208" width="339.396667" height="253.61875"/>
  </clipPath>
  <clipPath id="pe58a547c3c">
   <rect x="446.230104" y="50.208" width="339.396667" height="253.61875"/>
  </clipPath>
  <clipPath id="pa445529657">
   <rect x="833.936771" y="50.208" width="339.396667" height="253.61875"/>
  </clipPath>
 </defs>
</svg>
