<svg xmlns="http://www.w3.org/2000/svg" width="1000" height="600" viewBox="0 0 1000 600">
<rect width="100%" height="100%" fill="#ffffff"/>
<rect x="151.92" y="50.00" width="26.97" height="470.00" fill="#cfe8ff" fill-opacity="0.6"/>
<rect x="394.65" y="50.00" width="53.94" height="470.00" fill="#cfe8ff" fill-opacity="0.6"/>
<rect x="826.16" y="50.00" width="17.98" height="470.00" fill="#cfe8ff" fill-opacity="0.6"/>
<line x1="80" y1="520" x2="970" y2="520" stroke="#333"/>
<line x1="80" y1="50" x2="80" y2="520" stroke="#333"/>
<line x1="80.00" y1="520" x2="80.00" y2="526" stroke="#333"/>
<text x="80.00" y="542" text-anchor="middle" font-family="Arial" font-size="11">1999-03-31</text>
<line x1="178.89" y1="520" x2="178.89" y2="526" stroke="#333"/>
<text x="178.89" y="542" text-anchor="middle" font-family="Arial" font-size="11">2001-12-31</text>
<line x1="277.78" y1="520" x2="277.78" y2="526" stroke="#333"/>
<text x="277.78" y="542" text-anchor="middle" font-family="Arial" font-size="11">2004-09-30</text>
<line x1="376.67" y1="520" x2="376.67" y2="526" stroke="#333"/>
<text x="376.67" y="542" text-anchor="middle" font-family="Arial" font-size="11">2007-06-30</text>
<line x1="475.56" y1="520" x2="475.56" y2="526" stroke="#333"/>
<text x="475.56" y="542" text-anchor="middle" font-family="Arial" font-size="11">2010-03-31</text>
<line x1="574.44" y1="520" x2="574.44" y2="526" stroke="#333"/>
<text x="574.44" y="542" text-anchor="middle" font-family="Arial" font-size="11">2012-12-31</text>
<line x1="673.33" y1="520" x2="673.33" y2="526" stroke="#333"/>
<text x="673.33" y="542" text-anchor="middle" font-family="Arial" font-size="11">2015-09-30</text>
<line x1="772.22" y1="520" x2="772.22" y2="526" stroke="#333"/>
<text x="772.22" y="542" text-anchor="middle" font-family="Arial" font-size="11">2018-06-30</text>
<line x1="871.11" y1="520" x2="871.11" y2="526" stroke="#333"/>
<text x="871.11" y="542" text-anchor="middle" font-family="Arial" font-size="11">2021-03-31</text>
<line x1="970.00" y1="520" x2="970.00" y2="526" stroke="#333"/>
<text x="970.00" y="542" text-anchor="middle" font-family="Arial" font-size="11">2023-12-31</text>
<line x1="74" y1="520.00" x2="80" y2="520.00" stroke="#333"/>
<text x="70" y="524.00" text-anchor="end" font-family="Arial" font-size="12">-0.005</text>
<line x1="74" y1="426.00" x2="80" y2="426.00" stroke="#333"/>
<text x="70" y="430.00" text-anchor="end" font-family="Arial" font-size="12">0.009</text>
<line x1="74" y1="332.00" x2="80" y2="332.00" stroke="#333"/>
<text x="70" y="336.00" text-anchor="end" font-family="Arial" font-size="12">0.023</text>
<line x1="74" y1="238.00" x2="80" y2="238.00" stroke="#333"/>
<text x="70" y="242.00" text-anchor="end" font-family="Arial" font-size="12">0.037</text>
<line x1="74" y1="144.00" x2="80" y2="144.00" stroke="#333"/>
<text x="70" y="148.00" text-anchor="end" font-family="Arial" font-size="12">0.051</text>
<line x1="74" y1="50.00" x2="80" y2="50.00" stroke="#333"/>
<text x="70" y="54.00" text-anchor="end" font-family="Arial" font-size="12">0.066</text>
<polyline fill="none" stroke="#1f77b4" stroke-width="2" points="80.00,366.48 88.99,364.76 97.98,290.94 106.97,235.85 115.96,246.52 124.95,212.79 133.94,460.30 142.93,100.69 151.92,89.17 160.91,196.89 169.90,240.36 178.89,205.80 187.88,264.83 196.87,292.19 205.86,144.71 214.85,154.08 223.84,213.95 232.83,319.11 241.82,328.37 250.81,348.94 259.80,343.10 268.79,331.65 277.78,299.63 286.77,335.82 295.76,355.80 304.75,332.52 313.74,399.35 322.73,413.17 331.72,423.92 340.71,427.32 349.70,422.18 358.69,437.43 367.68,437.69 376.67,440.32 385.66,419.47 394.65,401.61 403.64,379.40 412.63,372.64 421.62,315.30 430.61,115.11 439.60,153.72 448.59,266.76 457.58,302.70 466.57,329.42 475.56,351.42 484.55,341.52 493.54,342.83 502.53,365.50 511.52,372.10 520.51,379.40 529.49,342.78 538.48,336.27 547.47,369.13 556.46,344.47 565.45,342.22 574.44,340.51 583.43,362.51 592.42,379.69 601.41,402.84 610.40,403.50 619.39,402.70 628.38,408.47 637.37,403.52 646.36,379.12 655.35,376.67 664.34,393.54 673.33,367.89 682.32,364.83 691.31,344.16 700.30,371.39 709.29,360.68 718.28,360.38 727.27,373.48 736.26,384.66 745.25,380.13 754.24,386.90 763.23,381.35 772.22,385.12 781.21,379.02 790.20,343.25 799.19,356.06 808.18,365.60 817.17,361.36 826.16,377.85 835.15,309.41 844.14,286.55 853.13,338.38 862.12,353.35 871.11,399.33 880.10,408.75 889.09,391.72 898.08,379.42 907.07,358.72 916.06,348.86 925.05,339.08 934.04,327.10 943.03,347.53 952.02,336.89 961.01,347.57 970.00,334.08"/>
<polyline fill="none" stroke="#ff7f0e" stroke-width="2" points="80.00,470.36 88.99,469.58 97.98,465.99 106.97,451.83 115.96,458.60 124.95,448.19 133.94,480.83 142.93,413.73 151.92,432.74 160.91,444.19 169.90,443.62 178.89,442.51 187.88,457.64 196.87,451.18 205.86,424.86 214.85,426.42 223.84,437.62 232.83,460.31 241.82,461.61 250.81,464.77 259.80,464.67 268.79,463.90 277.78,461.57 286.77,466.58 295.76,469.10 304.75,467.67 313.74,471.07 322.73,472.52 331.72,475.07 340.71,474.40 349.70,472.66 358.69,475.44 367.68,476.96 376.67,477.79 385.66,474.73 394.65,472.44 403.64,471.92 412.63,473.27 421.62,468.41 430.61,442.40 439.60,453.68 448.59,462.81 457.58,465.51 466.57,467.81 475.56,471.03 484.55,469.16 493.54,467.27 502.53,471.67 511.52,473.93 520.51,474.15 529.49,467.87 538.48,466.25 547.47,474.33 556.46,471.58 565.45,472.31 574.44,472.60 583.43,476.00 592.42,473.56 601.41,474.84 610.40,475.33 619.39,476.40 628.38,476.39 637.37,476.24 646.36,474.89 655.35,475.25 664.34,477.23 673.33,475.12 682.32,473.80 691.31,472.72 700.30,474.85 709.29,475.83 718.28,475.14 727.27,476.91 736.26,477.24 745.25,477.14 754.24,478.00 763.23,476.70 772.22,477.64 781.21,477.48 790.20,474.64 799.19,476.57 808.18,476.49 817.17,476.11 826.16,477.33 835.15,471.21 844.14,468.75 853.13,474.41 862.12,474.27 871.11,475.82 880.10,476.88 889.09,475.32 898.08,475.49 907.07,474.09 916.06,473.58 925.05,473.66 934.04,473.63 943.03,475.99 952.02,476.26 961.01,477.00 970.00,476.61"/>
<text x="500.0" y="580" text-anchor="middle" font-family="Arial" font-size="14">Date (Recession in Blue)</text>
<text x="20" y="300.0" text-anchor="middle" font-family="Arial" font-size="14" transform="rotate(-90 20 300.0)">Amihud Illiquidity</text>
<text x="500.0" y="30" text-anchor="middle" font-family="Arial" font-size="16">Amihud Illiquidity Over Time</text>
<rect x="700" y="560" width="190" height="50" fill="#fff" stroke="#ccc"/>
<line x1="710" y1="578" x2="740" y2="578" stroke="#1f77b4" stroke-width="2"/>
<text x="745" y="582" font-family="Arial" font-size="12">Mean</text>
<line x1="710" y1="596" x2="740" y2="596" stroke="#ff7f0e" stroke-width="2"/>
<text x="745" y="600" font-family="Arial" font-size="12">Median</text>
</svg>