<svg xmlns="http://www.w3.org/2000/svg" width="1000" height="600" viewBox="0 0 1000 600">
<rect width="100%" height="100%" fill="#ffffff"/>
<rect x="151.92" y="50.00" width="26.97" height="470.00" fill="#cfe8ff" fill-opacity="0.6"/>
<rect x="394.65" y="50.00" width="53.94" height="470.00" fill="#cfe8ff" fill-opacity="0.6"/>
<rect x="826.16" y="50.00" width="17.98" height="470.00" fill="#cfe8ff" fill-opacity="0.6"/>
<line x1="80" y1="520" x2="970" y2="520" stroke="#333"/>
<line x1="80" y1="50" x2="80" y2="520" stroke="#333"/>
<line x1="80.00" y1="520" x2="80.00" y2="526" stroke="#333"/>
<text x="80.00" y="542" text-anchor="middle" font-family="Arial" font-size="11">1999-03-31</text>
<line x1="178.89" y1="520" x2="178.89" y2="526" stroke="#333"/>
<text x="178.89" y="542" text-anchor="middle" font-family="Arial" font-size="11">2001-12-31</text>
<line x1="277.78" y1="520" x2="277.78" y2="526" stroke="#333"/>
<text x="277.78" y="542" text-anchor="middle" font-family="Arial" font-size="11">2004-09-30</text>
<line x1="376.67" y1="520" x2="376.67" y2="526" stroke="#333"/>
<text x="376.67" y="542" text-anchor="middle" font-family="Arial" font-size="11">2007-06-30</text>
<line x1="475.56" y1="520" x2="475.56" y2="526" stroke="#333"/>
<text x="475.56" y="542" text-anchor="middle" font-family="Arial" font-size="11">2010-03-31</text>
<line x1="574.44" y1="520" x2="574.44" y2="526" stroke="#333"/>
<text x="574.44" y="542" text-anchor="middle" font-family="Arial" font-size="11">2012-12-31</text>
<line x1="673.33" y1="520" x2="673.33" y2="526" stroke="#333"/>
<text x="673.33" y="542" text-anchor="middle" font-family="Arial" font-size="11">2015-09-30</text>
<line x1="772.22" y1="520" x2="772.22" y2="526" stroke="#333"/>
<text x="772.22" y="542" text-anchor="middle" font-family="Arial" font-size="11">2018-06-30</text>
<line x1="871.11" y1="520" x2="871.11" y2="526" stroke="#333"/>
<text x="871.11" y="542" text-anchor="middle" font-family="Arial" font-size="11">2021-03-31</text>
<line x1="970.00" y1="520" x2="970.00" y2="526" stroke="#333"/>
<text x="970.00" y="542" text-anchor="middle" font-family="Arial" font-size="11">2023-12-31</text>
<line x1="74" y1="520.00" x2="80" y2="520.00" stroke="#333"/>
<text x="70" y="524.00" text-anchor="end" font-family="Arial" font-size="12">-1.076</text>
<line x1="74" y1="426.00" x2="80" y2="426.00" stroke="#333"/>
<text x="70" y="430.00" text-anchor="end" font-family="Arial" font-size="12">-0.359</text>
<line x1="74" y1="332.00" x2="80" y2="332.00" stroke="#333"/>
<text x="70" y="336.00" text-anchor="end" font-family="Arial" font-size="12">0.359</text>
<line x1="74" y1="238.00" x2="80" y2="238.00" stroke="#333"/>
<text x="70" y="242.00" text-anchor="end" font-family="Arial" font-size="12">1.076</text>
<line x1="74" y1="144.00" x2="80" y2="144.00" stroke="#333"/>
<text x="70" y="148.00" text-anchor="end" font-family="Arial" font-size="12">1.793</text>
<line x1="74" y1="50.00" x2="80" y2="50.00" stroke="#333"/>
<text x="70" y="54.00" text-anchor="end" font-family="Arial" font-size="12">2.510</text>
<polyline fill="none" stroke="#1f77b4" stroke-width="2" points="80.00,145.93 88.99,131.34 97.98,122.21 106.97,89.17 115.96,153.72 124.95,158.34 133.94,123.46 142.93,186.07 151.92,220.91 160.91,220.17 169.90,232.82 178.89,186.38 187.88,179.28 196.87,211.07 205.86,293.43 214.85,262.60 223.84,248.95 232.83,210.30 241.82,230.65 250.81,231.08 259.80,225.83 268.79,228.15 277.78,244.17 286.77,204.96 295.76,217.26 304.75,220.54 313.74,220.97 322.73,247.63 331.72,183.38 340.71,269.38 349.70,251.64 358.69,217.38 367.68,261.83 376.67,224.94 385.66,303.01 394.65,293.98 403.64,303.70 412.63,251.96 421.62,340.29 430.61,419.14 439.60,386.02 448.59,335.36 457.58,273.43 466.57,306.38 475.56,249.02 484.55,403.28 493.54,370.63 502.53,259.60 511.52,281.88 520.51,280.89 529.49,464.27 538.48,444.69 547.47,245.20 556.46,323.82 565.45,239.52 574.44,242.72 583.43,219.38 592.42,301.83 601.41,217.75 610.40,227.70 619.39,255.45 628.38,247.50 637.37,235.09 646.36,275.14 655.35,251.94 664.34,219.86 673.33,293.22 682.32,252.28 691.31,290.80 700.30,280.39 709.29,236.18 718.28,226.48 727.27,200.46 736.26,198.40 745.25,177.22 754.24,147.42 763.23,256.39 772.22,187.76 781.21,136.03 790.20,297.96 799.19,238.88 808.18,233.37 817.17,278.51 826.16,177.94 835.15,431.54 844.14,383.15 853.13,282.93 862.12,287.95 871.11,281.97 880.10,248.82 889.09,261.75 898.08,253.75 907.07,295.35 916.06,337.54 925.05,307.64 934.04,315.68 943.03,278.23 952.02,234.16 961.01,190.60 970.00,279.97"/>
<polyline fill="none" stroke="#ff7f0e" stroke-width="2" points="80.00,156.69 88.99,145.88 97.98,138.85 106.97,96.70 115.96,169.28 124.95,165.50 133.94,137.75 142.93,195.63 151.92,232.18 160.91,233.59 169.90,247.96 178.89,199.72 187.88,196.87 196.87,223.55 205.86,305.85 214.85,276.56 223.84,255.85 232.83,222.82 241.82,245.95 250.81,248.95 259.80,243.93 268.79,249.29 277.78,265.43 286.77,224.28 295.76,238.12 304.75,241.89 313.74,239.15 322.73,263.53 331.72,199.72 340.71,287.94 349.70,269.80 358.69,229.34 367.68,275.34 376.67,241.89 385.66,325.30 394.65,310.08 403.64,322.84 412.63,279.59 421.62,350.58 430.61,435.99 439.60,403.19 448.59,348.98 457.58,288.53 466.57,320.92 475.56,260.99 484.55,423.47 493.54,392.12 502.53,278.99 511.52,301.87 520.51,301.87 529.49,480.83 538.48,466.53 547.47,262.27 556.46,346.32 565.45,253.24 574.44,253.24 583.43,234.29 592.42,322.02 601.41,234.29 610.40,244.60 619.39,270.42 628.38,266.68 637.37,253.24 646.36,294.96 655.35,262.27 664.34,240.52 673.33,303.58 682.32,267.62 691.31,308.11 700.30,296.70 709.29,253.89 718.28,239.84 727.27,208.46 736.26,209.24 745.25,182.88 754.24,153.67 763.23,264.17 772.22,202.94 781.21,145.35 790.20,310.08 799.19,250.61 808.18,249.95 817.17,286.17 826.16,187.22 835.15,444.01 844.14,407.96 853.13,288.53 862.12,294.96 871.11,294.38 880.10,260.99 889.09,271.66 898.08,268.56 907.07,320.92 916.06,357.98 925.05,329.66 934.04,337.23 943.03,298.43 952.02,247.29 961.01,203.74 970.00,293.22"/>
<text x="500.0" y="580" text-anchor="middle" font-family="Arial" font-size="14">Date (Recession in Blue)</text>
<text x="20" y="300.0" text-anchor="middle" font-family="Arial" font-size="14" transform="rotate(-90 20 300.0)">Price Informativeness</text>
<text x="500.0" y="30" text-anchor="middle" font-family="Arial" font-size="16">Price Informativeness Over Time</text>
<rect x="700" y="560" width="190" height="50" fill="#fff" stroke="#ccc"/>
<line x1="710" y1="578" x2="740" y2="578" stroke="#1f77b4" stroke-width="2"/>
<text x="745" y="582" font-family="Arial" font-size="12">Mean</text>
<line x1="710" y1="596" x2="740" y2="596" stroke="#ff7f0e" stroke-width="2"/>
<text x="745" y="600" font-family="Arial" font-size="12">Median</text>
</svg>