<svg xmlns="http://www.w3.org/2000/svg" width="1000" height="600" viewBox="0 0 1000 600">
<rect width="100%" height="100%" fill="#ffffff"/>
<rect x="151.92" y="50.00" width="26.97" height="470.00" fill="#cfe8ff" fill-opacity="0.6"/>
<rect x="394.65" y="50.00" width="53.94" height="470.00" fill="#cfe8ff" fill-opacity="0.6"/>
<rect x="826.16" y="50.00" width="17.98" height="470.00" fill="#cfe8ff" fill-opacity="0.6"/>
<line x1="80" y1="520" x2="970" y2="520" stroke="#333"/>
<line x1="80" y1="50" x2="80" y2="520" stroke="#333"/>
<line x1="80.00" y1="520" x2="80.00" y2="526" stroke="#333"/>
<text x="80.00" y="542" text-anchor="middle" font-family="Arial" font-size="11">1999-03-31</text>
<line x1="178.89" y1="520" x2="178.89" y2="526" stroke="#333"/>
<text x="178.89" y="542" text-anchor="middle" font-family="Arial" font-size="11">2001-12-31</text>
<line x1="277.78" y1="520" x2="277.78" y2="526" stroke="#333"/>
<text x="277.78" y="542" text-anchor="middle" font-family="Arial" font-size="11">2004-09-30</text>
<line x1="376.67" y1="520" x2="376.67" y2="526" stroke="#333"/>
<text x="376.67" y="542" text-anchor="middle" font-family="Arial" font-size="11">2007-06-30</text>
<line x1="475.56" y1="520" x2="475.56" y2="526" stroke="#333"/>
<text x="475.56" y="542" text-anchor="middle" font-family="Arial" font-size="11">2010-03-31</text>
<line x1="574.44" y1="520" x2="574.44" y2="526" stroke="#333"/>
<text x="574.44" y="542" text-anchor="middle" font-family="Arial" font-size="11">2012-12-31</text>
<line x1="673.33" y1="520" x2="673.33" y2="526" stroke="#333"/>
<text x="673.33" y="542" text-anchor="middle" font-family="Arial" font-size="11">2015-09-30</text>
<line x1="772.22" y1="520" x2="772.22" y2="526" stroke="#333"/>
<text x="772.22" y="542" text-anchor="middle" font-family="Arial" font-size="11">2018-06-30</text>
<line x1="871.11" y1="520" x2="871.11" y2="526" stroke="#333"/>
<text x="871.11" y="542" text-anchor="middle" font-family="Arial" font-size="11">2021-03-31</text>
<line x1="970.00" y1="520" x2="970.00" y2="526" stroke="#333"/>
<text x="970.00" y="542" text-anchor="middle" font-family="Arial" font-size="11">2023-12-31</text>
<line x1="74" y1="520.00" x2="80" y2="520.00" stroke="#333"/>
<text x="70" y="524.00" text-anchor="end" font-family="Arial" font-size="12">0.080</text>
<line x1="74" y1="426.00" x2="80" y2="426.00" stroke="#333"/>
<text x="70" y="430.00" text-anchor="end" font-family="Arial" font-size="12">0.168</text>
<line x1="74" y1="332.00" x2="80" y2="332.00" stroke="#333"/>
<text x="70" y="336.00" text-anchor="end" font-family="Arial" font-size="12">0.256</text>
<line x1="74" y1="238.00" x2="80" y2="238.00" stroke="#333"/>
<text x="70" y="242.00" text-anchor="end" font-family="Arial" font-size="12">0.345</text>
<line x1="74" y1="144.00" x2="80" y2="144.00" stroke="#333"/>
<text x="70" y="148.00" text-anchor="end" font-family="Arial" font-size="12">0.433</text>
<line x1="74" y1="50.00" x2="80" y2="50.00" stroke="#333"/>
<text x="70" y="54.00" text-anchor="end" font-family="Arial" font-size="12">0.521</text>
<polyline fill="none" stroke="#1f77b4" stroke-width="2" points="80.00,373.31 88.99,368.47 97.98,396.96 106.97,345.38 115.96,301.20 124.95,309.31 133.94,375.77 142.93,265.98 151.92,292.86 160.91,353.80 169.90,350.10 178.89,358.12 187.88,389.35 196.87,374.82 205.86,310.10 214.85,338.96 223.84,398.90 232.83,413.03 241.82,415.79 250.81,425.31 259.80,421.10 268.79,421.73 277.78,421.39 286.77,434.75 295.76,440.84 304.75,431.80 313.74,441.73 322.73,434.07 331.72,445.48 340.71,422.11 349.70,422.34 358.69,451.15 367.68,447.76 376.67,452.78 385.66,383.64 394.65,370.74 403.64,332.10 412.63,377.29 421.62,276.57 430.61,89.17 439.60,224.08 448.59,286.28 457.58,377.15 466.57,399.29 475.56,425.99 484.55,374.33 493.54,396.92 502.53,437.35 511.52,431.08 520.51,437.82 529.49,324.52 538.48,340.15 547.47,438.19 556.46,419.54 565.45,438.02 574.44,446.46 583.43,463.06 592.42,433.26 601.41,452.17 610.40,445.05 619.39,435.74 628.38,444.05 637.37,457.18 646.36,420.08 655.35,432.13 664.34,452.97 673.33,407.16 682.32,400.57 691.31,374.38 700.30,418.26 709.29,438.60 718.28,422.75 727.27,443.74 736.26,444.15 745.25,446.16 754.24,440.38 763.23,415.93 772.22,433.26 781.21,438.81 790.20,376.26 799.19,419.99 808.18,424.50 817.17,408.65 826.16,425.46 835.15,164.49 844.14,230.96 853.13,354.92 862.12,341.59 871.11,326.10 880.10,389.97 889.09,391.76 898.08,371.51 907.07,348.64 916.06,333.64 925.05,364.81 934.04,354.13 943.03,381.55 952.02,389.45 961.01,409.98 970.00,383.74"/>
<polyline fill="none" stroke="#ff7f0e" stroke-width="2" points="80.00,394.12 88.99,389.73 97.98,415.98 106.97,378.22 115.96,326.60 124.95,349.64 133.94,400.72 142.93,307.49 151.92,343.60 160.91,406.38 169.90,370.61 178.89,381.62 187.88,414.95 196.87,401.79 205.86,333.76 214.85,362.20 223.84,416.98 232.83,430.50 241.82,436.65 250.81,441.56 259.80,438.81 268.79,438.47 277.78,442.08 286.77,449.73 295.76,454.52 304.75,443.67 313.74,450.50 322.73,444.10 331.72,456.85 340.71,434.29 349.70,433.10 358.69,460.00 367.68,459.49 376.67,463.59 385.66,394.66 394.65,382.91 403.64,346.80 412.63,389.41 421.62,295.49 430.61,108.55 439.60,239.27 448.59,306.12 457.58,391.48 466.57,409.71 475.56,438.96 484.55,381.39 493.54,407.29 502.53,450.74 511.52,442.97 520.51,450.34 529.49,331.20 538.48,346.83 547.47,452.05 556.46,430.75 565.45,452.99 574.44,461.46 583.43,478.90 592.42,452.28 601.41,473.94 610.40,469.07 619.39,460.58 628.38,465.75 637.37,480.83 646.36,447.43 655.35,453.76 664.34,477.80 673.33,435.63 682.32,432.37 691.31,406.28 700.30,438.31 709.29,466.72 718.28,445.93 727.27,462.49 736.26,464.55 745.25,470.16 754.24,465.64 763.23,441.15 772.22,457.70 781.21,463.35 790.20,399.99 799.19,444.43 808.18,447.30 817.17,433.79 826.16,459.98 835.15,186.36 844.14,246.15 853.13,383.25 862.12,366.37 871.11,373.07 880.10,425.44 889.09,427.79 898.08,410.40 907.07,381.54 916.06,364.69 925.05,396.04 934.04,381.06 943.03,409.35 952.02,416.01 961.01,440.26 970.00,415.62"/>
<text x="500.0" y="580" text-anchor="middle" font-family="Arial" font-size="14">Date (Recession in Blue)</text>
<text x="20" y="300.0" text-anchor="middle" font-family="Arial" font-size="14" transform="rotate(-90 20 300.0)">Volatility</text>
<text x="500.0" y="30" text-anchor="middle" font-family="Arial" font-size="16">Volatility Over Time</text>
<rect x="700" y="560" width="190" height="50" fill="#fff" stroke="#ccc"/>
<line x1="710" y1="578" x2="740" y2="578" stroke="#1f77b4" stroke-width="2"/>
<text x="745" y="582" font-family="Arial" font-size="12">Mean</text>
<line x1="710" y1="596" x2="740" y2="596" stroke="#ff7f0e" stroke-width="2"/>
<text x="745" y="600" font-family="Arial" font-size="12">Median</text>
</svg>