<?xml version="1.0" encoding="utf-8" standalone="no"?>
<!DOCTYPE svg PUBLIC "-//W3C//DTD SVG 1.1//EN"
  "http://www.w3.org/Graphics/SVG/1.1/DTD/svg11.dtd">
<svg xmlns:xlink="http://www.w3.org/1999/xlink" width="769.119488pt" height="394.612812pt" viewBox="0 0 769.119488 394.612812" xmlns="http://www.w3.org/2000/svg" version="1.1">
 <metadata>
  <rdf:RDF xmlns:dc="http://purl.org/dc/elements/1.1/" xmlns:cc="http://creativecommons.org/ns#" xmlns:rdf="http://www.w3.org/1999/02/22-rdf-syntax-ns#">
   <cc:Work>
    <dc:type rdf:resource="http://purl.org/dc/dcmitype/StillImage"/>
    <dc:date>2026-03-18T12:33:01.492591</dc:date>
    <dc:format>image/svg+xml</dc:format>
    <dc:creator>
     <cc:Agent>
      <dc:title>Matplotlib v3.10.8, https://matplotlib.org/</dc:title>
     </cc:Agent>
    </dc:creator>
   </cc:Work>
  </rdf:RDF>
 </metadata>
 <defs>
  <style type="text/css">*{stroke-linejoin: round; stroke-linecap: butt}</style>
 </defs>
 <g id="figure_1">
  <g id="patch_1">
   <path d="M 0 394.612812 
L 769.119488 394.612812 
L 769.119488 0 
L 0 0 
z
" style="fill: #ffffff"/>
  </g>
  <g id="axes_1">
   <g id="patch_2">
    <path d="M 41.200313 356.203437 
L 756.147189 356.203437 
L 756.147189 30.377187 
L 41.200313 30.377187 
z
" style="fill: #ffffff"/>
   </g>
   <g id="patch_3">
    <path d="M 172.00513 356.203437 
L 206.050219 356.203437 
L 206.050219 30.377187 
L 172.00513 30.377187 
z
" clip-path="url(#p8512f385f0)" style="fill: #dbe9f6; opacity: 0.8"/>
   </g>
   <g id="FillBetweenPolyCollection_1">
    <defs>
     <path id="m5b3dd8d6d4" d="M 41.200313 -53.219659 
L 41.200313 -61.789659 
L 42.992159 -68.149624 
L 44.784006 -74.505813 
L 46.575853 -80.854532 
L 48.3677 -87.192084 
L 50.159547 -93.514773 
L 51.951393 -99.818905 
L 53.74324 -106.100783 
L 55.535087 -112.356713 
L 57.326934 -118.582997 
L 59.118781 -124.775941 
L 60.910627 -130.931849 
L 62.702474 -137.047026 
L 64.494321 -143.117775 
L 66.286168 -149.140402 
L 68.078015 -155.11121 
L 69.869861 -161.026504 
L 71.661708 -166.882588 
L 73.453555 -172.675767 
L 75.245402 -178.402346 
L 77.037249 -184.058628 
L 78.829095 -189.640917 
L 80.620942 -195.145519 
L 82.412789 -200.568738 
L 84.204636 -205.906878 
L 85.996483 -211.156243 
L 87.78833 -216.313139 
L 89.580176 -221.373868 
L 91.372023 -226.334737 
L 93.16387 -231.192048 
L 94.955717 -235.942154 
L 96.747564 -240.583107 
L 98.53941 -245.115445 
L 100.331257 -249.539898 
L 102.123104 -253.857196 
L 103.914951 -258.068071 
L 105.706798 -262.173254 
L 107.498644 -266.173441 
L 109.290491 -270.069347 
L 111.082338 -273.861756 
L 112.874185 -277.551401 
L 114.666032 -281.139012 
L 116.457878 -284.62532 
L 118.249725 -288.011055 
L 120.041572 -291.296949 
L 121.833419 -294.483733 
L 123.625266 -297.572138 
L 125.417112 -300.562894 
L 127.208959 -303.456732 
L 129.000806 -306.254384 
L 130.792653 -308.95658 
L 132.5845 -311.564051 
L 134.376347 -314.077529 
L 136.168193 -316.497743 
L 137.96004 -318.825426 
L 139.751887 -321.061307 
L 141.543734 -323.206118 
L 143.335581 -325.260591 
L 145.127427 -327.225454 
L 146.919274 -329.101441 
L 148.711121 -330.889281 
L 150.502968 -332.589705 
L 152.294815 -334.203445 
L 154.086661 -335.731232 
L 155.878508 -337.173795 
L 157.670355 -338.531867 
L 159.462202 -339.806178 
L 161.254049 -340.997459 
L 163.045895 -342.106441 
L 164.837742 -343.133855 
L 166.629589 -344.080432 
L 168.421436 -344.946903 
L 170.213283 -345.733998 
L 172.00513 -346.442449 
L 173.796976 -347.072986 
L 175.588823 -347.626342 
L 177.38067 -348.103335 
L 179.172517 -348.505064 
L 180.964364 -348.832687 
L 182.75621 -349.087366 
L 184.548057 -349.270261 
L 186.339904 -349.382533 
L 188.131751 -349.425341 
L 189.923598 -349.399846 
L 191.715444 -349.30721 
L 193.507291 -349.148591 
L 195.299138 -348.925152 
L 197.090985 -348.638052 
L 198.882832 -348.288451 
L 200.674678 -347.877511 
L 202.466525 -347.406392 
L 204.258372 -346.876254 
L 206.050219 -346.288258 
L 207.842066 -345.643565 
L 209.633912 -344.943334 
L 211.425759 -344.188726 
L 213.217606 -343.380902 
L 215.009453 -342.521023 
L 216.8013 -341.610248 
L 218.593147 -340.649739 
L 220.384993 -339.640655 
L 222.17684 -338.584158 
L 223.968687 -337.481407 
L 225.760534 -336.333564 
L 227.552381 -335.141789 
L 229.344227 -333.907242 
L 231.136074 -332.631083 
L 232.927921 -331.314474 
L 234.719768 -329.958575 
L 236.511615 -328.564546 
L 238.303461 -327.133548 
L 240.095308 -325.666741 
L 241.887155 -324.165285 
L 243.679002 -322.630342 
L 245.470849 -321.063072 
L 247.262695 -319.464635 
L 249.054542 -317.836192 
L 250.846389 -316.178903 
L 252.638236 -314.493929 
L 254.430083 -312.78243 
L 256.22193 -311.045567 
L 258.013776 -309.2845 
L 259.805623 -307.50039 
L 261.59747 -305.694397 
L 263.389317 -303.867682 
L 265.181164 -302.021405 
L 266.97301 -300.156727 
L 268.764857 -298.274808 
L 270.556704 -296.376808 
L 272.348551 -294.463889 
L 274.140398 -292.537211 
L 275.932244 -290.597934 
L 277.724091 -288.647219 
L 279.515938 -286.686226 
L 281.307785 -284.716115 
L 283.099632 -282.738048 
L 284.891478 -280.753184 
L 286.683325 -278.762685 
L 288.475172 -276.76771 
L 290.267019 -274.769421 
L 292.058866 -272.768977 
L 293.850712 -270.76754 
L 295.642559 -268.766269 
L 297.434406 -266.766325 
L 299.226253 -264.768869 
L 301.0181 -262.775062 
L 302.809947 -260.786062 
L 304.601793 -258.803033 
L 306.39364 -256.827132 
L 308.185487 -254.859522 
L 309.977334 -252.901363 
L 311.769181 -250.953815 
L 313.561027 -249.018038 
L 315.352874 -247.095194 
L 317.144721 -245.186442 
L 318.936568 -243.292944 
L 320.728415 -241.415859 
L 322.520261 -239.556292 
L 324.312108 -237.714694 
L 326.103955 -235.891041 
L 327.895802 -234.085258 
L 329.687649 -232.297272 
L 331.479495 -230.527008 
L 333.271342 -228.774391 
L 335.063189 -227.039348 
L 336.855036 -225.321803 
L 338.646883 -223.621682 
L 340.43873 -221.938912 
L 342.230576 -220.273417 
L 344.022423 -218.625123 
L 345.81427 -216.993956 
L 347.606117 -215.379841 
L 349.397964 -213.782705 
L 351.18981 -212.202472 
L 352.981657 -210.639068 
L 354.773504 -209.092419 
L 356.565351 -207.562451 
L 358.357198 -206.049088 
L 360.149044 -204.552258 
L 361.940891 -203.071884 
L 363.732738 -201.607893 
L 365.524585 -200.160211 
L 367.316432 -198.728763 
L 369.108278 -197.313475 
L 370.900125 -195.914272 
L 372.691972 -194.531079 
L 374.483819 -193.163824 
L 376.275666 -191.81243 
L 378.067512 -190.476824 
L 379.859359 -189.156932 
L 381.651206 -187.852678 
L 383.443053 -186.563989 
L 385.2349 -185.29079 
L 387.026747 -184.033007 
L 388.818593 -182.790566 
L 390.61044 -181.563391 
L 392.402287 -180.351409 
L 394.194134 -179.154545 
L 395.985981 -177.972725 
L 397.777827 -176.805874 
L 399.569674 -175.653918 
L 401.361521 -174.516783 
L 403.153368 -173.394394 
L 404.945215 -172.286677 
L 406.737061 -171.193558 
L 408.528908 -170.114961 
L 410.320755 -169.050813 
L 412.112602 -168.00104 
L 413.904449 -166.965566 
L 415.696295 -165.944318 
L 417.488142 -164.937221 
L 419.279989 -163.9442 
L 421.071836 -162.965182 
L 422.863683 -162.000092 
L 424.65553 -161.048855 
L 426.447376 -160.111398 
L 428.239223 -159.187645 
L 430.03107 -158.277523 
L 431.822917 -157.380956 
L 433.614764 -156.497871 
L 435.40661 -155.628194 
L 437.198457 -154.771849 
L 438.990304 -153.928762 
L 440.782151 -153.098859 
L 442.573998 -152.282066 
L 444.365844 -151.478309 
L 446.157691 -150.687512 
L 447.949538 -149.909601 
L 449.741385 -149.144502 
L 451.533232 -148.392142 
L 453.325078 -147.652444 
L 455.116925 -146.925335 
L 456.908772 -146.210741 
L 458.700619 -145.508587 
L 460.492466 -144.818798 
L 462.284312 -144.141301 
L 464.076159 -143.47602 
L 465.868006 -142.822882 
L 467.659853 -142.181812 
L 469.4517 -141.552736 
L 471.243547 -140.93558 
L 473.035393 -140.330268 
L 474.82724 -139.736726 
L 476.619087 -139.154881 
L 478.410934 -138.584658 
L 480.202781 -138.025982 
L 481.994627 -137.478779 
L 483.786474 -136.942974 
L 485.578321 -136.418494 
L 487.370168 -135.905263 
L 489.162015 -135.403208 
L 490.953861 -134.912254 
L 492.745708 -134.432326 
L 494.537555 -133.963351 
L 496.329402 -133.505253 
L 498.121249 -133.057959 
L 499.913095 -132.621394 
L 501.704942 -132.195484 
L 503.496789 -131.780154 
L 505.288636 -131.37533 
L 507.080483 -130.980937 
L 508.87233 -130.596901 
L 510.664176 -130.223148 
L 512.456023 -129.859603 
L 514.24787 -129.506193 
L 516.039717 -129.162841 
L 517.831564 -128.829475 
L 519.62341 -128.50602 
L 521.415257 -128.1924 
L 523.207104 -127.888543 
L 524.998951 -127.594374 
L 526.790798 -127.309817 
L 528.582644 -127.034799 
L 530.374491 -126.769246 
L 532.166338 -126.513083 
L 533.958185 -126.266235 
L 535.750032 -126.028628 
L 537.541878 -125.800188 
L 539.333725 -125.580841 
L 541.125572 -125.370511 
L 542.917419 -125.169126 
L 544.709266 -124.976609 
L 546.501112 -124.792887 
L 548.292959 -124.617886 
L 550.084806 -124.451531 
L 551.876653 -124.293747 
L 553.6685 -124.144461 
L 555.460347 -124.003598 
L 557.252193 -123.871083 
L 559.04404 -123.746842 
L 560.835887 -123.630801 
L 562.627734 -123.522885 
L 564.419581 -123.42302 
L 566.211427 -123.331132 
L 568.003274 -123.247145 
L 569.795121 -123.170987 
L 571.586968 -123.102582 
L 573.378815 -123.041855 
L 575.170661 -122.988734 
L 576.962508 -122.943142 
L 578.754355 -122.905007 
L 580.546202 -122.874252 
L 582.338049 -122.850805 
L 584.129895 -122.83459 
L 585.921742 -122.825533 
L 587.713589 -122.823561 
L 589.505436 -122.828597 
L 591.297283 -122.840569 
L 593.08913 -122.859401 
L 594.880976 -122.88502 
L 596.672823 -122.91735 
L 598.46467 -122.956318 
L 600.256517 -123.001849 
L 602.048364 -123.053869 
L 603.84021 -123.112303 
L 605.632057 -123.177076 
L 607.423904 -123.248116 
L 609.215751 -123.325346 
L 611.007598 -123.408693 
L 612.799444 -123.498082 
L 614.591291 -123.59344 
L 616.383138 -123.694691 
L 618.174985 -123.801761 
L 619.966832 -123.914575 
L 621.758678 -124.03306 
L 623.550525 -124.157141 
L 625.342372 -124.286744 
L 627.134219 -124.421794 
L 628.926066 -124.562216 
L 630.717912 -124.707937 
L 632.509759 -124.858882 
L 634.301606 -125.014977 
L 636.093453 -125.176147 
L 637.8853 -125.342317 
L 639.677147 -125.513414 
L 641.468993 -125.689364 
L 643.26084 -125.87009 
L 645.052687 -126.05552 
L 646.844534 -126.245579 
L 648.636381 -126.440192 
L 650.428227 -126.639286 
L 652.220074 -126.842785 
L 654.011921 -127.050615 
L 655.803768 -127.262703 
L 657.595615 -127.478972 
L 659.387461 -127.69935 
L 661.179308 -127.923762 
L 662.971155 -128.152133 
L 664.763002 -128.384389 
L 666.554849 -128.620455 
L 668.346695 -128.860258 
L 670.138542 -129.103722 
L 671.930389 -129.350774 
L 673.722236 -129.601338 
L 675.514083 -129.855341 
L 677.30593 -130.112709 
L 679.097776 -130.373366 
L 680.889623 -130.637239 
L 682.68147 -130.904252 
L 684.473317 -131.174333 
L 686.265164 -131.447405 
L 688.05701 -131.723395 
L 689.848857 -132.002229 
L 691.640704 -132.283832 
L 693.432551 -132.568129 
L 695.224398 -132.855047 
L 697.016244 -133.144511 
L 698.808091 -133.436446 
L 700.599938 -133.730778 
L 702.391785 -134.027433 
L 704.183632 -134.326336 
L 705.975478 -134.627413 
L 707.767325 -134.93059 
L 709.559172 -135.235792 
L 711.351019 -135.542944 
L 713.142866 -135.851973 
L 714.934712 -136.162803 
L 716.726559 -136.475362 
L 718.518406 -136.789573 
L 720.310253 -137.105363 
L 722.1021 -137.422658 
L 723.893947 -137.741383 
L 725.685793 -138.061463 
L 727.47764 -138.382824 
L 729.269487 -138.705392 
L 731.061334 -139.029093 
L 732.853181 -139.353852 
L 734.645027 -139.679594 
L 736.436874 -140.006245 
L 738.228721 -140.333732 
L 740.020568 -140.661979 
L 741.812415 -140.990911 
L 743.604261 -141.320456 
L 745.396108 -141.650538 
L 747.187955 -141.981082 
L 748.979802 -142.312016 
L 750.771649 -142.643263 
L 752.563495 -142.97475 
L 754.355342 -143.306402 
L 756.147189 -143.638145 
L 756.147189 -53.219659 
L 756.147189 -53.219659 
L 754.355342 -53.219659 
L 752.563495 -53.219659 
L 750.771649 -53.219659 
L 748.979802 -53.219659 
L 747.187955 -53.219659 
L 745.396108 -53.219659 
L 743.604261 -53.219659 
L 741.812415 -53.219659 
L 740.020568 -53.219659 
L 738.228721 -53.219659 
L 736.436874 -53.219659 
L 734.645027 -53.219659 
L 732.853181 -53.219659 
L 731.061334 -53.219659 
L 729.269487 -53.219659 
L 727.47764 -53.219659 
L 725.685793 -53.219659 
L 723.893947 -53.219659 
L 722.1021 -53.219659 
L 720.310253 -53.219659 
L 718.518406 -53.219659 
L 716.726559 -53.219659 
L 714.934712 -53.219659 
L 713.142866 -53.219659 
L 711.351019 -53.219659 
L 709.559172 -53.219659 
L 707.767325 -53.219659 
L 705.975478 -53.219659 
L 704.183632 -53.219659 
L 702.391785 -53.219659 
L 700.599938 -53.219659 
L 698.808091 -53.219659 
L 697.016244 -53.219659 
L 695.224398 -53.219659 
L 693.432551 -53.219659 
L 691.640704 -53.219659 
L 689.848857 -53.219659 
L 688.05701 -53.219659 
L 686.265164 -53.219659 
L 684.473317 -53.219659 
L 682.68147 -53.219659 
L 680.889623 -53.219659 
L 679.097776 -53.219659 
L 677.30593 -53.219659 
L 675.514083 -53.219659 
L 673.722236 -53.219659 
L 671.930389 -53.219659 
L 670.138542 -53.219659 
L 668.346695 -53.219659 
L 666.554849 -53.219659 
L 664.763002 -53.219659 
L 662.971155 -53.219659 
L 661.179308 -53.219659 
L 659.387461 -53.219659 
L 657.595615 -53.219659 
L 655.803768 -53.219659 
L 654.011921 -53.219659 
L 652.220074 -53.219659 
L 650.428227 -53.219659 
L 648.636381 -53.219659 
L 646.844534 -53.219659 
L 645.052687 -53.219659 
L 643.26084 -53.219659 
L 641.468993 -53.219659 
L 639.677147 -53.219659 
L 637.8853 -53.219659 
L 636.093453 -53.219659 
L 634.301606 -53.219659 
L 632.509759 -53.219659 
L 630.717912 -53.219659 
L 628.926066 -53.219659 
L 627.134219 -53.219659 
L 625.342372 -53.219659 
L 623.550525 -53.219659 
L 621.758678 -53.219659 
L 619.966832 -53.219659 
L 618.174985 -53.219659 
L 616.383138 -53.219659 
L 614.591291 -53.219659 
L 612.799444 -53.219659 
L 611.007598 -53.219659 
L 609.215751 -53.219659 
L 607.423904 -53.219659 
L 605.632057 -53.219659 
L 603.84021 -53.219659 
L 602.048364 -53.219659 
L 600.256517 -53.219659 
L 598.46467 -53.219659 
L 596.672823 -53.219659 
L 594.880976 -53.219659 
L 593.08913 -53.219659 
L 591.297283 -53.219659 
L 589.505436 -53.219659 
L 587.713589 -53.219659 
L 585.921742 -53.219659 
L 584.129895 -53.219659 
L 582.338049 -53.219659 
L 580.546202 -53.219659 
L 578.754355 -53.219659 
L 576.962508 -53.219659 
L 575.170661 -53.219659 
L 573.378815 -53.219659 
L 571.586968 -53.219659 
L 569.795121 -53.219659 
L 568.003274 -53.219659 
L 566.211427 -53.219659 
L 564.419581 -53.219659 
L 562.627734 -53.219659 
L 560.835887 -53.219659 
L 559.04404 -53.219659 
L 557.252193 -53.219659 
L 555.460347 -53.219659 
L 553.6685 -53.219659 
L 551.876653 -53.219659 
L 550.084806 -53.219659 
L 548.292959 -53.219659 
L 546.501112 -53.219659 
L 544.709266 -53.219659 
L 542.917419 -53.219659 
L 541.125572 -53.219659 
L 539.333725 -53.219659 
L 537.541878 -53.219659 
L 535.750032 -53.219659 
L 533.958185 -53.219659 
L 532.166338 -53.219659 
L 530.374491 -53.219659 
L 528.582644 -53.219659 
L 526.790798 -53.219659 
L 524.998951 -53.219659 
L 523.207104 -53.219659 
L 521.415257 -53.219659 
L 519.62341 -53.219659 
L 517.831564 -53.219659 
L 516.039717 -53.219659 
L 514.24787 -53.219659 
L 512.456023 -53.219659 
L 510.664176 -53.219659 
L 508.87233 -53.219659 
L 507.080483 -53.219659 
L 505.288636 -53.219659 
L 503.496789 -53.219659 
L 501.704942 -53.219659 
L 499.913095 -53.219659 
L 498.121249 -53.219659 
L 496.329402 -53.219659 
L 494.537555 -53.219659 
L 492.745708 -53.219659 
L 490.953861 -53.219659 
L 489.162015 -53.219659 
L 487.370168 -53.219659 
L 485.578321 -53.219659 
L 483.786474 -53.219659 
L 481.994627 -53.219659 
L 480.202781 -53.219659 
L 478.410934 -53.219659 
L 476.619087 -53.219659 
L 474.82724 -53.219659 
L 473.035393 -53.219659 
L 471.243547 -53.219659 
L 469.4517 -53.219659 
L 467.659853 -53.219659 
L 465.868006 -53.219659 
L 464.076159 -53.219659 
L 462.284312 -53.219659 
L 460.492466 -53.219659 
L 458.700619 -53.219659 
L 456.908772 -53.219659 
L 455.116925 -53.219659 
L 453.325078 -53.219659 
L 451.533232 -53.219659 
L 449.741385 -53.219659 
L 447.949538 -53.219659 
L 446.157691 -53.219659 
L 444.365844 -53.219659 
L 442.573998 -53.219659 
L 440.782151 -53.219659 
L 438.990304 -53.219659 
L 437.198457 -53.219659 
L 435.40661 -53.219659 
L 433.614764 -53.219659 
L 431.822917 -53.219659 
L 430.03107 -53.219659 
L 428.239223 -53.219659 
L 426.447376 -53.219659 
L 424.65553 -53.219659 
L 422.863683 -53.219659 
L 421.071836 -53.219659 
L 419.279989 -53.219659 
L 417.488142 -53.219659 
L 415.696295 -53.219659 
L 413.904449 -53.219659 
L 412.112602 -53.219659 
L 410.320755 -53.219659 
L 408.528908 -53.219659 
L 406.737061 -53.219659 
L 404.945215 -53.219659 
L 403.153368 -53.219659 
L 401.361521 -53.219659 
L 399.569674 -53.219659 
L 397.777827 -53.219659 
L 395.985981 -53.219659 
L 394.194134 -53.219659 
L 392.402287 -53.219659 
L 390.61044 -53.219659 
L 388.818593 -53.219659 
L 387.026747 -53.219659 
L 385.2349 -53.219659 
L 383.443053 -53.219659 
L 381.651206 -53.219659 
L 379.859359 -53.219659 
L 378.067512 -53.219659 
L 376.275666 -53.219659 
L 374.483819 -53.219659 
L 372.691972 -53.219659 
L 370.900125 -53.219659 
L 369.108278 -53.219659 
L 367.316432 -53.219659 
L 365.524585 -53.219659 
L 363.732738 -53.219659 
L 361.940891 -53.219659 
L 360.149044 -53.219659 
L 358.357198 -53.219659 
L 356.565351 -53.219659 
L 354.773504 -53.219659 
L 352.981657 -53.219659 
L 351.18981 -53.219659 
L 349.397964 -53.219659 
L 347.606117 -53.219659 
L 345.81427 -53.219659 
L 344.022423 -53.219659 
L 342.230576 -53.219659 
L 340.43873 -53.219659 
L 338.646883 -53.219659 
L 336.855036 -53.219659 
L 335.063189 -53.219659 
L 333.271342 -53.219659 
L 331.479495 -53.219659 
L 329.687649 -53.219659 
L 327.895802 -53.219659 
L 326.103955 -53.219659 
L 324.312108 -53.219659 
L 322.520261 -53.219659 
L 320.728415 -53.219659 
L 318.936568 -53.219659 
L 317.144721 -53.219659 
L 315.352874 -53.219659 
L 313.561027 -53.219659 
L 311.769181 -53.219659 
L 309.977334 -53.219659 
L 308.185487 -53.219659 
L 306.39364 -53.219659 
L 304.601793 -53.219659 
L 302.809947 -53.219659 
L 301.0181 -53.219659 
L 299.226253 -53.219659 
L 297.434406 -53.219659 
L 295.642559 -53.219659 
L 293.850712 -53.219659 
L 292.058866 -53.219659 
L 290.267019 -53.219659 
L 288.475172 -53.219659 
L 286.683325 -53.219659 
L 284.891478 -53.219659 
L 283.099632 -53.219659 
L 281.307785 -53.219659 
L 279.515938 -53.219659 
L 277.724091 -53.219659 
L 275.932244 -53.219659 
L 274.140398 -53.219659 
L 272.348551 -53.219659 
L 270.556704 -53.219659 
L 268.764857 -53.219659 
L 266.97301 -53.219659 
L 265.181164 -53.219659 
L 263.389317 -53.219659 
L 261.59747 -53.219659 
L 259.805623 -53.219659 
L 258.013776 -53.219659 
L 256.22193 -53.219659 
L 254.430083 -53.219659 
L 252.638236 -53.219659 
L 250.846389 -53.219659 
L 249.054542 -53.219659 
L 247.262695 -53.219659 
L 245.470849 -53.219659 
L 243.679002 -53.219659 
L 241.887155 -53.219659 
L 240.095308 -53.219659 
L 238.303461 -53.219659 
L 236.511615 -53.219659 
L 234.719768 -53.219659 
L 232.927921 -53.219659 
L 231.136074 -53.219659 
L 229.344227 -53.219659 
L 227.552381 -53.219659 
L 225.760534 -53.219659 
L 223.968687 -53.219659 
L 222.17684 -53.219659 
L 220.384993 -53.219659 
L 218.593147 -53.219659 
L 216.8013 -53.219659 
L 215.009453 -53.219659 
L 213.217606 -53.219659 
L 211.425759 -53.219659 
L 209.633912 -53.219659 
L 207.842066 -53.219659 
L 206.050219 -53.219659 
L 204.258372 -53.219659 
L 202.466525 -53.219659 
L 200.674678 -53.219659 
L 198.882832 -53.219659 
L 197.090985 -53.219659 
L 195.299138 -53.219659 
L 193.507291 -53.219659 
L 191.715444 -53.219659 
L 189.923598 -53.219659 
L 188.131751 -53.219659 
L 186.339904 -53.219659 
L 184.548057 -53.219659 
L 182.75621 -53.219659 
L 180.964364 -53.219659 
L 179.172517 -53.219659 
L 177.38067 -53.219659 
L 175.588823 -53.219659 
L 173.796976 -53.219659 
L 172.00513 -53.219659 
L 170.213283 -53.219659 
L 168.421436 -53.219659 
L 166.629589 -53.219659 
L 164.837742 -53.219659 
L 163.045895 -53.219659 
L 161.254049 -53.219659 
L 159.462202 -53.219659 
L 157.670355 -53.219659 
L 155.878508 -53.219659 
L 154.086661 -53.219659 
L 152.294815 -53.219659 
L 150.502968 -53.219659 
L 148.711121 -53.219659 
L 146.919274 -53.219659 
L 145.127427 -53.219659 
L 143.335581 -53.219659 
L 141.543734 -53.219659 
L 139.751887 -53.219659 
L 137.96004 -53.219659 
L 136.168193 -53.219659 
L 134.376347 -53.219659 
L 132.5845 -53.219659 
L 130.792653 -53.219659 
L 129.000806 -53.219659 
L 127.208959 -53.219659 
L 125.417112 -53.219659 
L 123.625266 -53.219659 
L 121.833419 -53.219659 
L 120.041572 -53.219659 
L 118.249725 -53.219659 
L 116.457878 -53.219659 
L 114.666032 -53.219659 
L 112.874185 -53.219659 
L 111.082338 -53.219659 
L 109.290491 -53.219659 
L 107.498644 -53.219659 
L 105.706798 -53.219659 
L 103.914951 -53.219659 
L 102.123104 -53.219659 
L 100.331257 -53.219659 
L 98.53941 -53.219659 
L 96.747564 -53.219659 
L 94.955717 -53.219659 
L 93.16387 -53.219659 
L 91.372023 -53.219659 
L 89.580176 -53.219659 
L 87.78833 -53.219659 
L 85.996483 -53.219659 
L 84.204636 -53.219659 
L 82.412789 -53.219659 
L 80.620942 -53.219659 
L 78.829095 -53.219659 
L 77.037249 -53.219659 
L 75.245402 -53.219659 
L 73.453555 -53.219659 
L 71.661708 -53.219659 
L 69.869861 -53.219659 
L 68.078015 -53.219659 
L 66.286168 -53.219659 
L 64.494321 -53.219659 
L 62.702474 -53.219659 
L 60.910627 -53.219659 
L 59.118781 -53.219659 
L 57.326934 -53.219659 
L 55.535087 -53.219659 
L 53.74324 -53.219659 
L 51.951393 -53.219659 
L 50.159547 -53.219659 
L 48.3677 -53.219659 
L 46.575853 -53.219659 
L 44.784006 -53.219659 
L 42.992159 -53.219659 
L 41.200313 -53.219659 
z
" style="stroke: #6baed6; stroke-opacity: 0.16"/>
    </defs>
    <g clip-path="url(#p8512f385f0)">
     <use xlink:href="#m5b3dd8d6d4" x="0" y="394.612812" style="fill: #6baed6; fill-opacity: 0.16; stroke: #6baed6; stroke-opacity: 0.16"/>
    </g>
   </g>
   <g id="matplotlib.axis_1">
    <g id="xtick_1">
     <g id="line2d_1">
      <defs>
       <path id="m7c2b31b258" d="M 0 0 
L 0 4 
" style="stroke: #333333; stroke-width: 0.8"/>
      </defs>
      <g>
       <use xlink:href="#m7c2b31b258" x="89.440544" y="356.203437" style="fill: #333333; stroke: #333333; stroke-width: 0.8"/>
      </g>
     </g>
     <g id="text_1">
      <!-- 0.025 -->
      <g transform="translate(78.315544 370.762812) scale(0.1 -0.1)">
       <defs>
        <path id="STIXTwoText-30" d="M 1581 -70 
Q 1197 -70 928 99 
Q 659 269 492 563 
Q 326 858 249 1242 
Q 173 1626 173 2048 
Q 173 2656 336 3120 
Q 499 3584 816 3846 
Q 1133 4109 1594 4109 
Q 2010 4109 2323 3862 
Q 2637 3616 2816 3152 
Q 2995 2688 2995 2029 
Q 2995 1619 2915 1241 
Q 2835 864 2665 569 
Q 2496 275 2227 102 
Q 1958 -70 1581 -70 
z
M 1581 160 
Q 1958 160 2166 614 
Q 2374 1069 2374 1990 
Q 2374 2963 2172 3427 
Q 1971 3891 1574 3891 
Q 1197 3891 992 3430 
Q 787 2970 787 2016 
Q 787 1088 992 624 
Q 1197 160 1581 160 
z
" transform="scale(0.015625)"/>
        <path id="STIXTwoText-2e" d="M 774 -51 
Q 582 -51 489 57 
Q 397 166 397 326 
Q 397 493 499 611 
Q 602 730 781 730 
Q 966 730 1068 608 
Q 1171 486 1171 320 
Q 1171 173 1068 61 
Q 966 -51 774 -51 
z
" transform="scale(0.015625)"/>
        <path id="STIXTwoText-32" d="M 2765 0 
L 243 0 
L 243 218 
L 1216 1190 
Q 1536 1517 1747 1782 
Q 1958 2048 2064 2317 
Q 2170 2586 2170 2918 
Q 2170 3277 1955 3491 
Q 1741 3706 1370 3706 
Q 1056 3706 835 3571 
Q 614 3437 435 3078 
L 282 3142 
Q 429 3610 749 3866 
Q 1069 4122 1536 4122 
Q 1901 4122 2176 3984 
Q 2451 3846 2608 3600 
Q 2765 3354 2765 3014 
Q 2765 2733 2646 2473 
Q 2528 2214 2294 1939 
Q 2061 1664 1722 1318 
L 877 518 
L 877 486 
L 1325 506 
L 2214 506 
Q 2470 506 2572 621 
Q 2675 736 2784 1024 
L 2970 1024 
L 2765 0 
z
" transform="scale(0.015625)"/>
        <path id="STIXTwoText-35" d="M 1114 -83 
Q 742 -83 560 6 
Q 378 96 378 275 
Q 378 384 445 467 
Q 512 550 634 550 
Q 730 550 822 502 
Q 915 454 1014 393 
Q 1114 333 1235 285 
Q 1357 237 1510 237 
Q 1741 237 1936 326 
Q 2131 416 2249 614 
Q 2368 813 2368 1146 
Q 2368 1504 2227 1721 
Q 2086 1939 1849 2054 
Q 1613 2170 1315 2214 
Q 1018 2259 698 2266 
L 621 2362 
L 1018 4032 
L 2771 4032 
L 2669 3514 
L 1165 3514 
L 992 2784 
Q 1312 2758 1590 2704 
Q 1869 2650 2096 2554 
Q 2323 2458 2489 2301 
Q 2656 2144 2745 1923 
Q 2835 1702 2835 1402 
Q 2835 1030 2710 752 
Q 2586 474 2355 288 
Q 2125 102 1811 9 
Q 1498 -83 1114 -83 
z
" transform="scale(0.015625)"/>
       </defs>
       <use xlink:href="#STIXTwoText-30"/>
       <use xlink:href="#STIXTwoText-2e" transform="translate(49.499985 0)"/>
       <use xlink:href="#STIXTwoText-30" transform="translate(73.999969 0)"/>
       <use xlink:href="#STIXTwoText-32" transform="translate(123.499954 0)"/>
       <use xlink:href="#STIXTwoText-35" transform="translate(172.999939 0)"/>
      </g>
     </g>
    </g>
    <g id="xtick_2">
     <g id="line2d_2">
      <g>
       <use xlink:href="#m7c2b31b258" x="172.109787" y="356.203437" style="fill: #333333; stroke: #333333; stroke-width: 0.8"/>
      </g>
     </g>
     <g id="text_2">
      <!-- 0.050 -->
      <g transform="translate(160.984787 370.762812) scale(0.1 -0.1)">
       <use xlink:href="#STIXTwoText-30"/>
       <use xlink:href="#STIXTwoText-2e" transform="translate(49.499985 0)"/>
       <use xlink:href="#STIXTwoText-30" transform="translate(73.999969 0)"/>
       <use xlink:href="#STIXTwoText-35" transform="translate(123.499954 0)"/>
       <use xlink:href="#STIXTwoText-30" transform="translate(172.999939 0)"/>
      </g>
     </g>
    </g>
    <g id="xtick_3">
     <g id="line2d_3">
      <g>
       <use xlink:href="#m7c2b31b258" x="254.77903" y="356.203437" style="fill: #333333; stroke: #333333; stroke-width: 0.8"/>
      </g>
     </g>
     <g id="text_3">
      <!-- 0.075 -->
      <g transform="translate(243.65403 370.762812) scale(0.1 -0.1)">
       <defs>
        <path id="STIXTwoText-37" d="M 1472 -51 
L 966 -51 
L 2477 3514 
L 1050 3514 
Q 870 3514 774 3482 
Q 678 3450 617 3347 
Q 557 3245 467 3034 
L 269 3053 
L 525 4032 
L 2970 4032 
L 2970 3834 
L 1472 -51 
z
" transform="scale(0.015625)"/>
       </defs>
       <use xlink:href="#STIXTwoText-30"/>
       <use xlink:href="#STIXTwoText-2e" transform="translate(49.499985 0)"/>
       <use xlink:href="#STIXTwoText-30" transform="translate(73.999969 0)"/>
       <use xlink:href="#STIXTwoText-37" transform="translate(123.499954 0)"/>
       <use xlink:href="#STIXTwoText-35" transform="translate(172.999939 0)"/>
      </g>
     </g>
    </g>
    <g id="xtick_4">
     <g id="line2d_4">
      <g>
       <use xlink:href="#m7c2b31b258" x="337.448273" y="356.203437" style="fill: #333333; stroke: #333333; stroke-width: 0.8"/>
      </g>
     </g>
     <g id="text_4">
      <!-- 0.100 -->
      <g transform="translate(326.323273 370.762812) scale(0.1 -0.1)">
       <defs>
        <path id="STIXTwoText-31" d="M 2726 0 
L 512 0 
L 512 179 
Q 966 179 1152 275 
Q 1338 371 1338 608 
L 1338 3315 
Q 1338 3482 1293 3555 
Q 1248 3629 1126 3629 
Q 1062 3629 947 3616 
Q 832 3603 704 3580 
Q 576 3558 474 3526 
L 474 3738 
L 1715 4090 
L 1901 4090 
L 1901 608 
Q 1901 371 2093 275 
Q 2285 179 2726 179 
L 2726 0 
z
" transform="scale(0.015625)"/>
       </defs>
       <use xlink:href="#STIXTwoText-30"/>
       <use xlink:href="#STIXTwoText-2e" transform="translate(49.499985 0)"/>
       <use xlink:href="#STIXTwoText-31" transform="translate(73.999969 0)"/>
       <use xlink:href="#STIXTwoText-30" transform="translate(123.499954 0)"/>
       <use xlink:href="#STIXTwoText-30" transform="translate(172.999939 0)"/>
      </g>
     </g>
    </g>
    <g id="xtick_5">
     <g id="line2d_5">
      <g>
       <use xlink:href="#m7c2b31b258" x="420.117516" y="356.203437" style="fill: #333333; stroke: #333333; stroke-width: 0.8"/>
      </g>
     </g>
     <g id="text_5">
      <!-- 0.125 -->
      <g transform="translate(408.992516 370.762812) scale(0.1 -0.1)">
       <use xlink:href="#STIXTwoText-30"/>
       <use xlink:href="#STIXTwoText-2e" transform="translate(49.499985 0)"/>
       <use xlink:href="#STIXTwoText-31" transform="translate(73.999969 0)"/>
       <use xlink:href="#STIXTwoText-32" transform="translate(123.499954 0)"/>
       <use xlink:href="#STIXTwoText-35" transform="translate(172.999939 0)"/>
      </g>
     </g>
    </g>
    <g id="xtick_6">
     <g id="line2d_6">
      <g>
       <use xlink:href="#m7c2b31b258" x="502.786759" y="356.203437" style="fill: #333333; stroke: #333333; stroke-width: 0.8"/>
      </g>
     </g>
     <g id="text_6">
      <!-- 0.150 -->
      <g transform="translate(491.661759 370.762812) scale(0.1 -0.1)">
       <use xlink:href="#STIXTwoText-30"/>
       <use xlink:href="#STIXTwoText-2e" transform="translate(49.499985 0)"/>
       <use xlink:href="#STIXTwoText-31" transform="translate(73.999969 0)"/>
       <use xlink:href="#STIXTwoText-35" transform="translate(123.499954 0)"/>
       <use xlink:href="#STIXTwoText-30" transform="translate(172.999939 0)"/>
      </g>
     </g>
    </g>
    <g id="xtick_7">
     <g id="line2d_7">
      <g>
       <use xlink:href="#m7c2b31b258" x="585.456002" y="356.203437" style="fill: #333333; stroke: #333333; stroke-width: 0.8"/>
      </g>
     </g>
     <g id="text_7">
      <!-- 0.175 -->
      <g transform="translate(574.331002 370.762812) scale(0.1 -0.1)">
       <use xlink:href="#STIXTwoText-30"/>
       <use xlink:href="#STIXTwoText-2e" transform="translate(49.499985 0)"/>
       <use xlink:href="#STIXTwoText-31" transform="translate(73.999969 0)"/>
       <use xlink:href="#STIXTwoText-37" transform="translate(123.499954 0)"/>
       <use xlink:href="#STIXTwoText-35" transform="translate(172.999939 0)"/>
      </g>
     </g>
    </g>
    <g id="xtick_8">
     <g id="line2d_8">
      <g>
       <use xlink:href="#m7c2b31b258" x="668.125245" y="356.203437" style="fill: #333333; stroke: #333333; stroke-width: 0.8"/>
      </g>
     </g>
     <g id="text_8">
      <!-- 0.200 -->
      <g transform="translate(657.000245 370.762812) scale(0.1 -0.1)">
       <use xlink:href="#STIXTwoText-30"/>
       <use xlink:href="#STIXTwoText-2e" transform="translate(49.499985 0)"/>
       <use xlink:href="#STIXTwoText-32" transform="translate(73.999969 0)"/>
       <use xlink:href="#STIXTwoText-30" transform="translate(123.499954 0)"/>
       <use xlink:href="#STIXTwoText-30" transform="translate(172.999939 0)"/>
      </g>
     </g>
    </g>
    <g id="xtick_9">
     <g id="line2d_9">
      <g>
       <use xlink:href="#m7c2b31b258" x="750.794488" y="356.203437" style="fill: #333333; stroke: #333333; stroke-width: 0.8"/>
      </g>
     </g>
     <g id="text_9">
      <!-- 0.225 -->
      <g transform="translate(739.669488 370.762812) scale(0.1 -0.1)">
       <use xlink:href="#STIXTwoText-30"/>
       <use xlink:href="#STIXTwoText-2e" transform="translate(49.499985 0)"/>
       <use xlink:href="#STIXTwoText-32" transform="translate(73.999969 0)"/>
       <use xlink:href="#STIXTwoText-32" transform="translate(123.499954 0)"/>
       <use xlink:href="#STIXTwoText-35" transform="translate(172.999939 0)"/>
      </g>
     </g>
    </g>
    <g id="text_10">
     <!-- Index ownership share (`ind_own`) -->
     <g transform="translate(317.413829 384.992812) scale(0.11 -0.11)">
      <defs>
       <path id="STIXTwoText-49" d="M 2061 0 
L 218 0 
L 218 192 
Q 506 192 640 240 
Q 774 288 812 425 
Q 851 563 851 838 
L 851 3360 
Q 851 3610 819 3754 
Q 787 3898 656 3955 
Q 525 4013 218 4013 
L 218 4205 
L 2061 4205 
L 2061 4013 
Q 1760 4013 1625 3955 
Q 1491 3898 1462 3754 
Q 1434 3610 1434 3360 
L 1434 838 
Q 1434 563 1472 425 
Q 1510 288 1644 240 
Q 1779 192 2061 192 
L 2061 0 
z
" transform="scale(0.015625)"/>
       <path id="STIXTwoText-6e" d="M 3552 0 
L 2074 0 
L 2074 179 
Q 2304 179 2403 220 
Q 2502 262 2524 364 
Q 2547 467 2547 646 
L 2547 1805 
Q 2547 2189 2460 2381 
Q 2374 2573 2240 2633 
Q 2106 2694 1958 2694 
Q 1773 2694 1625 2620 
Q 1478 2547 1360 2444 
Q 1242 2342 1139 2253 
L 1094 2566 
L 1190 2566 
Q 1453 2797 1686 2950 
Q 1920 3104 2221 3104 
Q 2656 3104 2867 2809 
Q 3078 2515 3078 1965 
L 3078 646 
Q 3078 467 3107 364 
Q 3136 262 3238 220 
Q 3341 179 3552 179 
L 3552 0 
z
M 1670 0 
L 205 0 
L 205 179 
Q 422 179 515 220 
Q 608 262 630 364 
Q 653 467 653 646 
L 653 2445 
Q 653 2618 582 2672 
Q 512 2726 384 2726 
Q 301 2726 256 2720 
Q 211 2714 211 2714 
L 211 2899 
L 1024 3085 
L 1171 3085 
L 1165 2496 
L 1184 2362 
L 1184 646 
Q 1184 467 1209 364 
Q 1235 262 1337 220 
Q 1440 179 1670 179 
L 1670 0 
z
" transform="scale(0.015625)"/>
       <path id="STIXTwoText-64" d="M 1306 -51 
Q 947 -51 700 141 
Q 454 333 332 662 
Q 211 992 211 1402 
Q 211 1933 409 2313 
Q 608 2694 944 2899 
Q 1280 3104 1683 3104 
Q 1837 3104 1987 3065 
Q 2138 3027 2278 2950 
L 2304 2950 
L 2304 3789 
Q 2304 4000 2256 4064 
Q 2208 4128 2022 4128 
Q 1978 4128 1917 4121 
Q 1856 4115 1856 4115 
L 1856 4294 
L 2662 4518 
L 2835 4518 
L 2835 685 
Q 2835 435 2905 361 
Q 2976 288 3155 288 
L 3290 288 
L 3290 115 
L 2470 -32 
L 2323 -32 
L 2323 410 
L 2298 410 
Q 2118 250 1872 99 
Q 1626 -51 1306 -51 
z
M 1606 410 
Q 1830 410 1984 470 
Q 2138 531 2304 646 
L 2304 2336 
Q 2266 2534 2118 2691 
Q 1971 2848 1670 2848 
Q 1267 2848 1017 2553 
Q 768 2259 768 1651 
Q 768 992 982 701 
Q 1197 410 1606 410 
z
" transform="scale(0.015625)"/>
       <path id="STIXTwoText-65" d="M 1581 -64 
Q 1197 -64 886 118 
Q 576 301 397 656 
Q 218 1011 218 1523 
Q 218 2061 400 2409 
Q 582 2758 889 2931 
Q 1197 3104 1568 3104 
Q 2093 3104 2413 2739 
Q 2733 2374 2758 1702 
L 678 1702 
L 672 1939 
L 2157 1939 
Q 2150 2176 2073 2384 
Q 1997 2592 1849 2720 
Q 1702 2848 1472 2848 
Q 1101 2848 915 2557 
Q 730 2266 730 1734 
Q 730 1293 870 998 
Q 1011 704 1241 560 
Q 1472 416 1734 416 
Q 1997 416 2160 486 
Q 2323 557 2438 669 
Q 2554 781 2656 915 
L 2778 826 
Q 2694 646 2585 483 
Q 2477 320 2339 198 
Q 2202 77 2016 6 
Q 1830 -64 1581 -64 
z
" transform="scale(0.015625)"/>
       <path id="STIXTwoText-78" d="M 3085 0 
L 1747 0 
L 1747 186 
Q 1914 186 1981 214 
Q 2048 243 2048 326 
Q 2048 390 2003 461 
L 1600 1082 
L 1440 1363 
L 1338 1453 
L 634 2458 
Q 525 2618 448 2701 
Q 371 2784 288 2813 
Q 205 2842 70 2842 
L 70 3027 
L 1446 3027 
L 1446 2848 
Q 1139 2848 1139 2701 
Q 1139 2650 1177 2579 
Q 1216 2509 1289 2397 
Q 1363 2285 1472 2106 
L 1651 1773 
L 1754 1715 
L 2573 557 
Q 2707 365 2806 275 
Q 2906 186 3085 186 
L 3085 0 
z
M 1056 0 
L -13 0 
L -13 186 
Q 154 186 262 253 
Q 371 320 531 506 
L 1338 1555 
L 1536 1306 
L 1446 1306 
L 922 550 
Q 877 474 822 397 
Q 768 320 768 282 
Q 768 230 832 208 
Q 896 186 1056 186 
L 1056 0 
z
M 2464 2541 
L 1754 1626 
L 1568 1824 
L 1651 1824 
L 1952 2259 
Q 2080 2438 2131 2528 
Q 2182 2618 2182 2694 
Q 2182 2765 2128 2806 
Q 2074 2848 1920 2848 
L 1920 3027 
L 2976 3027 
L 2976 2842 
Q 2816 2842 2694 2762 
Q 2573 2682 2464 2541 
z
" transform="scale(0.015625)"/>
       <path id="STIXTwoText-20" transform="scale(0.015625)"/>
       <path id="STIXTwoText-6f" d="M 1651 -64 
Q 979 -64 598 355 
Q 218 774 218 1549 
Q 218 2016 397 2365 
Q 576 2714 899 2909 
Q 1222 3104 1651 3104 
Q 2310 3104 2691 2694 
Q 3072 2285 3072 1574 
Q 3072 1037 2889 672 
Q 2707 307 2387 121 
Q 2067 -64 1651 -64 
z
M 1677 192 
Q 1939 192 2118 313 
Q 2298 435 2390 729 
Q 2483 1024 2483 1542 
Q 2483 2131 2268 2496 
Q 2054 2861 1626 2861 
Q 1261 2861 1037 2553 
Q 813 2246 813 1632 
Q 813 870 1040 528 
Q 1267 186 1677 192 
z
" transform="scale(0.015625)"/>
       <path id="STIXTwoText-77" d="M 3450 -38 
L 3142 -38 
L 2432 1914 
L 2342 2093 
L 2240 2374 
Q 2163 2586 2096 2685 
Q 2029 2784 1939 2813 
Q 1850 2842 1709 2842 
L 1709 3027 
L 3046 3027 
L 3046 2842 
Q 2867 2842 2796 2800 
Q 2726 2758 2726 2682 
Q 2726 2624 2742 2557 
Q 2758 2490 2784 2419 
L 3302 1018 
L 3418 646 
L 3456 646 
L 3584 1018 
L 4090 2451 
Q 4096 2477 4112 2537 
Q 4128 2598 4128 2682 
Q 4128 2771 4038 2806 
Q 3949 2842 3770 2842 
L 3770 3027 
L 4877 3027 
L 4877 2842 
Q 4691 2842 4595 2755 
Q 4499 2669 4403 2419 
L 3450 -38 
z
M 1690 -38 
L 1395 -38 
L 435 2374 
Q 352 2573 281 2672 
Q 211 2771 121 2806 
Q 32 2842 -109 2842 
L -109 3027 
L 1267 3027 
L 1267 2842 
Q 1075 2842 1001 2800 
Q 928 2758 928 2682 
Q 928 2618 950 2560 
Q 973 2502 998 2432 
L 1555 1018 
L 1670 646 
L 1715 646 
L 1850 1018 
L 2336 2246 
L 2547 1824 
L 2438 1824 
L 1690 -38 
z
" transform="scale(0.015625)"/>
       <path id="STIXTwoText-72" d="M 1786 0 
L 186 0 
L 186 186 
Q 397 186 496 221 
Q 595 256 624 349 
Q 653 442 653 621 
L 653 2381 
Q 653 2554 624 2640 
Q 595 2726 422 2726 
Q 326 2726 275 2720 
Q 224 2714 224 2714 
L 224 2893 
L 1018 3085 
L 1171 3085 
L 1171 2426 
L 1190 2426 
Q 1357 2662 1485 2816 
Q 1613 2970 1737 3046 
Q 1862 3123 2016 3123 
Q 2202 3123 2294 3027 
Q 2387 2931 2387 2765 
Q 2387 2586 2300 2502 
Q 2214 2419 2106 2419 
Q 2003 2419 1923 2473 
Q 1843 2528 1785 2582 
Q 1728 2637 1690 2637 
Q 1581 2637 1440 2470 
Q 1299 2304 1184 2112 
L 1184 653 
Q 1184 454 1235 352 
Q 1286 250 1417 218 
Q 1549 186 1786 186 
L 1786 0 
z
" transform="scale(0.015625)"/>
       <path id="STIXTwoText-73" d="M 269 -51 
L 250 1050 
L 416 1050 
Q 518 557 716 361 
Q 915 166 1267 166 
Q 1510 166 1664 265 
Q 1818 365 1818 589 
Q 1818 742 1763 844 
Q 1709 947 1555 1052 
Q 1402 1158 1101 1306 
Q 806 1453 620 1590 
Q 435 1728 345 1894 
Q 256 2061 256 2298 
Q 256 2694 541 2899 
Q 826 3104 1235 3104 
Q 1478 3104 1632 3049 
Q 1786 2995 1907 2938 
L 1914 2938 
L 2022 3072 
L 2150 3072 
L 2170 2093 
L 1997 2093 
Q 1894 2547 1708 2716 
Q 1523 2886 1229 2886 
Q 1011 2886 860 2784 
Q 710 2682 710 2464 
Q 710 2278 883 2131 
Q 1056 1984 1459 1779 
Q 1754 1626 1952 1482 
Q 2150 1338 2252 1168 
Q 2355 998 2355 762 
Q 2355 461 2208 278 
Q 2061 96 1814 13 
Q 1568 -70 1280 -70 
Q 1005 -70 841 -12 
Q 678 45 550 96 
L 538 96 
L 403 -51 
L 269 -51 
z
" transform="scale(0.015625)"/>
       <path id="STIXTwoText-68" d="M 3558 0 
L 2086 0 
L 2086 186 
Q 2310 186 2406 230 
Q 2502 275 2528 371 
Q 2554 467 2554 621 
L 2554 1728 
Q 2554 1990 2515 2211 
Q 2477 2432 2352 2563 
Q 2227 2694 1965 2694 
Q 1766 2694 1561 2588 
Q 1357 2483 1094 2227 
L 1101 2579 
L 1190 2579 
Q 1491 2861 1731 2982 
Q 1971 3104 2227 3104 
Q 2502 3104 2672 2995 
Q 2842 2886 2931 2710 
Q 3021 2534 3053 2326 
Q 3085 2118 3085 1920 
L 3085 646 
Q 3085 390 3171 288 
Q 3258 186 3558 186 
L 3558 0 
z
M 1645 0 
L 192 0 
L 192 186 
Q 442 186 541 256 
Q 640 326 640 595 
L 640 3872 
Q 640 4038 547 4083 
Q 454 4128 326 4128 
Q 250 4128 195 4121 
Q 141 4115 141 4115 
L 141 4294 
L 998 4518 
L 1171 4518 
L 1171 621 
Q 1171 454 1196 358 
Q 1222 262 1324 224 
Q 1427 186 1645 186 
L 1645 0 
z
" transform="scale(0.015625)"/>
       <path id="STIXTwoText-69" d="M 1645 0 
L 205 0 
L 205 179 
Q 422 179 515 220 
Q 608 262 630 364 
Q 653 467 653 646 
L 653 2432 
Q 653 2637 582 2685 
Q 512 2733 371 2733 
Q 307 2733 259 2726 
Q 211 2720 211 2720 
L 211 2906 
L 1018 3085 
L 1184 3085 
L 1184 646 
Q 1184 461 1209 358 
Q 1235 256 1334 217 
Q 1434 179 1645 179 
L 1645 0 
z
M 928 3584 
Q 768 3584 665 3693 
Q 563 3802 563 3949 
Q 563 4096 662 4201 
Q 762 4307 928 4307 
Q 1094 4307 1193 4201 
Q 1293 4096 1293 3949 
Q 1293 3802 1193 3693 
Q 1094 3584 928 3584 
z
" transform="scale(0.015625)"/>
       <path id="STIXTwoText-70" d="M 1760 -1408 
L 141 -1408 
L 141 -1229 
Q 442 -1229 525 -1129 
Q 608 -1030 608 -762 
L 608 2406 
Q 608 2592 566 2662 
Q 525 2733 365 2733 
Q 301 2733 230 2726 
Q 160 2720 160 2720 
L 160 2906 
L 966 3085 
L 1126 3085 
L 1126 2547 
L 1146 2547 
Q 1376 2816 1616 2960 
Q 1856 3104 2138 3104 
Q 2458 3104 2698 2921 
Q 2938 2739 3075 2416 
Q 3213 2093 3213 1670 
Q 3213 1126 3024 739 
Q 2835 352 2515 144 
Q 2195 -64 1811 -64 
Q 1632 -64 1469 -22 
Q 1306 19 1165 115 
L 1139 115 
L 1139 -723 
Q 1139 -928 1190 -1037 
Q 1242 -1146 1376 -1184 
Q 1510 -1222 1760 -1222 
L 1760 -1408 
z
M 1843 186 
Q 2182 186 2406 506 
Q 2630 826 2630 1491 
Q 2630 2099 2432 2384 
Q 2234 2669 1875 2669 
Q 1619 2669 1424 2534 
Q 1229 2400 1139 2278 
L 1139 608 
Q 1203 544 1299 441 
Q 1395 339 1529 262 
Q 1664 186 1843 186 
z
" transform="scale(0.015625)"/>
       <path id="STIXTwoText-61" d="M 1005 -45 
Q 634 -45 438 160 
Q 243 365 243 672 
Q 243 928 361 1104 
Q 480 1280 675 1401 
Q 870 1523 1097 1606 
Q 1325 1690 1542 1747 
Q 1760 1805 1926 1856 
L 1926 2138 
Q 1926 2554 1782 2730 
Q 1638 2906 1350 2906 
Q 1075 2906 998 2790 
Q 922 2675 922 2387 
Q 922 2240 848 2166 
Q 774 2093 640 2093 
Q 544 2093 457 2166 
Q 371 2240 371 2400 
Q 371 2579 508 2739 
Q 646 2899 899 3001 
Q 1152 3104 1498 3104 
Q 2022 3104 2240 2861 
Q 2458 2618 2458 2118 
L 2458 666 
Q 2458 467 2502 409 
Q 2547 352 2650 352 
Q 2739 352 2812 397 
Q 2886 442 2950 512 
L 3046 410 
Q 2886 179 2742 73 
Q 2598 -32 2355 -32 
Q 2131 -32 2064 96 
Q 1997 224 1965 461 
L 1926 538 
L 1926 1645 
Q 1638 1574 1382 1478 
Q 1126 1382 966 1228 
Q 806 1075 806 826 
Q 806 589 934 448 
Q 1062 307 1267 307 
Q 1434 307 1616 390 
Q 1798 474 1971 627 
L 2022 397 
L 1946 397 
Q 1798 269 1660 166 
Q 1523 64 1366 9 
Q 1210 -45 1005 -45 
z
" transform="scale(0.015625)"/>
       <path id="STIXTwoText-28" d="M 1997 -1011 
L 1894 -1190 
Q 1120 -794 656 -48 
Q 192 698 192 1754 
Q 192 2803 656 3542 
Q 1120 4282 1894 4672 
L 1997 4506 
Q 1299 4038 1008 3372 
Q 717 2707 717 1754 
Q 717 787 1008 118 
Q 1299 -550 1997 -1011 
z
" transform="scale(0.015625)"/>
       <path id="STIXTwoText-60" d="M 1229 3334 
L 979 3334 
L 192 4198 
L 192 4314 
L 781 4314 
L 1229 3334 
z
" transform="scale(0.015625)"/>
       <path id="STIXTwoText-5f" d="M 3277 -819 
L 0 -819 
L 0 -493 
L 3277 -493 
L 3277 -819 
z
" transform="scale(0.015625)"/>
       <path id="STIXTwoText-29" d="M 301 -1190 
L 198 -1011 
Q 902 -550 1190 118 
Q 1478 787 1478 1754 
Q 1478 2707 1190 3372 
Q 902 4038 198 4506 
L 301 4672 
Q 1075 4282 1539 3542 
Q 2003 2803 2003 1754 
Q 2003 698 1539 -48 
Q 1075 -794 301 -1190 
z
" transform="scale(0.015625)"/>
      </defs>
      <use xlink:href="#STIXTwoText-49"/>
      <use xlink:href="#STIXTwoText-6e" transform="translate(35.699997 0)"/>
      <use xlink:href="#STIXTwoText-64" transform="translate(93.299988 0)"/>
      <use xlink:href="#STIXTwoText-65" transform="translate(147.199982 0)"/>
      <use xlink:href="#STIXTwoText-78" transform="translate(193.599976 0)"/>
      <use xlink:href="#STIXTwoText-20" transform="translate(241.499969 0)"/>
      <use xlink:href="#STIXTwoText-6f" transform="translate(264.999954 0)"/>
      <use xlink:href="#STIXTwoText-77" transform="translate(316.399948 0)"/>
      <use xlink:href="#STIXTwoText-6e" transform="translate(391.299942 0)"/>
      <use xlink:href="#STIXTwoText-65" transform="translate(448.899933 0)"/>
      <use xlink:href="#STIXTwoText-72" transform="translate(495.299927 0)"/>
      <use xlink:href="#STIXTwoText-73" transform="translate(533.299911 0)"/>
      <use xlink:href="#STIXTwoText-68" transform="translate(572.799896 0)"/>
      <use xlink:href="#STIXTwoText-69" transform="translate(630.499893 0)"/>
      <use xlink:href="#STIXTwoText-70" transform="translate(658.999878 0)"/>
      <use xlink:href="#STIXTwoText-20" transform="translate(712.699875 0)"/>
      <use xlink:href="#STIXTwoText-73" transform="translate(736.19986 0)"/>
      <use xlink:href="#STIXTwoText-68" transform="translate(775.699844 0)"/>
      <use xlink:href="#STIXTwoText-61" transform="translate(833.399841 0)"/>
      <use xlink:href="#STIXTwoText-72" transform="translate(881.399826 0)"/>
      <use xlink:href="#STIXTwoText-65" transform="translate(919.399811 0)"/>
      <use xlink:href="#STIXTwoText-20" transform="translate(965.799805 0)"/>
      <use xlink:href="#STIXTwoText-28" transform="translate(989.299789 0)"/>
      <use xlink:href="#STIXTwoText-60" transform="translate(1023.599777 0)"/>
      <use xlink:href="#STIXTwoText-69" transform="translate(1045.799774 0)"/>
      <use xlink:href="#STIXTwoText-6e" transform="translate(1074.299759 0)"/>
      <use xlink:href="#STIXTwoText-64" transform="translate(1131.89975 0)"/>
      <use xlink:href="#STIXTwoText-5f" transform="translate(1185.799744 0)"/>
      <use xlink:href="#STIXTwoText-6f" transform="translate(1236.999741 0)"/>
      <use xlink:href="#STIXTwoText-77" transform="translate(1288.399734 0)"/>
      <use xlink:href="#STIXTwoText-6e" transform="translate(1363.299728 0)"/>
      <use xlink:href="#STIXTwoText-60" transform="translate(1420.899719 0)"/>
      <use xlink:href="#STIXTwoText-29" transform="translate(1443.099716 0)"/>
     </g>
    </g>
   </g>
   <g id="matplotlib.axis_2">
    <g id="ytick_1">
     <g id="line2d_10">
      <path d="M 41.200313 309.767976 
L 756.147189 309.767976 
" clip-path="url(#p8512f385f0)" style="fill: none; stroke-dasharray: 1.6,1.6; stroke-dashoffset: 0; stroke: #d9d9d9; stroke-width: 0.8"/>
     </g>
     <g id="line2d_11">
      <defs>
       <path id="mdebb614805" d="M 0 0 
L -4 0 
" style="stroke: #333333; stroke-width: 0.8"/>
      </defs>
      <g>
       <use xlink:href="#mdebb614805" x="41.200313" y="309.767976" style="fill: #333333; stroke: #333333; stroke-width: 0.8"/>
      </g>
     </g>
     <g id="text_11">
      <!-- −2 -->
      <g transform="translate(21.550313 313.297664) scale(0.1 -0.1)">
       <defs>
        <path id="STIXTwoText-2212" d="M 4211 1434 
L 397 1434 
L 397 1869 
L 4211 1869 
L 4211 1434 
z
" transform="scale(0.015625)"/>
       </defs>
       <use xlink:href="#STIXTwoText-2212"/>
       <use xlink:href="#STIXTwoText-32" transform="translate(71.999985 0)"/>
      </g>
     </g>
    </g>
    <g id="ytick_2">
     <g id="line2d_12">
      <path d="M 41.200313 252.634646 
L 756.147189 252.634646 
" clip-path="url(#p8512f385f0)" style="fill: none; stroke-dasharray: 1.6,1.6; stroke-dashoffset: 0; stroke: #d9d9d9; stroke-width: 0.8"/>
     </g>
     <g id="line2d_13">
      <g>
       <use xlink:href="#mdebb614805" x="41.200313" y="252.634646" style="fill: #333333; stroke: #333333; stroke-width: 0.8"/>
      </g>
     </g>
     <g id="text_12">
      <!-- −1 -->
      <g transform="translate(21.550313 256.164334) scale(0.1 -0.1)">
       <use xlink:href="#STIXTwoText-2212"/>
       <use xlink:href="#STIXTwoText-31" transform="translate(71.999985 0)"/>
      </g>
     </g>
    </g>
    <g id="ytick_3">
     <g id="line2d_14">
      <path d="M 41.200313 195.501316 
L 756.147189 195.501316 
" clip-path="url(#p8512f385f0)" style="fill: none; stroke-dasharray: 1.6,1.6; stroke-dashoffset: 0; stroke: #d9d9d9; stroke-width: 0.8"/>
     </g>
     <g id="line2d_15">
      <g>
       <use xlink:href="#mdebb614805" x="41.200313" y="195.501316" style="fill: #333333; stroke: #333333; stroke-width: 0.8"/>
      </g>
     </g>
     <g id="text_13">
      <!-- 0 -->
      <g transform="translate(28.750313 199.031004) scale(0.1 -0.1)">
       <use xlink:href="#STIXTwoText-30"/>
      </g>
     </g>
    </g>
    <g id="ytick_4">
     <g id="line2d_16">
      <path d="M 41.200313 138.367986 
L 756.147189 138.367986 
" clip-path="url(#p8512f385f0)" style="fill: none; stroke-dasharray: 1.6,1.6; stroke-dashoffset: 0; stroke: #d9d9d9; stroke-width: 0.8"/>
     </g>
     <g id="line2d_17">
      <g>
       <use xlink:href="#mdebb614805" x="41.200313" y="138.367986" style="fill: #333333; stroke: #333333; stroke-width: 0.8"/>
      </g>
     </g>
     <g id="text_14">
      <!-- 1 -->
      <g transform="translate(28.750313 141.897674) scale(0.1 -0.1)">
       <use xlink:href="#STIXTwoText-31"/>
      </g>
     </g>
    </g>
    <g id="ytick_5">
     <g id="line2d_18">
      <path d="M 41.200313 81.234656 
L 756.147189 81.234656 
" clip-path="url(#p8512f385f0)" style="fill: none; stroke-dasharray: 1.6,1.6; stroke-dashoffset: 0; stroke: #d9d9d9; stroke-width: 0.8"/>
     </g>
     <g id="line2d_19">
      <g>
       <use xlink:href="#mdebb614805" x="41.200313" y="81.234656" style="fill: #333333; stroke: #333333; stroke-width: 0.8"/>
      </g>
     </g>
     <g id="text_15">
      <!-- 2 -->
      <g transform="translate(28.750313 84.764344) scale(0.1 -0.1)">
       <use xlink:href="#STIXTwoText-32"/>
      </g>
     </g>
    </g>
    <g id="text_16">
     <!-- Composite market-quality score -->
     <g transform="translate(14.965312 267.542031) rotate(-90) scale(0.11 -0.11)">
      <defs>
       <path id="STIXTwoText-43" d="M 2330 -70 
Q 1670 -70 1222 211 
Q 774 493 547 985 
Q 320 1478 320 2099 
Q 320 2797 589 3283 
Q 858 3770 1331 4026 
Q 1805 4282 2419 4282 
Q 2758 4282 2963 4224 
Q 3168 4166 3289 4108 
Q 3411 4051 3488 4051 
Q 3565 4051 3606 4118 
Q 3648 4186 3706 4282 
L 3898 4282 
L 3898 2816 
L 3680 2816 
Q 3578 3443 3248 3724 
Q 2918 4006 2426 4006 
Q 1734 4006 1360 3513 
Q 986 3021 986 2163 
Q 986 1523 1181 1120 
Q 1376 717 1721 525 
Q 2067 333 2515 333 
Q 2957 333 3289 496 
Q 3622 659 3891 954 
L 4045 819 
Q 3872 563 3632 361 
Q 3392 160 3072 45 
Q 2752 -70 2330 -70 
z
" transform="scale(0.015625)"/>
       <path id="STIXTwoText-6d" d="M 3520 0 
L 2003 0 
L 2003 186 
Q 2234 186 2336 230 
Q 2438 275 2467 396 
Q 2496 518 2496 742 
L 2496 2010 
Q 2496 2419 2352 2556 
Q 2208 2694 1984 2694 
Q 1805 2694 1648 2617 
Q 1491 2541 1363 2438 
Q 1235 2336 1146 2246 
L 1094 2566 
L 1190 2566 
Q 1453 2790 1696 2947 
Q 1939 3104 2266 3104 
Q 2554 3104 2730 2937 
Q 2906 2771 2995 2522 
Q 3008 2502 3014 2480 
Q 3021 2458 3027 2432 
L 3027 742 
Q 3027 525 3056 403 
Q 3085 282 3187 234 
Q 3290 186 3520 186 
L 3520 0 
z
M 1664 0 
L 205 0 
L 205 186 
Q 410 186 502 221 
Q 595 256 624 355 
Q 653 454 653 646 
L 653 2438 
Q 653 2611 585 2668 
Q 518 2726 384 2726 
Q 314 2726 262 2720 
Q 211 2714 211 2714 
L 211 2899 
L 1011 3085 
L 1165 3085 
L 1165 2496 
L 1184 2355 
L 1184 621 
Q 1184 442 1222 349 
Q 1261 256 1363 221 
Q 1466 186 1664 186 
L 1664 0 
z
M 5306 0 
L 3859 0 
L 3859 186 
Q 4077 186 4173 243 
Q 4269 301 4291 425 
Q 4314 550 4314 742 
L 4314 1971 
Q 4314 2266 4240 2419 
Q 4166 2573 4041 2633 
Q 3917 2694 3763 2694 
Q 3552 2694 3347 2544 
Q 3142 2394 2976 2253 
L 2906 2573 
L 3002 2573 
Q 3264 2835 3513 2969 
Q 3763 3104 4019 3104 
Q 4397 3104 4621 2867 
Q 4845 2630 4845 2048 
L 4845 742 
Q 4845 544 4867 419 
Q 4890 294 4989 240 
Q 5088 186 5306 186 
L 5306 0 
z
" transform="scale(0.015625)"/>
       <path id="STIXTwoText-74" d="M 1875 576 
L 1997 474 
Q 1875 301 1769 182 
Q 1664 64 1536 0 
Q 1408 -64 1203 -64 
Q 883 -64 736 125 
Q 589 314 589 742 
L 589 2726 
L 237 2726 
L 237 2874 
Q 461 3014 624 3254 
Q 787 3494 960 3904 
L 1120 3904 
L 1120 2995 
L 1843 2995 
L 1843 2726 
L 1120 2726 
L 1120 922 
Q 1120 582 1181 448 
Q 1242 314 1427 314 
Q 1581 314 1667 378 
Q 1754 442 1875 576 
z
" transform="scale(0.015625)"/>
       <path id="STIXTwoText-6b" d="M 1645 0 
L 192 0 
L 192 186 
Q 480 186 560 266 
Q 640 346 640 608 
L 640 3808 
Q 640 4013 592 4073 
Q 544 4134 384 4134 
Q 320 4134 243 4128 
Q 166 4122 166 4122 
L 166 4294 
L 998 4518 
L 1171 4518 
L 1171 1696 
L 1210 1696 
L 2035 2515 
Q 2054 2534 2102 2588 
Q 2150 2643 2150 2720 
Q 2150 2784 2086 2809 
Q 2022 2835 1837 2835 
L 1837 3027 
L 3219 3027 
L 3219 2835 
Q 3066 2835 2947 2806 
Q 2829 2778 2707 2698 
Q 2586 2618 2410 2470 
Q 2234 2323 1965 2086 
L 1645 1824 
L 2771 557 
Q 2925 384 3024 304 
Q 3123 224 3219 205 
Q 3315 186 3450 186 
L 3450 0 
L 2035 0 
L 2035 186 
Q 2176 186 2230 202 
Q 2285 218 2285 262 
Q 2285 307 2262 348 
Q 2240 390 2214 416 
L 1210 1555 
L 1171 1555 
L 1171 582 
Q 1171 339 1257 262 
Q 1344 186 1645 186 
L 1645 0 
z
" transform="scale(0.015625)"/>
       <path id="STIXTwoText-2d" d="M 1728 1395 
L 288 1395 
L 288 1811 
L 1728 1811 
L 1728 1395 
z
" transform="scale(0.015625)"/>
       <path id="STIXTwoText-71" d="M 3245 -1408 
L 1696 -1408 
L 1696 -1229 
Q 1958 -1229 2083 -1184 
Q 2208 -1139 2249 -1030 
Q 2291 -922 2291 -723 
L 2291 403 
L 2272 403 
Q 2061 218 1837 83 
Q 1613 -51 1299 -51 
Q 966 -51 723 128 
Q 480 307 345 636 
Q 211 966 211 1408 
Q 211 1920 403 2301 
Q 595 2682 924 2893 
Q 1254 3104 1658 3104 
Q 1862 3104 2038 3053 
Q 2214 3002 2413 2867 
L 2586 3078 
L 2822 3078 
L 2822 -794 
Q 2822 -1037 2899 -1133 
Q 2976 -1229 3245 -1229 
L 3245 -1408 
z
M 1606 416 
Q 1843 416 2000 483 
Q 2157 550 2291 659 
L 2291 2342 
Q 2227 2586 2067 2717 
Q 1907 2848 1651 2848 
Q 1248 2848 1005 2550 
Q 762 2253 762 1651 
Q 762 1306 838 1024 
Q 915 742 1100 579 
Q 1286 416 1606 416 
z
" transform="scale(0.015625)"/>
       <path id="STIXTwoText-75" d="M 1421 -64 
Q 1024 -64 803 195 
Q 582 454 582 1107 
L 582 2406 
Q 582 2579 547 2659 
Q 512 2739 416 2761 
Q 320 2784 147 2784 
L 147 2963 
L 973 3059 
L 1114 3059 
L 1114 1190 
Q 1114 864 1187 681 
Q 1261 499 1392 422 
Q 1523 346 1690 346 
Q 1933 346 2109 454 
Q 2285 563 2477 730 
L 2477 2413 
Q 2477 2586 2432 2662 
Q 2387 2739 2275 2761 
Q 2163 2784 1958 2784 
L 1958 2963 
L 2854 3059 
L 3008 3059 
L 3008 710 
Q 3008 429 3085 358 
Q 3162 288 3392 288 
L 3456 288 
L 3456 115 
L 2643 -32 
L 2502 -32 
L 2502 461 
L 2470 461 
Q 2304 294 2141 176 
Q 1978 58 1802 -3 
Q 1626 -64 1421 -64 
z
" transform="scale(0.015625)"/>
       <path id="STIXTwoText-6c" d="M 1664 0 
L 192 0 
L 192 186 
Q 403 186 499 227 
Q 595 269 617 368 
Q 640 467 640 646 
L 640 3859 
Q 640 4058 566 4096 
Q 493 4134 371 4134 
Q 288 4134 227 4128 
Q 166 4122 166 4122 
L 166 4294 
L 1011 4518 
L 1171 4518 
L 1171 646 
Q 1171 461 1200 361 
Q 1229 262 1331 224 
Q 1434 186 1664 186 
L 1664 0 
z
" transform="scale(0.015625)"/>
       <path id="STIXTwoText-79" d="M 493 -1504 
Q 294 -1504 166 -1427 
Q 38 -1350 38 -1171 
Q 38 -1024 124 -960 
Q 211 -896 333 -896 
Q 499 -896 630 -966 
Q 762 -1037 826 -1037 
Q 915 -1037 1017 -899 
Q 1120 -762 1219 -570 
Q 1318 -378 1379 -208 
Q 1440 -38 1440 32 
Q 1440 96 1373 262 
Q 1306 429 1248 557 
L 307 2611 
Q 262 2720 179 2781 
Q 96 2842 -77 2842 
L -77 3027 
L 1293 3027 
L 1293 2835 
Q 1075 2835 1001 2793 
Q 928 2752 928 2669 
Q 928 2605 960 2531 
Q 992 2458 1018 2387 
L 1645 979 
L 1728 666 
L 1773 666 
L 2394 2522 
Q 2406 2554 2416 2602 
Q 2426 2650 2426 2682 
Q 2426 2778 2326 2810 
Q 2227 2842 2067 2842 
L 2067 3027 
L 3155 3027 
L 3155 2842 
Q 2963 2842 2873 2755 
Q 2784 2669 2714 2483 
L 1715 -141 
Q 1530 -627 1354 -928 
Q 1178 -1229 973 -1366 
Q 768 -1504 493 -1504 
z
" transform="scale(0.015625)"/>
       <path id="STIXTwoText-63" d="M 2611 947 
L 2733 858 
Q 2611 602 2454 390 
Q 2298 179 2067 57 
Q 1837 -64 1491 -64 
Q 1094 -64 806 128 
Q 518 320 364 662 
Q 211 1005 211 1446 
Q 211 1952 380 2323 
Q 550 2694 873 2899 
Q 1197 3104 1658 3104 
Q 2112 3104 2371 2905 
Q 2630 2707 2630 2426 
Q 2630 2285 2563 2211 
Q 2496 2138 2362 2138 
Q 2221 2138 2147 2211 
Q 2074 2285 2029 2393 
Q 1984 2502 1936 2611 
Q 1888 2720 1801 2793 
Q 1715 2867 1549 2867 
Q 1158 2867 937 2582 
Q 717 2298 717 1747 
Q 717 1165 957 790 
Q 1197 416 1690 416 
Q 2003 416 2198 544 
Q 2394 672 2611 947 
z
" transform="scale(0.015625)"/>
      </defs>
      <use xlink:href="#STIXTwoText-43"/>
      <use xlink:href="#STIXTwoText-6f" transform="translate(66.999985 0)"/>
      <use xlink:href="#STIXTwoText-6d" transform="translate(118.399979 0)"/>
      <use xlink:href="#STIXTwoText-70" transform="translate(203.59996 0)"/>
      <use xlink:href="#STIXTwoText-6f" transform="translate(257.299957 0)"/>
      <use xlink:href="#STIXTwoText-73" transform="translate(308.699951 0)"/>
      <use xlink:href="#STIXTwoText-69" transform="translate(348.199936 0)"/>
      <use xlink:href="#STIXTwoText-74" transform="translate(376.699921 0)"/>
      <use xlink:href="#STIXTwoText-65" transform="translate(408.199905 0)"/>
      <use xlink:href="#STIXTwoText-20" transform="translate(454.599899 0)"/>
      <use xlink:href="#STIXTwoText-6d" transform="translate(478.099884 0)"/>
      <use xlink:href="#STIXTwoText-61" transform="translate(563.299866 0)"/>
      <use xlink:href="#STIXTwoText-72" transform="translate(611.29985 0)"/>
      <use xlink:href="#STIXTwoText-6b" transform="translate(649.299835 0)"/>
      <use xlink:href="#STIXTwoText-65" transform="translate(703.499832 0)"/>
      <use xlink:href="#STIXTwoText-74" transform="translate(749.899826 0)"/>
      <use xlink:href="#STIXTwoText-2d" transform="translate(781.399811 0)"/>
      <use xlink:href="#STIXTwoText-71" transform="translate(812.899796 0)"/>
      <use xlink:href="#STIXTwoText-75" transform="translate(864.999786 0)"/>
      <use xlink:href="#STIXTwoText-61" transform="translate(921.999771 0)"/>
      <use xlink:href="#STIXTwoText-6c" transform="translate(969.999756 0)"/>
      <use xlink:href="#STIXTwoText-69" transform="translate(998.299744 0)"/>
      <use xlink:href="#STIXTwoText-74" transform="translate(1026.799728 0)"/>
      <use xlink:href="#STIXTwoText-79" transform="translate(1058.299713 0)"/>
      <use xlink:href="#STIXTwoText-20" transform="translate(1106.599701 0)"/>
      <use xlink:href="#STIXTwoText-73" transform="translate(1130.099686 0)"/>
      <use xlink:href="#STIXTwoText-63" transform="translate(1169.59967 0)"/>
      <use xlink:href="#STIXTwoText-6f" transform="translate(1214.199661 0)"/>
      <use xlink:href="#STIXTwoText-72" transform="translate(1265.599655 0)"/>
      <use xlink:href="#STIXTwoText-65" transform="translate(1303.59964 0)"/>
     </g>
    </g>
   </g>
   <g id="line2d_20">
    <path d="M 41.200313 195.501316 
L 756.147189 195.501316 
" clip-path="url(#p8512f385f0)" style="fill: none; stroke-dasharray: 1,2; stroke-dashoffset: 0; stroke: #666666"/>
   </g>
   <g id="patch_4">
    <path d="M 41.200313 356.203437 
L 41.200313 30.377187 
" style="fill: none; stroke: #333333; stroke-width: 0.8; stroke-linejoin: miter; stroke-linecap: square"/>
   </g>
   <g id="patch_5">
    <path d="M 41.200313 356.203437 
L 756.147189 356.203437 
" style="fill: none; stroke: #333333; stroke-width: 0.8; stroke-linejoin: miter; stroke-linecap: square"/>
   </g>
   <g id="line2d_21">
    <path d="M 41.200313 332.823154 
L 55.535087 282.2561 
L 64.494321 251.495037 
L 71.661708 227.730224 
L 77.037249 210.554185 
L 82.412789 194.044074 
L 87.78833 178.299674 
L 93.16387 163.420764 
L 96.747564 154.029705 
L 100.331257 145.072915 
L 103.914951 136.544741 
L 107.498644 128.439372 
L 111.082338 120.751056 
L 114.666032 113.473801 
L 118.249725 106.601757 
L 121.833419 100.129079 
L 125.417112 94.049919 
L 129.000806 88.358429 
L 132.5845 83.048761 
L 136.168193 78.115069 
L 139.751887 73.551505 
L 143.335581 69.352222 
L 146.919274 65.511372 
L 150.502968 62.023107 
L 154.086661 58.881581 
L 157.670355 56.080945 
L 161.254049 53.615353 
L 164.837742 51.478957 
L 168.421436 49.66591 
L 172.00513 48.170363 
L 175.588823 46.986471 
L 179.172517 46.107749 
L 182.75621 45.525446 
L 186.339904 45.23028 
L 189.923598 45.212966 
L 193.507291 45.464221 
L 197.090985 45.974761 
L 200.674678 46.735301 
L 204.258372 47.736558 
L 207.842066 48.969248 
L 211.425759 50.424086 
L 215.009453 52.09179 
L 218.593147 53.963074 
L 222.17684 56.028655 
L 225.760534 58.279248 
L 231.136074 61.981729 
L 236.511615 66.048267 
L 241.887155 70.447527 
L 247.262695 75.148177 
L 252.638236 80.118883 
L 259.805623 87.112422 
L 266.97301 94.456086 
L 275.932244 104.014878 
L 286.683325 115.850128 
L 311.769181 143.658998 
L 320.728415 153.196954 
L 327.895802 160.527554 
L 335.063189 167.573465 
L 342.230576 174.339396 
L 349.397964 180.830108 
L 356.565351 187.050362 
L 363.732738 193.004919 
L 370.900125 198.698541 
L 378.067512 204.135988 
L 385.2349 209.322022 
L 392.402287 214.261404 
L 399.569674 218.958894 
L 406.737061 223.419255 
L 413.904449 227.647246 
L 421.071836 231.64763 
L 428.239223 235.425167 
L 435.40661 238.984619 
L 442.573998 242.330746 
L 449.741385 245.46831 
L 456.908772 248.402072 
L 464.076159 251.136792 
L 471.243547 253.677233 
L 480.202781 256.586831 
L 489.162015 259.209604 
L 498.121249 261.554853 
L 507.080483 263.631876 
L 516.039717 265.449971 
L 524.998951 267.018439 
L 533.958185 268.346578 
L 542.917419 269.443687 
L 551.876653 270.319065 
L 560.835887 270.982012 
L 569.795121 271.441826 
L 578.754355 271.707806 
L 589.505436 271.784215 
L 600.256517 271.610963 
L 611.007598 271.204119 
L 621.758678 270.579752 
L 632.509759 269.75393 
L 645.052687 268.557292 
L 657.595615 267.13384 
L 671.930389 265.262039 
L 686.265164 263.165407 
L 702.391785 260.58538 
L 722.1021 257.190154 
L 748.979802 252.300797 
L 756.147189 250.974667 
L 756.147189 250.974667 
" clip-path="url(#p8512f385f0)" style="fill: none; stroke: #0b3c5d; stroke-width: 2.6; stroke-linecap: square"/>
   </g>
   <g id="text_17">
    <!-- Panel FE with firm and quarter fixed effects -->
    <g style="fill: #4d4d4d" transform="translate(41.200313 17.344137) scale(0.1 -0.1)">
     <defs>
      <path id="STIXTwoText-50" d="M 2086 0 
L 282 0 
L 282 192 
Q 531 192 652 237 
Q 774 282 812 413 
Q 851 544 851 813 
L 851 3565 
Q 851 3846 732 3929 
Q 614 4013 307 4013 
L 307 4205 
L 1901 4205 
Q 2208 4205 2493 4157 
Q 2778 4109 2998 3993 
Q 3219 3878 3350 3670 
Q 3482 3462 3482 3142 
Q 3482 2771 3341 2518 
Q 3200 2266 2960 2112 
Q 2720 1958 2419 1894 
Q 2118 1830 1805 1830 
Q 1709 1830 1600 1843 
Q 1491 1856 1440 1882 
L 1440 787 
Q 1440 525 1494 397 
Q 1549 269 1689 230 
Q 1830 192 2086 192 
L 2086 0 
z
M 1786 2093 
Q 2131 2093 2368 2179 
Q 2605 2266 2726 2474 
Q 2848 2682 2848 3053 
Q 2848 3488 2595 3721 
Q 2342 3955 1824 3955 
Q 1728 3955 1635 3948 
Q 1542 3942 1440 3930 
L 1440 2118 
Q 1491 2112 1590 2102 
Q 1690 2093 1786 2093 
z
" transform="scale(0.015625)"/>
      <path id="STIXTwoText-46" d="M 2106 0 
L 230 0 
L 230 192 
Q 493 192 624 230 
Q 755 269 803 387 
Q 851 506 851 742 
L 851 3482 
Q 851 3706 793 3818 
Q 736 3930 598 3971 
Q 461 4013 230 4013 
L 230 4205 
L 3635 4205 
L 3674 3155 
L 3469 3155 
Q 3424 3386 3376 3533 
Q 3328 3680 3232 3763 
Q 3136 3846 2953 3881 
Q 2771 3917 2458 3917 
L 1440 3917 
L 1440 2298 
L 2195 2298 
Q 2470 2298 2617 2349 
Q 2765 2400 2819 2537 
Q 2874 2675 2874 2931 
L 3091 2931 
L 3091 1446 
L 2874 1446 
Q 2874 1709 2819 1837 
Q 2765 1965 2617 2006 
Q 2470 2048 2195 2048 
L 1440 2048 
L 1440 704 
Q 1440 486 1501 377 
Q 1562 269 1709 230 
Q 1856 192 2106 192 
L 2106 0 
z
" transform="scale(0.015625)"/>
      <path id="STIXTwoText-45" d="M 3648 0 
L 230 0 
L 230 192 
Q 493 192 624 227 
Q 755 262 803 384 
Q 851 506 851 755 
L 851 3424 
Q 851 3667 803 3795 
Q 755 3923 624 3968 
Q 493 4013 230 4013 
L 230 4205 
L 3590 4205 
L 3629 3155 
L 3424 3155 
Q 3379 3475 3286 3638 
Q 3194 3802 2986 3859 
Q 2778 3917 2381 3917 
L 1440 3917 
L 1440 2291 
L 2189 2291 
Q 2483 2291 2636 2342 
Q 2790 2394 2848 2534 
Q 2906 2675 2906 2931 
L 3110 2931 
L 3110 1446 
L 2906 1446 
Q 2906 1709 2848 1837 
Q 2790 1965 2636 2003 
Q 2483 2042 2189 2042 
L 1440 2042 
L 1440 282 
L 2266 282 
Q 2637 282 2864 317 
Q 3091 352 3222 448 
Q 3354 544 3440 723 
Q 3526 902 3622 1190 
L 3827 1190 
L 3648 0 
z
" transform="scale(0.015625)"/>
      <path id="STIXTwoText-66" d="M 1837 0 
L 115 0 
L 115 186 
Q 352 186 464 227 
Q 576 269 614 390 
Q 653 512 653 762 
L 653 2797 
Q 653 3162 669 3395 
Q 685 3629 729 3789 
Q 774 3949 858 4096 
Q 986 4320 1181 4441 
Q 1376 4563 1709 4563 
Q 1920 4563 2080 4512 
Q 2240 4461 2333 4361 
Q 2426 4262 2426 4115 
Q 2426 3974 2349 3907 
Q 2272 3840 2163 3840 
Q 2042 3840 1965 3920 
Q 1888 4000 1818 4090 
Q 1754 4179 1680 4252 
Q 1606 4326 1491 4326 
Q 1312 4326 1248 4163 
Q 1184 4000 1184 3597 
L 1184 762 
Q 1184 512 1235 390 
Q 1286 269 1427 227 
Q 1568 186 1837 186 
L 1837 0 
z
M 1965 2726 
L 166 2726 
L 166 2995 
L 1965 2995 
L 1965 2726 
z
" transform="scale(0.015625)"/>
     </defs>
     <use xlink:href="#STIXTwoText-50"/>
     <use xlink:href="#STIXTwoText-61" transform="translate(56.899994 0)"/>
     <use xlink:href="#STIXTwoText-6e" transform="translate(104.899979 0)"/>
     <use xlink:href="#STIXTwoText-65" transform="translate(162.499969 0)"/>
     <use xlink:href="#STIXTwoText-6c" transform="translate(208.899963 0)"/>
     <use xlink:href="#STIXTwoText-20" transform="translate(237.199951 0)"/>
     <use xlink:href="#STIXTwoText-46" transform="translate(260.699936 0)"/>
     <use xlink:href="#STIXTwoText-45" transform="translate(319.499924 0)"/>
     <use xlink:href="#STIXTwoText-20" transform="translate(382.099915 0)"/>
     <use xlink:href="#STIXTwoText-77" transform="translate(405.599899 0)"/>
     <use xlink:href="#STIXTwoText-69" transform="translate(480.499893 0)"/>
     <use xlink:href="#STIXTwoText-74" transform="translate(508.999878 0)"/>
     <use xlink:href="#STIXTwoText-68" transform="translate(540.499863 0)"/>
     <use xlink:href="#STIXTwoText-20" transform="translate(598.19986 0)"/>
     <use xlink:href="#STIXTwoText-66" transform="translate(621.699844 0)"/>
     <use xlink:href="#STIXTwoText-69" transform="translate(652.399841 0)"/>
     <use xlink:href="#STIXTwoText-72" transform="translate(680.899826 0)"/>
     <use xlink:href="#STIXTwoText-6d" transform="translate(718.899811 0)"/>
     <use xlink:href="#STIXTwoText-20" transform="translate(804.099792 0)"/>
     <use xlink:href="#STIXTwoText-61" transform="translate(827.599777 0)"/>
     <use xlink:href="#STIXTwoText-6e" transform="translate(875.599762 0)"/>
     <use xlink:href="#STIXTwoText-64" transform="translate(933.199753 0)"/>
     <use xlink:href="#STIXTwoText-20" transform="translate(987.099747 0)"/>
     <use xlink:href="#STIXTwoText-71" transform="translate(1010.599731 0)"/>
     <use xlink:href="#STIXTwoText-75" transform="translate(1062.699722 0)"/>
     <use xlink:href="#STIXTwoText-61" transform="translate(1119.699707 0)"/>
     <use xlink:href="#STIXTwoText-72" transform="translate(1167.699692 0)"/>
     <use xlink:href="#STIXTwoText-74" transform="translate(1205.699677 0)"/>
     <use xlink:href="#STIXTwoText-65" transform="translate(1237.199661 0)"/>
     <use xlink:href="#STIXTwoText-72" transform="translate(1283.599655 0)"/>
     <use xlink:href="#STIXTwoText-20" transform="translate(1321.59964 0)"/>
     <use xlink:href="#STIXTwoText-66" transform="translate(1345.099625 0)"/>
     <use xlink:href="#STIXTwoText-69" transform="translate(1375.799622 0)"/>
     <use xlink:href="#STIXTwoText-78" transform="translate(1404.299606 0)"/>
     <use xlink:href="#STIXTwoText-65" transform="translate(1452.1996 0)"/>
     <use xlink:href="#STIXTwoText-64" transform="translate(1498.599594 0)"/>
     <use xlink:href="#STIXTwoText-20" transform="translate(1552.499588 0)"/>
     <use xlink:href="#STIXTwoText-65" transform="translate(1575.999573 0)"/>
     <use xlink:href="#STIXTwoText-66" transform="translate(1622.399567 0)"/>
     <use xlink:href="#STIXTwoText-66" transform="translate(1653.099564 0)"/>
     <use xlink:href="#STIXTwoText-65" transform="translate(1683.799561 0)"/>
     <use xlink:href="#STIXTwoText-63" transform="translate(1730.199554 0)"/>
     <use xlink:href="#STIXTwoText-74" transform="translate(1774.799545 0)"/>
     <use xlink:href="#STIXTwoText-73" transform="translate(1806.29953 0)"/>
    </g>
   </g>
   <g id="patch_6">
    <path d="M 220.702268 34.033379 
Q 205.361284 39.287049 190.0203 44.540719 
" style="fill: none; stroke: #7f0000; stroke-width: 0.9; stroke-linecap: round"/>
   </g>
   <g id="text_18">
    <!-- Optimum = 0.055 -->
    <g style="fill: #7f0000" transform="translate(204.131751 29.187472) scale(0.1 -0.1)">
     <defs>
      <path id="STIXTwoText-4f" d="M 2362 -77 
Q 1728 -77 1270 185 
Q 813 448 566 937 
Q 320 1427 320 2106 
Q 320 2758 566 3248 
Q 813 3738 1270 4010 
Q 1728 4282 2362 4282 
Q 3002 4282 3456 4016 
Q 3910 3750 4153 3273 
Q 4397 2797 4397 2163 
Q 4397 1491 4150 988 
Q 3904 486 3449 204 
Q 2995 -77 2362 -77 
z
M 2368 192 
Q 3053 192 3389 685 
Q 3725 1178 3725 2144 
Q 3725 2720 3552 3139 
Q 3379 3558 3068 3785 
Q 2758 4013 2342 4013 
Q 1722 4013 1357 3517 
Q 992 3021 992 2144 
Q 992 1242 1334 717 
Q 1677 192 2368 192 
z
" transform="scale(0.015625)"/>
      <path id="STIXTwoText-3d" d="M 4211 2189 
L 397 2189 
L 397 2624 
L 4211 2624 
L 4211 2189 
z
M 4211 672 
L 397 672 
L 397 1101 
L 4211 1101 
L 4211 672 
z
" transform="scale(0.015625)"/>
     </defs>
     <use xlink:href="#STIXTwoText-4f"/>
     <use xlink:href="#STIXTwoText-70" transform="translate(73.699982 0)"/>
     <use xlink:href="#STIXTwoText-74" transform="translate(127.399979 0)"/>
     <use xlink:href="#STIXTwoText-69" transform="translate(158.899963 0)"/>
     <use xlink:href="#STIXTwoText-6d" transform="translate(187.399948 0)"/>
     <use xlink:href="#STIXTwoText-75" transform="translate(272.59993 0)"/>
     <use xlink:href="#STIXTwoText-6d" transform="translate(329.599915 0)"/>
     <use xlink:href="#STIXTwoText-20" transform="translate(414.799896 0)"/>
     <use xlink:href="#STIXTwoText-3d" transform="translate(438.299881 0)"/>
     <use xlink:href="#STIXTwoText-20" transform="translate(510.299866 0)"/>
     <use xlink:href="#STIXTwoText-30" transform="translate(533.79985 0)"/>
     <use xlink:href="#STIXTwoText-2e" transform="translate(583.299835 0)"/>
     <use xlink:href="#STIXTwoText-30" transform="translate(607.79982 0)"/>
     <use xlink:href="#STIXTwoText-35" transform="translate(657.299805 0)"/>
     <use xlink:href="#STIXTwoText-35" transform="translate(706.799789 0)"/>
    </g>
   </g>
   <g id="text_19">
    <g id="patch_7">
     <path d="M 633.330408 339.313862 
L 745.422986 339.313862 
Q 748.082986 339.313862 748.082986 336.653862 
L 748.082986 327.467066 
Q 748.082986 324.807066 745.422986 324.807066 
L 633.330408 324.807066 
Q 630.670408 324.807066 630.670408 327.467066 
L 630.670408 336.653862 
Q 630.670408 339.313862 633.330408 339.313862 
z
" style="fill: #ffffff; stroke: #bdbdbd; stroke-width: 0.8; stroke-linejoin: miter"/>
    </g>
    <!-- Top 5% range: [0.050, 0.060] -->
    <g style="fill: #274b6d" transform="translate(633.330408 334.421362) scale(0.095 -0.095)">
     <defs>
      <path id="STIXTwoText-54" d="M 2861 0 
L 1005 0 
L 1005 192 
Q 1274 192 1408 233 
Q 1542 275 1587 412 
Q 1632 550 1632 838 
L 1632 3917 
L 1222 3917 
Q 870 3917 694 3846 
Q 518 3776 441 3590 
Q 365 3405 294 3053 
L 96 3053 
L 166 4205 
L 3706 4205 
L 3757 3053 
L 3558 3053 
Q 3488 3405 3411 3590 
Q 3334 3776 3161 3846 
Q 2989 3917 2630 3917 
L 2227 3917 
L 2227 838 
Q 2227 550 2272 412 
Q 2317 275 2451 233 
Q 2586 192 2861 192 
L 2861 0 
z
" transform="scale(0.015625)"/>
      <path id="STIXTwoText-25" d="M 1824 3302 
Q 1824 3597 1721 3750 
Q 1619 3904 1427 3904 
Q 1229 3904 1072 3753 
Q 915 3603 822 3344 
Q 730 3085 730 2758 
Q 730 2458 816 2317 
Q 902 2176 1082 2176 
Q 1286 2176 1452 2329 
Q 1619 2483 1721 2742 
Q 1824 3002 1824 3302 
z
M 4141 1165 
Q 4141 806 4003 512 
Q 3866 218 3629 45 
Q 3392 -128 3085 -128 
Q 2758 -128 2572 80 
Q 2387 288 2387 698 
Q 2387 1062 2524 1353 
Q 2662 1645 2905 1814 
Q 3149 1984 3456 1984 
Q 3789 1984 3965 1773 
Q 4141 1562 4141 1165 
z
M 3462 4262 
L 3750 4262 
L 1158 -134 
L 851 -134 
L 3136 3725 
L 3104 3725 
Q 2944 3616 2793 3568 
Q 2643 3520 2445 3520 
Q 2330 3520 2243 3539 
Q 2157 3558 2010 3622 
L 1997 3610 
Q 2016 3539 2029 3449 
Q 2042 3360 2042 3251 
Q 2042 2899 1904 2604 
Q 1766 2310 1526 2137 
Q 1286 1965 979 1965 
Q 653 1965 470 2173 
Q 288 2381 288 2784 
Q 288 3149 429 3440 
Q 570 3731 813 3904 
Q 1056 4077 1350 4077 
Q 1536 4077 1667 4019 
Q 1798 3962 1913 3885 
Q 2029 3808 2173 3750 
Q 2317 3693 2528 3693 
Q 2675 3693 2800 3737 
Q 2925 3782 3078 3907 
Q 3232 4032 3462 4262 
z
M 3923 1210 
Q 3923 1811 3526 1811 
Q 3328 1811 3171 1660 
Q 3014 1510 2921 1251 
Q 2829 992 2829 666 
Q 2829 365 2915 224 
Q 3002 83 3181 83 
Q 3386 83 3552 236 
Q 3718 390 3820 649 
Q 3923 909 3923 1210 
z
" transform="scale(0.015625)"/>
      <path id="STIXTwoText-67" d="M 1222 -1504 
Q 806 -1504 566 -1401 
Q 326 -1299 230 -1136 
Q 134 -973 134 -800 
Q 134 -640 265 -464 
Q 397 -288 653 -38 
L 653 32 
L 845 -6 
Q 723 -211 678 -342 
Q 634 -474 634 -582 
Q 634 -858 870 -998 
Q 1107 -1139 1594 -1139 
Q 1971 -1139 2204 -1043 
Q 2438 -947 2544 -806 
Q 2650 -666 2650 -531 
Q 2650 -358 2538 -265 
Q 2426 -173 2253 -134 
Q 2080 -96 1888 -86 
Q 1696 -77 1536 -77 
Q 1248 -70 1101 -70 
Q 954 -70 890 -67 
Q 826 -64 774 -64 
L 710 -32 
Q 614 0 518 70 
Q 422 141 358 240 
Q 294 339 294 448 
Q 294 563 361 688 
Q 429 813 550 937 
Q 672 1062 819 1178 
L 819 1235 
L 986 1114 
Q 954 1082 909 998 
Q 864 915 832 822 
Q 800 730 800 666 
Q 800 570 867 515 
Q 934 461 1097 435 
Q 1261 410 1555 410 
Q 1958 410 2281 371 
Q 2605 333 2790 173 
Q 2976 13 2976 -352 
Q 2976 -672 2819 -893 
Q 2662 -1114 2403 -1248 
Q 2144 -1382 1833 -1443 
Q 1523 -1504 1222 -1504 
z
M 1517 998 
Q 1350 998 1206 1030 
Q 1062 1062 928 1107 
L 858 1171 
Q 691 1261 572 1382 
Q 454 1504 390 1673 
Q 326 1843 326 2061 
Q 326 2381 473 2614 
Q 621 2848 883 2976 
Q 1146 3104 1485 3104 
Q 1677 3104 1846 3069 
Q 2016 3034 2163 2963 
Q 2310 2893 2419 2797 
L 2419 2630 
Q 2490 2534 2570 2374 
Q 2650 2214 2650 1971 
Q 2650 1677 2506 1456 
Q 2362 1235 2109 1116 
Q 1856 998 1517 998 
z
M 1523 1222 
Q 1766 1222 1923 1388 
Q 2080 1555 2080 2010 
Q 2080 2400 1913 2637 
Q 1747 2874 1440 2874 
Q 1190 2874 1040 2682 
Q 890 2490 890 2086 
Q 890 1677 1050 1449 
Q 1210 1222 1523 1222 
z
M 3021 2989 
L 3021 2643 
L 2330 2662 
L 2106 2938 
L 3021 2989 
z
" transform="scale(0.015625)"/>
      <path id="STIXTwoText-3a" d="M 838 -51 
Q 646 -51 553 57 
Q 461 166 461 326 
Q 461 493 563 611 
Q 666 730 845 730 
Q 1030 730 1132 608 
Q 1235 486 1235 320 
Q 1235 173 1132 61 
Q 1030 -51 838 -51 
z
M 838 2253 
Q 646 2253 553 2361 
Q 461 2470 461 2630 
Q 461 2797 563 2915 
Q 666 3034 845 3034 
Q 1030 3034 1132 2912 
Q 1235 2790 1235 2624 
Q 1235 2477 1132 2365 
Q 1030 2253 838 2253 
z
" transform="scale(0.015625)"/>
      <path id="STIXTwoText-5b" d="M 1920 -1190 
L 582 -1190 
L 582 4685 
L 1920 4685 
L 1920 4493 
L 1088 4493 
L 1088 -998 
L 1920 -998 
L 1920 -1190 
z
" transform="scale(0.015625)"/>
      <path id="STIXTwoText-2c" d="M 448 -845 
L 371 -685 
Q 493 -634 614 -554 
Q 736 -474 819 -320 
Q 902 -166 902 90 
Q 800 51 704 51 
Q 518 51 435 153 
Q 352 256 352 397 
Q 352 550 454 662 
Q 557 774 749 774 
Q 909 774 1017 707 
Q 1126 640 1184 515 
Q 1242 390 1242 211 
Q 1242 -58 1155 -243 
Q 1069 -429 941 -544 
Q 813 -659 678 -729 
Q 544 -800 448 -845 
z
" transform="scale(0.015625)"/>
      <path id="STIXTwoText-36" d="M 1658 -77 
Q 1184 -77 880 156 
Q 576 390 432 784 
Q 288 1178 288 1645 
Q 288 2221 464 2675 
Q 640 3130 957 3446 
Q 1274 3763 1706 3939 
Q 2138 4115 2656 4134 
L 2669 3949 
Q 2221 3885 1849 3661 
Q 1478 3437 1228 3078 
Q 979 2720 896 2253 
L 941 2246 
Q 1139 2438 1331 2540 
Q 1523 2643 1773 2643 
Q 2298 2643 2611 2284 
Q 2925 1926 2925 1299 
Q 2925 646 2595 284 
Q 2266 -77 1658 -77 
z
M 1683 147 
Q 2003 147 2185 393 
Q 2368 640 2368 1248 
Q 2368 1683 2173 1977 
Q 1978 2272 1581 2272 
Q 1395 2272 1232 2198 
Q 1069 2125 966 1958 
Q 864 1792 864 1510 
Q 864 1114 953 806 
Q 1043 499 1225 323 
Q 1408 147 1683 147 
z
" transform="scale(0.015625)"/>
      <path id="STIXTwoText-5d" d="M 1638 -1190 
L 301 -1190 
L 301 -998 
L 1133 -998 
L 1133 4493 
L 301 4493 
L 301 4685 
L 1638 4685 
L 1638 -1190 
z
" transform="scale(0.015625)"/>
     </defs>
     <use xlink:href="#STIXTwoText-54"/>
     <use xlink:href="#STIXTwoText-6f" transform="translate(60.299988 0)"/>
     <use xlink:href="#STIXTwoText-70" transform="translate(111.699982 0)"/>
     <use xlink:href="#STIXTwoText-20" transform="translate(165.399979 0)"/>
     <use xlink:href="#STIXTwoText-35" transform="translate(188.899963 0)"/>
     <use xlink:href="#STIXTwoText-25" transform="translate(238.399948 0)"/>
     <use xlink:href="#STIXTwoText-20" transform="translate(307.59993 0)"/>
     <use xlink:href="#STIXTwoText-72" transform="translate(331.099915 0)"/>
     <use xlink:href="#STIXTwoText-61" transform="translate(369.099899 0)"/>
     <use xlink:href="#STIXTwoText-6e" transform="translate(417.099884 0)"/>
     <use xlink:href="#STIXTwoText-67" transform="translate(474.699875 0)"/>
     <use xlink:href="#STIXTwoText-65" transform="translate(523.099869 0)"/>
     <use xlink:href="#STIXTwoText-3a" transform="translate(569.499863 0)"/>
     <use xlink:href="#STIXTwoText-20" transform="translate(593.999847 0)"/>
     <use xlink:href="#STIXTwoText-5b" transform="translate(617.499832 0)"/>
     <use xlink:href="#STIXTwoText-30" transform="translate(652.199829 0)"/>
     <use xlink:href="#STIXTwoText-2e" transform="translate(701.699814 0)"/>
     <use xlink:href="#STIXTwoText-30" transform="translate(726.199799 0)"/>
     <use xlink:href="#STIXTwoText-35" transform="translate(775.699783 0)"/>
     <use xlink:href="#STIXTwoText-30" transform="translate(825.199768 0)"/>
     <use xlink:href="#STIXTwoText-2c" transform="translate(874.699753 0)"/>
     <use xlink:href="#STIXTwoText-20" transform="translate(899.199738 0)"/>
     <use xlink:href="#STIXTwoText-30" transform="translate(922.699722 0)"/>
     <use xlink:href="#STIXTwoText-2e" transform="translate(972.199707 0)"/>
     <use xlink:href="#STIXTwoText-30" transform="translate(996.699692 0)"/>
     <use xlink:href="#STIXTwoText-36" transform="translate(1046.199677 0)"/>
     <use xlink:href="#STIXTwoText-30" transform="translate(1095.699661 0)"/>
     <use xlink:href="#STIXTwoText-5d" transform="translate(1145.199646 0)"/>
    </g>
   </g>
   <g id="text_20">
    <!-- Spline-Based Market Quality Score -->
    <g transform="translate(303.108516 16.377187) scale(0.13 -0.13)">
     <defs>
      <path id="STIXTwoText-53" d="M 480 -96 
L 282 -96 
L 224 1286 
L 422 1286 
Q 538 845 691 611 
Q 845 378 1072 291 
Q 1299 205 1626 205 
Q 1869 205 2041 272 
Q 2214 339 2310 489 
Q 2406 640 2406 883 
Q 2406 1165 2249 1350 
Q 2093 1536 1849 1680 
Q 1606 1824 1344 1971 
Q 1088 2118 851 2284 
Q 614 2451 464 2681 
Q 314 2912 314 3245 
Q 314 3584 480 3811 
Q 646 4038 921 4160 
Q 1197 4282 1530 4282 
Q 1824 4282 1984 4234 
Q 2144 4186 2237 4134 
Q 2330 4083 2406 4083 
Q 2483 4083 2531 4124 
Q 2579 4166 2605 4269 
L 2771 4269 
L 2816 2989 
L 2624 2989 
Q 2490 3520 2266 3776 
Q 2042 4032 1555 4026 
Q 1229 4026 1049 3875 
Q 870 3725 870 3424 
Q 870 3187 1004 3017 
Q 1139 2848 1356 2713 
Q 1574 2579 1811 2438 
Q 2022 2317 2236 2195 
Q 2451 2074 2627 1920 
Q 2803 1766 2908 1561 
Q 3014 1357 3014 1069 
Q 3014 698 2844 442 
Q 2675 186 2380 54 
Q 2086 -77 1715 -77 
Q 1382 -77 1174 -29 
Q 966 19 848 67 
Q 730 115 653 115 
Q 589 115 537 57 
Q 486 0 480 -96 
z
" transform="scale(0.015625)"/>
      <path id="STIXTwoText-42" d="M 2202 0 
L 230 0 
L 230 192 
Q 493 192 624 237 
Q 755 282 803 416 
Q 851 550 851 813 
L 851 3430 
Q 851 3686 803 3811 
Q 755 3936 624 3974 
Q 493 4013 230 4013 
L 230 4205 
L 1958 4205 
Q 2528 4205 2873 4086 
Q 3219 3968 3372 3747 
Q 3526 3526 3526 3206 
Q 3526 2778 3270 2563 
Q 3014 2349 2618 2240 
L 2618 2214 
Q 2893 2170 3145 2048 
Q 3398 1926 3564 1705 
Q 3731 1485 3731 1133 
Q 3731 589 3324 294 
Q 2918 0 2202 0 
z
M 1901 237 
Q 2106 237 2310 262 
Q 2515 288 2684 374 
Q 2854 461 2956 637 
Q 3059 813 3059 1120 
Q 3059 1485 2889 1686 
Q 2720 1888 2454 1968 
Q 2189 2048 1888 2048 
L 1440 2048 
L 1440 256 
Q 1555 250 1670 243 
Q 1786 237 1901 237 
z
M 1440 3936 
L 1440 2317 
L 1875 2317 
Q 2458 2317 2675 2518 
Q 2893 2720 2893 3155 
Q 2893 3533 2653 3744 
Q 2413 3955 1824 3955 
Q 1734 3955 1635 3952 
Q 1536 3949 1440 3936 
z
" transform="scale(0.015625)"/>
      <path id="STIXTwoText-4d" d="M 1683 0 
L 179 0 
L 179 192 
Q 442 192 570 240 
Q 698 288 742 448 
Q 787 608 787 934 
L 787 3424 
Q 787 3667 742 3792 
Q 698 3917 573 3965 
Q 448 4013 192 4013 
L 192 4205 
L 1498 4205 
L 2848 986 
L 2874 986 
L 4218 4205 
L 5434 4205 
L 5434 4013 
Q 5210 4013 5088 3965 
Q 4966 3917 4921 3792 
Q 4877 3667 4877 3430 
L 4877 762 
Q 4877 531 4921 406 
Q 4966 282 5088 237 
Q 5210 192 5440 192 
L 5440 0 
L 3738 0 
L 3738 192 
Q 3987 192 4108 237 
Q 4230 282 4268 406 
Q 4307 531 4307 762 
L 4307 3520 
L 4282 3520 
L 2790 0 
L 2637 0 
L 1126 3514 
L 1101 3514 
L 1101 934 
Q 1101 608 1145 448 
Q 1190 288 1315 240 
Q 1440 192 1683 192 
L 1683 0 
z
" transform="scale(0.015625)"/>
      <path id="STIXTwoText-51" d="M 2835 -6 
L 2317 -77 
Q 1702 -58 1254 204 
Q 806 467 563 950 
Q 320 1434 320 2106 
Q 320 2758 566 3248 
Q 813 3738 1270 4010 
Q 1728 4282 2362 4282 
Q 3002 4282 3456 4016 
Q 3910 3750 4153 3273 
Q 4397 2797 4397 2170 
Q 4397 1594 4205 1133 
Q 4013 672 3664 377 
Q 3315 83 2835 -6 
z
M 4570 -1107 
L 4250 -1107 
Q 3718 -1107 3360 -1033 
Q 3002 -960 2765 -790 
Q 2528 -621 2355 -333 
L 2150 19 
L 2938 115 
L 2938 0 
Q 3168 -320 3395 -518 
Q 3622 -717 3904 -806 
Q 4186 -896 4570 -896 
L 4570 -1107 
z
M 2368 192 
Q 3053 192 3389 685 
Q 3725 1178 3725 2144 
Q 3725 2720 3552 3139 
Q 3379 3558 3068 3785 
Q 2758 4013 2342 4013 
Q 1722 4013 1357 3517 
Q 992 3021 992 2144 
Q 992 1242 1334 717 
Q 1677 192 2368 192 
z
" transform="scale(0.015625)"/>
     </defs>
     <use xlink:href="#STIXTwoText-53"/>
     <use xlink:href="#STIXTwoText-70" transform="translate(50.399994 0)"/>
     <use xlink:href="#STIXTwoText-6c" transform="translate(104.099991 0)"/>
     <use xlink:href="#STIXTwoText-69" transform="translate(132.399979 0)"/>
     <use xlink:href="#STIXTwoText-6e" transform="translate(160.899963 0)"/>
     <use xlink:href="#STIXTwoText-65" transform="translate(218.499954 0)"/>
     <use xlink:href="#STIXTwoText-2d" transform="translate(264.899948 0)"/>
     <use xlink:href="#STIXTwoText-42" transform="translate(296.399933 0)"/>
     <use xlink:href="#STIXTwoText-61" transform="translate(358.199921 0)"/>
     <use xlink:href="#STIXTwoText-73" transform="translate(406.199905 0)"/>
     <use xlink:href="#STIXTwoText-65" transform="translate(445.69989 0)"/>
     <use xlink:href="#STIXTwoText-64" transform="translate(492.099884 0)"/>
     <use xlink:href="#STIXTwoText-20" transform="translate(545.999878 0)"/>
     <use xlink:href="#STIXTwoText-4d" transform="translate(569.499863 0)"/>
     <use xlink:href="#STIXTwoText-61" transform="translate(658.999847 0)"/>
     <use xlink:href="#STIXTwoText-72" transform="translate(706.999832 0)"/>
     <use xlink:href="#STIXTwoText-6b" transform="translate(744.999817 0)"/>
     <use xlink:href="#STIXTwoText-65" transform="translate(799.199814 0)"/>
     <use xlink:href="#STIXTwoText-74" transform="translate(845.599808 0)"/>
     <use xlink:href="#STIXTwoText-20" transform="translate(877.099792 0)"/>
     <use xlink:href="#STIXTwoText-51" transform="translate(900.599777 0)"/>
     <use xlink:href="#STIXTwoText-75" transform="translate(974.299759 0)"/>
     <use xlink:href="#STIXTwoText-61" transform="translate(1031.299744 0)"/>
     <use xlink:href="#STIXTwoText-6c" transform="translate(1079.299728 0)"/>
     <use xlink:href="#STIXTwoText-69" transform="translate(1107.599716 0)"/>
     <use xlink:href="#STIXTwoText-74" transform="translate(1136.099701 0)"/>
     <use xlink:href="#STIXTwoText-79" transform="translate(1167.599686 0)"/>
     <use xlink:href="#STIXTwoText-20" transform="translate(1215.899673 0)"/>
     <use xlink:href="#STIXTwoText-53" transform="translate(1239.399658 0)"/>
     <use xlink:href="#STIXTwoText-63" transform="translate(1289.799652 0)"/>
     <use xlink:href="#STIXTwoText-6f" transform="translate(1334.399643 0)"/>
     <use xlink:href="#STIXTwoText-72" transform="translate(1385.799637 0)"/>
     <use xlink:href="#STIXTwoText-65" transform="translate(1423.799622 0)"/>
    </g>
   </g>
   <g id="line2d_22">
    <path d="M 188.131751 356.203437 
L 188.131751 30.377187 
" clip-path="url(#p8512f385f0)" style="fill: none; stroke-dasharray: 9.6,4.8; stroke-dashoffset: 0; stroke: #a50f15; stroke-width: 1.6"/>
   </g>
   <g id="PathCollection_1">
    <defs>
     <path id="m5ab879267c" d="M 0 2.915476 
C 0.773193 2.915476 1.514823 2.608283 2.061553 2.061553 
C 2.608283 1.514823 2.915476 0.773193 2.915476 0 
C 2.915476 -0.773193 2.608283 -1.514823 2.061553 -2.061553 
C 1.514823 -2.608283 0.773193 -2.915476 0 -2.915476 
C -0.773193 -2.915476 -1.514823 -2.608283 -2.061553 -2.061553 
C -2.608283 -1.514823 -2.915476 -0.773193 -2.915476 0 
C -2.915476 0.773193 -2.608283 1.514823 -2.061553 2.061553 
C -1.514823 2.608283 -0.773193 2.915476 0 2.915476 
z
" style="stroke: #a50f15"/>
    </defs>
    <g clip-path="url(#p8512f385f0)">
     <use xlink:href="#m5ab879267c" x="188.131751" y="45.187472" style="fill: #a50f15; stroke: #a50f15"/>
    </g>
   </g>
  </g>
 </g>
 <defs>
  <clipPath id="p8512f385f0">
   <rect x="41.200313" y="30.377187" width="714.946877" height="325.82625"/>
  </clipPath>
 </defs>
</svg>
