<?xml version="1.0" encoding="utf-8" standalone="no"?>
<!DOCTYPE svg PUBLIC "-//W3C//DTD SVG 1.1//EN"
  "http://www.w3.org/Graphics/SVG/1.1/DTD/svg11.dtd">
<svg xmlns:xlink="http://www.w3.org/1999/xlink" width="797.721865pt" height="416.212812pt" viewBox="0 0 797.721865 416.212812" xmlns="http://www.w3.org/2000/svg" version="1.1">
 <metadata>
  <rdf:RDF xmlns:dc="http://purl.org/dc/elements/1.1/" xmlns:cc="http://creativecommons.org/ns#" xmlns:rdf="http://www.w3.org/1999/02/22-rdf-syntax-ns#">
   <cc:Work>
    <dc:type rdf:resource="http://purl.org/dc/dcmitype/StillImage"/>
    <dc:date>2026-03-18T12:42:14.231358</dc:date>
    <dc:format>image/svg+xml</dc:format>
    <dc:creator>
     <cc:Agent>
      <dc:title>Matplotlib v3.10.8, https://matplotlib.org/</dc:title>
     </cc:Agent>
    </dc:creator>
   </cc:Work>
  </rdf:RDF>
 </metadata>
 <defs>
  <style type="text/css">*{stroke-linejoin: round; stroke-linecap: butt}</style>
 </defs>
 <g id="figure_1">
  <g id="patch_1">
   <path d="M 0 416.212812 
L 797.721865 416.212812 
L 797.721865 0 
L 0 0 
z
" style="fill: #ffffff"/>
  </g>
  <g id="axes_1">
   <g id="patch_2">
    <path d="M 41.200313 377.803437 
L 788.369857 377.803437 
L 788.369857 30.377187 
L 41.200313 30.377187 
z
" style="fill: #ffffff"/>
   </g>
   <g id="patch_3">
    <path d="M 531.822921 377.803437 
L 567.402423 377.803437 
L 567.402423 30.377187 
L 531.822921 30.377187 
z
" clip-path="url(#pfc8816d059)" style="fill: #dbe9f6; opacity: 0.9"/>
   </g>
   <g id="FillBetweenPolyCollection_1">
    <defs>
     <path id="m3d6423f248" d="M 41.200313 -54.201477 
L 41.200313 -58.361153 
L 43.072918 -67.429556 
L 44.945523 -76.483692 
L 46.818129 -85.510228 
L 48.690734 -94.495833 
L 50.563339 -103.427175 
L 52.435945 -112.290922 
L 54.30855 -121.073741 
L 56.181155 -129.762301 
L 58.053761 -138.34327 
L 59.926366 -146.803315 
L 61.798972 -155.129105 
L 63.671577 -163.307307 
L 65.544182 -171.324589 
L 67.416788 -179.16762 
L 69.289393 -186.823068 
L 71.161998 -194.277599 
L 73.034604 -201.517884 
L 74.907209 -208.530588 
L 76.779815 -215.302381 
L 78.65242 -221.819929 
L 80.525025 -228.069902 
L 82.397631 -234.038968 
L 84.270236 -239.713793 
L 86.142841 -245.081046 
L 88.015447 -250.127396 
L 89.888052 -254.839509 
L 91.760658 -259.204055 
L 93.633263 -263.2077 
L 95.505868 -266.837118 
L 97.378474 -270.079445 
L 99.251079 -272.932587 
L 101.123684 -275.407526 
L 102.99629 -277.516058 
L 104.868895 -279.269976 
L 106.741501 -280.681075 
L 108.614106 -281.76115 
L 110.486711 -282.521994 
L 112.359317 -282.975403 
L 114.231922 -283.13317 
L 116.104527 -283.007091 
L 117.977133 -282.608958 
L 119.849738 -281.950568 
L 121.722344 -281.043714 
L 123.594949 -279.900191 
L 125.467554 -278.531792 
L 127.34016 -276.950313 
L 129.212765 -275.167548 
L 131.08537 -273.195292 
L 132.957976 -271.045337 
L 134.830581 -268.72948 
L 136.703187 -266.259515 
L 138.575792 -263.647235 
L 140.448397 -260.904436 
L 142.321003 -258.042911 
L 144.193608 -255.074455 
L 146.066213 -252.010863 
L 147.938819 -248.863929 
L 149.811424 -245.645447 
L 151.68403 -242.367212 
L 153.556635 -239.041017 
L 155.42924 -235.678659 
L 157.301846 -232.29193 
L 159.174451 -228.892625 
L 161.047056 -225.49254 
L 162.919662 -222.103467 
L 164.792267 -218.737202 
L 166.664873 -215.405539 
L 168.537478 -212.120272 
L 170.410083 -208.893196 
L 172.282689 -205.736105 
L 174.155294 -202.660793 
L 176.027899 -199.679056 
L 177.900505 -196.802687 
L 179.77311 -194.04348 
L 181.645716 -191.413125 
L 183.518321 -188.9198 
L 185.390926 -186.562949 
L 187.263532 -184.340575 
L 189.136137 -182.25068 
L 191.008742 -180.291266 
L 192.881348 -178.460337 
L 194.753953 -176.755895 
L 196.626559 -175.175941 
L 198.499164 -173.71848 
L 200.371769 -172.381513 
L 202.244375 -171.163043 
L 204.11698 -170.061072 
L 205.989585 -169.073603 
L 207.862191 -168.198639 
L 209.734796 -167.434181 
L 211.607402 -166.778234 
L 213.480007 -166.228798 
L 215.352612 -165.783877 
L 217.225218 -165.441473 
L 219.097823 -165.199589 
L 220.970428 -165.056228 
L 222.843034 -165.009391 
L 224.715639 -165.057081 
L 226.588245 -165.197301 
L 228.46085 -165.428054 
L 230.333455 -165.747342 
L 232.206061 -166.153167 
L 234.078666 -166.643532 
L 235.951271 -167.21644 
L 237.823877 -167.869893 
L 239.696482 -168.601893 
L 241.569088 -169.410444 
L 243.441693 -170.293547 
L 245.314298 -171.249206 
L 247.186904 -172.275422 
L 249.059509 -173.370199 
L 250.932114 -174.531539 
L 252.80472 -175.757444 
L 254.677325 -177.045917 
L 256.549931 -178.39496 
L 258.422536 -179.802577 
L 260.295141 -181.266769 
L 262.167747 -182.785539 
L 264.040352 -184.35689 
L 265.912957 -185.978824 
L 267.785563 -187.649344 
L 269.658168 -189.366451 
L 271.530774 -191.12815 
L 273.403379 -192.932442 
L 275.275984 -194.77733 
L 277.14859 -196.660817 
L 279.021195 -198.580904 
L 280.8938 -200.535595 
L 282.766406 -202.522891 
L 284.639011 -204.540797 
L 286.511617 -206.587313 
L 288.384222 -208.660443 
L 290.256827 -210.758189 
L 292.129433 -212.878554 
L 294.002038 -215.01954 
L 295.874643 -217.17915 
L 297.747249 -219.355386 
L 299.619854 -221.546251 
L 301.49246 -223.749748 
L 303.365065 -225.963878 
L 305.23767 -228.186645 
L 307.110276 -230.416051 
L 308.982881 -232.650098 
L 310.855486 -234.88679 
L 312.728092 -237.124128 
L 314.600697 -239.360115 
L 316.473303 -241.592754 
L 318.345908 -243.820047 
L 320.218513 -246.039997 
L 322.091119 -248.250607 
L 323.963724 -250.449878 
L 325.836329 -252.635813 
L 327.708935 -254.806416 
L 329.58154 -256.959688 
L 331.454146 -259.093632 
L 333.326751 -261.206256 
L 335.199356 -263.29575 
L 337.071962 -265.361499 
L 338.944567 -267.403592 
L 340.817172 -269.422128 
L 342.689778 -271.417205 
L 344.562383 -273.388922 
L 346.434989 -275.337375 
L 348.307594 -277.262664 
L 350.180199 -279.164887 
L 352.052805 -281.044141 
L 353.92541 -282.900526 
L 355.798015 -284.734139 
L 357.670621 -286.545079 
L 359.543226 -288.333443 
L 361.415832 -290.099331 
L 363.288437 -291.842839 
L 365.161042 -293.564067 
L 367.033648 -295.263113 
L 368.906253 -296.940074 
L 370.778858 -298.59505 
L 372.651464 -300.228138 
L 374.524069 -301.839436 
L 376.396675 -303.429043 
L 378.26928 -304.997057 
L 380.141885 -306.543575 
L 382.014491 -308.068698 
L 383.887096 -309.572521 
L 385.759701 -311.055145 
L 387.632307 -312.516666 
L 389.504912 -313.957183 
L 391.377518 -315.376795 
L 393.250123 -316.7756 
L 395.122728 -318.153695 
L 396.995334 -319.511179 
L 398.867939 -320.84815 
L 400.740544 -322.164707 
L 402.61315 -323.460948 
L 404.485755 -324.73697 
L 406.358361 -325.992872 
L 408.230966 -327.228753 
L 410.103571 -328.44471 
L 411.976177 -329.640841 
L 413.848782 -330.817246 
L 415.721387 -331.974021 
L 417.593993 -333.111266 
L 419.466598 -334.229079 
L 421.339204 -335.327557 
L 423.211809 -336.406799 
L 425.084414 -337.466903 
L 426.95702 -338.507968 
L 428.829625 -339.530091 
L 430.70223 -340.533371 
L 432.574836 -341.517906 
L 434.447441 -342.483794 
L 436.320047 -343.431134 
L 438.192652 -344.360023 
L 440.065257 -345.27056 
L 441.937863 -346.162843 
L 443.810468 -347.036971 
L 445.683073 -347.893041 
L 447.555679 -348.731151 
L 449.428284 -349.551401 
L 451.30089 -350.353887 
L 453.173495 -351.138709 
L 455.0461 -351.905964 
L 456.918706 -352.655751 
L 458.791311 -353.388168 
L 460.663916 -354.103314 
L 462.536522 -354.801285 
L 464.409127 -355.482181 
L 466.281733 -356.1461 
L 468.154338 -356.79314 
L 470.026943 -357.423399 
L 471.899549 -358.036976 
L 473.772154 -358.633968 
L 475.644759 -359.214474 
L 477.517365 -359.778592 
L 479.38997 -360.32642 
L 481.262576 -360.858057 
L 483.135181 -361.3736 
L 485.007786 -361.873149 
L 486.880392 -362.3568 
L 488.752997 -362.824653 
L 490.625602 -363.276805 
L 492.498208 -363.713355 
L 494.370813 -364.134401 
L 496.243419 -364.540042 
L 498.116024 -364.930374 
L 499.988629 -365.305497 
L 501.861235 -365.665509 
L 503.73384 -366.010508 
L 505.606445 -366.340592 
L 507.479051 -366.65586 
L 509.351656 -366.956409 
L 511.224262 -367.242338 
L 513.096867 -367.513745 
L 514.969472 -367.770728 
L 516.842078 -368.013386 
L 518.714683 -368.241817 
L 520.587288 -368.456118 
L 522.459894 -368.656388 
L 524.332499 -368.842726 
L 526.205105 -369.01523 
L 528.07771 -369.173997 
L 529.950315 -369.319126 
L 531.822921 -369.450715 
L 533.695526 -369.568863 
L 535.568131 -369.673667 
L 537.440737 -369.765226 
L 539.313342 -369.843638 
L 541.185948 -369.909001 
L 543.058553 -369.961414 
L 544.931158 -370.000974 
L 546.803764 -370.02778 
L 548.676369 -370.04193 
L 550.548974 -370.043523 
L 552.42158 -370.032656 
L 554.294185 -370.009427 
L 556.166791 -369.973936 
L 558.039396 -369.926279 
L 559.912001 -369.866556 
L 561.784607 -369.794865 
L 563.657212 -369.711303 
L 565.529817 -369.615969 
L 567.402423 -369.508962 
L 569.275028 -369.390379 
L 571.147634 -369.260318 
L 573.020239 -369.118878 
L 574.892844 -368.966157 
L 576.76545 -368.802254 
L 578.638055 -368.627266 
L 580.51066 -368.441291 
L 582.383266 -368.244428 
L 584.255871 -368.036776 
L 586.128477 -367.818431 
L 588.001082 -367.589494 
L 589.873687 -367.35006 
L 591.746293 -367.10023 
L 593.618898 -366.840101 
L 595.491503 -366.569771 
L 597.364109 -366.289339 
L 599.236714 -365.998902 
L 601.10932 -365.69856 
L 602.981925 -365.38841 
L 604.85453 -365.06855 
L 606.727136 -364.739078 
L 608.599741 -364.400094 
L 610.472346 -364.051694 
L 612.344952 -363.693978 
L 614.217557 -363.327043 
L 616.090163 -362.950988 
L 617.962768 -362.56591 
L 619.835373 -362.171909 
L 621.707979 -361.769082 
L 623.580584 -361.357527 
L 625.453189 -360.937343 
L 627.325795 -360.508628 
L 629.1984 -360.071481 
L 631.071006 -359.625998 
L 632.943611 -359.172279 
L 634.816216 -358.710422 
L 636.688822 -358.240525 
L 638.561427 -357.762686 
L 640.434032 -357.277003 
L 642.306638 -356.783575 
L 644.179243 -356.2825 
L 646.051849 -355.773876 
L 647.924454 -355.257801 
L 649.797059 -354.734373 
L 651.669665 -354.203691 
L 653.54227 -353.665853 
L 655.414875 -353.120957 
L 657.287481 -352.569102 
L 659.160086 -352.010385 
L 661.032692 -351.444904 
L 662.905297 -350.872759 
L 664.777902 -350.294046 
L 666.650508 -349.708865 
L 668.523113 -349.117314 
L 670.395718 -348.51949 
L 672.268324 -347.915492 
L 674.140929 -347.305418 
L 676.013535 -346.689367 
L 677.88614 -346.067437 
L 679.758745 -345.439725 
L 681.631351 -344.80633 
L 683.503956 -344.167351 
L 685.376561 -343.522884 
L 687.249167 -342.87303 
L 689.121772 -342.217885 
L 690.994377 -341.557549 
L 692.866983 -340.892119 
L 694.739588 -340.221693 
L 696.612194 -339.54637 
L 698.484799 -338.866248 
L 700.357404 -338.181425 
L 702.23001 -337.492 
L 704.102615 -336.79807 
L 705.97522 -336.099733 
L 707.847826 -335.397089 
L 709.720431 -334.690235 
L 711.593037 -333.979269 
L 713.465642 -333.26429 
L 715.338247 -332.545396 
L 717.210853 -331.822685 
L 719.083458 -331.096255 
L 720.956063 -330.366204 
L 722.828669 -329.632631 
L 724.701274 -328.895634 
L 726.57388 -328.155311 
L 728.446485 -327.411761 
L 730.31909 -326.665081 
L 732.191696 -325.915369 
L 734.064301 -325.162725 
L 735.936906 -324.407245 
L 737.809512 -323.649029 
L 739.682117 -322.888175 
L 741.554723 -322.12478 
L 743.427328 -321.358944 
L 745.299933 -320.590763 
L 747.172539 -319.820337 
L 749.045144 -319.047764 
L 750.917749 -318.273141 
L 752.790355 -317.496567 
L 754.66296 -316.718141 
L 756.535566 -315.93796 
L 758.408171 -315.156123 
L 760.280776 -314.372727 
L 762.153382 -313.587872 
L 764.025987 -312.801655 
L 765.898592 -312.014175 
L 767.771198 -311.225529 
L 769.643803 -310.435816 
L 771.516409 -309.645135 
L 773.389014 -308.853582 
L 775.261619 -308.061257 
L 777.134225 -307.268258 
L 779.00683 -306.474683 
L 780.879435 -305.680631 
L 782.752041 -304.886198 
L 784.624646 -304.091485 
L 786.497252 -303.296588 
L 788.369857 -302.608675 
L 788.369857 -54.201477 
L 788.369857 -54.201477 
L 786.497252 -54.201477 
L 784.624646 -54.201477 
L 782.752041 -54.201477 
L 780.879435 -54.201477 
L 779.00683 -54.201477 
L 777.134225 -54.201477 
L 775.261619 -54.201477 
L 773.389014 -54.201477 
L 771.516409 -54.201477 
L 769.643803 -54.201477 
L 767.771198 -54.201477 
L 765.898592 -54.201477 
L 764.025987 -54.201477 
L 762.153382 -54.201477 
L 760.280776 -54.201477 
L 758.408171 -54.201477 
L 756.535566 -54.201477 
L 754.66296 -54.201477 
L 752.790355 -54.201477 
L 750.917749 -54.201477 
L 749.045144 -54.201477 
L 747.172539 -54.201477 
L 745.299933 -54.201477 
L 743.427328 -54.201477 
L 741.554723 -54.201477 
L 739.682117 -54.201477 
L 737.809512 -54.201477 
L 735.936906 -54.201477 
L 734.064301 -54.201477 
L 732.191696 -54.201477 
L 730.31909 -54.201477 
L 728.446485 -54.201477 
L 726.57388 -54.201477 
L 724.701274 -54.201477 
L 722.828669 -54.201477 
L 720.956063 -54.201477 
L 719.083458 -54.201477 
L 717.210853 -54.201477 
L 715.338247 -54.201477 
L 713.465642 -54.201477 
L 711.593037 -54.201477 
L 709.720431 -54.201477 
L 707.847826 -54.201477 
L 705.97522 -54.201477 
L 704.102615 -54.201477 
L 702.23001 -54.201477 
L 700.357404 -54.201477 
L 698.484799 -54.201477 
L 696.612194 -54.201477 
L 694.739588 -54.201477 
L 692.866983 -54.201477 
L 690.994377 -54.201477 
L 689.121772 -54.201477 
L 687.249167 -54.201477 
L 685.376561 -54.201477 
L 683.503956 -54.201477 
L 681.631351 -54.201477 
L 679.758745 -54.201477 
L 677.88614 -54.201477 
L 676.013535 -54.201477 
L 674.140929 -54.201477 
L 672.268324 -54.201477 
L 670.395718 -54.201477 
L 668.523113 -54.201477 
L 666.650508 -54.201477 
L 664.777902 -54.201477 
L 662.905297 -54.201477 
L 661.032692 -54.201477 
L 659.160086 -54.201477 
L 657.287481 -54.201477 
L 655.414875 -54.201477 
L 653.54227 -54.201477 
L 651.669665 -54.201477 
L 649.797059 -54.201477 
L 647.924454 -54.201477 
L 646.051849 -54.201477 
L 644.179243 -54.201477 
L 642.306638 -54.201477 
L 640.434032 -54.201477 
L 638.561427 -54.201477 
L 636.688822 -54.201477 
L 634.816216 -54.201477 
L 632.943611 -54.201477 
L 631.071006 -54.201477 
L 629.1984 -54.201477 
L 627.325795 -54.201477 
L 625.453189 -54.201477 
L 623.580584 -54.201477 
L 621.707979 -54.201477 
L 619.835373 -54.201477 
L 617.962768 -54.201477 
L 616.090163 -54.201477 
L 614.217557 -54.201477 
L 612.344952 -54.201477 
L 610.472346 -54.201477 
L 608.599741 -54.201477 
L 606.727136 -54.201477 
L 604.85453 -54.201477 
L 602.981925 -54.201477 
L 601.10932 -54.201477 
L 599.236714 -54.201477 
L 597.364109 -54.201477 
L 595.491503 -54.201477 
L 593.618898 -54.201477 
L 591.746293 -54.201477 
L 589.873687 -54.201477 
L 588.001082 -54.201477 
L 586.128477 -54.201477 
L 584.255871 -54.201477 
L 582.383266 -54.201477 
L 580.51066 -54.201477 
L 578.638055 -54.201477 
L 576.76545 -54.201477 
L 574.892844 -54.201477 
L 573.020239 -54.201477 
L 571.147634 -54.201477 
L 569.275028 -54.201477 
L 567.402423 -54.201477 
L 565.529817 -54.201477 
L 563.657212 -54.201477 
L 561.784607 -54.201477 
L 559.912001 -54.201477 
L 558.039396 -54.201477 
L 556.166791 -54.201477 
L 554.294185 -54.201477 
L 552.42158 -54.201477 
L 550.548974 -54.201477 
L 548.676369 -54.201477 
L 546.803764 -54.201477 
L 544.931158 -54.201477 
L 543.058553 -54.201477 
L 541.185948 -54.201477 
L 539.313342 -54.201477 
L 537.440737 -54.201477 
L 535.568131 -54.201477 
L 533.695526 -54.201477 
L 531.822921 -54.201477 
L 529.950315 -54.201477 
L 528.07771 -54.201477 
L 526.205105 -54.201477 
L 524.332499 -54.201477 
L 522.459894 -54.201477 
L 520.587288 -54.201477 
L 518.714683 -54.201477 
L 516.842078 -54.201477 
L 514.969472 -54.201477 
L 513.096867 -54.201477 
L 511.224262 -54.201477 
L 509.351656 -54.201477 
L 507.479051 -54.201477 
L 505.606445 -54.201477 
L 503.73384 -54.201477 
L 501.861235 -54.201477 
L 499.988629 -54.201477 
L 498.116024 -54.201477 
L 496.243419 -54.201477 
L 494.370813 -54.201477 
L 492.498208 -54.201477 
L 490.625602 -54.201477 
L 488.752997 -54.201477 
L 486.880392 -54.201477 
L 485.007786 -54.201477 
L 483.135181 -54.201477 
L 481.262576 -54.201477 
L 479.38997 -54.201477 
L 477.517365 -54.201477 
L 475.644759 -54.201477 
L 473.772154 -54.201477 
L 471.899549 -54.201477 
L 470.026943 -54.201477 
L 468.154338 -54.201477 
L 466.281733 -54.201477 
L 464.409127 -54.201477 
L 462.536522 -54.201477 
L 460.663916 -54.201477 
L 458.791311 -54.201477 
L 456.918706 -54.201477 
L 455.0461 -54.201477 
L 453.173495 -54.201477 
L 451.30089 -54.201477 
L 449.428284 -54.201477 
L 447.555679 -54.201477 
L 445.683073 -54.201477 
L 443.810468 -54.201477 
L 441.937863 -54.201477 
L 440.065257 -54.201477 
L 438.192652 -54.201477 
L 436.320047 -54.201477 
L 434.447441 -54.201477 
L 432.574836 -54.201477 
L 430.70223 -54.201477 
L 428.829625 -54.201477 
L 426.95702 -54.201477 
L 425.084414 -54.201477 
L 423.211809 -54.201477 
L 421.339204 -54.201477 
L 419.466598 -54.201477 
L 417.593993 -54.201477 
L 415.721387 -54.201477 
L 413.848782 -54.201477 
L 411.976177 -54.201477 
L 410.103571 -54.201477 
L 408.230966 -54.201477 
L 406.358361 -54.201477 
L 404.485755 -54.201477 
L 402.61315 -54.201477 
L 400.740544 -54.201477 
L 398.867939 -54.201477 
L 396.995334 -54.201477 
L 395.122728 -54.201477 
L 393.250123 -54.201477 
L 391.377518 -54.201477 
L 389.504912 -54.201477 
L 387.632307 -54.201477 
L 385.759701 -54.201477 
L 383.887096 -54.201477 
L 382.014491 -54.201477 
L 380.141885 -54.201477 
L 378.26928 -54.201477 
L 376.396675 -54.201477 
L 374.524069 -54.201477 
L 372.651464 -54.201477 
L 370.778858 -54.201477 
L 368.906253 -54.201477 
L 367.033648 -54.201477 
L 365.161042 -54.201477 
L 363.288437 -54.201477 
L 361.415832 -54.201477 
L 359.543226 -54.201477 
L 357.670621 -54.201477 
L 355.798015 -54.201477 
L 353.92541 -54.201477 
L 352.052805 -54.201477 
L 350.180199 -54.201477 
L 348.307594 -54.201477 
L 346.434989 -54.201477 
L 344.562383 -54.201477 
L 342.689778 -54.201477 
L 340.817172 -54.201477 
L 338.944567 -54.201477 
L 337.071962 -54.201477 
L 335.199356 -54.201477 
L 333.326751 -54.201477 
L 331.454146 -54.201477 
L 329.58154 -54.201477 
L 327.708935 -54.201477 
L 325.836329 -54.201477 
L 323.963724 -54.201477 
L 322.091119 -54.201477 
L 320.218513 -54.201477 
L 318.345908 -54.201477 
L 316.473303 -54.201477 
L 314.600697 -54.201477 
L 312.728092 -54.201477 
L 310.855486 -54.201477 
L 308.982881 -54.201477 
L 307.110276 -54.201477 
L 305.23767 -54.201477 
L 303.365065 -54.201477 
L 301.49246 -54.201477 
L 299.619854 -54.201477 
L 297.747249 -54.201477 
L 295.874643 -54.201477 
L 294.002038 -54.201477 
L 292.129433 -54.201477 
L 290.256827 -54.201477 
L 288.384222 -54.201477 
L 286.511617 -54.201477 
L 284.639011 -54.201477 
L 282.766406 -54.201477 
L 280.8938 -54.201477 
L 279.021195 -54.201477 
L 277.14859 -54.201477 
L 275.275984 -54.201477 
L 273.403379 -54.201477 
L 271.530774 -54.201477 
L 269.658168 -54.201477 
L 267.785563 -54.201477 
L 265.912957 -54.201477 
L 264.040352 -54.201477 
L 262.167747 -54.201477 
L 260.295141 -54.201477 
L 258.422536 -54.201477 
L 256.549931 -54.201477 
L 254.677325 -54.201477 
L 252.80472 -54.201477 
L 250.932114 -54.201477 
L 249.059509 -54.201477 
L 247.186904 -54.201477 
L 245.314298 -54.201477 
L 243.441693 -54.201477 
L 241.569088 -54.201477 
L 239.696482 -54.201477 
L 237.823877 -54.201477 
L 235.951271 -54.201477 
L 234.078666 -54.201477 
L 232.206061 -54.201477 
L 230.333455 -54.201477 
L 228.46085 -54.201477 
L 226.588245 -54.201477 
L 224.715639 -54.201477 
L 222.843034 -54.201477 
L 220.970428 -54.201477 
L 219.097823 -54.201477 
L 217.225218 -54.201477 
L 215.352612 -54.201477 
L 213.480007 -54.201477 
L 211.607402 -54.201477 
L 209.734796 -54.201477 
L 207.862191 -54.201477 
L 205.989585 -54.201477 
L 204.11698 -54.201477 
L 202.244375 -54.201477 
L 200.371769 -54.201477 
L 198.499164 -54.201477 
L 196.626559 -54.201477 
L 194.753953 -54.201477 
L 192.881348 -54.201477 
L 191.008742 -54.201477 
L 189.136137 -54.201477 
L 187.263532 -54.201477 
L 185.390926 -54.201477 
L 183.518321 -54.201477 
L 181.645716 -54.201477 
L 179.77311 -54.201477 
L 177.900505 -54.201477 
L 176.027899 -54.201477 
L 174.155294 -54.201477 
L 172.282689 -54.201477 
L 170.410083 -54.201477 
L 168.537478 -54.201477 
L 166.664873 -54.201477 
L 164.792267 -54.201477 
L 162.919662 -54.201477 
L 161.047056 -54.201477 
L 159.174451 -54.201477 
L 157.301846 -54.201477 
L 155.42924 -54.201477 
L 153.556635 -54.201477 
L 151.68403 -54.201477 
L 149.811424 -54.201477 
L 147.938819 -54.201477 
L 146.066213 -54.201477 
L 144.193608 -54.201477 
L 142.321003 -54.201477 
L 140.448397 -54.201477 
L 138.575792 -54.201477 
L 136.703187 -54.201477 
L 134.830581 -54.201477 
L 132.957976 -54.201477 
L 131.08537 -54.201477 
L 129.212765 -54.201477 
L 127.34016 -54.201477 
L 125.467554 -54.201477 
L 123.594949 -54.201477 
L 121.722344 -54.201477 
L 119.849738 -54.201477 
L 117.977133 -54.201477 
L 116.104527 -54.201477 
L 114.231922 -54.201477 
L 112.359317 -54.201477 
L 110.486711 -54.201477 
L 108.614106 -54.201477 
L 106.741501 -54.201477 
L 104.868895 -54.201477 
L 102.99629 -54.201477 
L 101.123684 -54.201477 
L 99.251079 -54.201477 
L 97.378474 -54.201477 
L 95.505868 -54.201477 
L 93.633263 -54.201477 
L 91.760658 -54.201477 
L 89.888052 -54.201477 
L 88.015447 -54.201477 
L 86.142841 -54.201477 
L 84.270236 -54.201477 
L 82.397631 -54.201477 
L 80.525025 -54.201477 
L 78.65242 -54.201477 
L 76.779815 -54.201477 
L 74.907209 -54.201477 
L 73.034604 -54.201477 
L 71.161998 -54.201477 
L 69.289393 -54.201477 
L 67.416788 -54.201477 
L 65.544182 -54.201477 
L 63.671577 -54.201477 
L 61.798972 -54.201477 
L 59.926366 -54.201477 
L 58.053761 -54.201477 
L 56.181155 -54.201477 
L 54.30855 -54.201477 
L 52.435945 -54.201477 
L 50.563339 -54.201477 
L 48.690734 -54.201477 
L 46.818129 -54.201477 
L 44.945523 -54.201477 
L 43.072918 -54.201477 
L 41.200313 -54.201477 
z
" style="stroke: #9ecae1; stroke-opacity: 0.18"/>
    </defs>
    <g clip-path="url(#pfc8816d059)">
     <use xlink:href="#m3d6423f248" x="0" y="416.212812" style="fill: #9ecae1; fill-opacity: 0.18; stroke: #9ecae1; stroke-opacity: 0.18"/>
    </g>
   </g>
   <g id="line2d_1">
    <path d="M 41.200313 127.681296 
L 788.369857 127.681296 
" clip-path="url(#pfc8816d059)" style="fill: none; stroke-dasharray: 1,2; stroke-dashoffset: 0; stroke: #666666"/>
   </g>
   <g id="matplotlib.axis_1">
    <g id="xtick_1">
     <g id="line2d_2">
      <defs>
       <path id="mcd15cd74f8" d="M 0 0 
L 0 4 
" style="stroke: #333333; stroke-width: 0.8"/>
      </defs>
      <g>
       <use xlink:href="#mcd15cd74f8" x="91.486914" y="377.803437" style="fill: #333333; stroke: #333333; stroke-width: 0.8"/>
      </g>
     </g>
     <g id="text_1">
      <!-- 2% -->
      <g transform="translate(85.551758 392.362812) scale(0.1 -0.1)">
       <defs>
        <path id="STIXTwoText-32" d="M 2765 0 
L 243 0 
L 243 218 
L 1216 1190 
Q 1536 1517 1747 1782 
Q 1958 2048 2064 2317 
Q 2170 2586 2170 2918 
Q 2170 3277 1955 3491 
Q 1741 3706 1370 3706 
Q 1056 3706 835 3571 
Q 614 3437 435 3078 
L 282 3142 
Q 429 3610 749 3866 
Q 1069 4122 1536 4122 
Q 1901 4122 2176 3984 
Q 2451 3846 2608 3600 
Q 2765 3354 2765 3014 
Q 2765 2733 2646 2473 
Q 2528 2214 2294 1939 
Q 2061 1664 1722 1318 
L 877 518 
L 877 486 
L 1325 506 
L 2214 506 
Q 2470 506 2572 621 
Q 2675 736 2784 1024 
L 2970 1024 
L 2765 0 
z
" transform="scale(0.015625)"/>
        <path id="STIXTwoText-25" d="M 1824 3302 
Q 1824 3597 1721 3750 
Q 1619 3904 1427 3904 
Q 1229 3904 1072 3753 
Q 915 3603 822 3344 
Q 730 3085 730 2758 
Q 730 2458 816 2317 
Q 902 2176 1082 2176 
Q 1286 2176 1452 2329 
Q 1619 2483 1721 2742 
Q 1824 3002 1824 3302 
z
M 4141 1165 
Q 4141 806 4003 512 
Q 3866 218 3629 45 
Q 3392 -128 3085 -128 
Q 2758 -128 2572 80 
Q 2387 288 2387 698 
Q 2387 1062 2524 1353 
Q 2662 1645 2905 1814 
Q 3149 1984 3456 1984 
Q 3789 1984 3965 1773 
Q 4141 1562 4141 1165 
z
M 3462 4262 
L 3750 4262 
L 1158 -134 
L 851 -134 
L 3136 3725 
L 3104 3725 
Q 2944 3616 2793 3568 
Q 2643 3520 2445 3520 
Q 2330 3520 2243 3539 
Q 2157 3558 2010 3622 
L 1997 3610 
Q 2016 3539 2029 3449 
Q 2042 3360 2042 3251 
Q 2042 2899 1904 2604 
Q 1766 2310 1526 2137 
Q 1286 1965 979 1965 
Q 653 1965 470 2173 
Q 288 2381 288 2784 
Q 288 3149 429 3440 
Q 570 3731 813 3904 
Q 1056 4077 1350 4077 
Q 1536 4077 1667 4019 
Q 1798 3962 1913 3885 
Q 2029 3808 2173 3750 
Q 2317 3693 2528 3693 
Q 2675 3693 2800 3737 
Q 2925 3782 3078 3907 
Q 3232 4032 3462 4262 
z
M 3923 1210 
Q 3923 1811 3526 1811 
Q 3328 1811 3171 1660 
Q 3014 1510 2921 1251 
Q 2829 992 2829 666 
Q 2829 365 2915 224 
Q 3002 83 3181 83 
Q 3386 83 3552 236 
Q 3718 390 3820 649 
Q 3923 909 3923 1210 
z
" transform="scale(0.015625)"/>
       </defs>
       <use xlink:href="#STIXTwoText-32"/>
       <use xlink:href="#STIXTwoText-25" transform="translate(49.499985 0)"/>
      </g>
     </g>
    </g>
    <g id="xtick_2">
     <g id="line2d_3">
      <g>
       <use xlink:href="#mcd15cd74f8" x="177.815013" y="377.803437" style="fill: #333333; stroke: #333333; stroke-width: 0.8"/>
      </g>
     </g>
     <g id="text_2">
      <!-- 5% -->
      <g transform="translate(171.879857 392.362812) scale(0.1 -0.1)">
       <defs>
        <path id="STIXTwoText-35" d="M 1114 -83 
Q 742 -83 560 6 
Q 378 96 378 275 
Q 378 384 445 467 
Q 512 550 634 550 
Q 730 550 822 502 
Q 915 454 1014 393 
Q 1114 333 1235 285 
Q 1357 237 1510 237 
Q 1741 237 1936 326 
Q 2131 416 2249 614 
Q 2368 813 2368 1146 
Q 2368 1504 2227 1721 
Q 2086 1939 1849 2054 
Q 1613 2170 1315 2214 
Q 1018 2259 698 2266 
L 621 2362 
L 1018 4032 
L 2771 4032 
L 2669 3514 
L 1165 3514 
L 992 2784 
Q 1312 2758 1590 2704 
Q 1869 2650 2096 2554 
Q 2323 2458 2489 2301 
Q 2656 2144 2745 1923 
Q 2835 1702 2835 1402 
Q 2835 1030 2710 752 
Q 2586 474 2355 288 
Q 2125 102 1811 9 
Q 1498 -83 1114 -83 
z
" transform="scale(0.015625)"/>
       </defs>
       <use xlink:href="#STIXTwoText-35"/>
       <use xlink:href="#STIXTwoText-25" transform="translate(49.499985 0)"/>
      </g>
     </g>
    </g>
    <g id="xtick_3">
     <g id="line2d_4">
      <g>
       <use xlink:href="#mcd15cd74f8" x="264.143113" y="377.803437" style="fill: #333333; stroke: #333333; stroke-width: 0.8"/>
      </g>
     </g>
     <g id="text_3">
      <!-- 8% -->
      <g transform="translate(258.207956 392.362812) scale(0.1 -0.1)">
       <defs>
        <path id="STIXTwoText-38" d="M 1574 -77 
Q 1203 -77 915 32 
Q 627 141 460 361 
Q 294 582 294 909 
Q 294 1165 390 1341 
Q 486 1517 681 1670 
Q 877 1824 1171 2022 
L 1171 2099 
L 1421 1965 
Q 1222 1805 1081 1664 
Q 941 1523 867 1356 
Q 794 1190 794 960 
Q 794 531 1014 326 
Q 1235 122 1600 122 
Q 1798 122 1964 195 
Q 2131 269 2230 413 
Q 2330 557 2330 774 
Q 2330 986 2243 1158 
Q 2157 1331 1929 1520 
Q 1702 1709 1280 1978 
L 1248 1990 
Q 890 2234 701 2419 
Q 512 2605 445 2787 
Q 378 2970 378 3194 
Q 378 3488 534 3699 
Q 691 3910 966 4025 
Q 1242 4141 1594 4141 
Q 1914 4141 2166 4025 
Q 2419 3910 2566 3712 
Q 2714 3514 2714 3258 
Q 2714 3027 2630 2860 
Q 2547 2694 2368 2556 
Q 2189 2419 1888 2253 
L 1888 2176 
L 1619 2317 
Q 1978 2522 2109 2736 
Q 2240 2950 2240 3270 
Q 2240 3590 2064 3760 
Q 1888 3930 1581 3930 
Q 1254 3930 1065 3766 
Q 877 3603 877 3309 
Q 877 3014 1088 2803 
Q 1299 2592 1766 2310 
L 1811 2278 
Q 2214 2042 2444 1840 
Q 2675 1638 2771 1433 
Q 2867 1229 2867 960 
Q 2867 627 2704 393 
Q 2541 160 2249 41 
Q 1958 -77 1574 -77 
z
" transform="scale(0.015625)"/>
       </defs>
       <use xlink:href="#STIXTwoText-38"/>
       <use xlink:href="#STIXTwoText-25" transform="translate(49.499985 0)"/>
      </g>
     </g>
    </g>
    <g id="xtick_4">
     <g id="line2d_5">
      <g>
       <use xlink:href="#mcd15cd74f8" x="350.471212" y="377.803437" style="fill: #333333; stroke: #333333; stroke-width: 0.8"/>
      </g>
     </g>
     <g id="text_4">
      <!-- 10% -->
      <g transform="translate(342.061056 392.362812) scale(0.1 -0.1)">
       <defs>
        <path id="STIXTwoText-31" d="M 2726 0 
L 512 0 
L 512 179 
Q 966 179 1152 275 
Q 1338 371 1338 608 
L 1338 3315 
Q 1338 3482 1293 3555 
Q 1248 3629 1126 3629 
Q 1062 3629 947 3616 
Q 832 3603 704 3580 
Q 576 3558 474 3526 
L 474 3738 
L 1715 4090 
L 1901 4090 
L 1901 608 
Q 1901 371 2093 275 
Q 2285 179 2726 179 
L 2726 0 
z
" transform="scale(0.015625)"/>
        <path id="STIXTwoText-30" d="M 1581 -70 
Q 1197 -70 928 99 
Q 659 269 492 563 
Q 326 858 249 1242 
Q 173 1626 173 2048 
Q 173 2656 336 3120 
Q 499 3584 816 3846 
Q 1133 4109 1594 4109 
Q 2010 4109 2323 3862 
Q 2637 3616 2816 3152 
Q 2995 2688 2995 2029 
Q 2995 1619 2915 1241 
Q 2835 864 2665 569 
Q 2496 275 2227 102 
Q 1958 -70 1581 -70 
z
M 1581 160 
Q 1958 160 2166 614 
Q 2374 1069 2374 1990 
Q 2374 2963 2172 3427 
Q 1971 3891 1574 3891 
Q 1197 3891 992 3430 
Q 787 2970 787 2016 
Q 787 1088 992 624 
Q 1197 160 1581 160 
z
" transform="scale(0.015625)"/>
       </defs>
       <use xlink:href="#STIXTwoText-31"/>
       <use xlink:href="#STIXTwoText-30" transform="translate(49.499985 0)"/>
       <use xlink:href="#STIXTwoText-25" transform="translate(98.999969 0)"/>
      </g>
     </g>
    </g>
    <g id="xtick_5">
     <g id="line2d_6">
      <g>
       <use xlink:href="#mcd15cd74f8" x="436.799311" y="377.803437" style="fill: #333333; stroke: #333333; stroke-width: 0.8"/>
      </g>
     </g>
     <g id="text_5">
      <!-- 12% -->
      <g transform="translate(428.389155 392.362812) scale(0.1 -0.1)">
       <use xlink:href="#STIXTwoText-31"/>
       <use xlink:href="#STIXTwoText-32" transform="translate(49.499985 0)"/>
       <use xlink:href="#STIXTwoText-25" transform="translate(98.999969 0)"/>
      </g>
     </g>
    </g>
    <g id="xtick_6">
     <g id="line2d_7">
      <g>
       <use xlink:href="#mcd15cd74f8" x="523.127411" y="377.803437" style="fill: #333333; stroke: #333333; stroke-width: 0.8"/>
      </g>
     </g>
     <g id="text_6">
      <!-- 15% -->
      <g transform="translate(514.717255 392.362812) scale(0.1 -0.1)">
       <use xlink:href="#STIXTwoText-31"/>
       <use xlink:href="#STIXTwoText-35" transform="translate(49.499985 0)"/>
       <use xlink:href="#STIXTwoText-25" transform="translate(98.999969 0)"/>
      </g>
     </g>
    </g>
    <g id="xtick_7">
     <g id="line2d_8">
      <g>
       <use xlink:href="#mcd15cd74f8" x="609.45551" y="377.803437" style="fill: #333333; stroke: #333333; stroke-width: 0.8"/>
      </g>
     </g>
     <g id="text_7">
      <!-- 18% -->
      <g transform="translate(601.045354 392.362812) scale(0.1 -0.1)">
       <use xlink:href="#STIXTwoText-31"/>
       <use xlink:href="#STIXTwoText-38" transform="translate(49.499985 0)"/>
       <use xlink:href="#STIXTwoText-25" transform="translate(98.999969 0)"/>
      </g>
     </g>
    </g>
    <g id="xtick_8">
     <g id="line2d_9">
      <g>
       <use xlink:href="#mcd15cd74f8" x="695.78361" y="377.803437" style="fill: #333333; stroke: #333333; stroke-width: 0.8"/>
      </g>
     </g>
     <g id="text_8">
      <!-- 20% -->
      <g transform="translate(687.373453 392.362812) scale(0.1 -0.1)">
       <use xlink:href="#STIXTwoText-32"/>
       <use xlink:href="#STIXTwoText-30" transform="translate(49.499985 0)"/>
       <use xlink:href="#STIXTwoText-25" transform="translate(98.999969 0)"/>
      </g>
     </g>
    </g>
    <g id="xtick_9">
     <g id="line2d_10">
      <g>
       <use xlink:href="#mcd15cd74f8" x="782.111709" y="377.803437" style="fill: #333333; stroke: #333333; stroke-width: 0.8"/>
      </g>
     </g>
     <g id="text_9">
      <!-- 22% -->
      <g transform="translate(773.701553 392.362812) scale(0.1 -0.1)">
       <use xlink:href="#STIXTwoText-32"/>
       <use xlink:href="#STIXTwoText-32" transform="translate(49.499985 0)"/>
       <use xlink:href="#STIXTwoText-25" transform="translate(98.999969 0)"/>
      </g>
     </g>
    </g>
    <g id="text_10">
     <!-- Index ownership share (`ind_own`) -->
     <g transform="translate(333.525163 406.592812) scale(0.11 -0.11)">
      <defs>
       <path id="STIXTwoText-49" d="M 2061 0 
L 218 0 
L 218 192 
Q 506 192 640 240 
Q 774 288 812 425 
Q 851 563 851 838 
L 851 3360 
Q 851 3610 819 3754 
Q 787 3898 656 3955 
Q 525 4013 218 4013 
L 218 4205 
L 2061 4205 
L 2061 4013 
Q 1760 4013 1625 3955 
Q 1491 3898 1462 3754 
Q 1434 3610 1434 3360 
L 1434 838 
Q 1434 563 1472 425 
Q 1510 288 1644 240 
Q 1779 192 2061 192 
L 2061 0 
z
" transform="scale(0.015625)"/>
       <path id="STIXTwoText-6e" d="M 3552 0 
L 2074 0 
L 2074 179 
Q 2304 179 2403 220 
Q 2502 262 2524 364 
Q 2547 467 2547 646 
L 2547 1805 
Q 2547 2189 2460 2381 
Q 2374 2573 2240 2633 
Q 2106 2694 1958 2694 
Q 1773 2694 1625 2620 
Q 1478 2547 1360 2444 
Q 1242 2342 1139 2253 
L 1094 2566 
L 1190 2566 
Q 1453 2797 1686 2950 
Q 1920 3104 2221 3104 
Q 2656 3104 2867 2809 
Q 3078 2515 3078 1965 
L 3078 646 
Q 3078 467 3107 364 
Q 3136 262 3238 220 
Q 3341 179 3552 179 
L 3552 0 
z
M 1670 0 
L 205 0 
L 205 179 
Q 422 179 515 220 
Q 608 262 630 364 
Q 653 467 653 646 
L 653 2445 
Q 653 2618 582 2672 
Q 512 2726 384 2726 
Q 301 2726 256 2720 
Q 211 2714 211 2714 
L 211 2899 
L 1024 3085 
L 1171 3085 
L 1165 2496 
L 1184 2362 
L 1184 646 
Q 1184 467 1209 364 
Q 1235 262 1337 220 
Q 1440 179 1670 179 
L 1670 0 
z
" transform="scale(0.015625)"/>
       <path id="STIXTwoText-64" d="M 1306 -51 
Q 947 -51 700 141 
Q 454 333 332 662 
Q 211 992 211 1402 
Q 211 1933 409 2313 
Q 608 2694 944 2899 
Q 1280 3104 1683 3104 
Q 1837 3104 1987 3065 
Q 2138 3027 2278 2950 
L 2304 2950 
L 2304 3789 
Q 2304 4000 2256 4064 
Q 2208 4128 2022 4128 
Q 1978 4128 1917 4121 
Q 1856 4115 1856 4115 
L 1856 4294 
L 2662 4518 
L 2835 4518 
L 2835 685 
Q 2835 435 2905 361 
Q 2976 288 3155 288 
L 3290 288 
L 3290 115 
L 2470 -32 
L 2323 -32 
L 2323 410 
L 2298 410 
Q 2118 250 1872 99 
Q 1626 -51 1306 -51 
z
M 1606 410 
Q 1830 410 1984 470 
Q 2138 531 2304 646 
L 2304 2336 
Q 2266 2534 2118 2691 
Q 1971 2848 1670 2848 
Q 1267 2848 1017 2553 
Q 768 2259 768 1651 
Q 768 992 982 701 
Q 1197 410 1606 410 
z
" transform="scale(0.015625)"/>
       <path id="STIXTwoText-65" d="M 1581 -64 
Q 1197 -64 886 118 
Q 576 301 397 656 
Q 218 1011 218 1523 
Q 218 2061 400 2409 
Q 582 2758 889 2931 
Q 1197 3104 1568 3104 
Q 2093 3104 2413 2739 
Q 2733 2374 2758 1702 
L 678 1702 
L 672 1939 
L 2157 1939 
Q 2150 2176 2073 2384 
Q 1997 2592 1849 2720 
Q 1702 2848 1472 2848 
Q 1101 2848 915 2557 
Q 730 2266 730 1734 
Q 730 1293 870 998 
Q 1011 704 1241 560 
Q 1472 416 1734 416 
Q 1997 416 2160 486 
Q 2323 557 2438 669 
Q 2554 781 2656 915 
L 2778 826 
Q 2694 646 2585 483 
Q 2477 320 2339 198 
Q 2202 77 2016 6 
Q 1830 -64 1581 -64 
z
" transform="scale(0.015625)"/>
       <path id="STIXTwoText-78" d="M 3085 0 
L 1747 0 
L 1747 186 
Q 1914 186 1981 214 
Q 2048 243 2048 326 
Q 2048 390 2003 461 
L 1600 1082 
L 1440 1363 
L 1338 1453 
L 634 2458 
Q 525 2618 448 2701 
Q 371 2784 288 2813 
Q 205 2842 70 2842 
L 70 3027 
L 1446 3027 
L 1446 2848 
Q 1139 2848 1139 2701 
Q 1139 2650 1177 2579 
Q 1216 2509 1289 2397 
Q 1363 2285 1472 2106 
L 1651 1773 
L 1754 1715 
L 2573 557 
Q 2707 365 2806 275 
Q 2906 186 3085 186 
L 3085 0 
z
M 1056 0 
L -13 0 
L -13 186 
Q 154 186 262 253 
Q 371 320 531 506 
L 1338 1555 
L 1536 1306 
L 1446 1306 
L 922 550 
Q 877 474 822 397 
Q 768 320 768 282 
Q 768 230 832 208 
Q 896 186 1056 186 
L 1056 0 
z
M 2464 2541 
L 1754 1626 
L 1568 1824 
L 1651 1824 
L 1952 2259 
Q 2080 2438 2131 2528 
Q 2182 2618 2182 2694 
Q 2182 2765 2128 2806 
Q 2074 2848 1920 2848 
L 1920 3027 
L 2976 3027 
L 2976 2842 
Q 2816 2842 2694 2762 
Q 2573 2682 2464 2541 
z
" transform="scale(0.015625)"/>
       <path id="STIXTwoText-20" transform="scale(0.015625)"/>
       <path id="STIXTwoText-6f" d="M 1651 -64 
Q 979 -64 598 355 
Q 218 774 218 1549 
Q 218 2016 397 2365 
Q 576 2714 899 2909 
Q 1222 3104 1651 3104 
Q 2310 3104 2691 2694 
Q 3072 2285 3072 1574 
Q 3072 1037 2889 672 
Q 2707 307 2387 121 
Q 2067 -64 1651 -64 
z
M 1677 192 
Q 1939 192 2118 313 
Q 2298 435 2390 729 
Q 2483 1024 2483 1542 
Q 2483 2131 2268 2496 
Q 2054 2861 1626 2861 
Q 1261 2861 1037 2553 
Q 813 2246 813 1632 
Q 813 870 1040 528 
Q 1267 186 1677 192 
z
" transform="scale(0.015625)"/>
       <path id="STIXTwoText-77" d="M 3450 -38 
L 3142 -38 
L 2432 1914 
L 2342 2093 
L 2240 2374 
Q 2163 2586 2096 2685 
Q 2029 2784 1939 2813 
Q 1850 2842 1709 2842 
L 1709 3027 
L 3046 3027 
L 3046 2842 
Q 2867 2842 2796 2800 
Q 2726 2758 2726 2682 
Q 2726 2624 2742 2557 
Q 2758 2490 2784 2419 
L 3302 1018 
L 3418 646 
L 3456 646 
L 3584 1018 
L 4090 2451 
Q 4096 2477 4112 2537 
Q 4128 2598 4128 2682 
Q 4128 2771 4038 2806 
Q 3949 2842 3770 2842 
L 3770 3027 
L 4877 3027 
L 4877 2842 
Q 4691 2842 4595 2755 
Q 4499 2669 4403 2419 
L 3450 -38 
z
M 1690 -38 
L 1395 -38 
L 435 2374 
Q 352 2573 281 2672 
Q 211 2771 121 2806 
Q 32 2842 -109 2842 
L -109 3027 
L 1267 3027 
L 1267 2842 
Q 1075 2842 1001 2800 
Q 928 2758 928 2682 
Q 928 2618 950 2560 
Q 973 2502 998 2432 
L 1555 1018 
L 1670 646 
L 1715 646 
L 1850 1018 
L 2336 2246 
L 2547 1824 
L 2438 1824 
L 1690 -38 
z
" transform="scale(0.015625)"/>
       <path id="STIXTwoText-72" d="M 1786 0 
L 186 0 
L 186 186 
Q 397 186 496 221 
Q 595 256 624 349 
Q 653 442 653 621 
L 653 2381 
Q 653 2554 624 2640 
Q 595 2726 422 2726 
Q 326 2726 275 2720 
Q 224 2714 224 2714 
L 224 2893 
L 1018 3085 
L 1171 3085 
L 1171 2426 
L 1190 2426 
Q 1357 2662 1485 2816 
Q 1613 2970 1737 3046 
Q 1862 3123 2016 3123 
Q 2202 3123 2294 3027 
Q 2387 2931 2387 2765 
Q 2387 2586 2300 2502 
Q 2214 2419 2106 2419 
Q 2003 2419 1923 2473 
Q 1843 2528 1785 2582 
Q 1728 2637 1690 2637 
Q 1581 2637 1440 2470 
Q 1299 2304 1184 2112 
L 1184 653 
Q 1184 454 1235 352 
Q 1286 250 1417 218 
Q 1549 186 1786 186 
L 1786 0 
z
" transform="scale(0.015625)"/>
       <path id="STIXTwoText-73" d="M 269 -51 
L 250 1050 
L 416 1050 
Q 518 557 716 361 
Q 915 166 1267 166 
Q 1510 166 1664 265 
Q 1818 365 1818 589 
Q 1818 742 1763 844 
Q 1709 947 1555 1052 
Q 1402 1158 1101 1306 
Q 806 1453 620 1590 
Q 435 1728 345 1894 
Q 256 2061 256 2298 
Q 256 2694 541 2899 
Q 826 3104 1235 3104 
Q 1478 3104 1632 3049 
Q 1786 2995 1907 2938 
L 1914 2938 
L 2022 3072 
L 2150 3072 
L 2170 2093 
L 1997 2093 
Q 1894 2547 1708 2716 
Q 1523 2886 1229 2886 
Q 1011 2886 860 2784 
Q 710 2682 710 2464 
Q 710 2278 883 2131 
Q 1056 1984 1459 1779 
Q 1754 1626 1952 1482 
Q 2150 1338 2252 1168 
Q 2355 998 2355 762 
Q 2355 461 2208 278 
Q 2061 96 1814 13 
Q 1568 -70 1280 -70 
Q 1005 -70 841 -12 
Q 678 45 550 96 
L 538 96 
L 403 -51 
L 269 -51 
z
" transform="scale(0.015625)"/>
       <path id="STIXTwoText-68" d="M 3558 0 
L 2086 0 
L 2086 186 
Q 2310 186 2406 230 
Q 2502 275 2528 371 
Q 2554 467 2554 621 
L 2554 1728 
Q 2554 1990 2515 2211 
Q 2477 2432 2352 2563 
Q 2227 2694 1965 2694 
Q 1766 2694 1561 2588 
Q 1357 2483 1094 2227 
L 1101 2579 
L 1190 2579 
Q 1491 2861 1731 2982 
Q 1971 3104 2227 3104 
Q 2502 3104 2672 2995 
Q 2842 2886 2931 2710 
Q 3021 2534 3053 2326 
Q 3085 2118 3085 1920 
L 3085 646 
Q 3085 390 3171 288 
Q 3258 186 3558 186 
L 3558 0 
z
M 1645 0 
L 192 0 
L 192 186 
Q 442 186 541 256 
Q 640 326 640 595 
L 640 3872 
Q 640 4038 547 4083 
Q 454 4128 326 4128 
Q 250 4128 195 4121 
Q 141 4115 141 4115 
L 141 4294 
L 998 4518 
L 1171 4518 
L 1171 621 
Q 1171 454 1196 358 
Q 1222 262 1324 224 
Q 1427 186 1645 186 
L 1645 0 
z
" transform="scale(0.015625)"/>
       <path id="STIXTwoText-69" d="M 1645 0 
L 205 0 
L 205 179 
Q 422 179 515 220 
Q 608 262 630 364 
Q 653 467 653 646 
L 653 2432 
Q 653 2637 582 2685 
Q 512 2733 371 2733 
Q 307 2733 259 2726 
Q 211 2720 211 2720 
L 211 2906 
L 1018 3085 
L 1184 3085 
L 1184 646 
Q 1184 461 1209 358 
Q 1235 256 1334 217 
Q 1434 179 1645 179 
L 1645 0 
z
M 928 3584 
Q 768 3584 665 3693 
Q 563 3802 563 3949 
Q 563 4096 662 4201 
Q 762 4307 928 4307 
Q 1094 4307 1193 4201 
Q 1293 4096 1293 3949 
Q 1293 3802 1193 3693 
Q 1094 3584 928 3584 
z
" transform="scale(0.015625)"/>
       <path id="STIXTwoText-70" d="M 1760 -1408 
L 141 -1408 
L 141 -1229 
Q 442 -1229 525 -1129 
Q 608 -1030 608 -762 
L 608 2406 
Q 608 2592 566 2662 
Q 525 2733 365 2733 
Q 301 2733 230 2726 
Q 160 2720 160 2720 
L 160 2906 
L 966 3085 
L 1126 3085 
L 1126 2547 
L 1146 2547 
Q 1376 2816 1616 2960 
Q 1856 3104 2138 3104 
Q 2458 3104 2698 2921 
Q 2938 2739 3075 2416 
Q 3213 2093 3213 1670 
Q 3213 1126 3024 739 
Q 2835 352 2515 144 
Q 2195 -64 1811 -64 
Q 1632 -64 1469 -22 
Q 1306 19 1165 115 
L 1139 115 
L 1139 -723 
Q 1139 -928 1190 -1037 
Q 1242 -1146 1376 -1184 
Q 1510 -1222 1760 -1222 
L 1760 -1408 
z
M 1843 186 
Q 2182 186 2406 506 
Q 2630 826 2630 1491 
Q 2630 2099 2432 2384 
Q 2234 2669 1875 2669 
Q 1619 2669 1424 2534 
Q 1229 2400 1139 2278 
L 1139 608 
Q 1203 544 1299 441 
Q 1395 339 1529 262 
Q 1664 186 1843 186 
z
" transform="scale(0.015625)"/>
       <path id="STIXTwoText-61" d="M 1005 -45 
Q 634 -45 438 160 
Q 243 365 243 672 
Q 243 928 361 1104 
Q 480 1280 675 1401 
Q 870 1523 1097 1606 
Q 1325 1690 1542 1747 
Q 1760 1805 1926 1856 
L 1926 2138 
Q 1926 2554 1782 2730 
Q 1638 2906 1350 2906 
Q 1075 2906 998 2790 
Q 922 2675 922 2387 
Q 922 2240 848 2166 
Q 774 2093 640 2093 
Q 544 2093 457 2166 
Q 371 2240 371 2400 
Q 371 2579 508 2739 
Q 646 2899 899 3001 
Q 1152 3104 1498 3104 
Q 2022 3104 2240 2861 
Q 2458 2618 2458 2118 
L 2458 666 
Q 2458 467 2502 409 
Q 2547 352 2650 352 
Q 2739 352 2812 397 
Q 2886 442 2950 512 
L 3046 410 
Q 2886 179 2742 73 
Q 2598 -32 2355 -32 
Q 2131 -32 2064 96 
Q 1997 224 1965 461 
L 1926 538 
L 1926 1645 
Q 1638 1574 1382 1478 
Q 1126 1382 966 1228 
Q 806 1075 806 826 
Q 806 589 934 448 
Q 1062 307 1267 307 
Q 1434 307 1616 390 
Q 1798 474 1971 627 
L 2022 397 
L 1946 397 
Q 1798 269 1660 166 
Q 1523 64 1366 9 
Q 1210 -45 1005 -45 
z
" transform="scale(0.015625)"/>
       <path id="STIXTwoText-28" d="M 1997 -1011 
L 1894 -1190 
Q 1120 -794 656 -48 
Q 192 698 192 1754 
Q 192 2803 656 3542 
Q 1120 4282 1894 4672 
L 1997 4506 
Q 1299 4038 1008 3372 
Q 717 2707 717 1754 
Q 717 787 1008 118 
Q 1299 -550 1997 -1011 
z
" transform="scale(0.015625)"/>
       <path id="STIXTwoText-60" d="M 1229 3334 
L 979 3334 
L 192 4198 
L 192 4314 
L 781 4314 
L 1229 3334 
z
" transform="scale(0.015625)"/>
       <path id="STIXTwoText-5f" d="M 3277 -819 
L 0 -819 
L 0 -493 
L 3277 -493 
L 3277 -819 
z
" transform="scale(0.015625)"/>
       <path id="STIXTwoText-29" d="M 301 -1190 
L 198 -1011 
Q 902 -550 1190 118 
Q 1478 787 1478 1754 
Q 1478 2707 1190 3372 
Q 902 4038 198 4506 
L 301 4672 
Q 1075 4282 1539 3542 
Q 2003 2803 2003 1754 
Q 2003 698 1539 -48 
Q 1075 -794 301 -1190 
z
" transform="scale(0.015625)"/>
      </defs>
      <use xlink:href="#STIXTwoText-49"/>
      <use xlink:href="#STIXTwoText-6e" transform="translate(35.699997 0)"/>
      <use xlink:href="#STIXTwoText-64" transform="translate(93.299988 0)"/>
      <use xlink:href="#STIXTwoText-65" transform="translate(147.199982 0)"/>
      <use xlink:href="#STIXTwoText-78" transform="translate(193.599976 0)"/>
      <use xlink:href="#STIXTwoText-20" transform="translate(241.499969 0)"/>
      <use xlink:href="#STIXTwoText-6f" transform="translate(264.999954 0)"/>
      <use xlink:href="#STIXTwoText-77" transform="translate(316.399948 0)"/>
      <use xlink:href="#STIXTwoText-6e" transform="translate(391.299942 0)"/>
      <use xlink:href="#STIXTwoText-65" transform="translate(448.899933 0)"/>
      <use xlink:href="#STIXTwoText-72" transform="translate(495.299927 0)"/>
      <use xlink:href="#STIXTwoText-73" transform="translate(533.299911 0)"/>
      <use xlink:href="#STIXTwoText-68" transform="translate(572.799896 0)"/>
      <use xlink:href="#STIXTwoText-69" transform="translate(630.499893 0)"/>
      <use xlink:href="#STIXTwoText-70" transform="translate(658.999878 0)"/>
      <use xlink:href="#STIXTwoText-20" transform="translate(712.699875 0)"/>
      <use xlink:href="#STIXTwoText-73" transform="translate(736.19986 0)"/>
      <use xlink:href="#STIXTwoText-68" transform="translate(775.699844 0)"/>
      <use xlink:href="#STIXTwoText-61" transform="translate(833.399841 0)"/>
      <use xlink:href="#STIXTwoText-72" transform="translate(881.399826 0)"/>
      <use xlink:href="#STIXTwoText-65" transform="translate(919.399811 0)"/>
      <use xlink:href="#STIXTwoText-20" transform="translate(965.799805 0)"/>
      <use xlink:href="#STIXTwoText-28" transform="translate(989.299789 0)"/>
      <use xlink:href="#STIXTwoText-60" transform="translate(1023.599777 0)"/>
      <use xlink:href="#STIXTwoText-69" transform="translate(1045.799774 0)"/>
      <use xlink:href="#STIXTwoText-6e" transform="translate(1074.299759 0)"/>
      <use xlink:href="#STIXTwoText-64" transform="translate(1131.89975 0)"/>
      <use xlink:href="#STIXTwoText-5f" transform="translate(1185.799744 0)"/>
      <use xlink:href="#STIXTwoText-6f" transform="translate(1236.999741 0)"/>
      <use xlink:href="#STIXTwoText-77" transform="translate(1288.399734 0)"/>
      <use xlink:href="#STIXTwoText-6e" transform="translate(1363.299728 0)"/>
      <use xlink:href="#STIXTwoText-60" transform="translate(1420.899719 0)"/>
      <use xlink:href="#STIXTwoText-29" transform="translate(1443.099716 0)"/>
     </g>
    </g>
   </g>
   <g id="matplotlib.axis_2">
    <g id="ytick_1">
     <g id="line2d_11">
      <path d="M 41.200313 335.665093 
L 788.369857 335.665093 
" clip-path="url(#pfc8816d059)" style="fill: none; stroke-dasharray: 1.6,1.6; stroke-dashoffset: 0; stroke: #d9d9d9; stroke-width: 0.8"/>
     </g>
     <g id="line2d_12">
      <defs>
       <path id="mb68a711251" d="M 0 0 
L -4 0 
" style="stroke: #333333; stroke-width: 0.8"/>
      </defs>
      <g>
       <use xlink:href="#mb68a711251" x="41.200313" y="335.665093" style="fill: #333333; stroke: #333333; stroke-width: 0.8"/>
      </g>
     </g>
     <g id="text_11">
      <!-- −6 -->
      <g transform="translate(21.550313 339.194781) scale(0.1 -0.1)">
       <defs>
        <path id="STIXTwoText-2212" d="M 4211 1434 
L 397 1434 
L 397 1869 
L 4211 1869 
L 4211 1434 
z
" transform="scale(0.015625)"/>
        <path id="STIXTwoText-36" d="M 1658 -77 
Q 1184 -77 880 156 
Q 576 390 432 784 
Q 288 1178 288 1645 
Q 288 2221 464 2675 
Q 640 3130 957 3446 
Q 1274 3763 1706 3939 
Q 2138 4115 2656 4134 
L 2669 3949 
Q 2221 3885 1849 3661 
Q 1478 3437 1228 3078 
Q 979 2720 896 2253 
L 941 2246 
Q 1139 2438 1331 2540 
Q 1523 2643 1773 2643 
Q 2298 2643 2611 2284 
Q 2925 1926 2925 1299 
Q 2925 646 2595 284 
Q 2266 -77 1658 -77 
z
M 1683 147 
Q 2003 147 2185 393 
Q 2368 640 2368 1248 
Q 2368 1683 2173 1977 
Q 1978 2272 1581 2272 
Q 1395 2272 1232 2198 
Q 1069 2125 966 1958 
Q 864 1792 864 1510 
Q 864 1114 953 806 
Q 1043 499 1225 323 
Q 1408 147 1683 147 
z
" transform="scale(0.015625)"/>
       </defs>
       <use xlink:href="#STIXTwoText-2212"/>
       <use xlink:href="#STIXTwoText-36" transform="translate(71.999985 0)"/>
      </g>
     </g>
    </g>
    <g id="ytick_2">
     <g id="line2d_13">
      <path d="M 41.200313 266.337161 
L 788.369857 266.337161 
" clip-path="url(#pfc8816d059)" style="fill: none; stroke-dasharray: 1.6,1.6; stroke-dashoffset: 0; stroke: #d9d9d9; stroke-width: 0.8"/>
     </g>
     <g id="line2d_14">
      <g>
       <use xlink:href="#mb68a711251" x="41.200313" y="266.337161" style="fill: #333333; stroke: #333333; stroke-width: 0.8"/>
      </g>
     </g>
     <g id="text_12">
      <!-- −4 -->
      <g transform="translate(21.550313 269.866848) scale(0.1 -0.1)">
       <defs>
        <path id="STIXTwoText-34" d="M 2426 0 
L 1856 0 
L 1856 1011 
L 83 1011 
L 83 1414 
L 2035 4128 
L 2426 4128 
L 2426 1453 
L 3078 1453 
L 3078 1011 
L 2426 1011 
L 2426 0 
z
M 435 1478 
L 435 1453 
L 1856 1453 
L 1856 3430 
L 1830 3430 
L 435 1478 
z
" transform="scale(0.015625)"/>
       </defs>
       <use xlink:href="#STIXTwoText-2212"/>
       <use xlink:href="#STIXTwoText-34" transform="translate(71.999985 0)"/>
      </g>
     </g>
    </g>
    <g id="ytick_3">
     <g id="line2d_15">
      <path d="M 41.200313 197.009228 
L 788.369857 197.009228 
" clip-path="url(#pfc8816d059)" style="fill: none; stroke-dasharray: 1.6,1.6; stroke-dashoffset: 0; stroke: #d9d9d9; stroke-width: 0.8"/>
     </g>
     <g id="line2d_16">
      <g>
       <use xlink:href="#mb68a711251" x="41.200313" y="197.009228" style="fill: #333333; stroke: #333333; stroke-width: 0.8"/>
      </g>
     </g>
     <g id="text_13">
      <!-- −2 -->
      <g transform="translate(21.550313 200.538916) scale(0.1 -0.1)">
       <use xlink:href="#STIXTwoText-2212"/>
       <use xlink:href="#STIXTwoText-32" transform="translate(71.999985 0)"/>
      </g>
     </g>
    </g>
    <g id="ytick_4">
     <g id="line2d_17">
      <path d="M 41.200313 127.681296 
L 788.369857 127.681296 
" clip-path="url(#pfc8816d059)" style="fill: none; stroke-dasharray: 1.6,1.6; stroke-dashoffset: 0; stroke: #d9d9d9; stroke-width: 0.8"/>
     </g>
     <g id="line2d_18">
      <g>
       <use xlink:href="#mb68a711251" x="41.200313" y="127.681296" style="fill: #333333; stroke: #333333; stroke-width: 0.8"/>
      </g>
     </g>
     <g id="text_14">
      <!-- 0 -->
      <g transform="translate(28.750313 131.210983) scale(0.1 -0.1)">
       <use xlink:href="#STIXTwoText-30"/>
      </g>
     </g>
    </g>
    <g id="ytick_5">
     <g id="line2d_19">
      <path d="M 41.200313 58.353363 
L 788.369857 58.353363 
" clip-path="url(#pfc8816d059)" style="fill: none; stroke-dasharray: 1.6,1.6; stroke-dashoffset: 0; stroke: #d9d9d9; stroke-width: 0.8"/>
     </g>
     <g id="line2d_20">
      <g>
       <use xlink:href="#mb68a711251" x="41.200313" y="58.353363" style="fill: #333333; stroke: #333333; stroke-width: 0.8"/>
      </g>
     </g>
     <g id="text_15">
      <!-- 2 -->
      <g transform="translate(28.750313 61.883051) scale(0.1 -0.1)">
       <use xlink:href="#STIXTwoText-32"/>
      </g>
     </g>
    </g>
    <g id="text_16">
     <!-- Composite market-quality score -->
     <g transform="translate(14.965312 278.342031) rotate(-90) scale(0.11 -0.11)">
      <defs>
       <path id="STIXTwoText-43" d="M 2330 -70 
Q 1670 -70 1222 211 
Q 774 493 547 985 
Q 320 1478 320 2099 
Q 320 2797 589 3283 
Q 858 3770 1331 4026 
Q 1805 4282 2419 4282 
Q 2758 4282 2963 4224 
Q 3168 4166 3289 4108 
Q 3411 4051 3488 4051 
Q 3565 4051 3606 4118 
Q 3648 4186 3706 4282 
L 3898 4282 
L 3898 2816 
L 3680 2816 
Q 3578 3443 3248 3724 
Q 2918 4006 2426 4006 
Q 1734 4006 1360 3513 
Q 986 3021 986 2163 
Q 986 1523 1181 1120 
Q 1376 717 1721 525 
Q 2067 333 2515 333 
Q 2957 333 3289 496 
Q 3622 659 3891 954 
L 4045 819 
Q 3872 563 3632 361 
Q 3392 160 3072 45 
Q 2752 -70 2330 -70 
z
" transform="scale(0.015625)"/>
       <path id="STIXTwoText-6d" d="M 3520 0 
L 2003 0 
L 2003 186 
Q 2234 186 2336 230 
Q 2438 275 2467 396 
Q 2496 518 2496 742 
L 2496 2010 
Q 2496 2419 2352 2556 
Q 2208 2694 1984 2694 
Q 1805 2694 1648 2617 
Q 1491 2541 1363 2438 
Q 1235 2336 1146 2246 
L 1094 2566 
L 1190 2566 
Q 1453 2790 1696 2947 
Q 1939 3104 2266 3104 
Q 2554 3104 2730 2937 
Q 2906 2771 2995 2522 
Q 3008 2502 3014 2480 
Q 3021 2458 3027 2432 
L 3027 742 
Q 3027 525 3056 403 
Q 3085 282 3187 234 
Q 3290 186 3520 186 
L 3520 0 
z
M 1664 0 
L 205 0 
L 205 186 
Q 410 186 502 221 
Q 595 256 624 355 
Q 653 454 653 646 
L 653 2438 
Q 653 2611 585 2668 
Q 518 2726 384 2726 
Q 314 2726 262 2720 
Q 211 2714 211 2714 
L 211 2899 
L 1011 3085 
L 1165 3085 
L 1165 2496 
L 1184 2355 
L 1184 621 
Q 1184 442 1222 349 
Q 1261 256 1363 221 
Q 1466 186 1664 186 
L 1664 0 
z
M 5306 0 
L 3859 0 
L 3859 186 
Q 4077 186 4173 243 
Q 4269 301 4291 425 
Q 4314 550 4314 742 
L 4314 1971 
Q 4314 2266 4240 2419 
Q 4166 2573 4041 2633 
Q 3917 2694 3763 2694 
Q 3552 2694 3347 2544 
Q 3142 2394 2976 2253 
L 2906 2573 
L 3002 2573 
Q 3264 2835 3513 2969 
Q 3763 3104 4019 3104 
Q 4397 3104 4621 2867 
Q 4845 2630 4845 2048 
L 4845 742 
Q 4845 544 4867 419 
Q 4890 294 4989 240 
Q 5088 186 5306 186 
L 5306 0 
z
" transform="scale(0.015625)"/>
       <path id="STIXTwoText-74" d="M 1875 576 
L 1997 474 
Q 1875 301 1769 182 
Q 1664 64 1536 0 
Q 1408 -64 1203 -64 
Q 883 -64 736 125 
Q 589 314 589 742 
L 589 2726 
L 237 2726 
L 237 2874 
Q 461 3014 624 3254 
Q 787 3494 960 3904 
L 1120 3904 
L 1120 2995 
L 1843 2995 
L 1843 2726 
L 1120 2726 
L 1120 922 
Q 1120 582 1181 448 
Q 1242 314 1427 314 
Q 1581 314 1667 378 
Q 1754 442 1875 576 
z
" transform="scale(0.015625)"/>
       <path id="STIXTwoText-6b" d="M 1645 0 
L 192 0 
L 192 186 
Q 480 186 560 266 
Q 640 346 640 608 
L 640 3808 
Q 640 4013 592 4073 
Q 544 4134 384 4134 
Q 320 4134 243 4128 
Q 166 4122 166 4122 
L 166 4294 
L 998 4518 
L 1171 4518 
L 1171 1696 
L 1210 1696 
L 2035 2515 
Q 2054 2534 2102 2588 
Q 2150 2643 2150 2720 
Q 2150 2784 2086 2809 
Q 2022 2835 1837 2835 
L 1837 3027 
L 3219 3027 
L 3219 2835 
Q 3066 2835 2947 2806 
Q 2829 2778 2707 2698 
Q 2586 2618 2410 2470 
Q 2234 2323 1965 2086 
L 1645 1824 
L 2771 557 
Q 2925 384 3024 304 
Q 3123 224 3219 205 
Q 3315 186 3450 186 
L 3450 0 
L 2035 0 
L 2035 186 
Q 2176 186 2230 202 
Q 2285 218 2285 262 
Q 2285 307 2262 348 
Q 2240 390 2214 416 
L 1210 1555 
L 1171 1555 
L 1171 582 
Q 1171 339 1257 262 
Q 1344 186 1645 186 
L 1645 0 
z
" transform="scale(0.015625)"/>
       <path id="STIXTwoText-2d" d="M 1728 1395 
L 288 1395 
L 288 1811 
L 1728 1811 
L 1728 1395 
z
" transform="scale(0.015625)"/>
       <path id="STIXTwoText-71" d="M 3245 -1408 
L 1696 -1408 
L 1696 -1229 
Q 1958 -1229 2083 -1184 
Q 2208 -1139 2249 -1030 
Q 2291 -922 2291 -723 
L 2291 403 
L 2272 403 
Q 2061 218 1837 83 
Q 1613 -51 1299 -51 
Q 966 -51 723 128 
Q 480 307 345 636 
Q 211 966 211 1408 
Q 211 1920 403 2301 
Q 595 2682 924 2893 
Q 1254 3104 1658 3104 
Q 1862 3104 2038 3053 
Q 2214 3002 2413 2867 
L 2586 3078 
L 2822 3078 
L 2822 -794 
Q 2822 -1037 2899 -1133 
Q 2976 -1229 3245 -1229 
L 3245 -1408 
z
M 1606 416 
Q 1843 416 2000 483 
Q 2157 550 2291 659 
L 2291 2342 
Q 2227 2586 2067 2717 
Q 1907 2848 1651 2848 
Q 1248 2848 1005 2550 
Q 762 2253 762 1651 
Q 762 1306 838 1024 
Q 915 742 1100 579 
Q 1286 416 1606 416 
z
" transform="scale(0.015625)"/>
       <path id="STIXTwoText-75" d="M 1421 -64 
Q 1024 -64 803 195 
Q 582 454 582 1107 
L 582 2406 
Q 582 2579 547 2659 
Q 512 2739 416 2761 
Q 320 2784 147 2784 
L 147 2963 
L 973 3059 
L 1114 3059 
L 1114 1190 
Q 1114 864 1187 681 
Q 1261 499 1392 422 
Q 1523 346 1690 346 
Q 1933 346 2109 454 
Q 2285 563 2477 730 
L 2477 2413 
Q 2477 2586 2432 2662 
Q 2387 2739 2275 2761 
Q 2163 2784 1958 2784 
L 1958 2963 
L 2854 3059 
L 3008 3059 
L 3008 710 
Q 3008 429 3085 358 
Q 3162 288 3392 288 
L 3456 288 
L 3456 115 
L 2643 -32 
L 2502 -32 
L 2502 461 
L 2470 461 
Q 2304 294 2141 176 
Q 1978 58 1802 -3 
Q 1626 -64 1421 -64 
z
" transform="scale(0.015625)"/>
       <path id="STIXTwoText-6c" d="M 1664 0 
L 192 0 
L 192 186 
Q 403 186 499 227 
Q 595 269 617 368 
Q 640 467 640 646 
L 640 3859 
Q 640 4058 566 4096 
Q 493 4134 371 4134 
Q 288 4134 227 4128 
Q 166 4122 166 4122 
L 166 4294 
L 1011 4518 
L 1171 4518 
L 1171 646 
Q 1171 461 1200 361 
Q 1229 262 1331 224 
Q 1434 186 1664 186 
L 1664 0 
z
" transform="scale(0.015625)"/>
       <path id="STIXTwoText-79" d="M 493 -1504 
Q 294 -1504 166 -1427 
Q 38 -1350 38 -1171 
Q 38 -1024 124 -960 
Q 211 -896 333 -896 
Q 499 -896 630 -966 
Q 762 -1037 826 -1037 
Q 915 -1037 1017 -899 
Q 1120 -762 1219 -570 
Q 1318 -378 1379 -208 
Q 1440 -38 1440 32 
Q 1440 96 1373 262 
Q 1306 429 1248 557 
L 307 2611 
Q 262 2720 179 2781 
Q 96 2842 -77 2842 
L -77 3027 
L 1293 3027 
L 1293 2835 
Q 1075 2835 1001 2793 
Q 928 2752 928 2669 
Q 928 2605 960 2531 
Q 992 2458 1018 2387 
L 1645 979 
L 1728 666 
L 1773 666 
L 2394 2522 
Q 2406 2554 2416 2602 
Q 2426 2650 2426 2682 
Q 2426 2778 2326 2810 
Q 2227 2842 2067 2842 
L 2067 3027 
L 3155 3027 
L 3155 2842 
Q 2963 2842 2873 2755 
Q 2784 2669 2714 2483 
L 1715 -141 
Q 1530 -627 1354 -928 
Q 1178 -1229 973 -1366 
Q 768 -1504 493 -1504 
z
" transform="scale(0.015625)"/>
       <path id="STIXTwoText-63" d="M 2611 947 
L 2733 858 
Q 2611 602 2454 390 
Q 2298 179 2067 57 
Q 1837 -64 1491 -64 
Q 1094 -64 806 128 
Q 518 320 364 662 
Q 211 1005 211 1446 
Q 211 1952 380 2323 
Q 550 2694 873 2899 
Q 1197 3104 1658 3104 
Q 2112 3104 2371 2905 
Q 2630 2707 2630 2426 
Q 2630 2285 2563 2211 
Q 2496 2138 2362 2138 
Q 2221 2138 2147 2211 
Q 2074 2285 2029 2393 
Q 1984 2502 1936 2611 
Q 1888 2720 1801 2793 
Q 1715 2867 1549 2867 
Q 1158 2867 937 2582 
Q 717 2298 717 1747 
Q 717 1165 957 790 
Q 1197 416 1690 416 
Q 2003 416 2198 544 
Q 2394 672 2611 947 
z
" transform="scale(0.015625)"/>
      </defs>
      <use xlink:href="#STIXTwoText-43"/>
      <use xlink:href="#STIXTwoText-6f" transform="translate(66.999985 0)"/>
      <use xlink:href="#STIXTwoText-6d" transform="translate(118.399979 0)"/>
      <use xlink:href="#STIXTwoText-70" transform="translate(203.59996 0)"/>
      <use xlink:href="#STIXTwoText-6f" transform="translate(257.299957 0)"/>
      <use xlink:href="#STIXTwoText-73" transform="translate(308.699951 0)"/>
      <use xlink:href="#STIXTwoText-69" transform="translate(348.199936 0)"/>
      <use xlink:href="#STIXTwoText-74" transform="translate(376.699921 0)"/>
      <use xlink:href="#STIXTwoText-65" transform="translate(408.199905 0)"/>
      <use xlink:href="#STIXTwoText-20" transform="translate(454.599899 0)"/>
      <use xlink:href="#STIXTwoText-6d" transform="translate(478.099884 0)"/>
      <use xlink:href="#STIXTwoText-61" transform="translate(563.299866 0)"/>
      <use xlink:href="#STIXTwoText-72" transform="translate(611.29985 0)"/>
      <use xlink:href="#STIXTwoText-6b" transform="translate(649.299835 0)"/>
      <use xlink:href="#STIXTwoText-65" transform="translate(703.499832 0)"/>
      <use xlink:href="#STIXTwoText-74" transform="translate(749.899826 0)"/>
      <use xlink:href="#STIXTwoText-2d" transform="translate(781.399811 0)"/>
      <use xlink:href="#STIXTwoText-71" transform="translate(812.899796 0)"/>
      <use xlink:href="#STIXTwoText-75" transform="translate(864.999786 0)"/>
      <use xlink:href="#STIXTwoText-61" transform="translate(921.999771 0)"/>
      <use xlink:href="#STIXTwoText-6c" transform="translate(969.999756 0)"/>
      <use xlink:href="#STIXTwoText-69" transform="translate(998.299744 0)"/>
      <use xlink:href="#STIXTwoText-74" transform="translate(1026.799728 0)"/>
      <use xlink:href="#STIXTwoText-79" transform="translate(1058.299713 0)"/>
      <use xlink:href="#STIXTwoText-20" transform="translate(1106.599701 0)"/>
      <use xlink:href="#STIXTwoText-73" transform="translate(1130.099686 0)"/>
      <use xlink:href="#STIXTwoText-63" transform="translate(1169.59967 0)"/>
      <use xlink:href="#STIXTwoText-6f" transform="translate(1214.199661 0)"/>
      <use xlink:href="#STIXTwoText-72" transform="translate(1265.599655 0)"/>
      <use xlink:href="#STIXTwoText-65" transform="translate(1303.59964 0)"/>
     </g>
    </g>
   </g>
   <g id="patch_4">
    <path d="M 41.200313 377.803437 
L 41.200313 30.377187 
" style="fill: none; stroke: #333333; stroke-width: 0.8; stroke-linejoin: miter; stroke-linecap: square"/>
   </g>
   <g id="patch_5">
    <path d="M 41.200313 377.803437 
L 788.369857 377.803437 
" style="fill: none; stroke: #333333; stroke-width: 0.8; stroke-linejoin: miter; stroke-linecap: square"/>
   </g>
   <g id="line2d_21">
    <path d="M 41.200313 357.851659 
L 52.435945 303.92189 
L 58.053761 277.869543 
L 63.671577 252.905506 
L 67.416788 237.045192 
L 71.161998 221.935213 
L 74.907209 207.682225 
L 78.65242 194.392883 
L 82.397631 182.173845 
L 86.142841 171.131766 
L 88.015447 166.085417 
L 89.888052 161.373303 
L 91.760658 157.008758 
L 93.633263 153.005113 
L 95.505868 149.375695 
L 97.378474 146.133367 
L 99.251079 143.280226 
L 101.123684 140.805286 
L 102.99629 138.696755 
L 104.868895 136.942837 
L 106.741501 135.531737 
L 108.614106 134.451663 
L 110.486711 133.690818 
L 112.359317 133.23741 
L 114.231922 133.079642 
L 116.104527 133.205722 
L 117.977133 133.603854 
L 119.849738 134.262244 
L 121.722344 135.169098 
L 123.594949 136.312622 
L 125.467554 137.68102 
L 127.34016 139.262499 
L 129.212765 141.045264 
L 131.08537 143.017521 
L 134.830581 147.483332 
L 138.575792 152.565577 
L 142.321003 158.169902 
L 146.066213 164.201949 
L 151.68403 173.845601 
L 159.174451 187.320187 
L 168.537478 204.092541 
L 172.282689 210.476708 
L 176.027899 216.533757 
L 179.77311 222.169332 
L 183.518321 227.293012 
L 187.263532 231.872237 
L 191.008742 235.921546 
L 194.753953 239.456918 
L 198.499164 242.494333 
L 202.244375 245.04977 
L 205.989585 247.13921 
L 209.734796 248.778631 
L 213.480007 249.984015 
L 217.225218 250.771339 
L 220.970428 251.156585 
L 224.715639 251.155732 
L 228.46085 250.784759 
L 232.206061 250.059646 
L 235.951271 248.996373 
L 239.696482 247.610919 
L 243.441693 245.919265 
L 247.186904 243.93739 
L 250.932114 241.681274 
L 254.677325 239.166896 
L 258.422536 236.410236 
L 262.167747 233.427274 
L 265.912957 230.233989 
L 271.530774 225.084662 
L 277.14859 219.551996 
L 282.766406 213.689921 
L 288.384222 207.55237 
L 295.874643 199.033662 
L 305.23767 188.026167 
L 327.708935 161.406397 
L 335.199356 152.917063 
L 342.689778 144.795607 
L 350.180199 137.047926 
L 357.670621 129.667734 
L 365.161042 122.648745 
L 372.651464 115.984675 
L 380.141885 109.669237 
L 387.632307 103.696146 
L 395.122728 98.059118 
L 402.61315 92.751865 
L 410.103571 87.768103 
L 417.593993 83.101546 
L 425.084414 78.745909 
L 432.574836 74.694906 
L 440.065257 70.942252 
L 447.555679 67.481661 
L 455.0461 64.306848 
L 462.536522 61.411527 
L 470.026943 58.789413 
L 477.517365 56.434221 
L 485.007786 54.339664 
L 492.498208 52.499457 
L 499.988629 50.907315 
L 507.479051 49.556953 
L 514.969472 48.442084 
L 522.459894 47.556424 
L 529.950315 46.893687 
L 537.440737 46.447587 
L 544.931158 46.211839 
L 552.42158 46.180157 
L 559.912001 46.346256 
L 567.402423 46.703851 
L 574.892844 47.246655 
L 584.255871 48.176037 
L 593.618898 49.372712 
L 602.981925 50.824403 
L 612.344952 52.518835 
L 621.707979 54.443731 
L 631.071006 56.586814 
L 640.434032 58.935809 
L 651.669665 62.009121 
L 662.905297 65.340054 
L 674.140929 68.907394 
L 685.376561 72.689928 
L 698.484799 77.346564 
L 711.593037 82.233543 
L 726.57388 88.057501 
L 743.427328 94.853869 
L 764.025987 103.411157 
L 788.369857 113.604138 
L 788.369857 113.604138 
" clip-path="url(#pfc8816d059)" style="fill: none; stroke: #0b3c5d; stroke-width: 2.6; stroke-linecap: square"/>
   </g>
   <g id="text_17">
    <!-- Global Russell cutoff-IV (cutoff = 2000) with firm and time fixed effects -->
    <g style="fill: #4d4d4d" transform="translate(41.200313 16.480137) scale(0.101 -0.101)">
     <defs>
      <path id="STIXTwoText-47" d="M 2368 -70 
Q 1350 -70 835 496 
Q 320 1062 320 2086 
Q 320 2797 592 3286 
Q 864 3776 1334 4029 
Q 1805 4282 2406 4282 
Q 2758 4282 2966 4224 
Q 3174 4166 3292 4108 
Q 3411 4051 3488 4051 
Q 3571 4051 3612 4115 
Q 3654 4179 3718 4282 
L 3904 4282 
L 3904 2816 
L 3686 2816 
Q 3578 3456 3251 3731 
Q 2925 4006 2413 4006 
Q 1734 4006 1360 3510 
Q 986 3014 986 2163 
Q 986 1184 1379 701 
Q 1773 218 2458 218 
Q 2758 218 2966 307 
Q 3174 397 3366 538 
L 3366 1229 
Q 3366 1459 3328 1577 
Q 3290 1696 3168 1737 
Q 3046 1779 2803 1779 
L 2803 1984 
L 4384 1984 
L 4384 1779 
Q 4115 1779 4032 1686 
Q 3949 1594 3949 1293 
L 3949 365 
Q 3603 166 3251 48 
Q 2899 -70 2368 -70 
z
" transform="scale(0.015625)"/>
      <path id="STIXTwoText-62" d="M 877 4518 
L 1043 4518 
L 1043 2560 
L 1062 2560 
Q 1229 2765 1478 2934 
Q 1728 3104 2048 3104 
Q 2368 3104 2608 2921 
Q 2848 2739 2982 2419 
Q 3117 2099 3117 1683 
Q 3117 1114 2918 723 
Q 2720 333 2374 134 
Q 2029 -64 1581 -64 
Q 1171 -64 899 32 
Q 627 128 512 192 
L 512 3789 
Q 512 4006 464 4067 
Q 416 4128 230 4128 
Q 154 4128 102 4121 
Q 51 4115 51 4115 
L 51 4294 
L 877 4518 
z
M 1043 2278 
L 1043 499 
Q 1133 390 1286 294 
Q 1440 198 1696 198 
Q 2003 198 2185 371 
Q 2368 544 2451 835 
Q 2534 1126 2534 1478 
Q 2534 1786 2470 2058 
Q 2406 2330 2240 2499 
Q 2074 2669 1766 2669 
Q 1523 2669 1328 2531 
Q 1133 2394 1043 2278 
z
" transform="scale(0.015625)"/>
      <path id="STIXTwoText-52" d="M 2074 0 
L 275 0 
L 275 192 
Q 518 192 640 230 
Q 762 269 803 397 
Q 845 525 845 794 
L 845 3539 
Q 845 3718 809 3820 
Q 774 3923 652 3968 
Q 531 4013 275 4013 
L 275 4205 
L 1850 4205 
Q 2330 4205 2704 4112 
Q 3078 4019 3289 3792 
Q 3501 3565 3501 3155 
Q 3501 2797 3337 2573 
Q 3174 2349 2928 2224 
Q 2682 2099 2419 2035 
L 2419 2010 
Q 2528 1946 2665 1789 
Q 2803 1632 3020 1328 
Q 3238 1024 3590 518 
Q 3744 307 3888 249 
Q 4032 192 4250 192 
L 4250 0 
L 3194 0 
Q 2931 397 2755 662 
Q 2579 928 2457 1110 
Q 2336 1293 2240 1433 
Q 2144 1574 2048 1715 
Q 1952 1862 1872 1894 
Q 1792 1926 1619 1926 
L 1440 1926 
L 1440 794 
Q 1440 531 1485 400 
Q 1530 269 1664 230 
Q 1798 192 2074 192 
L 2074 0 
z
M 1440 2176 
L 1683 2170 
Q 2035 2189 2297 2285 
Q 2560 2381 2707 2585 
Q 2854 2790 2854 3130 
Q 2854 3514 2617 3734 
Q 2381 3955 1862 3955 
Q 1760 3955 1651 3952 
Q 1542 3949 1440 3936 
L 1440 2176 
z
" transform="scale(0.015625)"/>
      <path id="STIXTwoText-66" d="M 1837 0 
L 115 0 
L 115 186 
Q 352 186 464 227 
Q 576 269 614 390 
Q 653 512 653 762 
L 653 2797 
Q 653 3162 669 3395 
Q 685 3629 729 3789 
Q 774 3949 858 4096 
Q 986 4320 1181 4441 
Q 1376 4563 1709 4563 
Q 1920 4563 2080 4512 
Q 2240 4461 2333 4361 
Q 2426 4262 2426 4115 
Q 2426 3974 2349 3907 
Q 2272 3840 2163 3840 
Q 2042 3840 1965 3920 
Q 1888 4000 1818 4090 
Q 1754 4179 1680 4252 
Q 1606 4326 1491 4326 
Q 1312 4326 1248 4163 
Q 1184 4000 1184 3597 
L 1184 762 
Q 1184 512 1235 390 
Q 1286 269 1427 227 
Q 1568 186 1837 186 
L 1837 0 
z
M 1965 2726 
L 166 2726 
L 166 2995 
L 1965 2995 
L 1965 2726 
z
" transform="scale(0.015625)"/>
      <path id="STIXTwoText-56" d="M 2330 -32 
L 2074 -32 
L 608 3430 
Q 518 3648 428 3773 
Q 339 3898 224 3955 
Q 109 4013 -64 4013 
L -64 4205 
L 1651 4205 
L 1651 4013 
Q 1568 4013 1465 4000 
Q 1363 3987 1289 3939 
Q 1216 3891 1216 3770 
Q 1216 3642 1325 3379 
L 2099 1478 
L 2349 806 
L 2381 806 
L 2605 1446 
L 3411 3482 
Q 3443 3552 3462 3632 
Q 3482 3712 3482 3795 
Q 3482 3923 3379 3968 
Q 3277 4013 3053 4013 
L 3053 4205 
L 4397 4205 
L 4397 4013 
Q 4262 4013 4169 3984 
Q 4077 3955 4003 3868 
Q 3930 3782 3846 3616 
Q 3763 3450 3648 3181 
L 2330 -32 
z
" transform="scale(0.015625)"/>
      <path id="STIXTwoText-3d" d="M 4211 2189 
L 397 2189 
L 397 2624 
L 4211 2624 
L 4211 2189 
z
M 4211 672 
L 397 672 
L 397 1101 
L 4211 1101 
L 4211 672 
z
" transform="scale(0.015625)"/>
     </defs>
     <use xlink:href="#STIXTwoText-47"/>
     <use xlink:href="#STIXTwoText-6c" transform="translate(71.999985 0)"/>
     <use xlink:href="#STIXTwoText-6f" transform="translate(100.299973 0)"/>
     <use xlink:href="#STIXTwoText-62" transform="translate(151.699966 0)"/>
     <use xlink:href="#STIXTwoText-61" transform="translate(203.899963 0)"/>
     <use xlink:href="#STIXTwoText-6c" transform="translate(251.899948 0)"/>
     <use xlink:href="#STIXTwoText-20" transform="translate(280.199936 0)"/>
     <use xlink:href="#STIXTwoText-52" transform="translate(303.699921 0)"/>
     <use xlink:href="#STIXTwoText-75" transform="translate(369.599915 0)"/>
     <use xlink:href="#STIXTwoText-73" transform="translate(426.599899 0)"/>
     <use xlink:href="#STIXTwoText-73" transform="translate(466.099884 0)"/>
     <use xlink:href="#STIXTwoText-65" transform="translate(505.599869 0)"/>
     <use xlink:href="#STIXTwoText-6c" transform="translate(551.999863 0)"/>
     <use xlink:href="#STIXTwoText-6c" transform="translate(580.29985 0)"/>
     <use xlink:href="#STIXTwoText-20" transform="translate(608.599838 0)"/>
     <use xlink:href="#STIXTwoText-63" transform="translate(632.099823 0)"/>
     <use xlink:href="#STIXTwoText-75" transform="translate(676.699814 0)"/>
     <use xlink:href="#STIXTwoText-74" transform="translate(733.699799 0)"/>
     <use xlink:href="#STIXTwoText-6f" transform="translate(765.199783 0)"/>
     <use xlink:href="#STIXTwoText-66" transform="translate(816.599777 0)"/>
     <use xlink:href="#STIXTwoText-66" transform="translate(847.299774 0)"/>
     <use xlink:href="#STIXTwoText-2d" transform="translate(877.999771 0)"/>
     <use xlink:href="#STIXTwoText-49" transform="translate(909.499756 0)"/>
     <use xlink:href="#STIXTwoText-56" transform="translate(945.199753 0)"/>
     <use xlink:href="#STIXTwoText-20" transform="translate(1013.199738 0)"/>
     <use xlink:href="#STIXTwoText-28" transform="translate(1036.699722 0)"/>
     <use xlink:href="#STIXTwoText-63" transform="translate(1070.99971 0)"/>
     <use xlink:href="#STIXTwoText-75" transform="translate(1115.599701 0)"/>
     <use xlink:href="#STIXTwoText-74" transform="translate(1172.599686 0)"/>
     <use xlink:href="#STIXTwoText-6f" transform="translate(1204.09967 0)"/>
     <use xlink:href="#STIXTwoText-66" transform="translate(1255.499664 0)"/>
     <use xlink:href="#STIXTwoText-66" transform="translate(1286.199661 0)"/>
     <use xlink:href="#STIXTwoText-20" transform="translate(1316.899658 0)"/>
     <use xlink:href="#STIXTwoText-3d" transform="translate(1340.399643 0)"/>
     <use xlink:href="#STIXTwoText-20" transform="translate(1412.399628 0)"/>
     <use xlink:href="#STIXTwoText-32" transform="translate(1435.899612 0)"/>
     <use xlink:href="#STIXTwoText-30" transform="translate(1485.399597 0)"/>
     <use xlink:href="#STIXTwoText-30" transform="translate(1534.899582 0)"/>
     <use xlink:href="#STIXTwoText-30" transform="translate(1584.399567 0)"/>
     <use xlink:href="#STIXTwoText-29" transform="translate(1633.899551 0)"/>
     <use xlink:href="#STIXTwoText-20" transform="translate(1668.199539 0)"/>
     <use xlink:href="#STIXTwoText-77" transform="translate(1691.699524 0)"/>
     <use xlink:href="#STIXTwoText-69" transform="translate(1766.599518 0)"/>
     <use xlink:href="#STIXTwoText-74" transform="translate(1795.099503 0)"/>
     <use xlink:href="#STIXTwoText-68" transform="translate(1826.599487 0)"/>
     <use xlink:href="#STIXTwoText-20" transform="translate(1884.299484 0)"/>
     <use xlink:href="#STIXTwoText-66" transform="translate(1907.799469 0)"/>
     <use xlink:href="#STIXTwoText-69" transform="translate(1938.499466 0)"/>
     <use xlink:href="#STIXTwoText-72" transform="translate(1966.999451 0)"/>
     <use xlink:href="#STIXTwoText-6d" transform="translate(2004.999435 0)"/>
     <use xlink:href="#STIXTwoText-20" transform="translate(2090.199417 0)"/>
     <use xlink:href="#STIXTwoText-61" transform="translate(2113.699402 0)"/>
     <use xlink:href="#STIXTwoText-6e" transform="translate(2161.699387 0)"/>
     <use xlink:href="#STIXTwoText-64" transform="translate(2219.299377 0)"/>
     <use xlink:href="#STIXTwoText-20" transform="translate(2273.199371 0)"/>
     <use xlink:href="#STIXTwoText-74" transform="translate(2296.699356 0)"/>
     <use xlink:href="#STIXTwoText-69" transform="translate(2328.199341 0)"/>
     <use xlink:href="#STIXTwoText-6d" transform="translate(2356.699326 0)"/>
     <use xlink:href="#STIXTwoText-65" transform="translate(2441.899307 0)"/>
     <use xlink:href="#STIXTwoText-20" transform="translate(2488.299301 0)"/>
     <use xlink:href="#STIXTwoText-66" transform="translate(2511.799286 0)"/>
     <use xlink:href="#STIXTwoText-69" transform="translate(2542.499283 0)"/>
     <use xlink:href="#STIXTwoText-78" transform="translate(2570.999268 0)"/>
     <use xlink:href="#STIXTwoText-65" transform="translate(2618.899261 0)"/>
     <use xlink:href="#STIXTwoText-64" transform="translate(2665.299255 0)"/>
     <use xlink:href="#STIXTwoText-20" transform="translate(2719.199249 0)"/>
     <use xlink:href="#STIXTwoText-65" transform="translate(2742.699234 0)"/>
     <use xlink:href="#STIXTwoText-66" transform="translate(2789.099228 0)"/>
     <use xlink:href="#STIXTwoText-66" transform="translate(2819.799225 0)"/>
     <use xlink:href="#STIXTwoText-65" transform="translate(2850.499222 0)"/>
     <use xlink:href="#STIXTwoText-63" transform="translate(2896.899216 0)"/>
     <use xlink:href="#STIXTwoText-74" transform="translate(2941.499207 0)"/>
     <use xlink:href="#STIXTwoText-73" transform="translate(2972.999191 0)"/>
    </g>
   </g>
   <g id="patch_6">
    <path d="M 581.844241 35.038246 
Q 567.138293 40.268831 552.432344 45.499416 
" style="fill: none; stroke: #7f0000; stroke-width: 0.9; stroke-linecap: round"/>
   </g>
   <g id="text_18">
    <!-- Optimum = 0.158 -->
    <g style="fill: #7f0000" transform="translate(564.548974 30.16929) scale(0.1 -0.1)">
     <defs>
      <path id="STIXTwoText-4f" d="M 2362 -77 
Q 1728 -77 1270 185 
Q 813 448 566 937 
Q 320 1427 320 2106 
Q 320 2758 566 3248 
Q 813 3738 1270 4010 
Q 1728 4282 2362 4282 
Q 3002 4282 3456 4016 
Q 3910 3750 4153 3273 
Q 4397 2797 4397 2163 
Q 4397 1491 4150 988 
Q 3904 486 3449 204 
Q 2995 -77 2362 -77 
z
M 2368 192 
Q 3053 192 3389 685 
Q 3725 1178 3725 2144 
Q 3725 2720 3552 3139 
Q 3379 3558 3068 3785 
Q 2758 4013 2342 4013 
Q 1722 4013 1357 3517 
Q 992 3021 992 2144 
Q 992 1242 1334 717 
Q 1677 192 2368 192 
z
" transform="scale(0.015625)"/>
      <path id="STIXTwoText-2e" d="M 774 -51 
Q 582 -51 489 57 
Q 397 166 397 326 
Q 397 493 499 611 
Q 602 730 781 730 
Q 966 730 1068 608 
Q 1171 486 1171 320 
Q 1171 173 1068 61 
Q 966 -51 774 -51 
z
" transform="scale(0.015625)"/>
     </defs>
     <use xlink:href="#STIXTwoText-4f"/>
     <use xlink:href="#STIXTwoText-70" transform="translate(73.699982 0)"/>
     <use xlink:href="#STIXTwoText-74" transform="translate(127.399979 0)"/>
     <use xlink:href="#STIXTwoText-69" transform="translate(158.899963 0)"/>
     <use xlink:href="#STIXTwoText-6d" transform="translate(187.399948 0)"/>
     <use xlink:href="#STIXTwoText-75" transform="translate(272.59993 0)"/>
     <use xlink:href="#STIXTwoText-6d" transform="translate(329.599915 0)"/>
     <use xlink:href="#STIXTwoText-20" transform="translate(414.799896 0)"/>
     <use xlink:href="#STIXTwoText-3d" transform="translate(438.299881 0)"/>
     <use xlink:href="#STIXTwoText-20" transform="translate(510.299866 0)"/>
     <use xlink:href="#STIXTwoText-30" transform="translate(533.79985 0)"/>
     <use xlink:href="#STIXTwoText-2e" transform="translate(583.299835 0)"/>
     <use xlink:href="#STIXTwoText-31" transform="translate(607.79982 0)"/>
     <use xlink:href="#STIXTwoText-35" transform="translate(657.299805 0)"/>
     <use xlink:href="#STIXTwoText-38" transform="translate(706.799789 0)"/>
    </g>
   </g>
   <g id="text_19">
    <g id="patch_7">
     <path d="M 665.069736 359.617862 
L 777.162314 359.617862 
Q 779.822314 359.617862 779.822314 356.957862 
L 779.822314 347.771066 
Q 779.822314 345.111066 777.162314 345.111066 
L 665.069736 345.111066 
Q 662.409736 345.111066 662.409736 347.771066 
L 662.409736 356.957862 
Q 662.409736 359.617862 665.069736 359.617862 
z
" style="fill: #ffffff; stroke: #bdbdbd; stroke-width: 0.8; stroke-linejoin: miter"/>
    </g>
    <!-- Top 5% range: [0.153, 0.163] -->
    <g style="fill: #274b6d" transform="translate(665.069736 354.725362) scale(0.095 -0.095)">
     <defs>
      <path id="STIXTwoText-54" d="M 2861 0 
L 1005 0 
L 1005 192 
Q 1274 192 1408 233 
Q 1542 275 1587 412 
Q 1632 550 1632 838 
L 1632 3917 
L 1222 3917 
Q 870 3917 694 3846 
Q 518 3776 441 3590 
Q 365 3405 294 3053 
L 96 3053 
L 166 4205 
L 3706 4205 
L 3757 3053 
L 3558 3053 
Q 3488 3405 3411 3590 
Q 3334 3776 3161 3846 
Q 2989 3917 2630 3917 
L 2227 3917 
L 2227 838 
Q 2227 550 2272 412 
Q 2317 275 2451 233 
Q 2586 192 2861 192 
L 2861 0 
z
" transform="scale(0.015625)"/>
      <path id="STIXTwoText-67" d="M 1222 -1504 
Q 806 -1504 566 -1401 
Q 326 -1299 230 -1136 
Q 134 -973 134 -800 
Q 134 -640 265 -464 
Q 397 -288 653 -38 
L 653 32 
L 845 -6 
Q 723 -211 678 -342 
Q 634 -474 634 -582 
Q 634 -858 870 -998 
Q 1107 -1139 1594 -1139 
Q 1971 -1139 2204 -1043 
Q 2438 -947 2544 -806 
Q 2650 -666 2650 -531 
Q 2650 -358 2538 -265 
Q 2426 -173 2253 -134 
Q 2080 -96 1888 -86 
Q 1696 -77 1536 -77 
Q 1248 -70 1101 -70 
Q 954 -70 890 -67 
Q 826 -64 774 -64 
L 710 -32 
Q 614 0 518 70 
Q 422 141 358 240 
Q 294 339 294 448 
Q 294 563 361 688 
Q 429 813 550 937 
Q 672 1062 819 1178 
L 819 1235 
L 986 1114 
Q 954 1082 909 998 
Q 864 915 832 822 
Q 800 730 800 666 
Q 800 570 867 515 
Q 934 461 1097 435 
Q 1261 410 1555 410 
Q 1958 410 2281 371 
Q 2605 333 2790 173 
Q 2976 13 2976 -352 
Q 2976 -672 2819 -893 
Q 2662 -1114 2403 -1248 
Q 2144 -1382 1833 -1443 
Q 1523 -1504 1222 -1504 
z
M 1517 998 
Q 1350 998 1206 1030 
Q 1062 1062 928 1107 
L 858 1171 
Q 691 1261 572 1382 
Q 454 1504 390 1673 
Q 326 1843 326 2061 
Q 326 2381 473 2614 
Q 621 2848 883 2976 
Q 1146 3104 1485 3104 
Q 1677 3104 1846 3069 
Q 2016 3034 2163 2963 
Q 2310 2893 2419 2797 
L 2419 2630 
Q 2490 2534 2570 2374 
Q 2650 2214 2650 1971 
Q 2650 1677 2506 1456 
Q 2362 1235 2109 1116 
Q 1856 998 1517 998 
z
M 1523 1222 
Q 1766 1222 1923 1388 
Q 2080 1555 2080 2010 
Q 2080 2400 1913 2637 
Q 1747 2874 1440 2874 
Q 1190 2874 1040 2682 
Q 890 2490 890 2086 
Q 890 1677 1050 1449 
Q 1210 1222 1523 1222 
z
M 3021 2989 
L 3021 2643 
L 2330 2662 
L 2106 2938 
L 3021 2989 
z
" transform="scale(0.015625)"/>
      <path id="STIXTwoText-3a" d="M 838 -51 
Q 646 -51 553 57 
Q 461 166 461 326 
Q 461 493 563 611 
Q 666 730 845 730 
Q 1030 730 1132 608 
Q 1235 486 1235 320 
Q 1235 173 1132 61 
Q 1030 -51 838 -51 
z
M 838 2253 
Q 646 2253 553 2361 
Q 461 2470 461 2630 
Q 461 2797 563 2915 
Q 666 3034 845 3034 
Q 1030 3034 1132 2912 
Q 1235 2790 1235 2624 
Q 1235 2477 1132 2365 
Q 1030 2253 838 2253 
z
" transform="scale(0.015625)"/>
      <path id="STIXTwoText-5b" d="M 1920 -1190 
L 582 -1190 
L 582 4685 
L 1920 4685 
L 1920 4493 
L 1088 4493 
L 1088 -998 
L 1920 -998 
L 1920 -1190 
z
" transform="scale(0.015625)"/>
      <path id="STIXTwoText-33" d="M 1094 -83 
Q 806 -83 652 -28 
Q 499 26 438 106 
Q 378 186 378 269 
Q 378 371 442 460 
Q 506 550 627 550 
Q 723 550 828 502 
Q 934 454 1049 393 
Q 1165 333 1283 285 
Q 1402 237 1523 237 
Q 1728 237 1907 310 
Q 2086 384 2201 560 
Q 2317 736 2317 1050 
Q 2317 1338 2157 1549 
Q 1997 1760 1731 1878 
Q 1466 1997 1158 1997 
L 1030 1997 
L 1030 2240 
L 1152 2240 
Q 1370 2240 1574 2349 
Q 1779 2458 1910 2656 
Q 2042 2854 2042 3110 
Q 2042 3392 1866 3549 
Q 1690 3706 1389 3706 
Q 1101 3706 909 3574 
Q 717 3443 550 3187 
L 403 3270 
Q 582 3686 876 3904 
Q 1171 4122 1562 4122 
Q 2054 4122 2323 3875 
Q 2592 3629 2592 3264 
Q 2592 2931 2397 2726 
Q 2202 2522 1901 2330 
L 1901 2310 
Q 2157 2234 2371 2090 
Q 2586 1946 2714 1738 
Q 2842 1530 2842 1242 
Q 2842 806 2598 508 
Q 2355 211 1958 64 
Q 1562 -83 1094 -83 
z
" transform="scale(0.015625)"/>
      <path id="STIXTwoText-2c" d="M 448 -845 
L 371 -685 
Q 493 -634 614 -554 
Q 736 -474 819 -320 
Q 902 -166 902 90 
Q 800 51 704 51 
Q 518 51 435 153 
Q 352 256 352 397 
Q 352 550 454 662 
Q 557 774 749 774 
Q 909 774 1017 707 
Q 1126 640 1184 515 
Q 1242 390 1242 211 
Q 1242 -58 1155 -243 
Q 1069 -429 941 -544 
Q 813 -659 678 -729 
Q 544 -800 448 -845 
z
" transform="scale(0.015625)"/>
      <path id="STIXTwoText-5d" d="M 1638 -1190 
L 301 -1190 
L 301 -998 
L 1133 -998 
L 1133 4493 
L 301 4493 
L 301 4685 
L 1638 4685 
L 1638 -1190 
z
" transform="scale(0.015625)"/>
     </defs>
     <use xlink:href="#STIXTwoText-54"/>
     <use xlink:href="#STIXTwoText-6f" transform="translate(60.299988 0)"/>
     <use xlink:href="#STIXTwoText-70" transform="translate(111.699982 0)"/>
     <use xlink:href="#STIXTwoText-20" transform="translate(165.399979 0)"/>
     <use xlink:href="#STIXTwoText-35" transform="translate(188.899963 0)"/>
     <use xlink:href="#STIXTwoText-25" transform="translate(238.399948 0)"/>
     <use xlink:href="#STIXTwoText-20" transform="translate(307.59993 0)"/>
     <use xlink:href="#STIXTwoText-72" transform="translate(331.099915 0)"/>
     <use xlink:href="#STIXTwoText-61" transform="translate(369.099899 0)"/>
     <use xlink:href="#STIXTwoText-6e" transform="translate(417.099884 0)"/>
     <use xlink:href="#STIXTwoText-67" transform="translate(474.699875 0)"/>
     <use xlink:href="#STIXTwoText-65" transform="translate(523.099869 0)"/>
     <use xlink:href="#STIXTwoText-3a" transform="translate(569.499863 0)"/>
     <use xlink:href="#STIXTwoText-20" transform="translate(593.999847 0)"/>
     <use xlink:href="#STIXTwoText-5b" transform="translate(617.499832 0)"/>
     <use xlink:href="#STIXTwoText-30" transform="translate(652.199829 0)"/>
     <use xlink:href="#STIXTwoText-2e" transform="translate(701.699814 0)"/>
     <use xlink:href="#STIXTwoText-31" transform="translate(726.199799 0)"/>
     <use xlink:href="#STIXTwoText-35" transform="translate(775.699783 0)"/>
     <use xlink:href="#STIXTwoText-33" transform="translate(825.199768 0)"/>
     <use xlink:href="#STIXTwoText-2c" transform="translate(874.699753 0)"/>
     <use xlink:href="#STIXTwoText-20" transform="translate(899.199738 0)"/>
     <use xlink:href="#STIXTwoText-30" transform="translate(922.699722 0)"/>
     <use xlink:href="#STIXTwoText-2e" transform="translate(972.199707 0)"/>
     <use xlink:href="#STIXTwoText-31" transform="translate(996.699692 0)"/>
     <use xlink:href="#STIXTwoText-36" transform="translate(1046.199677 0)"/>
     <use xlink:href="#STIXTwoText-33" transform="translate(1095.699661 0)"/>
     <use xlink:href="#STIXTwoText-5d" transform="translate(1145.199646 0)"/>
    </g>
   </g>
   <g id="text_20">
    <!-- IV Spline Market Quality Score -->
    <g transform="translate(329.223757 16.377187) scale(0.13 -0.13)">
     <defs>
      <path id="STIXTwoText-53" d="M 480 -96 
L 282 -96 
L 224 1286 
L 422 1286 
Q 538 845 691 611 
Q 845 378 1072 291 
Q 1299 205 1626 205 
Q 1869 205 2041 272 
Q 2214 339 2310 489 
Q 2406 640 2406 883 
Q 2406 1165 2249 1350 
Q 2093 1536 1849 1680 
Q 1606 1824 1344 1971 
Q 1088 2118 851 2284 
Q 614 2451 464 2681 
Q 314 2912 314 3245 
Q 314 3584 480 3811 
Q 646 4038 921 4160 
Q 1197 4282 1530 4282 
Q 1824 4282 1984 4234 
Q 2144 4186 2237 4134 
Q 2330 4083 2406 4083 
Q 2483 4083 2531 4124 
Q 2579 4166 2605 4269 
L 2771 4269 
L 2816 2989 
L 2624 2989 
Q 2490 3520 2266 3776 
Q 2042 4032 1555 4026 
Q 1229 4026 1049 3875 
Q 870 3725 870 3424 
Q 870 3187 1004 3017 
Q 1139 2848 1356 2713 
Q 1574 2579 1811 2438 
Q 2022 2317 2236 2195 
Q 2451 2074 2627 1920 
Q 2803 1766 2908 1561 
Q 3014 1357 3014 1069 
Q 3014 698 2844 442 
Q 2675 186 2380 54 
Q 2086 -77 1715 -77 
Q 1382 -77 1174 -29 
Q 966 19 848 67 
Q 730 115 653 115 
Q 589 115 537 57 
Q 486 0 480 -96 
z
" transform="scale(0.015625)"/>
      <path id="STIXTwoText-4d" d="M 1683 0 
L 179 0 
L 179 192 
Q 442 192 570 240 
Q 698 288 742 448 
Q 787 608 787 934 
L 787 3424 
Q 787 3667 742 3792 
Q 698 3917 573 3965 
Q 448 4013 192 4013 
L 192 4205 
L 1498 4205 
L 2848 986 
L 2874 986 
L 4218 4205 
L 5434 4205 
L 5434 4013 
Q 5210 4013 5088 3965 
Q 4966 3917 4921 3792 
Q 4877 3667 4877 3430 
L 4877 762 
Q 4877 531 4921 406 
Q 4966 282 5088 237 
Q 5210 192 5440 192 
L 5440 0 
L 3738 0 
L 3738 192 
Q 3987 192 4108 237 
Q 4230 282 4268 406 
Q 4307 531 4307 762 
L 4307 3520 
L 4282 3520 
L 2790 0 
L 2637 0 
L 1126 3514 
L 1101 3514 
L 1101 934 
Q 1101 608 1145 448 
Q 1190 288 1315 240 
Q 1440 192 1683 192 
L 1683 0 
z
" transform="scale(0.015625)"/>
      <path id="STIXTwoText-51" d="M 2835 -6 
L 2317 -77 
Q 1702 -58 1254 204 
Q 806 467 563 950 
Q 320 1434 320 2106 
Q 320 2758 566 3248 
Q 813 3738 1270 4010 
Q 1728 4282 2362 4282 
Q 3002 4282 3456 4016 
Q 3910 3750 4153 3273 
Q 4397 2797 4397 2170 
Q 4397 1594 4205 1133 
Q 4013 672 3664 377 
Q 3315 83 2835 -6 
z
M 4570 -1107 
L 4250 -1107 
Q 3718 -1107 3360 -1033 
Q 3002 -960 2765 -790 
Q 2528 -621 2355 -333 
L 2150 19 
L 2938 115 
L 2938 0 
Q 3168 -320 3395 -518 
Q 3622 -717 3904 -806 
Q 4186 -896 4570 -896 
L 4570 -1107 
z
M 2368 192 
Q 3053 192 3389 685 
Q 3725 1178 3725 2144 
Q 3725 2720 3552 3139 
Q 3379 3558 3068 3785 
Q 2758 4013 2342 4013 
Q 1722 4013 1357 3517 
Q 992 3021 992 2144 
Q 992 1242 1334 717 
Q 1677 192 2368 192 
z
" transform="scale(0.015625)"/>
     </defs>
     <use xlink:href="#STIXTwoText-49"/>
     <use xlink:href="#STIXTwoText-56" transform="translate(35.699997 0)"/>
     <use xlink:href="#STIXTwoText-20" transform="translate(103.699982 0)"/>
     <use xlink:href="#STIXTwoText-53" transform="translate(127.199966 0)"/>
     <use xlink:href="#STIXTwoText-70" transform="translate(177.59996 0)"/>
     <use xlink:href="#STIXTwoText-6c" transform="translate(231.299957 0)"/>
     <use xlink:href="#STIXTwoText-69" transform="translate(259.599945 0)"/>
     <use xlink:href="#STIXTwoText-6e" transform="translate(288.09993 0)"/>
     <use xlink:href="#STIXTwoText-65" transform="translate(345.699921 0)"/>
     <use xlink:href="#STIXTwoText-20" transform="translate(392.099915 0)"/>
     <use xlink:href="#STIXTwoText-4d" transform="translate(415.599899 0)"/>
     <use xlink:href="#STIXTwoText-61" transform="translate(505.099884 0)"/>
     <use xlink:href="#STIXTwoText-72" transform="translate(553.099869 0)"/>
     <use xlink:href="#STIXTwoText-6b" transform="translate(591.099854 0)"/>
     <use xlink:href="#STIXTwoText-65" transform="translate(645.29985 0)"/>
     <use xlink:href="#STIXTwoText-74" transform="translate(691.699844 0)"/>
     <use xlink:href="#STIXTwoText-20" transform="translate(723.199829 0)"/>
     <use xlink:href="#STIXTwoText-51" transform="translate(746.699814 0)"/>
     <use xlink:href="#STIXTwoText-75" transform="translate(820.399796 0)"/>
     <use xlink:href="#STIXTwoText-61" transform="translate(877.39978 0)"/>
     <use xlink:href="#STIXTwoText-6c" transform="translate(925.399765 0)"/>
     <use xlink:href="#STIXTwoText-69" transform="translate(953.699753 0)"/>
     <use xlink:href="#STIXTwoText-74" transform="translate(982.199738 0)"/>
     <use xlink:href="#STIXTwoText-79" transform="translate(1013.699722 0)"/>
     <use xlink:href="#STIXTwoText-20" transform="translate(1061.99971 0)"/>
     <use xlink:href="#STIXTwoText-53" transform="translate(1085.499695 0)"/>
     <use xlink:href="#STIXTwoText-63" transform="translate(1135.899689 0)"/>
     <use xlink:href="#STIXTwoText-6f" transform="translate(1180.49968 0)"/>
     <use xlink:href="#STIXTwoText-72" transform="translate(1231.899673 0)"/>
     <use xlink:href="#STIXTwoText-65" transform="translate(1269.899658 0)"/>
    </g>
   </g>
   <g id="line2d_22">
    <path d="M 550.548974 377.803437 
L 550.548974 30.377187 
" clip-path="url(#pfc8816d059)" style="fill: none; stroke-dasharray: 9.6,4.8; stroke-dashoffset: 0; stroke: #a50f15; stroke-width: 1.6"/>
   </g>
   <g id="PathCollection_1">
    <defs>
     <path id="mb7c26be372" d="M 0 3 
C 0.795609 3 1.55874 2.683901 2.12132 2.12132 
C 2.683901 1.55874 3 0.795609 3 0 
C 3 -0.795609 2.683901 -1.55874 2.12132 -2.12132 
C 1.55874 -2.683901 0.795609 -3 0 -3 
C -0.795609 -3 -1.55874 -2.683901 -2.12132 -2.12132 
C -2.683901 -1.55874 -3 -0.795609 -3 0 
C -3 0.795609 -2.683901 1.55874 -2.12132 2.12132 
C -1.55874 2.683901 -0.795609 3 0 3 
z
" style="stroke: #a50f15"/>
    </defs>
    <g clip-path="url(#pfc8816d059)">
     <use xlink:href="#mb7c26be372" x="550.548974" y="46.16929" style="fill: #a50f15; stroke: #a50f15"/>
    </g>
   </g>
  </g>
 </g>
 <defs>
  <clipPath id="pfc8816d059">
   <rect x="41.200313" y="30.377187" width="747.169544" height="347.42625"/>
  </clipPath>
 </defs>
</svg>
