<?xml version="1.0" encoding="utf-8" standalone="no"?>
<!DOCTYPE svg PUBLIC "-//W3C//DTD SVG 1.1//EN"
  "http://www.w3.org/Graphics/SVG/1.1/DTD/svg11.dtd">
<svg xmlns:xlink="http://www.w3.org/1999/xlink" width="964.619687pt" height="368.25972pt" viewBox="0 0 964.619687 368.25972" xmlns="http://www.w3.org/2000/svg" version="1.1">
 <metadata>
  <rdf:RDF xmlns:dc="http://purl.org/dc/elements/1.1/" xmlns:cc="http://creativecommons.org/ns#" xmlns:rdf="http://www.w3.org/1999/02/22-rdf-syntax-ns#">
   <cc:Work>
    <dc:type rdf:resource="http://purl.org/dc/dcmitype/StillImage"/>
    <dc:date>2026-02-25T16:07:00.912203</dc:date>
    <dc:format>image/svg+xml</dc:format>
    <dc:creator>
     <cc:Agent>
      <dc:title>Matplotlib v3.10.8, https://matplotlib.org/</dc:title>
     </cc:Agent>
    </dc:creator>
   </cc:Work>
  </rdf:RDF>
 </metadata>
 <defs>
  <style type="text/css">*{stroke-linejoin: round; stroke-linecap: butt}</style>
 </defs>
 <g id="figure_1">
  <g id="patch_1">
   <path d="M 0 368.25972 
L 964.619687 368.25972 
L 964.619687 0 
L 0 0 
z
" style="fill: #ffffff"/>
  </g>
  <g id="axes_1">
   <g id="patch_2">
    <path d="M 49.260938 328.40072 
L 957.419688 328.40072 
L 957.419688 44.74792 
L 49.260938 44.74792 
z
" style="fill: #ffffff"/>
   </g>
   <g id="patch_3">
    <path d="M 178.812457 328.40072 
L 308.623599 328.40072 
L 308.623599 44.74792 
L 178.812457 44.74792 
z
" clip-path="url(#p83e2c7990e)" style="fill: #add8e6; opacity: 0.35"/>
   </g>
   <g id="patch_4">
    <path d="M 438.434741 328.40072 
L 568.245884 328.40072 
L 568.245884 44.74792 
L 438.434741 44.74792 
z
" clip-path="url(#p83e2c7990e)" style="fill: #add8e6; opacity: 0.35"/>
   </g>
   <g id="patch_5">
    <path d="M 698.057026 328.40072 
L 827.868168 328.40072 
L 827.868168 44.74792 
L 698.057026 44.74792 
z
" clip-path="url(#p83e2c7990e)" style="fill: #add8e6; opacity: 0.35"/>
   </g>
   <g id="matplotlib.axis_1">
    <g id="xtick_1">
     <g id="line2d_1">
      <defs>
       <path id="ma3948fb735" d="M 0 0 
L 0 3.5 
" style="stroke: #000000; stroke-width: 0.8"/>
      </defs>
      <g>
       <use xlink:href="#ma3948fb735" x="113.906886" y="328.40072" style="stroke: #000000; stroke-width: 0.8"/>
      </g>
     </g>
     <g id="text_1">
      <!-- exp -->
      <g transform="translate(106.608761 341.47947) scale(0.08 -0.08)">
       <defs>
        <path id="DejaVuSans-65" d="M 3597 1894 
L 3597 1613 
L 953 1613 
Q 991 1019 1311 708 
Q 1631 397 2203 397 
Q 2534 397 2845 478 
Q 3156 559 3463 722 
L 3463 178 
Q 3153 47 2828 -22 
Q 2503 -91 2169 -91 
Q 1331 -91 842 396 
Q 353 884 353 1716 
Q 353 2575 817 3079 
Q 1281 3584 2069 3584 
Q 2775 3584 3186 3129 
Q 3597 2675 3597 1894 
z
M 3022 2063 
Q 3016 2534 2758 2815 
Q 2500 3097 2075 3097 
Q 1594 3097 1305 2825 
Q 1016 2553 972 2059 
L 3022 2063 
z
" transform="scale(0.015625)"/>
        <path id="DejaVuSans-78" d="M 3513 3500 
L 2247 1797 
L 3578 0 
L 2900 0 
L 1881 1375 
L 863 0 
L 184 0 
L 1544 1831 
L 300 3500 
L 978 3500 
L 1906 2253 
L 2834 3500 
L 3513 3500 
z
" transform="scale(0.015625)"/>
        <path id="DejaVuSans-70" d="M 1159 525 
L 1159 -1331 
L 581 -1331 
L 581 3500 
L 1159 3500 
L 1159 2969 
Q 1341 3281 1617 3432 
Q 1894 3584 2278 3584 
Q 2916 3584 3314 3078 
Q 3713 2572 3713 1747 
Q 3713 922 3314 415 
Q 2916 -91 2278 -91 
Q 1894 -91 1617 61 
Q 1341 213 1159 525 
z
M 3116 1747 
Q 3116 2381 2855 2742 
Q 2594 3103 2138 3103 
Q 1681 3103 1420 2742 
Q 1159 2381 1159 1747 
Q 1159 1113 1420 752 
Q 1681 391 2138 391 
Q 2594 391 2855 752 
Q 3116 1113 3116 1747 
z
" transform="scale(0.015625)"/>
       </defs>
       <use xlink:href="#DejaVuSans-65"/>
       <use xlink:href="#DejaVuSans-78" transform="translate(59.773438 0)"/>
       <use xlink:href="#DejaVuSans-70" transform="translate(118.953125 0)"/>
      </g>
      <!-- 1993Q1 -->
      <g transform="translate(98.033136 350.43772) scale(0.08 -0.08)">
       <defs>
        <path id="DejaVuSans-31" d="M 794 531 
L 1825 531 
L 1825 4091 
L 703 3866 
L 703 4441 
L 1819 4666 
L 2450 4666 
L 2450 531 
L 3481 531 
L 3481 0 
L 794 0 
L 794 531 
z
" transform="scale(0.015625)"/>
        <path id="DejaVuSans-39" d="M 703 97 
L 703 672 
Q 941 559 1184 500 
Q 1428 441 1663 441 
Q 2288 441 2617 861 
Q 2947 1281 2994 2138 
Q 2813 1869 2534 1725 
Q 2256 1581 1919 1581 
Q 1219 1581 811 2004 
Q 403 2428 403 3163 
Q 403 3881 828 4315 
Q 1253 4750 1959 4750 
Q 2769 4750 3195 4129 
Q 3622 3509 3622 2328 
Q 3622 1225 3098 567 
Q 2575 -91 1691 -91 
Q 1453 -91 1209 -44 
Q 966 3 703 97 
z
M 1959 2075 
Q 2384 2075 2632 2365 
Q 2881 2656 2881 3163 
Q 2881 3666 2632 3958 
Q 2384 4250 1959 4250 
Q 1534 4250 1286 3958 
Q 1038 3666 1038 3163 
Q 1038 2656 1286 2365 
Q 1534 2075 1959 2075 
z
" transform="scale(0.015625)"/>
        <path id="DejaVuSans-33" d="M 2597 2516 
Q 3050 2419 3304 2112 
Q 3559 1806 3559 1356 
Q 3559 666 3084 287 
Q 2609 -91 1734 -91 
Q 1441 -91 1130 -33 
Q 819 25 488 141 
L 488 750 
Q 750 597 1062 519 
Q 1375 441 1716 441 
Q 2309 441 2620 675 
Q 2931 909 2931 1356 
Q 2931 1769 2642 2001 
Q 2353 2234 1838 2234 
L 1294 2234 
L 1294 2753 
L 1863 2753 
Q 2328 2753 2575 2939 
Q 2822 3125 2822 3475 
Q 2822 3834 2567 4026 
Q 2313 4219 1838 4219 
Q 1578 4219 1281 4162 
Q 984 4106 628 3988 
L 628 4550 
Q 988 4650 1302 4700 
Q 1616 4750 1894 4750 
Q 2613 4750 3031 4423 
Q 3450 4097 3450 3541 
Q 3450 3153 3228 2886 
Q 3006 2619 2597 2516 
z
" transform="scale(0.015625)"/>
        <path id="DejaVuSans-51" d="M 2522 4238 
Q 1834 4238 1429 3725 
Q 1025 3213 1025 2328 
Q 1025 1447 1429 934 
Q 1834 422 2522 422 
Q 3209 422 3611 934 
Q 4013 1447 4013 2328 
Q 4013 3213 3611 3725 
Q 3209 4238 2522 4238 
z
M 3406 84 
L 4238 -825 
L 3475 -825 
L 2784 -78 
Q 2681 -84 2626 -87 
Q 2572 -91 2522 -91 
Q 1538 -91 948 567 
Q 359 1225 359 2328 
Q 359 3434 948 4092 
Q 1538 4750 2522 4750 
Q 3503 4750 4090 4092 
Q 4678 3434 4678 2328 
Q 4678 1516 4351 937 
Q 4025 359 3406 84 
z
" transform="scale(0.015625)"/>
       </defs>
       <use xlink:href="#DejaVuSans-31"/>
       <use xlink:href="#DejaVuSans-39" transform="translate(63.623047 0)"/>
       <use xlink:href="#DejaVuSans-39" transform="translate(127.246094 0)"/>
       <use xlink:href="#DejaVuSans-33" transform="translate(190.869141 0)"/>
       <use xlink:href="#DejaVuSans-51" transform="translate(254.492188 0)"/>
       <use xlink:href="#DejaVuSans-31" transform="translate(333.203125 0)"/>
      </g>
      <!-- 2000Q4 -->
      <g transform="translate(98.033136 359.39597) scale(0.08 -0.08)">
       <defs>
        <path id="DejaVuSans-32" d="M 1228 531 
L 3431 531 
L 3431 0 
L 469 0 
L 469 531 
Q 828 903 1448 1529 
Q 2069 2156 2228 2338 
Q 2531 2678 2651 2914 
Q 2772 3150 2772 3378 
Q 2772 3750 2511 3984 
Q 2250 4219 1831 4219 
Q 1534 4219 1204 4116 
Q 875 4013 500 3803 
L 500 4441 
Q 881 4594 1212 4672 
Q 1544 4750 1819 4750 
Q 2544 4750 2975 4387 
Q 3406 4025 3406 3419 
Q 3406 3131 3298 2873 
Q 3191 2616 2906 2266 
Q 2828 2175 2409 1742 
Q 1991 1309 1228 531 
z
" transform="scale(0.015625)"/>
        <path id="DejaVuSans-30" d="M 2034 4250 
Q 1547 4250 1301 3770 
Q 1056 3291 1056 2328 
Q 1056 1369 1301 889 
Q 1547 409 2034 409 
Q 2525 409 2770 889 
Q 3016 1369 3016 2328 
Q 3016 3291 2770 3770 
Q 2525 4250 2034 4250 
z
M 2034 4750 
Q 2819 4750 3233 4129 
Q 3647 3509 3647 2328 
Q 3647 1150 3233 529 
Q 2819 -91 2034 -91 
Q 1250 -91 836 529 
Q 422 1150 422 2328 
Q 422 3509 836 4129 
Q 1250 4750 2034 4750 
z
" transform="scale(0.015625)"/>
        <path id="DejaVuSans-34" d="M 2419 4116 
L 825 1625 
L 2419 1625 
L 2419 4116 
z
M 2253 4666 
L 3047 4666 
L 3047 1625 
L 3713 1625 
L 3713 1100 
L 3047 1100 
L 3047 0 
L 2419 0 
L 2419 1100 
L 313 1100 
L 313 1709 
L 2253 4666 
z
" transform="scale(0.015625)"/>
       </defs>
       <use xlink:href="#DejaVuSans-32"/>
       <use xlink:href="#DejaVuSans-30" transform="translate(63.623047 0)"/>
       <use xlink:href="#DejaVuSans-30" transform="translate(127.246094 0)"/>
       <use xlink:href="#DejaVuSans-30" transform="translate(190.869141 0)"/>
       <use xlink:href="#DejaVuSans-51" transform="translate(254.492188 0)"/>
       <use xlink:href="#DejaVuSans-34" transform="translate(333.203125 0)"/>
      </g>
     </g>
    </g>
    <g id="xtick_2">
     <g id="line2d_2">
      <g>
       <use xlink:href="#ma3948fb735" x="243.718028" y="328.40072" style="stroke: #000000; stroke-width: 0.8"/>
      </g>
     </g>
     <g id="text_2">
      <!-- rec -->
      <g transform="translate(237.503028 341.47947) scale(0.08 -0.08)">
       <defs>
        <path id="DejaVuSans-72" d="M 2631 2963 
Q 2534 3019 2420 3045 
Q 2306 3072 2169 3072 
Q 1681 3072 1420 2755 
Q 1159 2438 1159 1844 
L 1159 0 
L 581 0 
L 581 3500 
L 1159 3500 
L 1159 2956 
Q 1341 3275 1631 3429 
Q 1922 3584 2338 3584 
Q 2397 3584 2469 3576 
Q 2541 3569 2628 3553 
L 2631 2963 
z
" transform="scale(0.015625)"/>
        <path id="DejaVuSans-63" d="M 3122 3366 
L 3122 2828 
Q 2878 2963 2633 3030 
Q 2388 3097 2138 3097 
Q 1578 3097 1268 2742 
Q 959 2388 959 1747 
Q 959 1106 1268 751 
Q 1578 397 2138 397 
Q 2388 397 2633 464 
Q 2878 531 3122 666 
L 3122 134 
Q 2881 22 2623 -34 
Q 2366 -91 2075 -91 
Q 1284 -91 818 406 
Q 353 903 353 1747 
Q 353 2603 823 3093 
Q 1294 3584 2113 3584 
Q 2378 3584 2631 3529 
Q 2884 3475 3122 3366 
z
" transform="scale(0.015625)"/>
       </defs>
       <use xlink:href="#DejaVuSans-72"/>
       <use xlink:href="#DejaVuSans-65" transform="translate(38.863281 0)"/>
       <use xlink:href="#DejaVuSans-63" transform="translate(100.386719 0)"/>
      </g>
      <!-- 2001Q1 -->
      <g transform="translate(227.844278 350.43772) scale(0.08 -0.08)">
       <use xlink:href="#DejaVuSans-32"/>
       <use xlink:href="#DejaVuSans-30" transform="translate(63.623047 0)"/>
       <use xlink:href="#DejaVuSans-30" transform="translate(127.246094 0)"/>
       <use xlink:href="#DejaVuSans-31" transform="translate(190.869141 0)"/>
       <use xlink:href="#DejaVuSans-51" transform="translate(254.492188 0)"/>
       <use xlink:href="#DejaVuSans-31" transform="translate(333.203125 0)"/>
      </g>
      <!-- 2001Q4 -->
      <g transform="translate(227.844278 359.39597) scale(0.08 -0.08)">
       <use xlink:href="#DejaVuSans-32"/>
       <use xlink:href="#DejaVuSans-30" transform="translate(63.623047 0)"/>
       <use xlink:href="#DejaVuSans-30" transform="translate(127.246094 0)"/>
       <use xlink:href="#DejaVuSans-31" transform="translate(190.869141 0)"/>
       <use xlink:href="#DejaVuSans-51" transform="translate(254.492188 0)"/>
       <use xlink:href="#DejaVuSans-34" transform="translate(333.203125 0)"/>
      </g>
     </g>
    </g>
    <g id="xtick_3">
     <g id="line2d_3">
      <g>
       <use xlink:href="#ma3948fb735" x="373.52917" y="328.40072" style="stroke: #000000; stroke-width: 0.8"/>
      </g>
     </g>
     <g id="text_3">
      <!-- exp -->
      <g transform="translate(366.231045 341.47947) scale(0.08 -0.08)">
       <use xlink:href="#DejaVuSans-65"/>
       <use xlink:href="#DejaVuSans-78" transform="translate(59.773438 0)"/>
       <use xlink:href="#DejaVuSans-70" transform="translate(118.953125 0)"/>
      </g>
      <!-- 2002Q1 -->
      <g transform="translate(357.65542 350.43772) scale(0.08 -0.08)">
       <use xlink:href="#DejaVuSans-32"/>
       <use xlink:href="#DejaVuSans-30" transform="translate(63.623047 0)"/>
       <use xlink:href="#DejaVuSans-30" transform="translate(127.246094 0)"/>
       <use xlink:href="#DejaVuSans-32" transform="translate(190.869141 0)"/>
       <use xlink:href="#DejaVuSans-51" transform="translate(254.492188 0)"/>
       <use xlink:href="#DejaVuSans-31" transform="translate(333.203125 0)"/>
      </g>
      <!-- 2007Q3 -->
      <g transform="translate(357.65542 359.39597) scale(0.08 -0.08)">
       <defs>
        <path id="DejaVuSans-37" d="M 525 4666 
L 3525 4666 
L 3525 4397 
L 1831 0 
L 1172 0 
L 2766 4134 
L 525 4134 
L 525 4666 
z
" transform="scale(0.015625)"/>
       </defs>
       <use xlink:href="#DejaVuSans-32"/>
       <use xlink:href="#DejaVuSans-30" transform="translate(63.623047 0)"/>
       <use xlink:href="#DejaVuSans-30" transform="translate(127.246094 0)"/>
       <use xlink:href="#DejaVuSans-37" transform="translate(190.869141 0)"/>
       <use xlink:href="#DejaVuSans-51" transform="translate(254.492188 0)"/>
       <use xlink:href="#DejaVuSans-33" transform="translate(333.203125 0)"/>
      </g>
     </g>
    </g>
    <g id="xtick_4">
     <g id="line2d_4">
      <g>
       <use xlink:href="#ma3948fb735" x="503.340313" y="328.40072" style="stroke: #000000; stroke-width: 0.8"/>
      </g>
     </g>
     <g id="text_4">
      <!-- rec -->
      <g transform="translate(497.125313 341.47947) scale(0.08 -0.08)">
       <use xlink:href="#DejaVuSans-72"/>
       <use xlink:href="#DejaVuSans-65" transform="translate(38.863281 0)"/>
       <use xlink:href="#DejaVuSans-63" transform="translate(100.386719 0)"/>
      </g>
      <!-- 2007Q4 -->
      <g transform="translate(487.466563 350.43772) scale(0.08 -0.08)">
       <use xlink:href="#DejaVuSans-32"/>
       <use xlink:href="#DejaVuSans-30" transform="translate(63.623047 0)"/>
       <use xlink:href="#DejaVuSans-30" transform="translate(127.246094 0)"/>
       <use xlink:href="#DejaVuSans-37" transform="translate(190.869141 0)"/>
       <use xlink:href="#DejaVuSans-51" transform="translate(254.492188 0)"/>
       <use xlink:href="#DejaVuSans-34" transform="translate(333.203125 0)"/>
      </g>
      <!-- 2009Q2 -->
      <g transform="translate(487.466563 359.39597) scale(0.08 -0.08)">
       <use xlink:href="#DejaVuSans-32"/>
       <use xlink:href="#DejaVuSans-30" transform="translate(63.623047 0)"/>
       <use xlink:href="#DejaVuSans-30" transform="translate(127.246094 0)"/>
       <use xlink:href="#DejaVuSans-39" transform="translate(190.869141 0)"/>
       <use xlink:href="#DejaVuSans-51" transform="translate(254.492188 0)"/>
       <use xlink:href="#DejaVuSans-32" transform="translate(333.203125 0)"/>
      </g>
     </g>
    </g>
    <g id="xtick_5">
     <g id="line2d_5">
      <g>
       <use xlink:href="#ma3948fb735" x="633.151455" y="328.40072" style="stroke: #000000; stroke-width: 0.8"/>
      </g>
     </g>
     <g id="text_5">
      <!-- exp -->
      <g transform="translate(625.85333 341.47947) scale(0.08 -0.08)">
       <use xlink:href="#DejaVuSans-65"/>
       <use xlink:href="#DejaVuSans-78" transform="translate(59.773438 0)"/>
       <use xlink:href="#DejaVuSans-70" transform="translate(118.953125 0)"/>
      </g>
      <!-- 2009Q3 -->
      <g transform="translate(617.277705 350.43772) scale(0.08 -0.08)">
       <use xlink:href="#DejaVuSans-32"/>
       <use xlink:href="#DejaVuSans-30" transform="translate(63.623047 0)"/>
       <use xlink:href="#DejaVuSans-30" transform="translate(127.246094 0)"/>
       <use xlink:href="#DejaVuSans-39" transform="translate(190.869141 0)"/>
       <use xlink:href="#DejaVuSans-51" transform="translate(254.492188 0)"/>
       <use xlink:href="#DejaVuSans-33" transform="translate(333.203125 0)"/>
      </g>
      <!-- 2019Q3 -->
      <g transform="translate(617.277705 359.39597) scale(0.08 -0.08)">
       <use xlink:href="#DejaVuSans-32"/>
       <use xlink:href="#DejaVuSans-30" transform="translate(63.623047 0)"/>
       <use xlink:href="#DejaVuSans-31" transform="translate(127.246094 0)"/>
       <use xlink:href="#DejaVuSans-39" transform="translate(190.869141 0)"/>
       <use xlink:href="#DejaVuSans-51" transform="translate(254.492188 0)"/>
       <use xlink:href="#DejaVuSans-33" transform="translate(333.203125 0)"/>
      </g>
     </g>
    </g>
    <g id="xtick_6">
     <g id="line2d_6">
      <g>
       <use xlink:href="#ma3948fb735" x="762.962597" y="328.40072" style="stroke: #000000; stroke-width: 0.8"/>
      </g>
     </g>
     <g id="text_6">
      <!-- rec -->
      <g transform="translate(756.747597 341.47947) scale(0.08 -0.08)">
       <use xlink:href="#DejaVuSans-72"/>
       <use xlink:href="#DejaVuSans-65" transform="translate(38.863281 0)"/>
       <use xlink:href="#DejaVuSans-63" transform="translate(100.386719 0)"/>
      </g>
      <!-- 2019Q4 -->
      <g transform="translate(747.088847 350.43772) scale(0.08 -0.08)">
       <use xlink:href="#DejaVuSans-32"/>
       <use xlink:href="#DejaVuSans-30" transform="translate(63.623047 0)"/>
       <use xlink:href="#DejaVuSans-31" transform="translate(127.246094 0)"/>
       <use xlink:href="#DejaVuSans-39" transform="translate(190.869141 0)"/>
       <use xlink:href="#DejaVuSans-51" transform="translate(254.492188 0)"/>
       <use xlink:href="#DejaVuSans-34" transform="translate(333.203125 0)"/>
      </g>
      <!-- 2020Q2 -->
      <g transform="translate(747.088847 359.39597) scale(0.08 -0.08)">
       <use xlink:href="#DejaVuSans-32"/>
       <use xlink:href="#DejaVuSans-30" transform="translate(63.623047 0)"/>
       <use xlink:href="#DejaVuSans-32" transform="translate(127.246094 0)"/>
       <use xlink:href="#DejaVuSans-30" transform="translate(190.869141 0)"/>
       <use xlink:href="#DejaVuSans-51" transform="translate(254.492188 0)"/>
       <use xlink:href="#DejaVuSans-32" transform="translate(333.203125 0)"/>
      </g>
     </g>
    </g>
    <g id="xtick_7">
     <g id="line2d_7">
      <g>
       <use xlink:href="#ma3948fb735" x="892.773739" y="328.40072" style="stroke: #000000; stroke-width: 0.8"/>
      </g>
     </g>
     <g id="text_7">
      <!-- exp -->
      <g transform="translate(885.475614 341.47947) scale(0.08 -0.08)">
       <use xlink:href="#DejaVuSans-65"/>
       <use xlink:href="#DejaVuSans-78" transform="translate(59.773438 0)"/>
       <use xlink:href="#DejaVuSans-70" transform="translate(118.953125 0)"/>
      </g>
      <!-- 2020Q3 -->
      <g transform="translate(876.899989 350.43772) scale(0.08 -0.08)">
       <use xlink:href="#DejaVuSans-32"/>
       <use xlink:href="#DejaVuSans-30" transform="translate(63.623047 0)"/>
       <use xlink:href="#DejaVuSans-32" transform="translate(127.246094 0)"/>
       <use xlink:href="#DejaVuSans-30" transform="translate(190.869141 0)"/>
       <use xlink:href="#DejaVuSans-51" transform="translate(254.492188 0)"/>
       <use xlink:href="#DejaVuSans-33" transform="translate(333.203125 0)"/>
      </g>
      <!-- 2023Q4 -->
      <g transform="translate(876.899989 359.39597) scale(0.08 -0.08)">
       <use xlink:href="#DejaVuSans-32"/>
       <use xlink:href="#DejaVuSans-30" transform="translate(63.623047 0)"/>
       <use xlink:href="#DejaVuSans-32" transform="translate(127.246094 0)"/>
       <use xlink:href="#DejaVuSans-33" transform="translate(190.869141 0)"/>
       <use xlink:href="#DejaVuSans-51" transform="translate(254.492188 0)"/>
       <use xlink:href="#DejaVuSans-34" transform="translate(333.203125 0)"/>
      </g>
     </g>
    </g>
   </g>
   <g id="matplotlib.axis_2">
    <g id="ytick_1">
     <g id="line2d_8">
      <path d="M 49.260938 308.165036 
L 957.419688 308.165036 
" clip-path="url(#p83e2c7990e)" style="fill: none; stroke-dasharray: 0.8,1.32; stroke-dashoffset: 0; stroke: #b0b0b0; stroke-opacity: 0.25; stroke-width: 0.8"/>
     </g>
     <g id="line2d_9">
      <defs>
       <path id="m3851d9ec71" d="M 0 0 
L -3.5 0 
" style="stroke: #000000; stroke-width: 0.8"/>
      </defs>
      <g>
       <use xlink:href="#m3851d9ec71" x="49.260938" y="308.165036" style="stroke: #000000; stroke-width: 0.8"/>
      </g>
     </g>
     <g id="text_8">
      <!-- −20 -->
      <g transform="translate(21.15625 311.964255) scale(0.1 -0.1)">
       <defs>
        <path id="DejaVuSans-2212" d="M 678 2272 
L 4684 2272 
L 4684 1741 
L 678 1741 
L 678 2272 
z
" transform="scale(0.015625)"/>
       </defs>
       <use xlink:href="#DejaVuSans-2212"/>
       <use xlink:href="#DejaVuSans-32" transform="translate(83.789062 0)"/>
       <use xlink:href="#DejaVuSans-30" transform="translate(147.412109 0)"/>
      </g>
     </g>
    </g>
    <g id="ytick_2">
     <g id="line2d_10">
      <path d="M 49.260938 273.469945 
L 957.419688 273.469945 
" clip-path="url(#p83e2c7990e)" style="fill: none; stroke-dasharray: 0.8,1.32; stroke-dashoffset: 0; stroke: #b0b0b0; stroke-opacity: 0.25; stroke-width: 0.8"/>
     </g>
     <g id="line2d_11">
      <g>
       <use xlink:href="#m3851d9ec71" x="49.260938" y="273.469945" style="stroke: #000000; stroke-width: 0.8"/>
      </g>
     </g>
     <g id="text_9">
      <!-- −15 -->
      <g transform="translate(21.15625 277.269164) scale(0.1 -0.1)">
       <defs>
        <path id="DejaVuSans-35" d="M 691 4666 
L 3169 4666 
L 3169 4134 
L 1269 4134 
L 1269 2991 
Q 1406 3038 1543 3061 
Q 1681 3084 1819 3084 
Q 2600 3084 3056 2656 
Q 3513 2228 3513 1497 
Q 3513 744 3044 326 
Q 2575 -91 1722 -91 
Q 1428 -91 1123 -41 
Q 819 9 494 109 
L 494 744 
Q 775 591 1075 516 
Q 1375 441 1709 441 
Q 2250 441 2565 725 
Q 2881 1009 2881 1497 
Q 2881 1984 2565 2268 
Q 2250 2553 1709 2553 
Q 1456 2553 1204 2497 
Q 953 2441 691 2322 
L 691 4666 
z
" transform="scale(0.015625)"/>
       </defs>
       <use xlink:href="#DejaVuSans-2212"/>
       <use xlink:href="#DejaVuSans-31" transform="translate(83.789062 0)"/>
       <use xlink:href="#DejaVuSans-35" transform="translate(147.412109 0)"/>
      </g>
     </g>
    </g>
    <g id="ytick_3">
     <g id="line2d_12">
      <path d="M 49.260938 238.774854 
L 957.419688 238.774854 
" clip-path="url(#p83e2c7990e)" style="fill: none; stroke-dasharray: 0.8,1.32; stroke-dashoffset: 0; stroke: #b0b0b0; stroke-opacity: 0.25; stroke-width: 0.8"/>
     </g>
     <g id="line2d_13">
      <g>
       <use xlink:href="#m3851d9ec71" x="49.260938" y="238.774854" style="stroke: #000000; stroke-width: 0.8"/>
      </g>
     </g>
     <g id="text_10">
      <!-- −10 -->
      <g transform="translate(21.15625 242.574073) scale(0.1 -0.1)">
       <use xlink:href="#DejaVuSans-2212"/>
       <use xlink:href="#DejaVuSans-31" transform="translate(83.789062 0)"/>
       <use xlink:href="#DejaVuSans-30" transform="translate(147.412109 0)"/>
      </g>
     </g>
    </g>
    <g id="ytick_4">
     <g id="line2d_14">
      <path d="M 49.260938 204.079763 
L 957.419688 204.079763 
" clip-path="url(#p83e2c7990e)" style="fill: none; stroke-dasharray: 0.8,1.32; stroke-dashoffset: 0; stroke: #b0b0b0; stroke-opacity: 0.25; stroke-width: 0.8"/>
     </g>
     <g id="line2d_15">
      <g>
       <use xlink:href="#m3851d9ec71" x="49.260938" y="204.079763" style="stroke: #000000; stroke-width: 0.8"/>
      </g>
     </g>
     <g id="text_11">
      <!-- −5 -->
      <g transform="translate(27.51875 207.878982) scale(0.1 -0.1)">
       <use xlink:href="#DejaVuSans-2212"/>
       <use xlink:href="#DejaVuSans-35" transform="translate(83.789062 0)"/>
      </g>
     </g>
    </g>
    <g id="ytick_5">
     <g id="line2d_16">
      <path d="M 49.260938 169.384672 
L 957.419688 169.384672 
" clip-path="url(#p83e2c7990e)" style="fill: none; stroke-dasharray: 0.8,1.32; stroke-dashoffset: 0; stroke: #b0b0b0; stroke-opacity: 0.25; stroke-width: 0.8"/>
     </g>
     <g id="line2d_17">
      <g>
       <use xlink:href="#m3851d9ec71" x="49.260938" y="169.384672" style="stroke: #000000; stroke-width: 0.8"/>
      </g>
     </g>
     <g id="text_12">
      <!-- 0 -->
      <g transform="translate(35.898438 173.183891) scale(0.1 -0.1)">
       <use xlink:href="#DejaVuSans-30"/>
      </g>
     </g>
    </g>
    <g id="ytick_6">
     <g id="line2d_18">
      <path d="M 49.260938 134.689581 
L 957.419688 134.689581 
" clip-path="url(#p83e2c7990e)" style="fill: none; stroke-dasharray: 0.8,1.32; stroke-dashoffset: 0; stroke: #b0b0b0; stroke-opacity: 0.25; stroke-width: 0.8"/>
     </g>
     <g id="line2d_19">
      <g>
       <use xlink:href="#m3851d9ec71" x="49.260938" y="134.689581" style="stroke: #000000; stroke-width: 0.8"/>
      </g>
     </g>
     <g id="text_13">
      <!-- 5 -->
      <g transform="translate(35.898438 138.4888) scale(0.1 -0.1)">
       <use xlink:href="#DejaVuSans-35"/>
      </g>
     </g>
    </g>
    <g id="ytick_7">
     <g id="line2d_20">
      <path d="M 49.260938 99.99449 
L 957.419688 99.99449 
" clip-path="url(#p83e2c7990e)" style="fill: none; stroke-dasharray: 0.8,1.32; stroke-dashoffset: 0; stroke: #b0b0b0; stroke-opacity: 0.25; stroke-width: 0.8"/>
     </g>
     <g id="line2d_21">
      <g>
       <use xlink:href="#m3851d9ec71" x="49.260938" y="99.99449" style="stroke: #000000; stroke-width: 0.8"/>
      </g>
     </g>
     <g id="text_14">
      <!-- 10 -->
      <g transform="translate(29.535938 103.793709) scale(0.1 -0.1)">
       <use xlink:href="#DejaVuSans-31"/>
       <use xlink:href="#DejaVuSans-30" transform="translate(63.623047 0)"/>
      </g>
     </g>
    </g>
    <g id="ytick_8">
     <g id="line2d_22">
      <path d="M 49.260938 65.299399 
L 957.419688 65.299399 
" clip-path="url(#p83e2c7990e)" style="fill: none; stroke-dasharray: 0.8,1.32; stroke-dashoffset: 0; stroke: #b0b0b0; stroke-opacity: 0.25; stroke-width: 0.8"/>
     </g>
     <g id="line2d_23">
      <g>
       <use xlink:href="#m3851d9ec71" x="49.260938" y="65.299399" style="stroke: #000000; stroke-width: 0.8"/>
      </g>
     </g>
     <g id="text_15">
      <!-- 15 -->
      <g transform="translate(29.535938 69.098618) scale(0.1 -0.1)">
       <use xlink:href="#DejaVuSans-31"/>
       <use xlink:href="#DejaVuSans-35" transform="translate(63.623047 0)"/>
      </g>
     </g>
    </g>
    <g id="text_16">
     <!-- Coefficient on ind_own -->
     <g transform="translate(14.798438 243.410257) rotate(-90) scale(0.1 -0.1)">
      <defs>
       <path id="DejaVuSans-43" d="M 4122 4306 
L 4122 3641 
Q 3803 3938 3442 4084 
Q 3081 4231 2675 4231 
Q 1875 4231 1450 3742 
Q 1025 3253 1025 2328 
Q 1025 1406 1450 917 
Q 1875 428 2675 428 
Q 3081 428 3442 575 
Q 3803 722 4122 1019 
L 4122 359 
Q 3791 134 3420 21 
Q 3050 -91 2638 -91 
Q 1578 -91 968 557 
Q 359 1206 359 2328 
Q 359 3453 968 4101 
Q 1578 4750 2638 4750 
Q 3056 4750 3426 4639 
Q 3797 4528 4122 4306 
z
" transform="scale(0.015625)"/>
       <path id="DejaVuSans-6f" d="M 1959 3097 
Q 1497 3097 1228 2736 
Q 959 2375 959 1747 
Q 959 1119 1226 758 
Q 1494 397 1959 397 
Q 2419 397 2687 759 
Q 2956 1122 2956 1747 
Q 2956 2369 2687 2733 
Q 2419 3097 1959 3097 
z
M 1959 3584 
Q 2709 3584 3137 3096 
Q 3566 2609 3566 1747 
Q 3566 888 3137 398 
Q 2709 -91 1959 -91 
Q 1206 -91 779 398 
Q 353 888 353 1747 
Q 353 2609 779 3096 
Q 1206 3584 1959 3584 
z
" transform="scale(0.015625)"/>
       <path id="DejaVuSans-66" d="M 2375 4863 
L 2375 4384 
L 1825 4384 
Q 1516 4384 1395 4259 
Q 1275 4134 1275 3809 
L 1275 3500 
L 2222 3500 
L 2222 3053 
L 1275 3053 
L 1275 0 
L 697 0 
L 697 3053 
L 147 3053 
L 147 3500 
L 697 3500 
L 697 3744 
Q 697 4328 969 4595 
Q 1241 4863 1831 4863 
L 2375 4863 
z
" transform="scale(0.015625)"/>
       <path id="DejaVuSans-69" d="M 603 3500 
L 1178 3500 
L 1178 0 
L 603 0 
L 603 3500 
z
M 603 4863 
L 1178 4863 
L 1178 4134 
L 603 4134 
L 603 4863 
z
" transform="scale(0.015625)"/>
       <path id="DejaVuSans-6e" d="M 3513 2113 
L 3513 0 
L 2938 0 
L 2938 2094 
Q 2938 2591 2744 2837 
Q 2550 3084 2163 3084 
Q 1697 3084 1428 2787 
Q 1159 2491 1159 1978 
L 1159 0 
L 581 0 
L 581 3500 
L 1159 3500 
L 1159 2956 
Q 1366 3272 1645 3428 
Q 1925 3584 2291 3584 
Q 2894 3584 3203 3211 
Q 3513 2838 3513 2113 
z
" transform="scale(0.015625)"/>
       <path id="DejaVuSans-74" d="M 1172 4494 
L 1172 3500 
L 2356 3500 
L 2356 3053 
L 1172 3053 
L 1172 1153 
Q 1172 725 1289 603 
Q 1406 481 1766 481 
L 2356 481 
L 2356 0 
L 1766 0 
Q 1100 0 847 248 
Q 594 497 594 1153 
L 594 3053 
L 172 3053 
L 172 3500 
L 594 3500 
L 594 4494 
L 1172 4494 
z
" transform="scale(0.015625)"/>
       <path id="DejaVuSans-20" transform="scale(0.015625)"/>
       <path id="DejaVuSans-64" d="M 2906 2969 
L 2906 4863 
L 3481 4863 
L 3481 0 
L 2906 0 
L 2906 525 
Q 2725 213 2448 61 
Q 2172 -91 1784 -91 
Q 1150 -91 751 415 
Q 353 922 353 1747 
Q 353 2572 751 3078 
Q 1150 3584 1784 3584 
Q 2172 3584 2448 3432 
Q 2725 3281 2906 2969 
z
M 947 1747 
Q 947 1113 1208 752 
Q 1469 391 1925 391 
Q 2381 391 2643 752 
Q 2906 1113 2906 1747 
Q 2906 2381 2643 2742 
Q 2381 3103 1925 3103 
Q 1469 3103 1208 2742 
Q 947 2381 947 1747 
z
" transform="scale(0.015625)"/>
       <path id="DejaVuSans-5f" d="M 3263 -1063 
L 3263 -1509 
L -63 -1509 
L -63 -1063 
L 3263 -1063 
z
" transform="scale(0.015625)"/>
       <path id="DejaVuSans-77" d="M 269 3500 
L 844 3500 
L 1563 769 
L 2278 3500 
L 2956 3500 
L 3675 769 
L 4391 3500 
L 4966 3500 
L 4050 0 
L 3372 0 
L 2619 2869 
L 1863 0 
L 1184 0 
L 269 3500 
z
" transform="scale(0.015625)"/>
      </defs>
      <use xlink:href="#DejaVuSans-43"/>
      <use xlink:href="#DejaVuSans-6f" transform="translate(69.824219 0)"/>
      <use xlink:href="#DejaVuSans-65" transform="translate(131.005859 0)"/>
      <use xlink:href="#DejaVuSans-66" transform="translate(192.529297 0)"/>
      <use xlink:href="#DejaVuSans-66" transform="translate(227.734375 0)"/>
      <use xlink:href="#DejaVuSans-69" transform="translate(262.939453 0)"/>
      <use xlink:href="#DejaVuSans-63" transform="translate(290.722656 0)"/>
      <use xlink:href="#DejaVuSans-69" transform="translate(345.703125 0)"/>
      <use xlink:href="#DejaVuSans-65" transform="translate(373.486328 0)"/>
      <use xlink:href="#DejaVuSans-6e" transform="translate(435.009766 0)"/>
      <use xlink:href="#DejaVuSans-74" transform="translate(498.388672 0)"/>
      <use xlink:href="#DejaVuSans-20" transform="translate(537.597656 0)"/>
      <use xlink:href="#DejaVuSans-6f" transform="translate(569.384766 0)"/>
      <use xlink:href="#DejaVuSans-6e" transform="translate(630.566406 0)"/>
      <use xlink:href="#DejaVuSans-20" transform="translate(693.945312 0)"/>
      <use xlink:href="#DejaVuSans-69" transform="translate(725.732422 0)"/>
      <use xlink:href="#DejaVuSans-6e" transform="translate(753.515625 0)"/>
      <use xlink:href="#DejaVuSans-64" transform="translate(816.894531 0)"/>
      <use xlink:href="#DejaVuSans-5f" transform="translate(880.371094 0)"/>
      <use xlink:href="#DejaVuSans-6f" transform="translate(930.371094 0)"/>
      <use xlink:href="#DejaVuSans-77" transform="translate(991.552734 0)"/>
      <use xlink:href="#DejaVuSans-6e" transform="translate(1073.339844 0)"/>
     </g>
    </g>
   </g>
   <g id="LineCollection_1">
    <path d="M 90.540881 181.932927 
L 90.540881 159.174411 
" clip-path="url(#p83e2c7990e)" style="fill: none; stroke: #1f77b4; stroke-width: 1.8"/>
    <path d="M 220.352023 177.318939 
L 220.352023 164.408869 
" clip-path="url(#p83e2c7990e)" style="fill: none; stroke: #1f77b4; stroke-width: 1.8"/>
    <path d="M 350.163165 168.369128 
L 350.163165 165.756456 
" clip-path="url(#p83e2c7990e)" style="fill: none; stroke: #1f77b4; stroke-width: 1.8"/>
    <path d="M 479.974307 177.222934 
L 479.974307 172.274666 
" clip-path="url(#p83e2c7990e)" style="fill: none; stroke: #1f77b4; stroke-width: 1.8"/>
    <path d="M 609.785449 169.217988 
L 609.785449 168.509757 
" clip-path="url(#p83e2c7990e)" style="fill: none; stroke: #1f77b4; stroke-width: 1.8"/>
    <path d="M 739.596591 170.038322 
L 739.596591 169.45333 
" clip-path="url(#p83e2c7990e)" style="fill: none; stroke: #1f77b4; stroke-width: 1.8"/>
    <path d="M 869.407733 169.861388 
L 869.407733 169.052484 
" clip-path="url(#p83e2c7990e)" style="fill: none; stroke: #1f77b4; stroke-width: 1.8"/>
   </g>
   <g id="line2d_24">
    <defs>
     <path id="m53d8c2eaf5" d="M 3 0 
L -3 -0 
" style="stroke: #1f77b4"/>
    </defs>
    <g clip-path="url(#p83e2c7990e)">
     <use xlink:href="#m53d8c2eaf5" x="90.540881" y="181.932927" style="fill: #1f77b4; stroke: #1f77b4"/>
     <use xlink:href="#m53d8c2eaf5" x="220.352023" y="177.318939" style="fill: #1f77b4; stroke: #1f77b4"/>
     <use xlink:href="#m53d8c2eaf5" x="350.163165" y="168.369128" style="fill: #1f77b4; stroke: #1f77b4"/>
     <use xlink:href="#m53d8c2eaf5" x="479.974307" y="177.222934" style="fill: #1f77b4; stroke: #1f77b4"/>
     <use xlink:href="#m53d8c2eaf5" x="609.785449" y="169.217988" style="fill: #1f77b4; stroke: #1f77b4"/>
     <use xlink:href="#m53d8c2eaf5" x="739.596591" y="170.038322" style="fill: #1f77b4; stroke: #1f77b4"/>
     <use xlink:href="#m53d8c2eaf5" x="869.407733" y="169.861388" style="fill: #1f77b4; stroke: #1f77b4"/>
    </g>
   </g>
   <g id="line2d_25">
    <g clip-path="url(#p83e2c7990e)">
     <use xlink:href="#m53d8c2eaf5" x="90.540881" y="159.174411" style="fill: #1f77b4; stroke: #1f77b4"/>
     <use xlink:href="#m53d8c2eaf5" x="220.352023" y="164.408869" style="fill: #1f77b4; stroke: #1f77b4"/>
     <use xlink:href="#m53d8c2eaf5" x="350.163165" y="165.756456" style="fill: #1f77b4; stroke: #1f77b4"/>
     <use xlink:href="#m53d8c2eaf5" x="479.974307" y="172.274666" style="fill: #1f77b4; stroke: #1f77b4"/>
     <use xlink:href="#m53d8c2eaf5" x="609.785449" y="168.509757" style="fill: #1f77b4; stroke: #1f77b4"/>
     <use xlink:href="#m53d8c2eaf5" x="739.596591" y="169.45333" style="fill: #1f77b4; stroke: #1f77b4"/>
     <use xlink:href="#m53d8c2eaf5" x="869.407733" y="169.052484" style="fill: #1f77b4; stroke: #1f77b4"/>
    </g>
   </g>
   <g id="LineCollection_2">
    <path d="M 113.906886 171.8422 
L 113.906886 159.432278 
" clip-path="url(#p83e2c7990e)" style="fill: none; stroke: #d62728; stroke-width: 1.8"/>
    <path d="M 243.718028 183.896023 
L 243.718028 170.196718 
" clip-path="url(#p83e2c7990e)" style="fill: none; stroke: #d62728; stroke-width: 1.8"/>
    <path d="M 373.52917 170.649237 
L 373.52917 168.831743 
" clip-path="url(#p83e2c7990e)" style="fill: none; stroke: #d62728; stroke-width: 1.8"/>
    <path d="M 503.340313 168.193106 
L 503.340313 163.73264 
" clip-path="url(#p83e2c7990e)" style="fill: none; stroke: #d62728; stroke-width: 1.8"/>
    <path d="M 633.151455 169.751497 
L 633.151455 169.12631 
" clip-path="url(#p83e2c7990e)" style="fill: none; stroke: #d62728; stroke-width: 1.8"/>
    <path d="M 762.962597 176.130284 
L 762.962597 171.090842 
" clip-path="url(#p83e2c7990e)" style="fill: none; stroke: #d62728; stroke-width: 1.8"/>
    <path d="M 892.773739 172.079656 
L 892.773739 170.331577 
" clip-path="url(#p83e2c7990e)" style="fill: none; stroke: #d62728; stroke-width: 1.8"/>
   </g>
   <g id="line2d_26">
    <defs>
     <path id="m3724692271" d="M 3 0 
L -3 -0 
" style="stroke: #d62728"/>
    </defs>
    <g clip-path="url(#p83e2c7990e)">
     <use xlink:href="#m3724692271" x="113.906886" y="171.8422" style="fill: #d62728; stroke: #d62728"/>
     <use xlink:href="#m3724692271" x="243.718028" y="183.896023" style="fill: #d62728; stroke: #d62728"/>
     <use xlink:href="#m3724692271" x="373.52917" y="170.649237" style="fill: #d62728; stroke: #d62728"/>
     <use xlink:href="#m3724692271" x="503.340313" y="168.193106" style="fill: #d62728; stroke: #d62728"/>
     <use xlink:href="#m3724692271" x="633.151455" y="169.751497" style="fill: #d62728; stroke: #d62728"/>
     <use xlink:href="#m3724692271" x="762.962597" y="176.130284" style="fill: #d62728; stroke: #d62728"/>
     <use xlink:href="#m3724692271" x="892.773739" y="172.079656" style="fill: #d62728; stroke: #d62728"/>
    </g>
   </g>
   <g id="line2d_27">
    <g clip-path="url(#p83e2c7990e)">
     <use xlink:href="#m3724692271" x="113.906886" y="159.432278" style="fill: #d62728; stroke: #d62728"/>
     <use xlink:href="#m3724692271" x="243.718028" y="170.196718" style="fill: #d62728; stroke: #d62728"/>
     <use xlink:href="#m3724692271" x="373.52917" y="168.831743" style="fill: #d62728; stroke: #d62728"/>
     <use xlink:href="#m3724692271" x="503.340313" y="163.73264" style="fill: #d62728; stroke: #d62728"/>
     <use xlink:href="#m3724692271" x="633.151455" y="169.12631" style="fill: #d62728; stroke: #d62728"/>
     <use xlink:href="#m3724692271" x="762.962597" y="171.090842" style="fill: #d62728; stroke: #d62728"/>
     <use xlink:href="#m3724692271" x="892.773739" y="170.331577" style="fill: #d62728; stroke: #d62728"/>
    </g>
   </g>
   <g id="LineCollection_3">
    <path d="M 137.272892 286.199607 
L 137.272892 57.641229 
" clip-path="url(#p83e2c7990e)" style="fill: none; stroke: #2ca02c; stroke-width: 1.8"/>
    <path d="M 267.084034 315.507411 
L 267.084034 66.187244 
" clip-path="url(#p83e2c7990e)" style="fill: none; stroke: #2ca02c; stroke-width: 1.8"/>
    <path d="M 396.895176 270.558016 
L 396.895176 236.386007 
" clip-path="url(#p83e2c7990e)" style="fill: none; stroke: #2ca02c; stroke-width: 1.8"/>
    <path d="M 526.706318 235.386913 
L 526.706318 180.417122 
" clip-path="url(#p83e2c7990e)" style="fill: none; stroke: #2ca02c; stroke-width: 1.8"/>
    <path d="M 656.51746 197.980516 
L 656.51746 187.089119 
" clip-path="url(#p83e2c7990e)" style="fill: none; stroke: #2ca02c; stroke-width: 1.8"/>
    <path d="M 786.328602 202.160602 
L 786.328602 155.128891 
" clip-path="url(#p83e2c7990e)" style="fill: none; stroke: #2ca02c; stroke-width: 1.8"/>
    <path d="M 916.139744 208.783888 
L 916.139744 191.199468 
" clip-path="url(#p83e2c7990e)" style="fill: none; stroke: #2ca02c; stroke-width: 1.8"/>
   </g>
   <g id="line2d_28">
    <defs>
     <path id="m46670efd1d" d="M 3 0 
L -3 -0 
" style="stroke: #2ca02c"/>
    </defs>
    <g clip-path="url(#p83e2c7990e)">
     <use xlink:href="#m46670efd1d" x="137.272892" y="286.199607" style="fill: #2ca02c; stroke: #2ca02c"/>
     <use xlink:href="#m46670efd1d" x="267.084034" y="315.507411" style="fill: #2ca02c; stroke: #2ca02c"/>
     <use xlink:href="#m46670efd1d" x="396.895176" y="270.558016" style="fill: #2ca02c; stroke: #2ca02c"/>
     <use xlink:href="#m46670efd1d" x="526.706318" y="235.386913" style="fill: #2ca02c; stroke: #2ca02c"/>
     <use xlink:href="#m46670efd1d" x="656.51746" y="197.980516" style="fill: #2ca02c; stroke: #2ca02c"/>
     <use xlink:href="#m46670efd1d" x="786.328602" y="202.160602" style="fill: #2ca02c; stroke: #2ca02c"/>
     <use xlink:href="#m46670efd1d" x="916.139744" y="208.783888" style="fill: #2ca02c; stroke: #2ca02c"/>
    </g>
   </g>
   <g id="line2d_29">
    <g clip-path="url(#p83e2c7990e)">
     <use xlink:href="#m46670efd1d" x="137.272892" y="57.641229" style="fill: #2ca02c; stroke: #2ca02c"/>
     <use xlink:href="#m46670efd1d" x="267.084034" y="66.187244" style="fill: #2ca02c; stroke: #2ca02c"/>
     <use xlink:href="#m46670efd1d" x="396.895176" y="236.386007" style="fill: #2ca02c; stroke: #2ca02c"/>
     <use xlink:href="#m46670efd1d" x="526.706318" y="180.417122" style="fill: #2ca02c; stroke: #2ca02c"/>
     <use xlink:href="#m46670efd1d" x="656.51746" y="187.089119" style="fill: #2ca02c; stroke: #2ca02c"/>
     <use xlink:href="#m46670efd1d" x="786.328602" y="155.128891" style="fill: #2ca02c; stroke: #2ca02c"/>
     <use xlink:href="#m46670efd1d" x="916.139744" y="191.199468" style="fill: #2ca02c; stroke: #2ca02c"/>
    </g>
   </g>
   <g id="line2d_30">
    <path d="M 49.260938 169.384672 
L 957.419688 169.384672 
" clip-path="url(#p83e2c7990e)" style="fill: none; stroke-dasharray: 3.7,1.6; stroke-dashoffset: 0; stroke: #666666"/>
   </g>
   <g id="line2d_31">
    <path d="M 90.540881 170.553669 
L 220.352023 170.863904 
L 350.163165 167.062792 
L 479.974307 174.7488 
L 609.785449 168.863872 
L 739.596591 169.745826 
L 869.407733 169.456936 
" clip-path="url(#p83e2c7990e)" style="fill: none; stroke: #1f77b4; stroke-width: 1.8; stroke-linecap: square"/>
    <defs>
     <path id="md315661083" d="M 0 2.4 
C 0.636487 2.4 1.246992 2.147121 1.697056 1.697056 
C 2.147121 1.246992 2.4 0.636487 2.4 0 
C 2.4 -0.636487 2.147121 -1.246992 1.697056 -1.697056 
C 1.246992 -2.147121 0.636487 -2.4 0 -2.4 
C -0.636487 -2.4 -1.246992 -2.147121 -1.697056 -1.697056 
C -2.147121 -1.246992 -2.4 -0.636487 -2.4 0 
C -2.4 0.636487 -2.147121 1.246992 -1.697056 1.697056 
C -1.246992 2.147121 -0.636487 2.4 0 2.4 
z
" style="stroke: #1f77b4"/>
    </defs>
    <g clip-path="url(#p83e2c7990e)">
     <use xlink:href="#md315661083" x="90.540881" y="170.553669" style="fill: #1f77b4; stroke: #1f77b4"/>
     <use xlink:href="#md315661083" x="220.352023" y="170.863904" style="fill: #1f77b4; stroke: #1f77b4"/>
     <use xlink:href="#md315661083" x="350.163165" y="167.062792" style="fill: #1f77b4; stroke: #1f77b4"/>
     <use xlink:href="#md315661083" x="479.974307" y="174.7488" style="fill: #1f77b4; stroke: #1f77b4"/>
     <use xlink:href="#md315661083" x="609.785449" y="168.863872" style="fill: #1f77b4; stroke: #1f77b4"/>
     <use xlink:href="#md315661083" x="739.596591" y="169.745826" style="fill: #1f77b4; stroke: #1f77b4"/>
     <use xlink:href="#md315661083" x="869.407733" y="169.456936" style="fill: #1f77b4; stroke: #1f77b4"/>
    </g>
   </g>
   <g id="line2d_32">
    <path d="M 113.906886 165.637239 
L 243.718028 177.04637 
L 373.52917 169.74049 
L 503.340313 165.962873 
L 633.151455 169.438904 
L 762.962597 173.610563 
L 892.773739 171.205616 
" clip-path="url(#p83e2c7990e)" style="fill: none; stroke: #d62728; stroke-width: 1.8; stroke-linecap: square"/>
    <defs>
     <path id="m6386b5ace4" d="M 0 2.4 
C 0.636487 2.4 1.246992 2.147121 1.697056 1.697056 
C 2.147121 1.246992 2.4 0.636487 2.4 0 
C 2.4 -0.636487 2.147121 -1.246992 1.697056 -1.697056 
C 1.246992 -2.147121 0.636487 -2.4 0 -2.4 
C -0.636487 -2.4 -1.246992 -2.147121 -1.697056 -1.697056 
C -2.147121 -1.246992 -2.4 -0.636487 -2.4 0 
C -2.4 0.636487 -2.147121 1.246992 -1.697056 1.697056 
C -1.246992 2.147121 -0.636487 2.4 0 2.4 
z
" style="stroke: #d62728"/>
    </defs>
    <g clip-path="url(#p83e2c7990e)">
     <use xlink:href="#m6386b5ace4" x="113.906886" y="165.637239" style="fill: #d62728; stroke: #d62728"/>
     <use xlink:href="#m6386b5ace4" x="243.718028" y="177.04637" style="fill: #d62728; stroke: #d62728"/>
     <use xlink:href="#m6386b5ace4" x="373.52917" y="169.74049" style="fill: #d62728; stroke: #d62728"/>
     <use xlink:href="#m6386b5ace4" x="503.340313" y="165.962873" style="fill: #d62728; stroke: #d62728"/>
     <use xlink:href="#m6386b5ace4" x="633.151455" y="169.438904" style="fill: #d62728; stroke: #d62728"/>
     <use xlink:href="#m6386b5ace4" x="762.962597" y="173.610563" style="fill: #d62728; stroke: #d62728"/>
     <use xlink:href="#m6386b5ace4" x="892.773739" y="171.205616" style="fill: #d62728; stroke: #d62728"/>
    </g>
   </g>
   <g id="line2d_33">
    <path d="M 137.272892 171.920418 
L 267.084034 190.847327 
L 396.895176 253.472012 
L 526.706318 207.902017 
L 656.51746 192.534817 
L 786.328602 178.644747 
L 916.139744 199.991678 
" clip-path="url(#p83e2c7990e)" style="fill: none; stroke: #2ca02c; stroke-width: 1.8; stroke-linecap: square"/>
    <defs>
     <path id="m31fb4f62d6" d="M 0 2.4 
C 0.636487 2.4 1.246992 2.147121 1.697056 1.697056 
C 2.147121 1.246992 2.4 0.636487 2.4 0 
C 2.4 -0.636487 2.147121 -1.246992 1.697056 -1.697056 
C 1.246992 -2.147121 0.636487 -2.4 0 -2.4 
C -0.636487 -2.4 -1.246992 -2.147121 -1.697056 -1.697056 
C -2.147121 -1.246992 -2.4 -0.636487 -2.4 0 
C -2.4 0.636487 -2.147121 1.246992 -1.697056 1.697056 
C -1.246992 2.147121 -0.636487 2.4 0 2.4 
z
" style="stroke: #2ca02c"/>
    </defs>
    <g clip-path="url(#p83e2c7990e)">
     <use xlink:href="#m31fb4f62d6" x="137.272892" y="171.920418" style="fill: #2ca02c; stroke: #2ca02c"/>
     <use xlink:href="#m31fb4f62d6" x="267.084034" y="190.847327" style="fill: #2ca02c; stroke: #2ca02c"/>
     <use xlink:href="#m31fb4f62d6" x="396.895176" y="253.472012" style="fill: #2ca02c; stroke: #2ca02c"/>
     <use xlink:href="#m31fb4f62d6" x="526.706318" y="207.902017" style="fill: #2ca02c; stroke: #2ca02c"/>
     <use xlink:href="#m31fb4f62d6" x="656.51746" y="192.534817" style="fill: #2ca02c; stroke: #2ca02c"/>
     <use xlink:href="#m31fb4f62d6" x="786.328602" y="178.644747" style="fill: #2ca02c; stroke: #2ca02c"/>
     <use xlink:href="#m31fb4f62d6" x="916.139744" y="199.991678" style="fill: #2ca02c; stroke: #2ca02c"/>
    </g>
   </g>
   <g id="patch_6">
    <path d="M 49.260938 328.40072 
L 49.260938 44.74792 
" style="fill: none; stroke: #000000; stroke-width: 0.8; stroke-linejoin: miter; stroke-linecap: square"/>
   </g>
   <g id="patch_7">
    <path d="M 957.419688 328.40072 
L 957.419688 44.74792 
" style="fill: none; stroke: #000000; stroke-width: 0.8; stroke-linejoin: miter; stroke-linecap: square"/>
   </g>
   <g id="patch_8">
    <path d="M 49.260938 328.40072 
L 957.419688 328.40072 
" style="fill: none; stroke: #000000; stroke-width: 0.8; stroke-linejoin: miter; stroke-linecap: square"/>
   </g>
   <g id="patch_9">
    <path d="M 49.260938 44.74792 
L 957.419688 44.74792 
" style="fill: none; stroke: #000000; stroke-width: 0.8; stroke-linejoin: miter; stroke-linecap: square"/>
   </g>
   <g id="text_17">
    <!-- Cycle-Separated Panel FE: ind_own Coefficients Across Business Cycles -->
    <g transform="translate(289.420625 38.74792) scale(0.12 -0.12)">
     <defs>
      <path id="DejaVuSans-79" d="M 2059 -325 
Q 1816 -950 1584 -1140 
Q 1353 -1331 966 -1331 
L 506 -1331 
L 506 -850 
L 844 -850 
Q 1081 -850 1212 -737 
Q 1344 -625 1503 -206 
L 1606 56 
L 191 3500 
L 800 3500 
L 1894 763 
L 2988 3500 
L 3597 3500 
L 2059 -325 
z
" transform="scale(0.015625)"/>
      <path id="DejaVuSans-6c" d="M 603 4863 
L 1178 4863 
L 1178 0 
L 603 0 
L 603 4863 
z
" transform="scale(0.015625)"/>
      <path id="DejaVuSans-2d" d="M 313 2009 
L 1997 2009 
L 1997 1497 
L 313 1497 
L 313 2009 
z
" transform="scale(0.015625)"/>
      <path id="DejaVuSans-53" d="M 3425 4513 
L 3425 3897 
Q 3066 4069 2747 4153 
Q 2428 4238 2131 4238 
Q 1616 4238 1336 4038 
Q 1056 3838 1056 3469 
Q 1056 3159 1242 3001 
Q 1428 2844 1947 2747 
L 2328 2669 
Q 3034 2534 3370 2195 
Q 3706 1856 3706 1288 
Q 3706 609 3251 259 
Q 2797 -91 1919 -91 
Q 1588 -91 1214 -16 
Q 841 59 441 206 
L 441 856 
Q 825 641 1194 531 
Q 1563 422 1919 422 
Q 2459 422 2753 634 
Q 3047 847 3047 1241 
Q 3047 1584 2836 1778 
Q 2625 1972 2144 2069 
L 1759 2144 
Q 1053 2284 737 2584 
Q 422 2884 422 3419 
Q 422 4038 858 4394 
Q 1294 4750 2059 4750 
Q 2388 4750 2728 4690 
Q 3069 4631 3425 4513 
z
" transform="scale(0.015625)"/>
      <path id="DejaVuSans-61" d="M 2194 1759 
Q 1497 1759 1228 1600 
Q 959 1441 959 1056 
Q 959 750 1161 570 
Q 1363 391 1709 391 
Q 2188 391 2477 730 
Q 2766 1069 2766 1631 
L 2766 1759 
L 2194 1759 
z
M 3341 1997 
L 3341 0 
L 2766 0 
L 2766 531 
Q 2569 213 2275 61 
Q 1981 -91 1556 -91 
Q 1019 -91 701 211 
Q 384 513 384 1019 
Q 384 1609 779 1909 
Q 1175 2209 1959 2209 
L 2766 2209 
L 2766 2266 
Q 2766 2663 2505 2880 
Q 2244 3097 1772 3097 
Q 1472 3097 1187 3025 
Q 903 2953 641 2809 
L 641 3341 
Q 956 3463 1253 3523 
Q 1550 3584 1831 3584 
Q 2591 3584 2966 3190 
Q 3341 2797 3341 1997 
z
" transform="scale(0.015625)"/>
      <path id="DejaVuSans-50" d="M 1259 4147 
L 1259 2394 
L 2053 2394 
Q 2494 2394 2734 2622 
Q 2975 2850 2975 3272 
Q 2975 3691 2734 3919 
Q 2494 4147 2053 4147 
L 1259 4147 
z
M 628 4666 
L 2053 4666 
Q 2838 4666 3239 4311 
Q 3641 3956 3641 3272 
Q 3641 2581 3239 2228 
Q 2838 1875 2053 1875 
L 1259 1875 
L 1259 0 
L 628 0 
L 628 4666 
z
" transform="scale(0.015625)"/>
      <path id="DejaVuSans-46" d="M 628 4666 
L 3309 4666 
L 3309 4134 
L 1259 4134 
L 1259 2759 
L 3109 2759 
L 3109 2228 
L 1259 2228 
L 1259 0 
L 628 0 
L 628 4666 
z
" transform="scale(0.015625)"/>
      <path id="DejaVuSans-45" d="M 628 4666 
L 3578 4666 
L 3578 4134 
L 1259 4134 
L 1259 2753 
L 3481 2753 
L 3481 2222 
L 1259 2222 
L 1259 531 
L 3634 531 
L 3634 0 
L 628 0 
L 628 4666 
z
" transform="scale(0.015625)"/>
      <path id="DejaVuSans-3a" d="M 750 794 
L 1409 794 
L 1409 0 
L 750 0 
L 750 794 
z
M 750 3309 
L 1409 3309 
L 1409 2516 
L 750 2516 
L 750 3309 
z
" transform="scale(0.015625)"/>
      <path id="DejaVuSans-73" d="M 2834 3397 
L 2834 2853 
Q 2591 2978 2328 3040 
Q 2066 3103 1784 3103 
Q 1356 3103 1142 2972 
Q 928 2841 928 2578 
Q 928 2378 1081 2264 
Q 1234 2150 1697 2047 
L 1894 2003 
Q 2506 1872 2764 1633 
Q 3022 1394 3022 966 
Q 3022 478 2636 193 
Q 2250 -91 1575 -91 
Q 1294 -91 989 -36 
Q 684 19 347 128 
L 347 722 
Q 666 556 975 473 
Q 1284 391 1588 391 
Q 1994 391 2212 530 
Q 2431 669 2431 922 
Q 2431 1156 2273 1281 
Q 2116 1406 1581 1522 
L 1381 1569 
Q 847 1681 609 1914 
Q 372 2147 372 2553 
Q 372 3047 722 3315 
Q 1072 3584 1716 3584 
Q 2034 3584 2315 3537 
Q 2597 3491 2834 3397 
z
" transform="scale(0.015625)"/>
      <path id="DejaVuSans-41" d="M 2188 4044 
L 1331 1722 
L 3047 1722 
L 2188 4044 
z
M 1831 4666 
L 2547 4666 
L 4325 0 
L 3669 0 
L 3244 1197 
L 1141 1197 
L 716 0 
L 50 0 
L 1831 4666 
z
" transform="scale(0.015625)"/>
      <path id="DejaVuSans-42" d="M 1259 2228 
L 1259 519 
L 2272 519 
Q 2781 519 3026 730 
Q 3272 941 3272 1375 
Q 3272 1813 3026 2020 
Q 2781 2228 2272 2228 
L 1259 2228 
z
M 1259 4147 
L 1259 2741 
L 2194 2741 
Q 2656 2741 2882 2914 
Q 3109 3088 3109 3444 
Q 3109 3797 2882 3972 
Q 2656 4147 2194 4147 
L 1259 4147 
z
M 628 4666 
L 2241 4666 
Q 2963 4666 3353 4366 
Q 3744 4066 3744 3513 
Q 3744 3084 3544 2831 
Q 3344 2578 2956 2516 
Q 3422 2416 3680 2098 
Q 3938 1781 3938 1306 
Q 3938 681 3513 340 
Q 3088 0 2303 0 
L 628 0 
L 628 4666 
z
" transform="scale(0.015625)"/>
      <path id="DejaVuSans-75" d="M 544 1381 
L 544 3500 
L 1119 3500 
L 1119 1403 
Q 1119 906 1312 657 
Q 1506 409 1894 409 
Q 2359 409 2629 706 
Q 2900 1003 2900 1516 
L 2900 3500 
L 3475 3500 
L 3475 0 
L 2900 0 
L 2900 538 
Q 2691 219 2414 64 
Q 2138 -91 1772 -91 
Q 1169 -91 856 284 
Q 544 659 544 1381 
z
M 1991 3584 
L 1991 3584 
z
" transform="scale(0.015625)"/>
     </defs>
     <use xlink:href="#DejaVuSans-43"/>
     <use xlink:href="#DejaVuSans-79" transform="translate(69.824219 0)"/>
     <use xlink:href="#DejaVuSans-63" transform="translate(129.003906 0)"/>
     <use xlink:href="#DejaVuSans-6c" transform="translate(183.984375 0)"/>
     <use xlink:href="#DejaVuSans-65" transform="translate(211.767578 0)"/>
     <use xlink:href="#DejaVuSans-2d" transform="translate(273.291016 0)"/>
     <use xlink:href="#DejaVuSans-53" transform="translate(309.375 0)"/>
     <use xlink:href="#DejaVuSans-65" transform="translate(372.851562 0)"/>
     <use xlink:href="#DejaVuSans-70" transform="translate(434.375 0)"/>
     <use xlink:href="#DejaVuSans-61" transform="translate(497.851562 0)"/>
     <use xlink:href="#DejaVuSans-72" transform="translate(559.130859 0)"/>
     <use xlink:href="#DejaVuSans-61" transform="translate(600.244141 0)"/>
     <use xlink:href="#DejaVuSans-74" transform="translate(661.523438 0)"/>
     <use xlink:href="#DejaVuSans-65" transform="translate(700.732422 0)"/>
     <use xlink:href="#DejaVuSans-64" transform="translate(762.255859 0)"/>
     <use xlink:href="#DejaVuSans-20" transform="translate(825.732422 0)"/>
     <use xlink:href="#DejaVuSans-50" transform="translate(857.519531 0)"/>
     <use xlink:href="#DejaVuSans-61" transform="translate(913.322266 0)"/>
     <use xlink:href="#DejaVuSans-6e" transform="translate(974.601562 0)"/>
     <use xlink:href="#DejaVuSans-65" transform="translate(1037.980469 0)"/>
     <use xlink:href="#DejaVuSans-6c" transform="translate(1099.503906 0)"/>
     <use xlink:href="#DejaVuSans-20" transform="translate(1127.287109 0)"/>
     <use xlink:href="#DejaVuSans-46" transform="translate(1159.074219 0)"/>
     <use xlink:href="#DejaVuSans-45" transform="translate(1216.59375 0)"/>
     <use xlink:href="#DejaVuSans-3a" transform="translate(1279.777344 0)"/>
     <use xlink:href="#DejaVuSans-20" transform="translate(1313.46875 0)"/>
     <use xlink:href="#DejaVuSans-69" transform="translate(1345.255859 0)"/>
     <use xlink:href="#DejaVuSans-6e" transform="translate(1373.039062 0)"/>
     <use xlink:href="#DejaVuSans-64" transform="translate(1436.417969 0)"/>
     <use xlink:href="#DejaVuSans-5f" transform="translate(1499.894531 0)"/>
     <use xlink:href="#DejaVuSans-6f" transform="translate(1549.894531 0)"/>
     <use xlink:href="#DejaVuSans-77" transform="translate(1611.076172 0)"/>
     <use xlink:href="#DejaVuSans-6e" transform="translate(1692.863281 0)"/>
     <use xlink:href="#DejaVuSans-20" transform="translate(1756.242188 0)"/>
     <use xlink:href="#DejaVuSans-43" transform="translate(1788.029297 0)"/>
     <use xlink:href="#DejaVuSans-6f" transform="translate(1857.853516 0)"/>
     <use xlink:href="#DejaVuSans-65" transform="translate(1919.035156 0)"/>
     <use xlink:href="#DejaVuSans-66" transform="translate(1980.558594 0)"/>
     <use xlink:href="#DejaVuSans-66" transform="translate(2015.763672 0)"/>
     <use xlink:href="#DejaVuSans-69" transform="translate(2050.96875 0)"/>
     <use xlink:href="#DejaVuSans-63" transform="translate(2078.751953 0)"/>
     <use xlink:href="#DejaVuSans-69" transform="translate(2133.732422 0)"/>
     <use xlink:href="#DejaVuSans-65" transform="translate(2161.515625 0)"/>
     <use xlink:href="#DejaVuSans-6e" transform="translate(2223.039062 0)"/>
     <use xlink:href="#DejaVuSans-74" transform="translate(2286.417969 0)"/>
     <use xlink:href="#DejaVuSans-73" transform="translate(2325.626953 0)"/>
     <use xlink:href="#DejaVuSans-20" transform="translate(2377.726562 0)"/>
     <use xlink:href="#DejaVuSans-41" transform="translate(2409.513672 0)"/>
     <use xlink:href="#DejaVuSans-63" transform="translate(2476.171875 0)"/>
     <use xlink:href="#DejaVuSans-72" transform="translate(2531.152344 0)"/>
     <use xlink:href="#DejaVuSans-6f" transform="translate(2570.015625 0)"/>
     <use xlink:href="#DejaVuSans-73" transform="translate(2631.197266 0)"/>
     <use xlink:href="#DejaVuSans-73" transform="translate(2683.296875 0)"/>
     <use xlink:href="#DejaVuSans-20" transform="translate(2735.396484 0)"/>
     <use xlink:href="#DejaVuSans-42" transform="translate(2767.183594 0)"/>
     <use xlink:href="#DejaVuSans-75" transform="translate(2835.787109 0)"/>
     <use xlink:href="#DejaVuSans-73" transform="translate(2899.166016 0)"/>
     <use xlink:href="#DejaVuSans-69" transform="translate(2951.265625 0)"/>
     <use xlink:href="#DejaVuSans-6e" transform="translate(2979.048828 0)"/>
     <use xlink:href="#DejaVuSans-65" transform="translate(3042.427734 0)"/>
     <use xlink:href="#DejaVuSans-73" transform="translate(3103.951172 0)"/>
     <use xlink:href="#DejaVuSans-73" transform="translate(3156.050781 0)"/>
     <use xlink:href="#DejaVuSans-20" transform="translate(3208.150391 0)"/>
     <use xlink:href="#DejaVuSans-43" transform="translate(3239.9375 0)"/>
     <use xlink:href="#DejaVuSans-79" transform="translate(3309.761719 0)"/>
     <use xlink:href="#DejaVuSans-63" transform="translate(3368.941406 0)"/>
     <use xlink:href="#DejaVuSans-6c" transform="translate(3423.921875 0)"/>
     <use xlink:href="#DejaVuSans-65" transform="translate(3451.705078 0)"/>
     <use xlink:href="#DejaVuSans-73" transform="translate(3513.228516 0)"/>
    </g>
   </g>
   <g id="legend_1">
    <g id="LineCollection_4">
     <path d="M 332.290313 20.298437 
L 332.290313 10.298437 
" style="fill: none; stroke: #1f77b4; stroke-width: 1.8"/>
    </g>
    <g id="line2d_34">
     <g>
      <use xlink:href="#m53d8c2eaf5" x="332.290313" y="20.298437" style="fill: #1f77b4; stroke: #1f77b4"/>
     </g>
    </g>
    <g id="line2d_35">
     <g>
      <use xlink:href="#m53d8c2eaf5" x="332.290313" y="10.298437" style="fill: #1f77b4; stroke: #1f77b4"/>
     </g>
    </g>
    <g id="line2d_36">
     <path d="M 322.290313 15.298437 
L 342.290313 15.298437 
" style="fill: none; stroke: #1f77b4; stroke-width: 1.8; stroke-linecap: square"/>
    </g>
    <g id="line2d_37">
     <g>
      <use xlink:href="#md315661083" x="332.290313" y="15.298437" style="fill: #1f77b4; stroke: #1f77b4"/>
     </g>
    </g>
    <g id="text_18">
     <!-- Amihud illiquidity -->
     <g transform="translate(350.290313 18.798437) scale(0.1 -0.1)">
      <defs>
       <path id="DejaVuSans-6d" d="M 3328 2828 
Q 3544 3216 3844 3400 
Q 4144 3584 4550 3584 
Q 5097 3584 5394 3201 
Q 5691 2819 5691 2113 
L 5691 0 
L 5113 0 
L 5113 2094 
Q 5113 2597 4934 2840 
Q 4756 3084 4391 3084 
Q 3944 3084 3684 2787 
Q 3425 2491 3425 1978 
L 3425 0 
L 2847 0 
L 2847 2094 
Q 2847 2600 2669 2842 
Q 2491 3084 2119 3084 
Q 1678 3084 1418 2786 
Q 1159 2488 1159 1978 
L 1159 0 
L 581 0 
L 581 3500 
L 1159 3500 
L 1159 2956 
Q 1356 3278 1631 3431 
Q 1906 3584 2284 3584 
Q 2666 3584 2933 3390 
Q 3200 3197 3328 2828 
z
" transform="scale(0.015625)"/>
       <path id="DejaVuSans-68" d="M 3513 2113 
L 3513 0 
L 2938 0 
L 2938 2094 
Q 2938 2591 2744 2837 
Q 2550 3084 2163 3084 
Q 1697 3084 1428 2787 
Q 1159 2491 1159 1978 
L 1159 0 
L 581 0 
L 581 4863 
L 1159 4863 
L 1159 2956 
Q 1366 3272 1645 3428 
Q 1925 3584 2291 3584 
Q 2894 3584 3203 3211 
Q 3513 2838 3513 2113 
z
" transform="scale(0.015625)"/>
       <path id="DejaVuSans-71" d="M 947 1747 
Q 947 1113 1208 752 
Q 1469 391 1925 391 
Q 2381 391 2643 752 
Q 2906 1113 2906 1747 
Q 2906 2381 2643 2742 
Q 2381 3103 1925 3103 
Q 1469 3103 1208 2742 
Q 947 2381 947 1747 
z
M 2906 525 
Q 2725 213 2448 61 
Q 2172 -91 1784 -91 
Q 1150 -91 751 415 
Q 353 922 353 1747 
Q 353 2572 751 3078 
Q 1150 3584 1784 3584 
Q 2172 3584 2448 3432 
Q 2725 3281 2906 2969 
L 2906 3500 
L 3481 3500 
L 3481 -1331 
L 2906 -1331 
L 2906 525 
z
" transform="scale(0.015625)"/>
      </defs>
      <use xlink:href="#DejaVuSans-41"/>
      <use xlink:href="#DejaVuSans-6d" transform="translate(68.408203 0)"/>
      <use xlink:href="#DejaVuSans-69" transform="translate(165.820312 0)"/>
      <use xlink:href="#DejaVuSans-68" transform="translate(193.603516 0)"/>
      <use xlink:href="#DejaVuSans-75" transform="translate(256.982422 0)"/>
      <use xlink:href="#DejaVuSans-64" transform="translate(320.361328 0)"/>
      <use xlink:href="#DejaVuSans-20" transform="translate(383.837891 0)"/>
      <use xlink:href="#DejaVuSans-69" transform="translate(415.625 0)"/>
      <use xlink:href="#DejaVuSans-6c" transform="translate(443.408203 0)"/>
      <use xlink:href="#DejaVuSans-6c" transform="translate(471.191406 0)"/>
      <use xlink:href="#DejaVuSans-69" transform="translate(498.974609 0)"/>
      <use xlink:href="#DejaVuSans-71" transform="translate(526.757812 0)"/>
      <use xlink:href="#DejaVuSans-75" transform="translate(590.234375 0)"/>
      <use xlink:href="#DejaVuSans-69" transform="translate(653.613281 0)"/>
      <use xlink:href="#DejaVuSans-64" transform="translate(681.396484 0)"/>
      <use xlink:href="#DejaVuSans-69" transform="translate(744.873047 0)"/>
      <use xlink:href="#DejaVuSans-74" transform="translate(772.65625 0)"/>
      <use xlink:href="#DejaVuSans-79" transform="translate(811.865234 0)"/>
     </g>
    </g>
    <g id="LineCollection_5">
     <path d="M 467.393438 20.298437 
L 467.393438 10.298437 
" style="fill: none; stroke: #d62728; stroke-width: 1.8"/>
    </g>
    <g id="line2d_38">
     <g>
      <use xlink:href="#m3724692271" x="467.393438" y="20.298437" style="fill: #d62728; stroke: #d62728"/>
     </g>
    </g>
    <g id="line2d_39">
     <g>
      <use xlink:href="#m3724692271" x="467.393438" y="10.298437" style="fill: #d62728; stroke: #d62728"/>
     </g>
    </g>
    <g id="line2d_40">
     <path d="M 457.393438 15.298437 
L 477.393438 15.298437 
" style="fill: none; stroke: #d62728; stroke-width: 1.8; stroke-linecap: square"/>
    </g>
    <g id="line2d_41">
     <g>
      <use xlink:href="#m6386b5ace4" x="467.393438" y="15.298437" style="fill: #d62728; stroke: #d62728"/>
     </g>
    </g>
    <g id="text_19">
     <!-- Volatility -->
     <g transform="translate(485.393438 18.798437) scale(0.1 -0.1)">
      <defs>
       <path id="DejaVuSans-56" d="M 1831 0 
L 50 4666 
L 709 4666 
L 2188 738 
L 3669 4666 
L 4325 4666 
L 2547 0 
L 1831 0 
z
" transform="scale(0.015625)"/>
      </defs>
      <use xlink:href="#DejaVuSans-56"/>
      <use xlink:href="#DejaVuSans-6f" transform="translate(60.658203 0)"/>
      <use xlink:href="#DejaVuSans-6c" transform="translate(121.839844 0)"/>
      <use xlink:href="#DejaVuSans-61" transform="translate(149.623047 0)"/>
      <use xlink:href="#DejaVuSans-74" transform="translate(210.902344 0)"/>
      <use xlink:href="#DejaVuSans-69" transform="translate(250.111328 0)"/>
      <use xlink:href="#DejaVuSans-6c" transform="translate(277.894531 0)"/>
      <use xlink:href="#DejaVuSans-69" transform="translate(305.677734 0)"/>
      <use xlink:href="#DejaVuSans-74" transform="translate(333.460938 0)"/>
      <use xlink:href="#DejaVuSans-79" transform="translate(372.669922 0)"/>
     </g>
    </g>
    <g id="LineCollection_6">
     <path d="M 558.577813 20.298437 
L 558.577813 10.298437 
" style="fill: none; stroke: #2ca02c; stroke-width: 1.8"/>
    </g>
    <g id="line2d_42">
     <g>
      <use xlink:href="#m46670efd1d" x="558.577813" y="20.298437" style="fill: #2ca02c; stroke: #2ca02c"/>
     </g>
    </g>
    <g id="line2d_43">
     <g>
      <use xlink:href="#m46670efd1d" x="558.577813" y="10.298437" style="fill: #2ca02c; stroke: #2ca02c"/>
     </g>
    </g>
    <g id="line2d_44">
     <path d="M 548.577813 15.298437 
L 568.577813 15.298437 
" style="fill: none; stroke: #2ca02c; stroke-width: 1.8; stroke-linecap: square"/>
    </g>
    <g id="line2d_45">
     <g>
      <use xlink:href="#m31fb4f62d6" x="558.577813" y="15.298437" style="fill: #2ca02c; stroke: #2ca02c"/>
     </g>
    </g>
    <g id="text_20">
     <!-- Price informativeness -->
     <g transform="translate(576.577813 18.798437) scale(0.1 -0.1)">
      <defs>
       <path id="DejaVuSans-76" d="M 191 3500 
L 800 3500 
L 1894 563 
L 2988 3500 
L 3597 3500 
L 2284 0 
L 1503 0 
L 191 3500 
z
" transform="scale(0.015625)"/>
      </defs>
      <use xlink:href="#DejaVuSans-50"/>
      <use xlink:href="#DejaVuSans-72" transform="translate(58.552734 0)"/>
      <use xlink:href="#DejaVuSans-69" transform="translate(99.666016 0)"/>
      <use xlink:href="#DejaVuSans-63" transform="translate(127.449219 0)"/>
      <use xlink:href="#DejaVuSans-65" transform="translate(182.429688 0)"/>
      <use xlink:href="#DejaVuSans-20" transform="translate(243.953125 0)"/>
      <use xlink:href="#DejaVuSans-69" transform="translate(275.740234 0)"/>
      <use xlink:href="#DejaVuSans-6e" transform="translate(303.523438 0)"/>
      <use xlink:href="#DejaVuSans-66" transform="translate(366.902344 0)"/>
      <use xlink:href="#DejaVuSans-6f" transform="translate(402.107422 0)"/>
      <use xlink:href="#DejaVuSans-72" transform="translate(463.289062 0)"/>
      <use xlink:href="#DejaVuSans-6d" transform="translate(502.652344 0)"/>
      <use xlink:href="#DejaVuSans-61" transform="translate(600.064453 0)"/>
      <use xlink:href="#DejaVuSans-74" transform="translate(661.34375 0)"/>
      <use xlink:href="#DejaVuSans-69" transform="translate(700.552734 0)"/>
      <use xlink:href="#DejaVuSans-76" transform="translate(728.335938 0)"/>
      <use xlink:href="#DejaVuSans-65" transform="translate(787.515625 0)"/>
      <use xlink:href="#DejaVuSans-6e" transform="translate(849.039062 0)"/>
      <use xlink:href="#DejaVuSans-65" transform="translate(912.417969 0)"/>
      <use xlink:href="#DejaVuSans-73" transform="translate(973.941406 0)"/>
      <use xlink:href="#DejaVuSans-73" transform="translate(1026.041016 0)"/>
     </g>
    </g>
   </g>
  </g>
 </g>
 <defs>
  <clipPath id="p83e2c7990e">
   <rect x="49.260938" y="44.74792" width="908.15875" height="283.6528"/>
  </clipPath>
 </defs>
</svg>
