<svg xmlns="http://www.w3.org/2000/svg" width="1360" height="460" viewBox="0 0 1360 460">
<style>
text{font-family:Arial,Helvetica,sans-serif;fill:#111827}
.title{font-size:20px;font-weight:700}
.axis{stroke:#374151;stroke-width:1.2}
.grid{stroke:#e5e7eb;stroke-width:1}
.lineA{stroke:#2563eb;stroke-width:2.2;fill:none}
.lineB{stroke:#dc2626;stroke-width:2.2;fill:none}
.ptA{fill:#1d4ed8}
.ptB{fill:#b91c1c}
.lbl{font-size:13px}
.tick{font-size:11px;fill:#4b5563}
</style>
<rect x="0" y="0" width="1360" height="460" fill="white"/>
<text x="680.0" y="34" text-anchor="middle" class="title">IV Coefficient on ind_own Across Bandwidths</text>
<line x1="1100" y1="24" x2="1125" y2="24" class="lineA"/>
<text x="1132" y="28" class="tick">cutoff=1000</text>
<line x1="1215" y1="24" x2="1240" y2="24" class="lineB"/>
<text x="1247" y="28" class="tick">cutoff=2000</text>
<line x1="62" y1="297.28" x2="1328" y2="297.28" stroke="#9ca3af" stroke-width="1" stroke-dasharray="4 4"/>
<rect x="62.00" y="60.00" width="402.00" height="336.00" fill="none" class="axis"/>
<text x="263.00" y="50.00" text-anchor="middle" class="lbl">amihud_illiq</text>
<line x1="62.00" y1="396.00" x2="464.00" y2="396.00" class="grid"/>
<text x="56.00" y="400.00" text-anchor="end" class="tick">-152.02</text>
<line x1="62.00" y1="228.00" x2="464.00" y2="228.00" class="grid"/>
<text x="56.00" y="232.00" text-anchor="end" class="tick">106.69</text>
<line x1="62.00" y1="60.00" x2="464.00" y2="60.00" class="grid"/>
<text x="56.00" y="64.00" text-anchor="end" class="tick">365.40</text>
<path d="M 62.00 297.23 L 129.00 297.28 L 196.00 297.22 L 263.00 297.28 L 330.00 297.25 L 397.00 296.96 L 464.00 297.13" class="lineA"/>
<circle cx="62.00" cy="297.23" r="3.2" class="ptA"/>
<circle cx="129.00" cy="297.28" r="3.2" class="ptA"/>
<circle cx="196.00" cy="297.22" r="3.2" class="ptA"/>
<circle cx="263.00" cy="297.28" r="3.2" class="ptA"/>
<circle cx="330.00" cy="297.25" r="3.2" class="ptA"/>
<circle cx="397.00" cy="296.96" r="3.2" class="ptA"/>
<circle cx="464.00" cy="297.13" r="3.2" class="ptA"/>
<path d="M 62.00 299.87 L 129.00 296.83 L 196.00 297.27 L 263.00 296.98 L 330.00 297.47 L 397.00 297.56 L 464.00 297.47" class="lineB"/>
<circle cx="62.00" cy="299.87" r="3.2" class="ptB"/>
<circle cx="129.00" cy="296.83" r="3.2" class="ptB"/>
<circle cx="196.00" cy="297.27" r="3.2" class="ptB"/>
<circle cx="263.00" cy="296.98" r="3.2" class="ptB"/>
<circle cx="330.00" cy="297.47" r="3.2" class="ptB"/>
<circle cx="397.00" cy="297.56" r="3.2" class="ptB"/>
<circle cx="464.00" cy="297.47" r="3.2" class="ptB"/>
<line x1="62.00" y1="396.00" x2="62.00" y2="400.00" class="axis"/>
<text x="62.00" y="414.00" text-anchor="middle" class="tick">50</text>
<line x1="129.00" y1="396.00" x2="129.00" y2="400.00" class="axis"/>
<text x="129.00" y="414.00" text-anchor="middle" class="tick">100</text>
<line x1="196.00" y1="396.00" x2="196.00" y2="400.00" class="axis"/>
<text x="196.00" y="414.00" text-anchor="middle" class="tick">150</text>
<line x1="263.00" y1="396.00" x2="263.00" y2="400.00" class="axis"/>
<text x="263.00" y="414.00" text-anchor="middle" class="tick">200</text>
<line x1="330.00" y1="396.00" x2="330.00" y2="400.00" class="axis"/>
<text x="330.00" y="414.00" text-anchor="middle" class="tick">300</text>
<line x1="397.00" y1="396.00" x2="397.00" y2="400.00" class="axis"/>
<text x="397.00" y="414.00" text-anchor="middle" class="tick">500</text>
<line x1="464.00" y1="396.00" x2="464.00" y2="400.00" class="axis"/>
<text x="464.00" y="414.00" text-anchor="middle" class="tick">global</text>
<rect x="494.00" y="60.00" width="402.00" height="336.00" fill="none" class="axis"/>
<text x="695.00" y="50.00" text-anchor="middle" class="lbl">volatility</text>
<line x1="494.00" y1="396.00" x2="896.00" y2="396.00" class="grid"/>
<text x="488.00" y="400.00" text-anchor="end" class="tick">-152.02</text>
<line x1="494.00" y1="228.00" x2="896.00" y2="228.00" class="grid"/>
<text x="488.00" y="232.00" text-anchor="end" class="tick">106.69</text>
<line x1="494.00" y1="60.00" x2="896.00" y2="60.00" class="grid"/>
<text x="488.00" y="64.00" text-anchor="end" class="tick">365.40</text>
<path d="M 494.00 295.70 L 561.00 294.77 L 628.00 288.34 L 695.00 294.56 L 762.00 304.34 L 829.00 283.69 L 896.00 298.25" class="lineA"/>
<circle cx="494.00" cy="295.70" r="3.2" class="ptA"/>
<circle cx="561.00" cy="294.77" r="3.2" class="ptA"/>
<circle cx="628.00" cy="288.34" r="3.2" class="ptA"/>
<circle cx="695.00" cy="294.56" r="3.2" class="ptA"/>
<circle cx="762.00" cy="304.34" r="3.2" class="ptA"/>
<circle cx="829.00" cy="283.69" r="3.2" class="ptA"/>
<circle cx="896.00" cy="298.25" r="3.2" class="ptA"/>
<path d="M 494.00 297.65 L 561.00 296.52 L 628.00 297.79 L 695.00 292.80 L 762.00 296.41 L 829.00 299.70 L 896.00 297.40" class="lineB"/>
<circle cx="494.00" cy="297.65" r="3.2" class="ptB"/>
<circle cx="561.00" cy="296.52" r="3.2" class="ptB"/>
<circle cx="628.00" cy="297.79" r="3.2" class="ptB"/>
<circle cx="695.00" cy="292.80" r="3.2" class="ptB"/>
<circle cx="762.00" cy="296.41" r="3.2" class="ptB"/>
<circle cx="829.00" cy="299.70" r="3.2" class="ptB"/>
<circle cx="896.00" cy="297.40" r="3.2" class="ptB"/>
<line x1="494.00" y1="396.00" x2="494.00" y2="400.00" class="axis"/>
<text x="494.00" y="414.00" text-anchor="middle" class="tick">50</text>
<line x1="561.00" y1="396.00" x2="561.00" y2="400.00" class="axis"/>
<text x="561.00" y="414.00" text-anchor="middle" class="tick">100</text>
<line x1="628.00" y1="396.00" x2="628.00" y2="400.00" class="axis"/>
<text x="628.00" y="414.00" text-anchor="middle" class="tick">150</text>
<line x1="695.00" y1="396.00" x2="695.00" y2="400.00" class="axis"/>
<text x="695.00" y="414.00" text-anchor="middle" class="tick">200</text>
<line x1="762.00" y1="396.00" x2="762.00" y2="400.00" class="axis"/>
<text x="762.00" y="414.00" text-anchor="middle" class="tick">300</text>
<line x1="829.00" y1="396.00" x2="829.00" y2="400.00" class="axis"/>
<text x="829.00" y="414.00" text-anchor="middle" class="tick">500</text>
<line x1="896.00" y1="396.00" x2="896.00" y2="400.00" class="axis"/>
<text x="896.00" y="414.00" text-anchor="middle" class="tick">global</text>
<rect x="926.00" y="60.00" width="402.00" height="336.00" fill="none" class="axis"/>
<text x="1127.00" y="50.00" text-anchor="middle" class="lbl">price_info</text>
<line x1="926.00" y1="396.00" x2="1328.00" y2="396.00" class="grid"/>
<text x="920.00" y="400.00" text-anchor="end" class="tick">-152.02</text>
<line x1="926.00" y1="228.00" x2="1328.00" y2="228.00" class="grid"/>
<text x="920.00" y="232.00" text-anchor="end" class="tick">106.69</text>
<line x1="926.00" y1="60.00" x2="1328.00" y2="60.00" class="grid"/>
<text x="920.00" y="64.00" text-anchor="end" class="tick">365.40</text>
<path d="M 926.00 283.43 L 993.00 286.31 L 1060.00 278.05 L 1127.00 283.18 L 1194.00 88.00 L 1261.00 226.09 L 1328.00 301.10" class="lineA"/>
<circle cx="926.00" cy="283.43" r="3.2" class="ptA"/>
<circle cx="993.00" cy="286.31" r="3.2" class="ptA"/>
<circle cx="1060.00" cy="278.05" r="3.2" class="ptA"/>
<circle cx="1127.00" cy="283.18" r="3.2" class="ptA"/>
<circle cx="1194.00" cy="88.00" r="3.2" class="ptA"/>
<circle cx="1261.00" cy="226.09" r="3.2" class="ptA"/>
<circle cx="1328.00" cy="301.10" r="3.2" class="ptA"/>
<path d="M 926.00 236.85 L 993.00 368.00 L 1060.00 299.88 L 1127.00 222.59 L 1194.00 287.15 L 1261.00 276.27 L 1328.00 305.13" class="lineB"/>
<circle cx="926.00" cy="236.85" r="3.2" class="ptB"/>
<circle cx="993.00" cy="368.00" r="3.2" class="ptB"/>
<circle cx="1060.00" cy="299.88" r="3.2" class="ptB"/>
<circle cx="1127.00" cy="222.59" r="3.2" class="ptB"/>
<circle cx="1194.00" cy="287.15" r="3.2" class="ptB"/>
<circle cx="1261.00" cy="276.27" r="3.2" class="ptB"/>
<circle cx="1328.00" cy="305.13" r="3.2" class="ptB"/>
<line x1="926.00" y1="396.00" x2="926.00" y2="400.00" class="axis"/>
<text x="926.00" y="414.00" text-anchor="middle" class="tick">50</text>
<line x1="993.00" y1="396.00" x2="993.00" y2="400.00" class="axis"/>
<text x="993.00" y="414.00" text-anchor="middle" class="tick">100</text>
<line x1="1060.00" y1="396.00" x2="1060.00" y2="400.00" class="axis"/>
<text x="1060.00" y="414.00" text-anchor="middle" class="tick">150</text>
<line x1="1127.00" y1="396.00" x2="1127.00" y2="400.00" class="axis"/>
<text x="1127.00" y="414.00" text-anchor="middle" class="tick">200</text>
<line x1="1194.00" y1="396.00" x2="1194.00" y2="400.00" class="axis"/>
<text x="1194.00" y="414.00" text-anchor="middle" class="tick">300</text>
<line x1="1261.00" y1="396.00" x2="1261.00" y2="400.00" class="axis"/>
<text x="1261.00" y="414.00" text-anchor="middle" class="tick">500</text>
<line x1="1328.00" y1="396.00" x2="1328.00" y2="400.00" class="axis"/>
<text x="1328.00" y="414.00" text-anchor="middle" class="tick">global</text>
<text x="24" y="228.00" transform="rotate(-90 24 228.00)" text-anchor="middle" class="lbl">2SLS coefficient</text>
<text x="680.00" y="444.00" text-anchor="middle" class="lbl">Bandwidth</text>
</svg>