<svg xmlns="http://www.w3.org/2000/svg" width="1100" height="500" viewBox="0 0 1100 500">
<style>
text{font-family:Arial,Helvetica,sans-serif;fill:#1f2937}
.title{font-size:22px;font-weight:700}
.axis{stroke:#374151;stroke-width:1.2}
.grid{stroke:#e5e7eb;stroke-width:1}
.ci{stroke:#2563eb;stroke-width:2.6}
.pt{fill:#1d4ed8}
.lbl{font-size:14px}
.tick{font-size:12px;fill:#4b5563}
</style>
<rect x="0" y="0" width="1100" height="500" fill="white"/>
<text x="550.0" y="30" text-anchor="middle" class="title">IV Effect of ind_own (95% CI)</text>
<line x1="270.00" y1="50" x2="270.00" y2="430" class="grid"/>
<text x="270.00" y="452" text-anchor="middle" class="tick">-50.38</text>
<line x1="395.00" y1="50" x2="395.00" y2="430" class="grid"/>
<text x="395.00" y="452" text-anchor="middle" class="tick">-39.61</text>
<line x1="520.00" y1="50" x2="520.00" y2="430" class="grid"/>
<text x="520.00" y="452" text-anchor="middle" class="tick">-28.85</text>
<line x1="645.00" y1="50" x2="645.00" y2="430" class="grid"/>
<text x="645.00" y="452" text-anchor="middle" class="tick">-18.08</text>
<line x1="770.00" y1="50" x2="770.00" y2="430" class="grid"/>
<text x="770.00" y="452" text-anchor="middle" class="tick">-7.31</text>
<line x1="895.00" y1="50" x2="895.00" y2="430" class="grid"/>
<text x="895.00" y="452" text-anchor="middle" class="tick">3.46</text>
<line x1="1020.00" y1="50" x2="1020.00" y2="430" class="grid"/>
<text x="1020.00" y="452" text-anchor="middle" class="tick">14.23</text>
<line x1="854.83" y1="50" x2="854.83" y2="430" stroke="#111827" stroke-width="1.5" stroke-dasharray="5 4"/>
<text x="860.83" y="64" class="tick">0</text>
<line x1="270" y1="50" x2="270" y2="430" class="axis"/>
<line x1="270" y1="430" x2="1020" y2="430" class="axis"/>
<line x1="849.27" y1="113.33" x2="855.76" y2="113.33" class="ci"/>
<line x1="849.27" y1="107.33" x2="849.27" y2="119.33" class="ci"/>
<line x1="855.76" y1="107.33" x2="855.76" y2="119.33" class="ci"/>
<circle cx="852.52" cy="113.33" r="5.2" class="pt"/>
<text x="256" y="118.33" text-anchor="end" class="lbl">amihud_illiq</text>
<text x="1028" y="118.33" class="tick">-0.199 [-0.479, 0.080]</text>
<line x1="770.75" y1="240.00" x2="852.81" y2="240.00" class="ci"/>
<line x1="770.75" y1="234.00" x2="770.75" y2="246.00" class="ci"/>
<line x1="852.81" y1="234.00" x2="852.81" y2="246.00" class="ci"/>
<circle cx="811.78" cy="240.00" r="5.2" class="pt"/>
<text x="256" y="245.00" text-anchor="end" class="lbl">volatility</text>
<text x="1028" y="245.00" class="tick">-3.709 [-7.244, -0.174]</text>
<line x1="310.18" y1="366.67" x2="979.82" y2="366.67" class="ci"/>
<line x1="310.18" y1="360.67" x2="310.18" y2="372.67" class="ci"/>
<line x1="979.82" y1="360.67" x2="979.82" y2="372.67" class="ci"/>
<circle cx="645.00" cy="366.67" r="5.2" class="pt"/>
<text x="256" y="371.67" text-anchor="end" class="lbl">price_info</text>
<text x="1028" y="371.67" class="tick">-18.077 [-46.921, 10.768]</text>
<text x="645.00" y="482" text-anchor="middle" class="lbl">Coefficient on ind_own</text>
</svg>