<svg xmlns="http://www.w3.org/2000/svg" width="1320" height="500" viewBox="0 0 1320 500">
<style>
text{font-family:Arial,Helvetica,sans-serif;fill:#111827}
.title{font-size:19px;font-weight:700}
.axis{stroke:#374151;stroke-width:1.2}
.grid{stroke:#e5e7eb;stroke-width:1}
.shade{fill:#f3f4f6}
.lbl{font-size:13px}
.tick{font-size:11px;fill:#4b5563}
</style>
<rect x="0" y="0" width="1320" height="500" fill="white"/>
<text x="660.0" y="34" text-anchor="middle" class="title">Size-Sorted Pre/Post Around Russell 2000 Reconstitution (|Rank-2000| ≤ 100)</text>
<rect x="262.83" y="62.00" width="190.83" height="360.00" class="shade"/>
<rect x="72.00" y="62.00" width="381.67" height="360.00" fill="none" class="axis"/>
<text x="262.83" y="50.00" text-anchor="middle" class="lbl">amihud_illiq</text>
<line x1="72.00" y1="422.00" x2="453.67" y2="422.00" class="grid"/>
<line x1="72.00" y1="242.00" x2="453.67" y2="242.00" class="grid"/>
<line x1="72.00" y1="62.00" x2="453.67" y2="62.00" class="grid"/>
<path d="M 72.00 361.68 L 167.42 362.48 L 262.83 363.05 L 358.25 363.96 L 453.67 361.73" stroke="#2563eb" stroke-width="2.2" fill="none"/>
<circle cx="72.00" cy="361.68" r="2.9" fill="#1d4ed8"/>
<circle cx="167.42" cy="362.48" r="2.9" fill="#1d4ed8"/>
<circle cx="262.83" cy="363.05" r="2.9" fill="#1d4ed8"/>
<circle cx="358.25" cy="363.96" r="2.9" fill="#1d4ed8"/>
<circle cx="453.67" cy="361.73" r="2.9" fill="#1d4ed8"/>
<path d="M 72.00 385.75 L 167.42 386.60 L 262.83 386.96 L 358.25 386.84 L 453.67 386.87" stroke="#dc2626" stroke-width="2.2" fill="none"/>
<circle cx="72.00" cy="385.75" r="2.9" fill="#b91c1c"/>
<circle cx="167.42" cy="386.60" r="2.9" fill="#b91c1c"/>
<circle cx="262.83" cy="386.96" r="2.9" fill="#b91c1c"/>
<circle cx="358.25" cy="386.84" r="2.9" fill="#b91c1c"/>
<circle cx="453.67" cy="386.87" r="2.9" fill="#b91c1c"/>
<path d="M 72.00 386.72 L 167.42 387.16 L 262.83 386.66 L 358.25 386.56 L 453.67 386.65" stroke="#059669" stroke-width="2.2" fill="none"/>
<circle cx="72.00" cy="386.72" r="2.9" fill="#047857"/>
<circle cx="167.42" cy="387.16" r="2.9" fill="#047857"/>
<circle cx="262.83" cy="386.66" r="2.9" fill="#047857"/>
<circle cx="358.25" cy="386.56" r="2.9" fill="#047857"/>
<circle cx="453.67" cy="386.65" r="2.9" fill="#047857"/>
<line x1="72.00" y1="422.00" x2="72.00" y2="426.00" class="axis"/>
<text x="72.00" y="440.00" text-anchor="middle" class="tick">-2</text>
<line x1="167.42" y1="422.00" x2="167.42" y2="426.00" class="axis"/>
<text x="167.42" y="440.00" text-anchor="middle" class="tick">-1</text>
<line x1="262.83" y1="422.00" x2="262.83" y2="426.00" class="axis"/>
<text x="262.83" y="440.00" text-anchor="middle" class="tick">0</text>
<line x1="358.25" y1="422.00" x2="358.25" y2="426.00" class="axis"/>
<text x="358.25" y="440.00" text-anchor="middle" class="tick">1</text>
<line x1="453.67" y1="422.00" x2="453.67" y2="426.00" class="axis"/>
<text x="453.67" y="440.00" text-anchor="middle" class="tick">2</text>
<rect x="678.50" y="62.00" width="190.83" height="360.00" class="shade"/>
<rect x="487.67" y="62.00" width="381.67" height="360.00" fill="none" class="axis"/>
<text x="678.50" y="50.00" text-anchor="middle" class="lbl">volatility</text>
<line x1="487.67" y1="422.00" x2="869.33" y2="422.00" class="grid"/>
<line x1="487.67" y1="242.00" x2="869.33" y2="242.00" class="grid"/>
<line x1="487.67" y1="62.00" x2="869.33" y2="62.00" class="grid"/>
<path d="M 487.67 328.78 L 583.08 328.43 L 678.50 332.90 L 773.92 334.65 L 869.33 330.92" stroke="#2563eb" stroke-width="2.2" fill="none"/>
<circle cx="487.67" cy="328.78" r="2.9" fill="#1d4ed8"/>
<circle cx="583.08" cy="328.43" r="2.9" fill="#1d4ed8"/>
<circle cx="678.50" cy="332.90" r="2.9" fill="#1d4ed8"/>
<circle cx="773.92" cy="334.65" r="2.9" fill="#1d4ed8"/>
<circle cx="869.33" cy="330.92" r="2.9" fill="#1d4ed8"/>
<path d="M 487.67 325.14 L 583.08 327.06 L 678.50 332.08 L 773.92 330.07 L 869.33 327.81" stroke="#dc2626" stroke-width="2.2" fill="none"/>
<circle cx="487.67" cy="325.14" r="2.9" fill="#b91c1c"/>
<circle cx="583.08" cy="327.06" r="2.9" fill="#b91c1c"/>
<circle cx="678.50" cy="332.08" r="2.9" fill="#b91c1c"/>
<circle cx="773.92" cy="330.07" r="2.9" fill="#b91c1c"/>
<circle cx="869.33" cy="327.81" r="2.9" fill="#b91c1c"/>
<path d="M 487.67 318.07 L 583.08 317.36 L 678.50 319.46 L 773.92 323.16 L 869.33 319.41" stroke="#059669" stroke-width="2.2" fill="none"/>
<circle cx="487.67" cy="318.07" r="2.9" fill="#047857"/>
<circle cx="583.08" cy="317.36" r="2.9" fill="#047857"/>
<circle cx="678.50" cy="319.46" r="2.9" fill="#047857"/>
<circle cx="773.92" cy="323.16" r="2.9" fill="#047857"/>
<circle cx="869.33" cy="319.41" r="2.9" fill="#047857"/>
<line x1="487.67" y1="422.00" x2="487.67" y2="426.00" class="axis"/>
<text x="487.67" y="440.00" text-anchor="middle" class="tick">-2</text>
<line x1="583.08" y1="422.00" x2="583.08" y2="426.00" class="axis"/>
<text x="583.08" y="440.00" text-anchor="middle" class="tick">-1</text>
<line x1="678.50" y1="422.00" x2="678.50" y2="426.00" class="axis"/>
<text x="678.50" y="440.00" text-anchor="middle" class="tick">0</text>
<line x1="773.92" y1="422.00" x2="773.92" y2="426.00" class="axis"/>
<text x="773.92" y="440.00" text-anchor="middle" class="tick">1</text>
<line x1="869.33" y1="422.00" x2="869.33" y2="426.00" class="axis"/>
<text x="869.33" y="440.00" text-anchor="middle" class="tick">2</text>
<rect x="1094.17" y="62.00" width="190.83" height="360.00" class="shade"/>
<rect x="903.33" y="62.00" width="381.67" height="360.00" fill="none" class="axis"/>
<text x="1094.17" y="50.00" text-anchor="middle" class="lbl">price_info</text>
<line x1="903.33" y1="422.00" x2="1285.00" y2="422.00" class="grid"/>
<line x1="903.33" y1="242.00" x2="1285.00" y2="242.00" class="grid"/>
<line x1="903.33" y1="62.00" x2="1285.00" y2="62.00" class="grid"/>
<path d="M 903.33 142.84 L 998.75 144.40 L 1094.17 156.68 L 1189.58 174.70 L 1285.00 163.31" stroke="#2563eb" stroke-width="2.2" fill="none"/>
<circle cx="903.33" cy="142.84" r="2.9" fill="#1d4ed8"/>
<circle cx="998.75" cy="144.40" r="2.9" fill="#1d4ed8"/>
<circle cx="1094.17" cy="156.68" r="2.9" fill="#1d4ed8"/>
<circle cx="1189.58" cy="174.70" r="2.9" fill="#1d4ed8"/>
<circle cx="1285.00" cy="163.31" r="2.9" fill="#1d4ed8"/>
<path d="M 903.33 111.88 L 998.75 104.62 L 1094.17 128.50 L 1189.58 134.83 L 1285.00 120.55" stroke="#dc2626" stroke-width="2.2" fill="none"/>
<circle cx="903.33" cy="111.88" r="2.9" fill="#b91c1c"/>
<circle cx="998.75" cy="104.62" r="2.9" fill="#b91c1c"/>
<circle cx="1094.17" cy="128.50" r="2.9" fill="#b91c1c"/>
<circle cx="1189.58" cy="134.83" r="2.9" fill="#b91c1c"/>
<circle cx="1285.00" cy="120.55" r="2.9" fill="#b91c1c"/>
<path d="M 903.33 96.84 L 998.75 103.22 L 1094.17 106.17 L 1189.58 101.22 L 1285.00 98.87" stroke="#059669" stroke-width="2.2" fill="none"/>
<circle cx="903.33" cy="96.84" r="2.9" fill="#047857"/>
<circle cx="998.75" cy="103.22" r="2.9" fill="#047857"/>
<circle cx="1094.17" cy="106.17" r="2.9" fill="#047857"/>
<circle cx="1189.58" cy="101.22" r="2.9" fill="#047857"/>
<circle cx="1285.00" cy="98.87" r="2.9" fill="#047857"/>
<line x1="903.33" y1="422.00" x2="903.33" y2="426.00" class="axis"/>
<text x="903.33" y="440.00" text-anchor="middle" class="tick">-2</text>
<line x1="998.75" y1="422.00" x2="998.75" y2="426.00" class="axis"/>
<text x="998.75" y="440.00" text-anchor="middle" class="tick">-1</text>
<line x1="1094.17" y1="422.00" x2="1094.17" y2="426.00" class="axis"/>
<text x="1094.17" y="440.00" text-anchor="middle" class="tick">0</text>
<line x1="1189.58" y1="422.00" x2="1189.58" y2="426.00" class="axis"/>
<text x="1189.58" y="440.00" text-anchor="middle" class="tick">1</text>
<line x1="1285.00" y1="422.00" x2="1285.00" y2="426.00" class="axis"/>
<text x="1285.00" y="440.00" text-anchor="middle" class="tick">2</text>
<text x="660.00" y="468.00" text-anchor="middle" class="lbl">Event time tau in quarters (0=June reconstitution); size buckets formed by year using pre-reconstitution (tau=-1) market cap terciles</text>
<line x1="490.00" y1="486.00" x2="514.00" y2="486.00" stroke="#2563eb" stroke-width="2.2"/>
<text x="520.00" y="490.00" class="tick">Small</text>
<line x1="585.00" y1="486.00" x2="609.00" y2="486.00" stroke="#dc2626" stroke-width="2.2"/>
<text x="615.00" y="490.00" class="tick">Mid</text>
<line x1="670.00" y1="486.00" x2="694.00" y2="486.00" stroke="#059669" stroke-width="2.2"/>
<text x="700.00" y="490.00" class="tick">Large</text>
</svg>