<svg xmlns="http://www.w3.org/2000/svg" width="1360" height="460" viewBox="0 0 1360 460">
<style>
text{font-family:Arial,Helvetica,sans-serif;fill:#111827}
.title{font-size:20px;font-weight:700}
.axis{stroke:#374151;stroke-width:1.2}
.grid{stroke:#e5e7eb;stroke-width:1}
.lineA{stroke:#2563eb;stroke-width:2.2;fill:none}
.lineB{stroke:#dc2626;stroke-width:2.2;fill:none}
.ptA{fill:#1d4ed8}
.ptB{fill:#b91c1c}
.lbl{font-size:13px}
.tick{font-size:11px;fill:#4b5563}
</style>
<rect x="0" y="0" width="1360" height="460" fill="white"/>
<text x="680.0" y="34" text-anchor="middle" class="title">First-Stage F Across Bandwidths</text>
<line x1="1100" y1="24" x2="1125" y2="24" class="lineA"/>
<text x="1132" y="28" class="tick">cutoff=1000</text>
<line x1="1215" y1="24" x2="1240" y2="24" class="lineB"/>
<text x="1247" y="28" class="tick">cutoff=2000</text>
<line x1="62" y1="368.02" x2="1328" y2="368.02" stroke="#9ca3af" stroke-width="1" stroke-dasharray="4 4"/>
<rect x="62.00" y="60.00" width="402.00" height="336.00" fill="none" class="axis"/>
<text x="263.00" y="50.00" text-anchor="middle" class="lbl">amihud_illiq</text>
<line x1="62.00" y1="396.00" x2="464.00" y2="396.00" class="grid"/>
<text x="56.00" y="400.00" text-anchor="end" class="tick">-13.10</text>
<line x1="62.00" y1="228.00" x2="464.00" y2="228.00" class="grid"/>
<text x="56.00" y="232.00" text-anchor="end" class="tick">65.59</text>
<line x1="62.00" y1="60.00" x2="464.00" y2="60.00" class="grid"/>
<text x="56.00" y="64.00" text-anchor="end" class="tick">144.28</text>
<path d="M 62.00 362.78 L 129.00 363.40 L 196.00 367.10 L 263.00 363.45 L 330.00 367.98 L 397.00 367.91 L 464.00 308.69" class="lineA"/>
<circle cx="62.00" cy="362.78" r="3.2" class="ptA"/>
<circle cx="129.00" cy="363.40" r="3.2" class="ptA"/>
<circle cx="196.00" cy="367.10" r="3.2" class="ptA"/>
<circle cx="263.00" cy="363.45" r="3.2" class="ptA"/>
<circle cx="330.00" cy="367.98" r="3.2" class="ptA"/>
<circle cx="397.00" cy="367.91" r="3.2" class="ptA"/>
<circle cx="464.00" cy="308.69" r="3.2" class="ptA"/>
<path d="M 62.00 367.99 L 129.00 367.94 L 196.00 364.99 L 263.00 367.88 L 330.00 366.34 L 397.00 366.29 L 464.00 88.00" class="lineB"/>
<circle cx="62.00" cy="367.99" r="3.2" class="ptB"/>
<circle cx="129.00" cy="367.94" r="3.2" class="ptB"/>
<circle cx="196.00" cy="364.99" r="3.2" class="ptB"/>
<circle cx="263.00" cy="367.88" r="3.2" class="ptB"/>
<circle cx="330.00" cy="366.34" r="3.2" class="ptB"/>
<circle cx="397.00" cy="366.29" r="3.2" class="ptB"/>
<circle cx="464.00" cy="88.00" r="3.2" class="ptB"/>
<line x1="62.00" y1="396.00" x2="62.00" y2="400.00" class="axis"/>
<text x="62.00" y="414.00" text-anchor="middle" class="tick">50</text>
<line x1="129.00" y1="396.00" x2="129.00" y2="400.00" class="axis"/>
<text x="129.00" y="414.00" text-anchor="middle" class="tick">100</text>
<line x1="196.00" y1="396.00" x2="196.00" y2="400.00" class="axis"/>
<text x="196.00" y="414.00" text-anchor="middle" class="tick">150</text>
<line x1="263.00" y1="396.00" x2="263.00" y2="400.00" class="axis"/>
<text x="263.00" y="414.00" text-anchor="middle" class="tick">200</text>
<line x1="330.00" y1="396.00" x2="330.00" y2="400.00" class="axis"/>
<text x="330.00" y="414.00" text-anchor="middle" class="tick">300</text>
<line x1="397.00" y1="396.00" x2="397.00" y2="400.00" class="axis"/>
<text x="397.00" y="414.00" text-anchor="middle" class="tick">500</text>
<line x1="464.00" y1="396.00" x2="464.00" y2="400.00" class="axis"/>
<text x="464.00" y="414.00" text-anchor="middle" class="tick">global</text>
<rect x="494.00" y="60.00" width="402.00" height="336.00" fill="none" class="axis"/>
<text x="695.00" y="50.00" text-anchor="middle" class="lbl">volatility</text>
<line x1="494.00" y1="396.00" x2="896.00" y2="396.00" class="grid"/>
<text x="488.00" y="400.00" text-anchor="end" class="tick">-13.10</text>
<line x1="494.00" y1="228.00" x2="896.00" y2="228.00" class="grid"/>
<text x="488.00" y="232.00" text-anchor="end" class="tick">65.59</text>
<line x1="494.00" y1="60.00" x2="896.00" y2="60.00" class="grid"/>
<text x="488.00" y="64.00" text-anchor="end" class="tick">144.28</text>
<path d="M 494.00 362.78 L 561.00 363.35 L 628.00 367.11 L 695.00 363.43 L 762.00 367.97 L 829.00 367.93 L 896.00 309.74" class="lineA"/>
<circle cx="494.00" cy="362.78" r="3.2" class="ptA"/>
<circle cx="561.00" cy="363.35" r="3.2" class="ptA"/>
<circle cx="628.00" cy="367.11" r="3.2" class="ptA"/>
<circle cx="695.00" cy="363.43" r="3.2" class="ptA"/>
<circle cx="762.00" cy="367.97" r="3.2" class="ptA"/>
<circle cx="829.00" cy="367.93" r="3.2" class="ptA"/>
<circle cx="896.00" cy="309.74" r="3.2" class="ptA"/>
<path d="M 494.00 368.00 L 561.00 367.92 L 628.00 364.88 L 695.00 367.93 L 762.00 366.54 L 829.00 366.42 L 896.00 92.67" class="lineB"/>
<circle cx="494.00" cy="368.00" r="3.2" class="ptB"/>
<circle cx="561.00" cy="367.92" r="3.2" class="ptB"/>
<circle cx="628.00" cy="364.88" r="3.2" class="ptB"/>
<circle cx="695.00" cy="367.93" r="3.2" class="ptB"/>
<circle cx="762.00" cy="366.54" r="3.2" class="ptB"/>
<circle cx="829.00" cy="366.42" r="3.2" class="ptB"/>
<circle cx="896.00" cy="92.67" r="3.2" class="ptB"/>
<line x1="494.00" y1="396.00" x2="494.00" y2="400.00" class="axis"/>
<text x="494.00" y="414.00" text-anchor="middle" class="tick">50</text>
<line x1="561.00" y1="396.00" x2="561.00" y2="400.00" class="axis"/>
<text x="561.00" y="414.00" text-anchor="middle" class="tick">100</text>
<line x1="628.00" y1="396.00" x2="628.00" y2="400.00" class="axis"/>
<text x="628.00" y="414.00" text-anchor="middle" class="tick">150</text>
<line x1="695.00" y1="396.00" x2="695.00" y2="400.00" class="axis"/>
<text x="695.00" y="414.00" text-anchor="middle" class="tick">200</text>
<line x1="762.00" y1="396.00" x2="762.00" y2="400.00" class="axis"/>
<text x="762.00" y="414.00" text-anchor="middle" class="tick">300</text>
<line x1="829.00" y1="396.00" x2="829.00" y2="400.00" class="axis"/>
<text x="829.00" y="414.00" text-anchor="middle" class="tick">500</text>
<line x1="896.00" y1="396.00" x2="896.00" y2="400.00" class="axis"/>
<text x="896.00" y="414.00" text-anchor="middle" class="tick">global</text>
<rect x="926.00" y="60.00" width="402.00" height="336.00" fill="none" class="axis"/>
<text x="1127.00" y="50.00" text-anchor="middle" class="lbl">price_info</text>
<line x1="926.00" y1="396.00" x2="1328.00" y2="396.00" class="grid"/>
<text x="920.00" y="400.00" text-anchor="end" class="tick">-13.10</text>
<line x1="926.00" y1="228.00" x2="1328.00" y2="228.00" class="grid"/>
<text x="920.00" y="232.00" text-anchor="end" class="tick">65.59</text>
<line x1="926.00" y1="60.00" x2="1328.00" y2="60.00" class="grid"/>
<text x="920.00" y="64.00" text-anchor="end" class="tick">144.28</text>
<path d="M 926.00 362.85 L 993.00 363.11 L 1060.00 367.20 L 1127.00 363.19 L 1194.00 367.82 L 1261.00 367.92 L 1328.00 307.21" class="lineA"/>
<circle cx="926.00" cy="362.85" r="3.2" class="ptA"/>
<circle cx="993.00" cy="363.11" r="3.2" class="ptA"/>
<circle cx="1060.00" cy="367.20" r="3.2" class="ptA"/>
<circle cx="1127.00" cy="363.19" r="3.2" class="ptA"/>
<circle cx="1194.00" cy="367.82" r="3.2" class="ptA"/>
<circle cx="1261.00" cy="367.92" r="3.2" class="ptA"/>
<circle cx="1328.00" cy="307.21" r="3.2" class="ptA"/>
<path d="M 926.00 367.99 L 993.00 367.93 L 1060.00 365.22 L 1127.00 367.89 L 1194.00 366.10 L 1261.00 366.11 L 1328.00 88.08" class="lineB"/>
<circle cx="926.00" cy="367.99" r="3.2" class="ptB"/>
<circle cx="993.00" cy="367.93" r="3.2" class="ptB"/>
<circle cx="1060.00" cy="365.22" r="3.2" class="ptB"/>
<circle cx="1127.00" cy="367.89" r="3.2" class="ptB"/>
<circle cx="1194.00" cy="366.10" r="3.2" class="ptB"/>
<circle cx="1261.00" cy="366.11" r="3.2" class="ptB"/>
<circle cx="1328.00" cy="88.08" r="3.2" class="ptB"/>
<line x1="926.00" y1="396.00" x2="926.00" y2="400.00" class="axis"/>
<text x="926.00" y="414.00" text-anchor="middle" class="tick">50</text>
<line x1="993.00" y1="396.00" x2="993.00" y2="400.00" class="axis"/>
<text x="993.00" y="414.00" text-anchor="middle" class="tick">100</text>
<line x1="1060.00" y1="396.00" x2="1060.00" y2="400.00" class="axis"/>
<text x="1060.00" y="414.00" text-anchor="middle" class="tick">150</text>
<line x1="1127.00" y1="396.00" x2="1127.00" y2="400.00" class="axis"/>
<text x="1127.00" y="414.00" text-anchor="middle" class="tick">200</text>
<line x1="1194.00" y1="396.00" x2="1194.00" y2="400.00" class="axis"/>
<text x="1194.00" y="414.00" text-anchor="middle" class="tick">300</text>
<line x1="1261.00" y1="396.00" x2="1261.00" y2="400.00" class="axis"/>
<text x="1261.00" y="414.00" text-anchor="middle" class="tick">500</text>
<line x1="1328.00" y1="396.00" x2="1328.00" y2="400.00" class="axis"/>
<text x="1328.00" y="414.00" text-anchor="middle" class="tick">global</text>
<text x="24" y="228.00" transform="rotate(-90 24 228.00)" text-anchor="middle" class="lbl">First-stage F</text>
<text x="680.00" y="444.00" text-anchor="middle" class="lbl">Bandwidth</text>
</svg>